<svg width="295" height="411" viewBox="0 0 295 411" fill="none" xmlns="http://www.w3.org/2000/svg">
<path d="M289.558 156.602C304.408 211.204 288.644 266.491 245.008 303.045C201.144 339.37 129.407 356.961 87.5986 327.947C45.7903 298.933 34.1388 223.084 55.3857 159.572C76.404 96.0596 130.549 44.656 180.125 46.0268C229.701 47.626 274.936 101.771 289.558 156.602Z" fill="#EAEAEA30"/>
<path d="M40.0553 90.0864C39.819 98.0085 46.3868 104.14 49.7002 106.216L58.3774 98.2008C58.6728 88.2981 55.2609 89.5235 50.2908 86.4102C49.252 83.5178 46.4919 77.978 43.7625 78.9583C42.6252 79.3668 40.2916 82.1643 40.0553 90.0864Z" fill="#D8B696"/>
<g filter="url(#filter0_d)">
<rect x="32" y="10" width="30" height="30" rx="4" fill="#67B26F"/>
</g>
<path d="M43.25 28.9375L38.25 25L43.25 21.0625" stroke="white" stroke-width="1.5" stroke-linecap="round" stroke-linejoin="round"/>
<path d="M50.75 28.9375L55.75 25L50.75 21.0625" stroke="white" stroke-width="1.5" stroke-linecap="round" stroke-linejoin="round"/>
<path d="M48.875 19.375L45.125 30.625" stroke="white" stroke-width="1.5" stroke-linecap="round" stroke-linejoin="round"/>
<g filter="url(#filter1_d)">
<rect x="12" y="46" width="30" height="30" rx="4" fill="#F98686"/>
</g>
<g filter="url(#filter2_d)">
<rect x="49" y="46" width="30" height="30" rx="4" fill="#4CA2CD"/>
</g>
<path d="M63.3752 63.8468C63.3295 63.8469 63.2841 63.8398 63.2406 63.8257C63.1625 63.8004 63.0931 63.7537 63.0403 63.6908C62.9875 63.628 62.9534 63.5515 62.942 63.4702C62.8832 63.0601 62.3965 62.5827 61.9407 62.49C61.8654 62.4744 61.7956 62.4393 61.7382 62.3881C61.6808 62.337 61.6379 62.2716 61.6138 62.1986C61.5897 62.1257 61.5853 62.0476 61.601 61.9724C61.6166 61.8971 61.6519 61.8273 61.7031 61.77L67.4751 55.3415C67.4803 55.3355 67.4857 55.3297 67.4912 55.3243C67.7812 55.0351 68.174 54.8727 68.5835 54.8727C68.993 54.8727 69.3857 55.0351 69.6757 55.3243C69.9647 55.6135 70.1274 56.0055 70.1279 56.4144C70.1285 56.8233 69.9669 57.2157 69.6787 57.5057L63.6904 63.7128C63.6496 63.7552 63.6006 63.7889 63.5464 63.8119C63.4923 63.8349 63.434 63.8468 63.3752 63.8468Z" fill="#ffffff"/>
<path d="M60.2782 67.128C59.3994 67.128 58.4886 66.6662 57.9581 65.9522C57.9098 65.8871 57.8804 65.8099 57.8735 65.7291C57.8665 65.6483 57.8821 65.5672 57.9185 65.4947C57.955 65.4223 58.0108 65.3614 58.0798 65.3189C58.1489 65.2764 58.2284 65.2538 58.3095 65.2539C58.4555 65.2539 58.8563 65.1207 58.8563 64.6914C58.8563 63.6231 59.7149 62.7538 60.7704 62.7538C61.8259 62.7538 62.6845 63.6231 62.6845 64.6914C62.6845 66.0345 61.6049 67.128 60.2782 67.128Z" fill="white"/>
<path d="M31.2007 55.3525C31.1422 55.3527 31.0848 55.3371 31.0344 55.3075C29.6476 54.565 28.4485 54.25 27.011 54.25C25.5807 54.25 24.2225 54.6025 22.9872 55.3075C22.8125 55.4063 22.5972 55.3375 22.496 55.1563C22.4508 55.0688 22.4406 54.9674 22.4675 54.8726C22.4943 54.7779 22.5563 54.697 22.6407 54.6463C23.973 53.8906 25.4793 53.4955 27.011 53.5C28.5494 53.5 29.8932 53.8525 31.3669 54.64C31.4529 54.6873 31.5169 54.7664 31.5453 54.8603C31.5736 54.9543 31.564 55.0556 31.5185 55.1425C31.4911 55.2042 31.4467 55.2568 31.3903 55.294C31.334 55.3313 31.2682 55.3515 31.2007 55.3525ZM20.8635 59.29C20.7884 59.2895 20.7153 59.2659 20.6541 59.2225C20.5744 59.1633 20.5209 59.0755 20.5047 58.9776C20.4884 58.8796 20.5109 58.7792 20.5672 58.6975C21.2825 57.6475 22.1922 56.8225 23.2763 56.245C25.5444 55.0313 28.4485 55.0225 30.7238 56.2375C31.8076 56.815 32.7176 57.6325 33.4329 58.675C33.489 58.7568 33.5113 58.8571 33.4951 58.955C33.4789 59.0529 33.4255 59.1407 33.346 59.2C33.3074 59.2288 33.2634 59.2494 33.2165 59.2605C33.1697 59.2716 33.1211 59.273 33.0737 59.2646C33.0263 59.2561 32.9811 59.2381 32.941 59.2115C32.9009 59.1849 32.8666 59.1504 32.8404 59.11C32.1904 58.165 31.3669 57.4225 30.3916 56.905C28.3185 55.8025 25.6672 55.8025 23.6013 56.9125C22.6188 57.4375 21.7954 58.1875 21.1454 59.1313C21.1173 59.1809 21.0762 59.222 21.0266 59.2499C20.9769 59.2779 20.9205 59.2918 20.8635 59.29ZM25.3782 68.3438C25.3304 68.3442 25.2832 68.3344 25.2395 68.315C25.1959 68.2956 25.157 68.267 25.1254 68.2313C24.4969 67.5775 24.1563 67.1563 23.6735 66.25C23.1735 65.3275 22.915 64.2025 22.915 62.995C22.915 60.7675 24.7497 58.9525 27.0038 58.9525C29.2579 58.9525 31.0938 60.7675 31.0938 62.995C31.0952 63.0433 31.0869 63.0914 31.0694 63.1365C31.0519 63.1815 31.0256 63.2226 30.9919 63.2573C30.9582 63.292 30.9179 63.3195 30.8734 63.3384C30.8289 63.3572 30.781 63.3669 30.7327 63.3669C30.6844 63.3669 30.6365 63.3572 30.592 63.3384C30.5475 63.3195 30.5072 63.292 30.4735 63.2573C30.4399 63.2226 30.4135 63.1815 30.396 63.1365C30.3785 63.0914 30.3702 63.0433 30.3716 62.995C30.3716 61.18 28.8616 59.7025 27.0054 59.7025C25.1491 59.7025 23.6375 61.18 23.6375 62.995C23.6375 64.075 23.8685 65.0725 24.3091 65.8825C24.7716 66.745 25.0904 67.1125 25.6457 67.6975C25.7115 67.7703 25.748 67.865 25.748 67.9631C25.748 68.0613 25.7115 68.156 25.6457 68.2288C25.5748 68.3003 25.4789 68.3415 25.3782 68.3438ZM30.5579 66.9563C29.6982 66.9563 28.9397 66.7313 28.3185 66.2888C27.7892 65.9178 27.3568 65.425 27.0577 64.8521C26.7586 64.2791 26.6015 63.6426 26.5997 62.9963C26.5977 62.9476 26.6056 62.8989 26.6228 62.8533C26.64 62.8078 26.6663 62.7661 26.7001 62.7309C26.7338 62.6958 26.7743 62.6678 26.8192 62.6486C26.864 62.6295 26.9122 62.6197 26.961 62.6197C27.0097 62.6197 27.058 62.6295 27.1028 62.6486C27.1477 62.6678 27.1882 62.6958 27.2219 62.7309C27.2557 62.7661 27.2819 62.8078 27.2992 62.8533C27.3164 62.8989 27.3243 62.9476 27.3222 62.9963C27.3235 63.5213 27.4515 64.0382 27.6955 64.5031C27.9394 64.968 28.2921 65.367 28.7235 65.6663C29.2363 66.0263 29.836 66.1975 30.5585 66.1975C30.8101 66.193 31.061 66.168 31.3085 66.1225C31.5035 66.085 31.6913 66.22 31.7272 66.43C31.7456 66.5269 31.7247 66.6271 31.6692 66.7087C31.6137 66.7902 31.5282 66.8465 31.4313 66.865C31.1436 66.9219 30.8512 66.952 30.5579 66.955V66.9563ZM29.1057 68.5C29.0739 68.4987 29.0425 68.4937 29.0119 68.485C27.8632 68.155 27.1119 67.7125 26.3244 66.91C25.3129 65.8675 24.7569 64.48 24.7569 62.995C24.7569 61.78 25.7538 60.79 26.9816 60.79C28.2094 60.79 29.2066 61.78 29.2066 62.995C29.2066 63.7975 29.8785 64.45 30.7091 64.45C31.5397 64.45 32.2116 63.7975 32.2116 62.995C32.2116 60.1675 29.8638 57.8725 26.9744 57.8725C24.9229 57.8725 23.0447 59.0575 22.1997 60.895C21.9185 61.5025 21.7735 62.215 21.7735 62.995C21.7735 63.58 21.8238 64.5025 22.2572 65.7025C22.3297 65.8975 22.2357 66.115 22.0479 66.1825C22.0032 66.1995 21.9556 66.2073 21.9079 66.2054C21.8602 66.2036 21.8133 66.1921 21.7701 66.1716C21.727 66.1512 21.6884 66.1223 21.6567 66.0865C21.625 66.0508 21.6008 66.0091 21.5857 65.9638C21.2371 65.0128 21.0586 64.0079 21.0582 62.995C21.0582 62.095 21.2244 61.2763 21.5494 60.565C22.5104 58.4713 24.6413 57.115 26.9744 57.115C30.2613 57.115 32.9341 59.7475 32.9341 62.9875C32.9341 64.2025 31.9372 65.1925 30.7091 65.1925C29.481 65.1925 28.4841 64.2025 28.4841 62.9875C28.4844 62.185 27.8126 61.5313 26.9819 61.5313C26.1513 61.5313 25.4794 62.1838 25.4794 62.9863C25.4794 64.2675 25.9563 65.4688 26.8304 66.3688C27.5179 67.0738 28.1741 67.4625 29.1926 67.7563C29.3876 67.8088 29.496 68.0188 29.4454 68.2138C29.4296 68.2929 29.3874 68.3644 29.3257 68.4164C29.2639 68.4684 29.1864 68.4979 29.1057 68.5Z" fill="white"/>
<path d="M136.702 367.447L135.828 357.729L151.932 347L153.634 365.924L136.702 367.447Z" fill="#CEA47D"/>
<path d="M200.127 366.989L196.467 357.945L208.759 343L215.886 360.613L200.127 366.989Z" fill="#CEA47D"/>
<path fill-rule="evenodd" clip-rule="evenodd" d="M154.064 362.844C155.563 365.674 156.431 367.826 156.669 369.3C156.957 371.093 157.104 373.747 157.109 377.261C155.2 377.521 138.04 379.856 105.63 384.267C103.517 379.632 103.871 376.926 106.691 376.149C109.512 375.373 111.85 374.7 113.707 374.131L135.764 359.255C136.188 358.969 136.764 359.121 137.05 359.595C137.055 359.603 137.06 359.611 137.065 359.619L139.257 363.474C142.143 364.467 144.42 364.85 146.088 364.623C147.444 364.438 149.219 363.587 151.416 362.07L151.416 362.07C152.259 361.487 153.413 361.778 153.993 362.719C154.018 362.76 154.042 362.801 154.064 362.844Z" fill="#B58456"/>
<path d="M125.747 356.282C112.264 352.061 117.32 249.002 121.533 198H155.241V356.282C151.027 358.04 139.23 360.502 125.747 356.282Z" fill="#2C5364"/>
<path d="M185.875 359.198C171.967 358.964 157.498 258.038 152.002 207.603L184.787 198L214.562 350.795C210.794 353.693 199.783 359.431 185.875 359.198Z" fill="#2C5364"/>
<rect x="139.945" y="236.241" width="15.2964" height="114.723" rx="7.64819" fill="black" fill-opacity="0.07"/>
<path d="M183.722 222.068C189.683 219.409 191.881 212.344 192.235 209.144L183.186 205.575C175.735 208.898 177.864 210.991 177.333 215.791C175.559 217.597 172.437 221.626 174.141 223.3C174.851 223.997 177.761 224.727 183.722 222.068Z" fill="#D8B696"/>
<path d="M106.95 143.212C146.955 147.432 136.097 138.654 158.232 131.286C151.711 119.819 134.799 99.7604 119.323 111.271C94.7376 116.181 76.1822 98.8785 66.3999 91.1797L39.6671 102.642C50.1594 116.685 74.9453 139.837 106.95 143.212Z" fill="#83C2E2"/>
<path d="M118.5 129.5C114.518 110.025 143.366 87.6891 154.647 91.5435H169.579C178.539 94.7893 197.253 105.906 200.439 124.407C203.624 142.908 192.475 186.482 186.502 205.957L120.304 209L118.5 129.5Z" fill="#92CAE6"/>
<path d="M208.507 144.081C200.072 104.748 195.108 117.798 181.22 99.0532C172.35 108.818 158.548 131.13 174.302 142.258C186.616 164.096 175.944 187.113 171.67 198.805L190.879 220.646C200.961 206.306 215.254 175.548 208.507 144.081Z" fill="#92CAE6"/>
<path d="M178 130C182.23 140.167 188.95 165.4 181.988 185" stroke="#83C2E2" stroke-width="3" stroke-linecap="round"/>
<mask id="mask0" mask-type="alpha" maskUnits="userSpaceOnUse" x="114" y="90" width="88" height="98">
<path d="M114.665 118.046C110.665 102.046 143.832 87.8798 155.165 91.0465H170.165C179.165 93.7132 197.965 102.847 201.165 118.046C204.365 133.246 193.165 169.046 187.165 185.046L120.665 187.546L114.665 118.046Z" fill="#92CAE6"/>
</mask>
<g mask="url(#mask0)">
<ellipse cx="160.833" cy="89" rx="9.5" ry="11" fill="#EAEAEA"/>
</g>
<path d="M153.333 91V81.2432L170.333 72V91H153.333Z" fill="#CEA47D"/>
<path d="M148.763 86.2877L162.903 90.7174L150.282 95.3511L148.763 86.2877Z" fill="#F7F7F7"/>
<path d="M173.452 86.1999L159.634 90.7174L171.909 95.2568L173.452 86.1999Z" fill="#F7F7F7"/>
<path d="M128.957 48.7586C128.957 67.9553 141.992 83.5172 158.13 83.5172C171.164 80.4138 182.957 69.8173 182.957 50.6207C182.957 31.424 171.61 14 153.785 14C135.959 14 128.957 29.562 128.957 48.7586Z" fill="#D8B696"/>
<circle cx="144.5" cy="50.5" r="2.5" fill="black"/>
<circle cx="164.5" cy="50.5" r="2.5" fill="black"/>
<path d="M146 66.5C142 63 133.333 57.6667 131 60.5C135 77 144.5 80.5 158 83.5C165.321 85.127 180 72 181.5 60.5C182.749 50.9245 179.5 59 173.5 60C165.5 58 152.079 71.8192 146 66.5Z" fill="black" fill-opacity="0.04"/>
<path d="M153.871 53C149.871 61.8 153.204 62.6667 155.371 62" stroke="#CEA47D"/>
<path d="M155 71.2893C165.147 74.5 165.824 65.5419 165.147 64.8756L155 71.2893Z" fill="black"/>
<path d="M141 42.9758L147.519 42.8953" stroke="black" stroke-opacity="0.47" stroke-width="2" stroke-linecap="round"/>
<path d="M168.517 42.9957L162 42.8442" stroke="black" stroke-opacity="0.47" stroke-width="2" stroke-linecap="round"/>
<path d="M129.457 45.5C135.957 24.5 136.457 28 150.457 26C152.457 37 163.457 23 170.957 26C177.604 28.6588 179.457 39.5 181.457 45.5C181.457 45.5 184.957 42 186.957 32.5C188.957 23 179.357 8.59999 170.957 6.99999C162.557 5.39999 134.957 5.40001 129.457 23C123.957 40.6 129.457 45.5 129.457 45.5Z" fill="black"/>
<path d="M190.457 26C194.765 23.8459 181.624 16.5 176.457 17.5L174.957 25C177.624 23.3333 185.457 28.5 190.457 26Z" fill="black"/>
<path d="M126.457 18C122.057 20.8 131.624 21.1667 136.957 21C147.791 22.6667 169.557 24.4 169.957 18C170.357 11.6 151.124 6.66667 141.457 5C148.124 9.33333 159.357 18 150.957 18C140.457 18 131.957 14.5 126.457 18Z" fill="black"/>
<path d="M189.165 224.154C185.368 221.244 175.725 212.637 170.979 209C170.979 209 164.918 224.154 174.011 227.185C183.104 230.215 192.961 227.063 189.165 224.154Z" fill="#325E71"/>
<path fill-rule="evenodd" clip-rule="evenodd" d="M216.778 359.783C218.709 362.339 219.91 364.325 220.379 365.742C220.949 367.466 221.517 370.063 222.083 373.531C220.239 374.092 203.671 379.133 172.379 388.655C169.554 384.415 169.472 381.688 172.132 380.472C174.793 379.255 176.994 378.219 178.736 377.361L198.14 359.159C198.513 358.808 199.106 358.867 199.464 359.288C199.47 359.296 199.476 359.303 199.482 359.31L202.26 362.766C205.268 363.287 207.577 363.302 209.188 362.811C210.497 362.413 212.114 361.29 214.04 359.442L214.04 359.442C214.779 358.732 215.965 358.836 216.688 359.672C216.72 359.708 216.75 359.745 216.778 359.783Z" fill="#B58456"/>
<defs>
<filter id="filter0_d" x="20" y="0" width="54" height="54" filterUnits="userSpaceOnUse" color-interpolation-filters="sRGB">
<feFlood flood-opacity="0" result="BackgroundImageFix"/>
<feColorMatrix in="SourceAlpha" type="matrix" values="0 0 0 0 0 0 0 0 0 0 0 0 0 0 0 0 0 0 127 0"/>
<feOffset dy="2"/>
<feGaussianBlur stdDeviation="6"/>
<feColorMatrix type="matrix" values="0 0 0 0 0.403921 0 0 0 0 0.698039 0 0 0 0 0.435294 0 0 0 0.54 0"/>
<feBlend mode="normal" in2="BackgroundImageFix" result="effect1_dropShadow"/>
<feBlend mode="normal" in="SourceGraphic" in2="effect1_dropShadow" result="shape"/>
</filter>
<filter id="filter1_d" x="0" y="36" width="54" height="54" filterUnits="userSpaceOnUse" color-interpolation-filters="sRGB">
<feFlood flood-opacity="0" result="BackgroundImageFix"/>
<feColorMatrix in="SourceAlpha" type="matrix" values="0 0 0 0 0 0 0 0 0 0 0 0 0 0 0 0 0 0 127 0"/>
<feOffset dy="2"/>
<feGaussianBlur stdDeviation="6"/>
<feColorMatrix type="matrix" values="0 0 0 0 0.975 0 0 0 0 0.525 0 0 0 0 0.525 0 0 0 0.54 0"/>
<feBlend mode="normal" in2="BackgroundImageFix" result="effect1_dropShadow"/>
<feBlend mode="normal" in="SourceGraphic" in2="effect1_dropShadow" result="shape"/>
</filter>
<filter id="filter2_d" x="37" y="36" width="54" height="54" filterUnits="userSpaceOnUse" color-interpolation-filters="sRGB">
<feFlood flood-opacity="0" result="BackgroundImageFix"/>
<feColorMatrix in="SourceAlpha" type="matrix" values="0 0 0 0 0 0 0 0 0 0 0 0 0 0 0 0 0 0 127 0"/>
<feOffset dy="2"/>
<feGaussianBlur stdDeviation="6"/>
<feColorMatrix type="matrix" values="0 0 0 0 0.298039 0 0 0 0 0.635294 0 0 0 0 0.803922 0 0 0 0.54 0"/>
<feBlend mode="normal" in2="BackgroundImageFix" result="effect1_dropShadow"/>
<feBlend mode="normal" in="SourceGraphic" in2="effect1_dropShadow" result="shape"/>
</filter>
</defs>
</svg>
