<svg width="43" height="51" viewBox="0 0 43 51" fill="none" xmlns="http://www.w3.org/2000/svg">
<path d="M2.62338 28.2148C2.7657 40.3898 11.1478 50.1629 21.3829 50.0433C29.6267 47.9784 37.0276 41.1704 36.8853 28.9955C36.7429 16.8205 29.4173 5.8539 18.1119 5.98605C6.80661 6.1182 2.48107 16.0399 2.62338 28.2148Z" fill="#D8B696"/>
<path d="M13.4394 23.1411C12.1596 22.463 11.1979 21.8444 9.00016 23.2141" stroke="#72604F" stroke-linecap="round" stroke-linejoin="round"/>
<path d="M27.4536 23.0669C26.1738 22.3888 25.2121 21.7702 23.0143 23.1399" stroke="#72604F" stroke-linecap="round" stroke-linejoin="round"/>
<path d="M13.5634 39.3407C11.0005 37.1506 5.46439 33.8323 4.00554 35.6466C6.66476 46.0816 12.7158 48.2309 21.3001 50.0335C25.9556 51.0111 35.1677 42.5769 36.0338 35.2722C36.755 29.1899 34.7543 34.3357 30.9563 35.0144C25.8677 33.8052 17.4583 42.6692 13.5634 39.3407Z" fill="black" fill-opacity="0.04"/>
<path d="M18.4551 30.7203C15.9835 36.3311 18.104 36.856 19.4732 36.4172" stroke="#CEA47D" stroke-width="0.634267"/>
<path d="M2.91582 26.1445C6.88262 12.7777 7.22567 14.9937 16.09 13.6215C17.44 20.5831 24.3126 11.6224 29.0916 13.4695C33.3269 15.1065 34.5825 21.9685 35.8954 25.759C35.8954 25.759 38.0894 23.5133 39.2874 17.4733C40.4853 11.4334 34.29 2.37175 28.9507 1.41926C23.6114 0.466778 6.1068 0.671405 2.74901 11.8745C-0.608777 23.0776 2.91582 26.1445 2.91582 26.1445Z" fill="black"/>
<path d="M41.4591 13.325C44.1755 11.9269 35.7864 7.36533 32.517 8.03786L31.6212 12.8056C33.3001 11.7288 38.3065 14.9476 41.4591 13.325Z" fill="black"/>
<path d="M0.809678 8.72558C-1.96015 10.534 4.10998 10.6957 7.49127 10.5504C14.3744 11.5271 28.1922 12.4651 28.3984 8.40309C28.6046 4.34109 16.3698 1.35485 10.2267 0.369472C14.4869 3.06835 21.6756 8.48167 16.3482 8.54395C9.6888 8.62179 4.27196 6.46502 0.809678 8.72558Z" fill="black"/>
<path d="M19.9462 42.7546C21.7457 42.945 25.3991 42.564 25.6172 39.5168" stroke="black" stroke-width="0.634267" stroke-linecap="round" stroke-linejoin="round"/>
<circle cx="11.5" cy="27.5" r="1.5" fill="black"/>
<circle cx="25.5" cy="27.5" r="1.5" fill="black"/>
</svg>
