<svg width="1440" height="1024" viewBox="0 0 1440 1024" fill="none" xmlns="http://www.w3.org/2000/svg">
<g clip-path="url(#clip0)">
<rect width="1440" height="1024" fill="#FFFDFE"/>
<rect x="-204" y="824.818" width="1790.53" height="385.833" transform="rotate(-41.9019 -204 824.818)" fill="url(#paint0_linear)" fill-opacity="0.75"/>
<g filter="url(#filter0_d)">
<rect x="543" y="346" width="355" height="332" rx="15" fill="white"/>
</g>
<g opacity="0.9">
<path d="M686 380.947L720.401 359L754.802 380.947V419.177L720.401 439L686 419.177V380.947Z" fill="url(#paint1_linear)"/>
<path d="M740.469 419.177H700.334L720.401 439L740.469 419.177Z" fill="white" fill-opacity="0.2"/>
<path d="M700.334 419.177L720.401 380.947H686L700.334 419.177Z" fill="white" fill-opacity="0.2"/>
<path d="M740.469 419.177L720.401 380.947H754.802L740.469 419.177Z" fill="white" fill-opacity="0.2"/>
<path d="M700.334 419.177L720.401 380.947L740.469 419.177H700.334Z" fill="white" fill-opacity="0.4"/>
<path d="M700.334 419.177L686 381.301V419.177H700.334Z" fill="white" fill-opacity="0.05"/>
<path d="M740.469 419.177H754.802V381.301L740.469 419.177Z" fill="white" fill-opacity="0.05"/>
<path d="M720.401 439L700.334 419.177H686L720.401 439Z" fill="white" fill-opacity="0.05"/>
<path d="M720.401 439L700.334 419.177H686L720.401 439Z" fill="white" fill-opacity="0.05"/>
<path d="M720.401 439L740.469 419.177H754.802L720.401 439Z" fill="white" fill-opacity="0.05"/>
<path d="M720.401 439L740.469 419.177H754.802L720.401 439Z" fill="white" fill-opacity="0.05"/>
<path d="M720.401 359V380.947H686L720.401 359Z" fill="white" fill-opacity="0.1"/>
<path d="M720.401 359V380.947H754.802L720.401 359Z" fill="white" fill-opacity="0.05"/>
</g>
<path d="M623.144 468.325H613.394L611.294 473H609.369L617.369 455.5H619.194L627.194 473H625.244L623.144 468.325ZM622.469 466.825L618.269 457.425L614.069 466.825H622.469ZM641.592 454.45V473H639.892V470.4C639.358 471.283 638.65 471.958 637.767 472.425C636.9 472.892 635.917 473.125 634.817 473.125C633.583 473.125 632.467 472.842 631.467 472.275C630.467 471.708 629.683 470.917 629.117 469.9C628.55 468.883 628.267 467.725 628.267 466.425C628.267 465.125 628.55 463.967 629.117 462.95C629.683 461.933 630.467 461.15 631.467 460.6C632.467 460.033 633.583 459.75 634.817 459.75C635.883 459.75 636.842 459.975 637.692 460.425C638.558 460.858 639.267 461.5 639.817 462.35V454.45H641.592ZM634.967 471.55C635.883 471.55 636.708 471.342 637.442 470.925C638.192 470.492 638.775 469.883 639.192 469.1C639.625 468.317 639.842 467.425 639.842 466.425C639.842 465.425 639.625 464.533 639.192 463.75C638.775 462.967 638.192 462.367 637.442 461.95C636.708 461.517 635.883 461.3 634.967 461.3C634.033 461.3 633.192 461.517 632.442 461.95C631.708 462.367 631.125 462.967 630.692 463.75C630.275 464.533 630.067 465.425 630.067 466.425C630.067 467.425 630.275 468.317 630.692 469.1C631.125 469.883 631.708 470.492 632.442 470.925C633.192 471.342 634.033 471.55 634.967 471.55ZM657.585 459.85L651.735 473H649.91L644.085 459.85H645.935L650.86 471.05L655.835 459.85H657.585ZM671.169 466.975H660.169C660.269 468.342 660.794 469.45 661.744 470.3C662.694 471.133 663.894 471.55 665.344 471.55C666.16 471.55 666.91 471.408 667.594 471.125C668.277 470.825 668.869 470.392 669.369 469.825L670.369 470.975C669.785 471.675 669.052 472.208 668.169 472.575C667.302 472.942 666.344 473.125 665.294 473.125C663.944 473.125 662.744 472.842 661.694 472.275C660.66 471.692 659.852 470.892 659.269 469.875C658.685 468.858 658.394 467.708 658.394 466.425C658.394 465.142 658.669 463.992 659.219 462.975C659.785 461.958 660.552 461.167 661.519 460.6C662.502 460.033 663.602 459.75 664.819 459.75C666.035 459.75 667.127 460.033 668.094 460.6C669.06 461.167 669.819 461.958 670.369 462.975C670.919 463.975 671.194 465.125 671.194 466.425L671.169 466.975ZM664.819 461.275C663.552 461.275 662.485 461.683 661.619 462.5C660.769 463.3 660.285 464.35 660.169 465.65H669.494C669.377 464.35 668.885 463.3 668.019 462.5C667.169 461.683 666.102 461.275 664.819 461.275ZM681.507 459.75C683.157 459.75 684.465 460.233 685.432 461.2C686.415 462.15 686.907 463.542 686.907 465.375V473H685.132V465.55C685.132 464.183 684.79 463.142 684.107 462.425C683.423 461.708 682.448 461.35 681.182 461.35C679.765 461.35 678.64 461.775 677.807 462.625C676.99 463.458 676.582 464.617 676.582 466.1V473H674.807V459.85H676.507V462.275C676.99 461.475 677.657 460.858 678.507 460.425C679.373 459.975 680.373 459.75 681.507 459.75ZM698.65 472.2C698.317 472.5 697.9 472.733 697.4 472.9C696.917 473.05 696.409 473.125 695.875 473.125C694.642 473.125 693.692 472.792 693.025 472.125C692.359 471.458 692.025 470.517 692.025 469.3V461.35H689.675V459.85H692.025V456.975H693.8V459.85H697.8V461.35H693.8V469.2C693.8 469.983 693.992 470.583 694.375 471C694.775 471.4 695.342 471.6 696.075 471.6C696.442 471.6 696.792 471.542 697.125 471.425C697.475 471.308 697.775 471.142 698.025 470.925L698.65 472.2ZM713.732 459.85V473H712.032V470.6C711.565 471.4 710.923 472.025 710.107 472.475C709.29 472.908 708.357 473.125 707.307 473.125C705.59 473.125 704.232 472.65 703.232 471.7C702.248 470.733 701.757 469.325 701.757 467.475V459.85H703.532V467.3C703.532 468.683 703.873 469.733 704.557 470.45C705.24 471.167 706.215 471.525 707.482 471.525C708.865 471.525 709.957 471.108 710.757 470.275C711.557 469.425 711.957 468.25 711.957 466.75V459.85H713.732ZM720.403 462.425C720.82 461.542 721.436 460.875 722.253 460.425C723.086 459.975 724.111 459.75 725.328 459.75V461.475L724.903 461.45C723.52 461.45 722.436 461.875 721.653 462.725C720.87 463.575 720.478 464.767 720.478 466.3V473H718.703V459.85H720.403V462.425ZM739.87 466.975H728.87C728.97 468.342 729.495 469.45 730.445 470.3C731.395 471.133 732.595 471.55 734.045 471.55C734.861 471.55 735.611 471.408 736.295 471.125C736.978 470.825 737.57 470.392 738.07 469.825L739.07 470.975C738.486 471.675 737.753 472.208 736.87 472.575C736.003 472.942 735.045 473.125 733.995 473.125C732.645 473.125 731.445 472.842 730.395 472.275C729.361 471.692 728.553 470.892 727.97 469.875C727.386 468.858 727.095 467.708 727.095 466.425C727.095 465.142 727.37 463.992 727.92 462.975C728.486 461.958 729.253 461.167 730.22 460.6C731.203 460.033 732.303 459.75 733.52 459.75C734.736 459.75 735.828 460.033 736.795 460.6C737.761 461.167 738.52 461.958 739.07 462.975C739.62 463.975 739.895 465.125 739.895 466.425L739.87 466.975ZM733.52 461.275C732.253 461.275 731.186 461.683 730.32 462.5C729.47 463.3 728.986 464.35 728.87 465.65H738.195C738.078 464.35 737.586 463.3 736.72 462.5C735.87 461.683 734.803 461.275 733.52 461.275ZM761.451 463.975C762.601 464.225 763.484 464.725 764.101 465.475C764.734 466.208 765.051 467.158 765.051 468.325C765.051 469.825 764.492 470.983 763.376 471.8C762.276 472.6 760.642 473 758.476 473H750.426V455.5H757.976C759.926 455.5 761.434 455.892 762.501 456.675C763.584 457.458 764.126 458.567 764.126 460C764.126 460.967 763.884 461.792 763.401 462.475C762.934 463.142 762.284 463.642 761.451 463.975ZM752.276 457.025V463.375H757.851C759.267 463.375 760.359 463.108 761.126 462.575C761.892 462.025 762.276 461.233 762.276 460.2C762.276 459.167 761.892 458.383 761.126 457.85C760.359 457.3 759.267 457.025 757.851 457.025H752.276ZM758.451 471.475C760.017 471.475 761.201 471.208 762.001 470.675C762.801 470.142 763.201 469.308 763.201 468.175C763.201 465.992 761.617 464.9 758.451 464.9H752.276V471.475H758.451ZM780.748 459.85V473H779.048V470.6C778.582 471.4 777.94 472.025 777.123 472.475C776.307 472.908 775.373 473.125 774.323 473.125C772.607 473.125 771.248 472.65 770.248 471.7C769.265 470.733 768.773 469.325 768.773 467.475V459.85H770.548V467.3C770.548 468.683 770.89 469.733 771.573 470.45C772.257 471.167 773.232 471.525 774.498 471.525C775.882 471.525 776.973 471.108 777.773 470.275C778.573 469.425 778.973 468.25 778.973 466.75V459.85H780.748ZM797.72 454.45V473H796.02V470.4C795.486 471.283 794.778 471.958 793.895 472.425C793.028 472.892 792.045 473.125 790.945 473.125C789.711 473.125 788.595 472.842 787.595 472.275C786.595 471.708 785.811 470.917 785.245 469.9C784.678 468.883 784.395 467.725 784.395 466.425C784.395 465.125 784.678 463.967 785.245 462.95C785.811 461.933 786.595 461.15 787.595 460.6C788.595 460.033 789.711 459.75 790.945 459.75C792.011 459.75 792.97 459.975 793.82 460.425C794.686 460.858 795.395 461.5 795.945 462.35V454.45H797.72ZM791.095 471.55C792.011 471.55 792.836 471.342 793.57 470.925C794.32 470.492 794.903 469.883 795.32 469.1C795.753 468.317 795.97 467.425 795.97 466.425C795.97 465.425 795.753 464.533 795.32 463.75C794.903 462.967 794.32 462.367 793.57 461.95C792.836 461.517 792.011 461.3 791.095 461.3C790.161 461.3 789.32 461.517 788.57 461.95C787.836 462.367 787.253 462.967 786.82 463.75C786.403 464.533 786.195 465.425 786.195 466.425C786.195 467.425 786.403 468.317 786.82 469.1C787.253 469.883 787.836 470.492 788.57 470.925C789.32 471.342 790.161 471.55 791.095 471.55ZM814.663 454.45V473H812.963V470.4C812.43 471.283 811.721 471.958 810.838 472.425C809.971 472.892 808.988 473.125 807.888 473.125C806.655 473.125 805.538 472.842 804.538 472.275C803.538 471.708 802.755 470.917 802.188 469.9C801.621 468.883 801.338 467.725 801.338 466.425C801.338 465.125 801.621 463.967 802.188 462.95C802.755 461.933 803.538 461.15 804.538 460.6C805.538 460.033 806.655 459.75 807.888 459.75C808.955 459.75 809.913 459.975 810.763 460.425C811.63 460.858 812.338 461.5 812.888 462.35V454.45H814.663ZM808.038 471.55C808.955 471.55 809.78 471.342 810.513 470.925C811.263 470.492 811.846 469.883 812.263 469.1C812.696 468.317 812.913 467.425 812.913 466.425C812.913 465.425 812.696 464.533 812.263 463.75C811.846 462.967 811.263 462.367 810.513 461.95C809.78 461.517 808.955 461.3 808.038 461.3C807.105 461.3 806.263 461.517 805.513 461.95C804.78 462.367 804.196 462.967 803.763 463.75C803.346 464.533 803.138 465.425 803.138 466.425C803.138 467.425 803.346 468.317 803.763 469.1C804.196 469.883 804.78 470.492 805.513 470.925C806.263 471.342 807.105 471.55 808.038 471.55ZM830.656 459.85L824.081 474.575C823.548 475.808 822.931 476.683 822.231 477.2C821.531 477.717 820.69 477.975 819.706 477.975C819.073 477.975 818.481 477.875 817.931 477.675C817.381 477.475 816.906 477.175 816.506 476.775L817.331 475.45C817.998 476.117 818.798 476.45 819.731 476.45C820.331 476.45 820.84 476.283 821.256 475.95C821.69 475.617 822.09 475.05 822.456 474.25L823.031 472.975L817.156 459.85H819.006L823.956 471.025L828.906 459.85H830.656Z" fill="#F2709C" fill-opacity="0.78"/>
<path d="M630.835 491.58V494H630.105V491.58L627.305 487H628.095L630.495 490.93L632.895 487H633.635L630.835 491.58ZM636.187 494.05C635.68 494.05 635.224 493.937 634.817 493.71C634.41 493.477 634.09 493.157 633.857 492.75C633.624 492.343 633.507 491.883 633.507 491.37C633.507 490.857 633.624 490.397 633.857 489.99C634.09 489.583 634.41 489.267 634.817 489.04C635.224 488.813 635.68 488.7 636.187 488.7C636.694 488.7 637.15 488.813 637.557 489.04C637.964 489.267 638.28 489.583 638.507 489.99C638.74 490.397 638.857 490.857 638.857 491.37C638.857 491.883 638.74 492.343 638.507 492.75C638.28 493.157 637.964 493.477 637.557 493.71C637.15 493.937 636.694 494.05 636.187 494.05ZM636.187 493.42C636.56 493.42 636.894 493.337 637.187 493.17C637.487 492.997 637.72 492.753 637.887 492.44C638.054 492.127 638.137 491.77 638.137 491.37C638.137 490.97 638.054 490.613 637.887 490.3C637.72 489.987 637.487 489.747 637.187 489.58C636.894 489.407 636.56 489.32 636.187 489.32C635.814 489.32 635.477 489.407 635.177 489.58C634.884 489.747 634.65 489.987 634.477 490.3C634.31 490.613 634.227 490.97 634.227 491.37C634.227 491.77 634.31 492.127 634.477 492.44C634.65 492.753 634.884 492.997 635.177 493.17C635.477 493.337 635.814 493.42 636.187 493.42ZM645.046 488.74V494H644.366V493.04C644.18 493.36 643.923 493.61 643.596 493.79C643.27 493.963 642.896 494.05 642.476 494.05C641.79 494.05 641.246 493.86 640.846 493.48C640.453 493.093 640.256 492.53 640.256 491.79V488.74H640.966V491.72C640.966 492.273 641.103 492.693 641.376 492.98C641.65 493.267 642.04 493.41 642.546 493.41C643.1 493.41 643.536 493.243 643.856 492.91C644.176 492.57 644.336 492.1 644.336 491.5V488.74H645.046ZM647.715 489.77C647.882 489.417 648.128 489.15 648.455 488.97C648.788 488.79 649.198 488.7 649.685 488.7V489.39L649.515 489.38C648.962 489.38 648.528 489.55 648.215 489.89C647.902 490.23 647.745 490.707 647.745 491.32V494H647.035V488.74H647.715V489.77ZM655.406 487.13C655.099 487.13 654.866 487.213 654.706 487.38C654.552 487.547 654.476 487.793 654.476 488.12V488.74H656.096V489.34H654.496V494H653.786V489.34H652.846V488.74H653.786V488.09C653.786 487.61 653.922 487.23 654.196 486.95C654.476 486.67 654.869 486.53 655.376 486.53C655.576 486.53 655.769 486.56 655.956 486.62C656.142 486.673 656.299 486.753 656.426 486.86L656.186 487.39C655.979 487.217 655.719 487.13 655.406 487.13ZM658.535 489.77C658.702 489.417 658.949 489.15 659.275 488.97C659.609 488.79 660.019 488.7 660.505 488.7V489.39L660.335 489.38C659.782 489.38 659.349 489.55 659.035 489.89C658.722 490.23 658.565 490.707 658.565 491.32V494H657.855V488.74H658.535V489.77ZM661.791 488.74H662.501V494H661.791V488.74ZM662.151 487.59C662.004 487.59 661.881 487.54 661.781 487.44C661.681 487.34 661.631 487.22 661.631 487.08C661.631 486.947 661.681 486.83 661.781 486.73C661.881 486.63 662.004 486.58 662.151 486.58C662.297 486.58 662.421 486.63 662.521 486.73C662.621 486.823 662.671 486.937 662.671 487.07C662.671 487.217 662.621 487.34 662.521 487.44C662.421 487.54 662.297 487.59 662.151 487.59ZM669.056 491.59H664.656C664.696 492.137 664.906 492.58 665.286 492.92C665.666 493.253 666.146 493.42 666.726 493.42C667.053 493.42 667.353 493.363 667.626 493.25C667.9 493.13 668.136 492.957 668.336 492.73L668.736 493.19C668.503 493.47 668.21 493.683 667.856 493.83C667.51 493.977 667.126 494.05 666.706 494.05C666.166 494.05 665.686 493.937 665.266 493.71C664.853 493.477 664.53 493.157 664.296 492.75C664.063 492.343 663.946 491.883 663.946 491.37C663.946 490.857 664.056 490.397 664.276 489.99C664.503 489.583 664.81 489.267 665.196 489.04C665.59 488.813 666.03 488.7 666.516 488.7C667.003 488.7 667.44 488.813 667.826 489.04C668.213 489.267 668.516 489.583 668.736 489.99C668.956 490.39 669.066 490.85 669.066 491.37L669.056 491.59ZM666.516 489.31C666.01 489.31 665.583 489.473 665.236 489.8C664.896 490.12 664.703 490.54 664.656 491.06H668.386C668.34 490.54 668.143 490.12 667.796 489.8C667.456 489.473 667.03 489.31 666.516 489.31ZM673.191 488.7C673.851 488.7 674.375 488.893 674.761 489.28C675.155 489.66 675.351 490.217 675.351 490.95V494H674.641V491.02C674.641 490.473 674.505 490.057 674.231 489.77C673.958 489.483 673.568 489.34 673.061 489.34C672.495 489.34 672.045 489.51 671.711 489.85C671.385 490.183 671.221 490.647 671.221 491.24V494H670.511V488.74H671.191V489.71C671.385 489.39 671.651 489.143 671.991 488.97C672.338 488.79 672.738 488.7 673.191 488.7ZM682.099 486.58V494H681.419V492.96C681.205 493.313 680.922 493.583 680.569 493.77C680.222 493.957 679.829 494.05 679.389 494.05C678.895 494.05 678.449 493.937 678.049 493.71C677.649 493.483 677.335 493.167 677.109 492.76C676.882 492.353 676.769 491.89 676.769 491.37C676.769 490.85 676.882 490.387 677.109 489.98C677.335 489.573 677.649 489.26 678.049 489.04C678.449 488.813 678.895 488.7 679.389 488.7C679.815 488.7 680.199 488.79 680.539 488.97C680.885 489.143 681.169 489.4 681.389 489.74V486.58H682.099ZM679.449 493.42C679.815 493.42 680.145 493.337 680.439 493.17C680.739 492.997 680.972 492.753 681.139 492.44C681.312 492.127 681.399 491.77 681.399 491.37C681.399 490.97 681.312 490.613 681.139 490.3C680.972 489.987 680.739 489.747 680.439 489.58C680.145 489.407 679.815 489.32 679.449 489.32C679.075 489.32 678.739 489.407 678.439 489.58C678.145 489.747 677.912 489.987 677.739 490.3C677.572 490.613 677.489 490.97 677.489 491.37C677.489 491.77 677.572 492.127 677.739 492.44C677.912 492.753 678.145 492.997 678.439 493.17C678.739 493.337 679.075 493.42 679.449 493.42ZM689.463 493.68C689.33 493.8 689.163 493.893 688.963 493.96C688.77 494.02 688.566 494.05 688.353 494.05C687.86 494.05 687.48 493.917 687.213 493.65C686.946 493.383 686.813 493.007 686.813 492.52V489.34H685.873V488.74H686.813V487.59H687.523V488.74H689.123V489.34H687.523V492.48C687.523 492.793 687.6 493.033 687.753 493.2C687.913 493.36 688.14 493.44 688.433 493.44C688.58 493.44 688.72 493.417 688.853 493.37C688.993 493.323 689.113 493.257 689.213 493.17L689.463 493.68ZM693.436 488.7C694.096 488.7 694.619 488.893 695.006 489.28C695.399 489.66 695.596 490.217 695.596 490.95V494H694.886V491.02C694.886 490.473 694.749 490.057 694.476 489.77C694.202 489.483 693.812 489.34 693.306 489.34C692.739 489.34 692.289 489.51 691.956 489.85C691.629 490.183 691.466 490.647 691.466 491.24V494H690.756V486.58H691.466V489.66C691.659 489.353 691.926 489.117 692.266 488.95C692.606 488.783 692.996 488.7 693.436 488.7ZM698.203 489.77C698.37 489.417 698.617 489.15 698.943 488.97C699.277 488.79 699.687 488.7 700.173 488.7V489.39L700.003 489.38C699.45 489.38 699.017 489.55 698.703 489.89C698.39 490.23 698.233 490.707 698.233 491.32V494H697.523V488.74H698.203V489.77ZM703.56 494.05C703.053 494.05 702.597 493.937 702.19 493.71C701.783 493.477 701.463 493.157 701.23 492.75C700.997 492.343 700.88 491.883 700.88 491.37C700.88 490.857 700.997 490.397 701.23 489.99C701.463 489.583 701.783 489.267 702.19 489.04C702.597 488.813 703.053 488.7 703.56 488.7C704.067 488.7 704.523 488.813 704.93 489.04C705.337 489.267 705.653 489.583 705.88 489.99C706.113 490.397 706.23 490.857 706.23 491.37C706.23 491.883 706.113 492.343 705.88 492.75C705.653 493.157 705.337 493.477 704.93 493.71C704.523 493.937 704.067 494.05 703.56 494.05ZM703.56 493.42C703.933 493.42 704.267 493.337 704.56 493.17C704.86 492.997 705.093 492.753 705.26 492.44C705.427 492.127 705.51 491.77 705.51 491.37C705.51 490.97 705.427 490.613 705.26 490.3C705.093 489.987 704.86 489.747 704.56 489.58C704.267 489.407 703.933 489.32 703.56 489.32C703.187 489.32 702.85 489.407 702.55 489.58C702.257 489.747 702.023 489.987 701.85 490.3C701.683 490.613 701.6 490.97 701.6 491.37C701.6 491.77 701.683 492.127 701.85 492.44C702.023 492.753 702.257 492.997 702.55 493.17C702.85 493.337 703.187 493.42 703.56 493.42ZM712.419 488.74V494H711.739V493.04C711.553 493.36 711.296 493.61 710.969 493.79C710.643 493.963 710.269 494.05 709.849 494.05C709.163 494.05 708.619 493.86 708.219 493.48C707.826 493.093 707.629 492.53 707.629 491.79V488.74H708.339V491.72C708.339 492.273 708.476 492.693 708.749 492.98C709.023 493.267 709.413 493.41 709.919 493.41C710.473 493.41 710.909 493.243 711.229 492.91C711.549 492.57 711.709 492.1 711.709 491.5V488.74H712.419ZM719.278 488.74V493.36C719.278 494.253 719.058 494.913 718.618 495.34C718.185 495.773 717.528 495.99 716.648 495.99C716.161 495.99 715.698 495.917 715.258 495.77C714.825 495.63 714.471 495.433 714.198 495.18L714.558 494.64C714.811 494.867 715.118 495.043 715.478 495.17C715.845 495.297 716.228 495.36 716.628 495.36C717.295 495.36 717.785 495.203 718.098 494.89C718.411 494.583 718.568 494.103 718.568 493.45V492.78C718.348 493.113 718.058 493.367 717.698 493.54C717.345 493.713 716.951 493.8 716.518 493.8C716.025 493.8 715.575 493.693 715.168 493.48C714.768 493.26 714.451 492.957 714.218 492.57C713.991 492.177 713.878 491.733 713.878 491.24C713.878 490.747 713.991 490.307 714.218 489.92C714.451 489.533 714.768 489.233 715.168 489.02C715.568 488.807 716.018 488.7 716.518 488.7C716.965 488.7 717.368 488.79 717.728 488.97C718.088 489.15 718.378 489.41 718.598 489.75V488.74H719.278ZM716.588 493.17C716.968 493.17 717.311 493.09 717.618 492.93C717.925 492.763 718.161 492.533 718.328 492.24C718.501 491.947 718.588 491.613 718.588 491.24C718.588 490.867 718.501 490.537 718.328 490.25C718.161 489.957 717.925 489.73 717.618 489.57C717.318 489.403 716.975 489.32 716.588 489.32C716.208 489.32 715.865 489.4 715.558 489.56C715.258 489.72 715.021 489.947 714.848 490.24C714.681 490.533 714.598 490.867 714.598 491.24C714.598 491.613 714.681 491.947 714.848 492.24C715.021 492.533 715.258 492.763 715.558 492.93C715.865 493.09 716.208 493.17 716.588 493.17ZM723.943 488.7C724.603 488.7 725.127 488.893 725.513 489.28C725.907 489.66 726.103 490.217 726.103 490.95V494H725.393V491.02C725.393 490.473 725.257 490.057 724.983 489.77C724.71 489.483 724.32 489.34 723.813 489.34C723.247 489.34 722.797 489.51 722.463 489.85C722.137 490.183 721.973 490.647 721.973 491.24V494H721.263V486.58H721.973V489.66C722.167 489.353 722.433 489.117 722.773 488.95C723.113 488.783 723.503 488.7 723.943 488.7ZM733.418 493.68C733.285 493.8 733.118 493.893 732.918 493.96C732.725 494.02 732.522 494.05 732.308 494.05C731.815 494.05 731.435 493.917 731.168 493.65C730.902 493.383 730.768 493.007 730.768 492.52V489.34H729.828V488.74H730.768V487.59H731.478V488.74H733.078V489.34H731.478V492.48C731.478 492.793 731.555 493.033 731.708 493.2C731.868 493.36 732.095 493.44 732.388 493.44C732.535 493.44 732.675 493.417 732.808 493.37C732.948 493.323 733.068 493.257 733.168 493.17L733.418 493.68ZM737.391 488.7C738.051 488.7 738.574 488.893 738.961 489.28C739.354 489.66 739.551 490.217 739.551 490.95V494H738.841V491.02C738.841 490.473 738.704 490.057 738.431 489.77C738.157 489.483 737.767 489.34 737.261 489.34C736.694 489.34 736.244 489.51 735.911 489.85C735.584 490.183 735.421 490.647 735.421 491.24V494H734.711V486.58H735.421V489.66C735.614 489.353 735.881 489.117 736.221 488.95C736.561 488.783 736.951 488.7 737.391 488.7ZM746.078 491.59H741.678C741.718 492.137 741.928 492.58 742.308 492.92C742.688 493.253 743.168 493.42 743.748 493.42C744.074 493.42 744.374 493.363 744.648 493.25C744.921 493.13 745.158 492.957 745.358 492.73L745.758 493.19C745.524 493.47 745.231 493.683 744.878 493.83C744.531 493.977 744.148 494.05 743.728 494.05C743.188 494.05 742.708 493.937 742.288 493.71C741.874 493.477 741.551 493.157 741.318 492.75C741.084 492.343 740.968 491.883 740.968 491.37C740.968 490.857 741.078 490.397 741.298 489.99C741.524 489.583 741.831 489.267 742.218 489.04C742.611 488.813 743.051 488.7 743.538 488.7C744.024 488.7 744.461 488.813 744.848 489.04C745.234 489.267 745.538 489.583 745.758 489.99C745.978 490.39 746.088 490.85 746.088 491.37L746.078 491.59ZM743.538 489.31C743.031 489.31 742.604 489.473 742.258 489.8C741.918 490.12 741.724 490.54 741.678 491.06H745.408C745.361 490.54 745.164 490.12 744.818 489.8C744.478 489.473 744.051 489.31 743.538 489.31ZM757.87 488.74L755.88 494H755.21L753.55 489.69L751.89 494H751.22L749.24 488.74H749.92L751.57 493.21L753.26 488.74H753.87L755.55 493.21L757.22 488.74H757.87ZM760.943 494.05C760.436 494.05 759.979 493.937 759.573 493.71C759.166 493.477 758.846 493.157 758.613 492.75C758.379 492.343 758.263 491.883 758.263 491.37C758.263 490.857 758.379 490.397 758.613 489.99C758.846 489.583 759.166 489.267 759.573 489.04C759.979 488.813 760.436 488.7 760.943 488.7C761.449 488.7 761.906 488.813 762.313 489.04C762.719 489.267 763.036 489.583 763.263 489.99C763.496 490.397 763.613 490.857 763.613 491.37C763.613 491.883 763.496 492.343 763.263 492.75C763.036 493.157 762.719 493.477 762.313 493.71C761.906 493.937 761.449 494.05 760.943 494.05ZM760.943 493.42C761.316 493.42 761.649 493.337 761.943 493.17C762.243 492.997 762.476 492.753 762.643 492.44C762.809 492.127 762.893 491.77 762.893 491.37C762.893 490.97 762.809 490.613 762.643 490.3C762.476 489.987 762.243 489.747 761.943 489.58C761.649 489.407 761.316 489.32 760.943 489.32C760.569 489.32 760.233 489.407 759.933 489.58C759.639 489.747 759.406 489.987 759.233 490.3C759.066 490.613 758.983 490.97 758.983 491.37C758.983 491.77 759.066 492.127 759.233 492.44C759.406 492.753 759.639 492.997 759.933 493.17C760.233 493.337 760.569 493.42 760.943 493.42ZM765.742 489.77C765.909 489.417 766.156 489.15 766.482 488.97C766.816 488.79 767.226 488.7 767.712 488.7V489.39L767.542 489.38C766.989 489.38 766.556 489.55 766.242 489.89C765.929 490.23 765.772 490.707 765.772 491.32V494H765.062V488.74H765.742V489.77ZM768.998 486.58H769.708V494H768.998V486.58ZM776.483 486.58V494H775.803V492.96C775.59 493.313 775.307 493.583 774.953 493.77C774.607 493.957 774.213 494.05 773.773 494.05C773.28 494.05 772.833 493.937 772.433 493.71C772.033 493.483 771.72 493.167 771.493 492.76C771.267 492.353 771.153 491.89 771.153 491.37C771.153 490.85 771.267 490.387 771.493 489.98C771.72 489.573 772.033 489.26 772.433 489.04C772.833 488.813 773.28 488.7 773.773 488.7C774.2 488.7 774.583 488.79 774.923 488.97C775.27 489.143 775.553 489.4 775.773 489.74V486.58H776.483ZM773.833 493.42C774.2 493.42 774.53 493.337 774.823 493.17C775.123 492.997 775.357 492.753 775.523 492.44C775.697 492.127 775.783 491.77 775.783 491.37C775.783 490.97 775.697 490.613 775.523 490.3C775.357 489.987 775.123 489.747 774.823 489.58C774.53 489.407 774.2 489.32 773.833 489.32C773.46 489.32 773.123 489.407 772.823 489.58C772.53 489.747 772.297 489.987 772.123 490.3C771.957 490.613 771.873 490.97 771.873 491.37C771.873 491.77 771.957 492.127 772.123 492.44C772.297 492.753 772.53 492.997 772.823 493.17C773.123 493.337 773.46 493.42 773.833 493.42ZM783.228 494.05C782.721 494.05 782.265 493.937 781.858 493.71C781.451 493.477 781.131 493.157 780.898 492.75C780.665 492.343 780.548 491.883 780.548 491.37C780.548 490.857 780.665 490.397 780.898 489.99C781.131 489.583 781.451 489.267 781.858 489.04C782.265 488.813 782.721 488.7 783.228 488.7C783.735 488.7 784.191 488.813 784.598 489.04C785.005 489.267 785.321 489.583 785.548 489.99C785.781 490.397 785.898 490.857 785.898 491.37C785.898 491.883 785.781 492.343 785.548 492.75C785.321 493.157 785.005 493.477 784.598 493.71C784.191 493.937 783.735 494.05 783.228 494.05ZM783.228 493.42C783.601 493.42 783.935 493.337 784.228 493.17C784.528 492.997 784.761 492.753 784.928 492.44C785.095 492.127 785.178 491.77 785.178 491.37C785.178 490.97 785.095 490.613 784.928 490.3C784.761 489.987 784.528 489.747 784.228 489.58C783.935 489.407 783.601 489.32 783.228 489.32C782.855 489.32 782.518 489.407 782.218 489.58C781.925 489.747 781.691 489.987 781.518 490.3C781.351 490.613 781.268 490.97 781.268 491.37C781.268 491.77 781.351 492.127 781.518 492.44C781.691 492.753 781.925 492.997 782.218 493.17C782.518 493.337 782.855 493.42 783.228 493.42ZM789.087 487.13C788.781 487.13 788.547 487.213 788.387 487.38C788.234 487.547 788.157 487.793 788.157 488.12V488.74H789.777V489.34H788.177V494H787.467V489.34H786.527V488.74H787.467V488.09C787.467 487.61 787.604 487.23 787.877 486.95C788.157 486.67 788.551 486.53 789.057 486.53C789.257 486.53 789.451 486.56 789.637 486.62C789.824 486.673 789.981 486.753 790.107 486.86L789.867 487.39C789.661 487.217 789.401 487.13 789.087 487.13ZM798.153 486.58V494H797.473V492.96C797.26 493.313 796.977 493.583 796.623 493.77C796.277 493.957 795.883 494.05 795.443 494.05C794.95 494.05 794.503 493.937 794.103 493.71C793.703 493.483 793.39 493.167 793.163 492.76C792.937 492.353 792.823 491.89 792.823 491.37C792.823 490.85 792.937 490.387 793.163 489.98C793.39 489.573 793.703 489.26 794.103 489.04C794.503 488.813 794.95 488.7 795.443 488.7C795.87 488.7 796.253 488.79 796.593 488.97C796.94 489.143 797.223 489.4 797.443 489.74V486.58H798.153ZM795.503 493.42C795.87 493.42 796.2 493.337 796.493 493.17C796.793 492.997 797.027 492.753 797.193 492.44C797.367 492.127 797.453 491.77 797.453 491.37C797.453 490.97 797.367 490.613 797.193 490.3C797.027 489.987 796.793 489.747 796.493 489.58C796.2 489.407 795.87 489.32 795.503 489.32C795.13 489.32 794.793 489.407 794.493 489.58C794.2 489.747 793.967 489.987 793.793 490.3C793.627 490.613 793.543 490.97 793.543 491.37C793.543 491.77 793.627 492.127 793.793 492.44C793.967 492.753 794.2 492.997 794.493 493.17C794.793 493.337 795.13 493.42 795.503 493.42ZM802.811 488.7C803.471 488.7 803.994 488.893 804.381 489.28C804.774 489.66 804.971 490.217 804.971 490.95V494H804.261V491.02C804.261 490.473 804.124 490.057 803.851 489.77C803.577 489.483 803.187 489.34 802.681 489.34C802.114 489.34 801.664 489.51 801.331 489.85C801.004 490.183 800.841 490.647 800.841 491.24V494H800.131V488.74H800.811V489.71C801.004 489.39 801.271 489.143 801.611 488.97C801.957 488.79 802.357 488.7 802.811 488.7ZM811.718 486.58V494H811.038V492.96C810.824 493.313 810.541 493.583 810.188 493.77C809.841 493.957 809.448 494.05 809.008 494.05C808.514 494.05 808.068 493.937 807.668 493.71C807.268 493.483 806.954 493.167 806.728 492.76C806.501 492.353 806.388 491.89 806.388 491.37C806.388 490.85 806.501 490.387 806.728 489.98C806.954 489.573 807.268 489.26 807.668 489.04C808.068 488.813 808.514 488.7 809.008 488.7C809.434 488.7 809.818 488.79 810.158 488.97C810.504 489.143 810.788 489.4 811.008 489.74V486.58H811.718ZM809.068 493.42C809.434 493.42 809.764 493.337 810.058 493.17C810.358 492.997 810.591 492.753 810.758 492.44C810.931 492.127 811.018 491.77 811.018 491.37C811.018 490.97 810.931 490.613 810.758 490.3C810.591 489.987 810.358 489.747 810.058 489.58C809.764 489.407 809.434 489.32 809.068 489.32C808.694 489.32 808.358 489.407 808.058 489.58C807.764 489.747 807.531 489.987 807.358 490.3C807.191 490.613 807.108 490.97 807.108 491.37C807.108 491.77 807.191 492.127 807.358 492.44C807.531 492.753 807.764 492.997 808.058 493.17C808.358 493.337 808.694 493.42 809.068 493.42Z" fill="#CCCCCC"/>
<rect x="649" y="534" width="150" height="31" rx="15.5" fill="#F2709C" fill-opacity="0.78"/>
<path d="M670.802 545.6H671.69V553.232H676.394V554H670.802V545.6ZM680.174 554.06C679.566 554.06 679.018 553.924 678.53 553.652C678.042 553.372 677.658 552.988 677.378 552.5C677.098 552.012 676.958 551.46 676.958 550.844C676.958 550.228 677.098 549.676 677.378 549.188C677.658 548.7 678.042 548.32 678.53 548.048C679.018 547.776 679.566 547.64 680.174 547.64C680.782 547.64 681.33 547.776 681.818 548.048C682.306 548.32 682.686 548.7 682.958 549.188C683.238 549.676 683.378 550.228 683.378 550.844C683.378 551.46 683.238 552.012 682.958 552.5C682.686 552.988 682.306 553.372 681.818 553.652C681.33 553.924 680.782 554.06 680.174 554.06ZM680.174 553.304C680.622 553.304 681.022 553.204 681.374 553.004C681.734 552.796 682.014 552.504 682.214 552.128C682.414 551.752 682.514 551.324 682.514 550.844C682.514 550.364 682.414 549.936 682.214 549.56C682.014 549.184 681.734 548.896 681.374 548.696C681.022 548.488 680.622 548.384 680.174 548.384C679.726 548.384 679.322 548.488 678.962 548.696C678.61 548.896 678.33 549.184 678.122 549.56C677.922 549.936 677.822 550.364 677.822 550.844C677.822 551.324 677.922 551.752 678.122 552.128C678.33 552.504 678.61 552.796 678.962 553.004C679.322 553.204 679.726 553.304 680.174 553.304ZM690.962 547.688V553.232C690.962 554.304 690.698 555.096 690.17 555.608C689.65 556.128 688.862 556.388 687.806 556.388C687.222 556.388 686.666 556.3 686.138 556.124C685.618 555.956 685.194 555.72 684.866 555.416L685.298 554.768C685.602 555.04 685.97 555.252 686.402 555.404C686.842 555.556 687.302 555.632 687.782 555.632C688.582 555.632 689.17 555.444 689.546 555.068C689.922 554.7 690.11 554.124 690.11 553.34V552.536C689.846 552.936 689.498 553.24 689.066 553.448C688.642 553.656 688.17 553.76 687.65 553.76C687.058 553.76 686.518 553.632 686.03 553.376C685.55 553.112 685.17 552.748 684.89 552.284C684.618 551.812 684.482 551.28 684.482 550.688C684.482 550.096 684.618 549.568 684.89 549.104C685.17 548.64 685.55 548.28 686.03 548.024C686.51 547.768 687.05 547.64 687.65 547.64C688.186 547.64 688.67 547.748 689.102 547.964C689.534 548.18 689.882 548.492 690.146 548.9V547.688H690.962ZM687.734 553.004C688.19 553.004 688.602 552.908 688.97 552.716C689.338 552.516 689.622 552.24 689.822 551.888C690.03 551.536 690.134 551.136 690.134 550.688C690.134 550.24 690.03 549.844 689.822 549.5C689.622 549.148 689.338 548.876 688.97 548.684C688.61 548.484 688.198 548.384 687.734 548.384C687.278 548.384 686.866 548.48 686.498 548.672C686.138 548.864 685.854 549.136 685.646 549.488C685.446 549.84 685.346 550.24 685.346 550.688C685.346 551.136 685.446 551.536 685.646 551.888C685.854 552.24 686.138 552.516 686.498 552.716C686.866 552.908 687.278 553.004 687.734 553.004ZM693.344 547.688H694.196V554H693.344V547.688ZM693.776 546.308C693.6 546.308 693.452 546.248 693.332 546.128C693.212 546.008 693.152 545.864 693.152 545.696C693.152 545.536 693.212 545.396 693.332 545.276C693.452 545.156 693.6 545.096 693.776 545.096C693.952 545.096 694.1 545.156 694.22 545.276C694.34 545.388 694.4 545.524 694.4 545.684C694.4 545.86 694.34 546.008 694.22 546.128C694.1 546.248 693.952 546.308 693.776 546.308ZM699.783 547.64C700.575 547.64 701.203 547.872 701.667 548.336C702.139 548.792 702.375 549.46 702.375 550.34V554H701.523V550.424C701.523 549.768 701.359 549.268 701.031 548.924C700.703 548.58 700.235 548.408 699.627 548.408C698.947 548.408 698.407 548.612 698.007 549.02C697.615 549.42 697.419 549.976 697.419 550.688V554H696.567V547.688H697.383V548.852C697.615 548.468 697.935 548.172 698.343 547.964C698.759 547.748 699.239 547.64 699.783 547.64ZM717.093 547.688L714.705 554H713.901L711.909 548.828L709.917 554H709.113L706.737 547.688H707.553L709.533 553.052L711.561 547.688H712.293L714.309 553.052L716.313 547.688H717.093ZM718.376 547.688H719.228V554H718.376V547.688ZM718.808 546.308C718.632 546.308 718.484 546.248 718.364 546.128C718.244 546.008 718.184 545.864 718.184 545.696C718.184 545.536 718.244 545.396 718.364 545.276C718.484 545.156 718.632 545.096 718.808 545.096C718.984 545.096 719.132 545.156 719.252 545.276C719.372 545.388 719.432 545.524 719.432 545.684C719.432 545.86 719.372 546.008 719.252 546.128C719.132 546.248 718.984 546.308 718.808 546.308ZM724.922 553.616C724.762 553.76 724.562 553.872 724.322 553.952C724.09 554.024 723.846 554.06 723.59 554.06C722.998 554.06 722.542 553.9 722.222 553.58C721.902 553.26 721.742 552.808 721.742 552.224V548.408H720.614V547.688H721.742V546.308H722.594V547.688H724.514V548.408H722.594V552.176C722.594 552.552 722.686 552.84 722.87 553.04C723.062 553.232 723.334 553.328 723.686 553.328C723.862 553.328 724.03 553.3 724.19 553.244C724.358 553.188 724.502 553.108 724.622 553.004L724.922 553.616ZM729.689 547.64C730.481 547.64 731.109 547.872 731.573 548.336C732.045 548.792 732.281 549.46 732.281 550.34V554H731.429V550.424C731.429 549.768 731.265 549.268 730.937 548.924C730.609 548.58 730.141 548.408 729.533 548.408C728.853 548.408 728.313 548.612 727.913 549.02C727.521 549.42 727.325 549.976 727.325 550.688V554H726.473V545.096H727.325V548.792C727.557 548.424 727.877 548.14 728.285 547.94C728.693 547.74 729.161 547.64 729.689 547.64ZM743.831 549.8H744.683V553.004C744.291 553.348 743.827 553.612 743.291 553.796C742.755 553.98 742.191 554.072 741.599 554.072C740.759 554.072 740.003 553.888 739.331 553.52C738.659 553.152 738.131 552.644 737.747 551.996C737.363 551.34 737.171 550.608 737.171 549.8C737.171 548.992 737.363 548.264 737.747 547.616C738.131 546.96 738.659 546.448 739.331 546.08C740.003 545.712 740.763 545.528 741.611 545.528C742.251 545.528 742.839 545.632 743.375 545.84C743.911 546.04 744.363 546.34 744.731 546.74L744.179 547.304C743.515 546.648 742.671 546.32 741.647 546.32C740.967 546.32 740.351 546.472 739.799 546.776C739.255 547.072 738.827 547.488 738.515 548.024C738.203 548.552 738.047 549.144 738.047 549.8C738.047 550.456 738.203 551.048 738.515 551.576C738.827 552.104 739.255 552.52 739.799 552.824C740.343 553.128 740.955 553.28 741.635 553.28C742.499 553.28 743.231 553.064 743.831 552.632V549.8ZM749.596 554.06C748.988 554.06 748.44 553.924 747.952 553.652C747.464 553.372 747.08 552.988 746.8 552.5C746.52 552.012 746.38 551.46 746.38 550.844C746.38 550.228 746.52 549.676 746.8 549.188C747.08 548.7 747.464 548.32 747.952 548.048C748.44 547.776 748.988 547.64 749.596 547.64C750.204 547.64 750.752 547.776 751.24 548.048C751.728 548.32 752.108 548.7 752.38 549.188C752.66 549.676 752.8 550.228 752.8 550.844C752.8 551.46 752.66 552.012 752.38 552.5C752.108 552.988 751.728 553.372 751.24 553.652C750.752 553.924 750.204 554.06 749.596 554.06ZM749.596 553.304C750.044 553.304 750.444 553.204 750.796 553.004C751.156 552.796 751.436 552.504 751.636 552.128C751.836 551.752 751.936 551.324 751.936 550.844C751.936 550.364 751.836 549.936 751.636 549.56C751.436 549.184 751.156 548.896 750.796 548.696C750.444 548.488 750.044 548.384 749.596 548.384C749.148 548.384 748.744 548.488 748.384 548.696C748.032 548.896 747.752 549.184 747.544 549.56C747.344 549.936 747.244 550.364 747.244 550.844C747.244 551.324 747.344 551.752 747.544 552.128C747.752 552.504 748.032 552.796 748.384 553.004C748.744 553.204 749.148 553.304 749.596 553.304ZM757.12 554.06C756.512 554.06 755.964 553.924 755.476 553.652C754.988 553.372 754.604 552.988 754.324 552.5C754.044 552.012 753.904 551.46 753.904 550.844C753.904 550.228 754.044 549.676 754.324 549.188C754.604 548.7 754.988 548.32 755.476 548.048C755.964 547.776 756.512 547.64 757.12 547.64C757.728 547.64 758.276 547.776 758.764 548.048C759.252 548.32 759.632 548.7 759.904 549.188C760.184 549.676 760.324 550.228 760.324 550.844C760.324 551.46 760.184 552.012 759.904 552.5C759.632 552.988 759.252 553.372 758.764 553.652C758.276 553.924 757.728 554.06 757.12 554.06ZM757.12 553.304C757.568 553.304 757.968 553.204 758.32 553.004C758.68 552.796 758.96 552.504 759.16 552.128C759.36 551.752 759.46 551.324 759.46 550.844C759.46 550.364 759.36 549.936 759.16 549.56C758.96 549.184 758.68 548.896 758.32 548.696C757.968 548.488 757.568 548.384 757.12 548.384C756.672 548.384 756.268 548.488 755.908 548.696C755.556 548.896 755.276 549.184 755.068 549.56C754.868 549.936 754.768 550.364 754.768 550.844C754.768 551.324 754.868 551.752 755.068 552.128C755.276 552.504 755.556 552.796 755.908 553.004C756.268 553.204 756.672 553.304 757.12 553.304ZM767.907 547.688V553.232C767.907 554.304 767.643 555.096 767.115 555.608C766.595 556.128 765.807 556.388 764.751 556.388C764.167 556.388 763.611 556.3 763.083 556.124C762.563 555.956 762.139 555.72 761.811 555.416L762.243 554.768C762.547 555.04 762.915 555.252 763.347 555.404C763.787 555.556 764.247 555.632 764.727 555.632C765.527 555.632 766.115 555.444 766.491 555.068C766.867 554.7 767.055 554.124 767.055 553.34V552.536C766.791 552.936 766.443 553.24 766.011 553.448C765.587 553.656 765.115 553.76 764.595 553.76C764.003 553.76 763.463 553.632 762.975 553.376C762.495 553.112 762.115 552.748 761.835 552.284C761.563 551.812 761.427 551.28 761.427 550.688C761.427 550.096 761.563 549.568 761.835 549.104C762.115 548.64 762.495 548.28 762.975 548.024C763.455 547.768 763.995 547.64 764.595 547.64C765.131 547.64 765.615 547.748 766.047 547.964C766.479 548.18 766.827 548.492 767.091 548.9V547.688H767.907ZM764.679 553.004C765.135 553.004 765.547 552.908 765.915 552.716C766.283 552.516 766.567 552.24 766.767 551.888C766.975 551.536 767.079 551.136 767.079 550.688C767.079 550.24 766.975 549.844 766.767 549.5C766.567 549.148 766.283 548.876 765.915 548.684C765.555 548.484 765.143 548.384 764.679 548.384C764.223 548.384 763.811 548.48 763.443 548.672C763.083 548.864 762.799 549.136 762.591 549.488C762.391 549.84 762.291 550.24 762.291 550.688C762.291 551.136 762.391 551.536 762.591 551.888C762.799 552.24 763.083 552.516 763.443 552.716C763.811 552.908 764.223 553.004 764.679 553.004ZM770.29 545.096H771.142V554H770.29V545.096ZM779.008 551.108H773.728C773.776 551.764 774.028 552.296 774.484 552.704C774.94 553.104 775.516 553.304 776.212 553.304C776.604 553.304 776.964 553.236 777.292 553.1C777.62 552.956 777.904 552.748 778.144 552.476L778.624 553.028C778.344 553.364 777.992 553.62 777.568 553.796C777.152 553.972 776.692 554.06 776.188 554.06C775.54 554.06 774.964 553.924 774.46 553.652C773.964 553.372 773.576 552.988 773.296 552.5C773.016 552.012 772.876 551.46 772.876 550.844C772.876 550.228 773.008 549.676 773.272 549.188C773.544 548.7 773.912 548.32 774.376 548.048C774.848 547.776 775.376 547.64 775.96 547.64C776.544 547.64 777.068 547.776 777.532 548.048C777.996 548.32 778.36 548.7 778.624 549.188C778.888 549.668 779.02 550.22 779.02 550.844L779.008 551.108ZM775.96 548.372C775.352 548.372 774.84 548.568 774.424 548.96C774.016 549.344 773.784 549.848 773.728 550.472H778.204C778.148 549.848 777.912 549.344 777.496 548.96C777.088 548.568 776.576 548.372 775.96 548.372Z" fill="white"/>
<rect x="649.5" y="585.5" width="149" height="30" rx="15" stroke="#F2709C" stroke-opacity="0.78"/>
<path d="M682.674 597.368V600.668H687.018V601.436H682.674V605H681.786V596.6H687.546V597.368H682.674ZM689.083 598.688H689.935V605H689.083V598.688ZM689.515 597.308C689.339 597.308 689.191 597.248 689.071 597.128C688.951 597.008 688.891 596.864 688.891 596.696C688.891 596.536 688.951 596.396 689.071 596.276C689.191 596.156 689.339 596.096 689.515 596.096C689.691 596.096 689.839 596.156 689.959 596.276C690.079 596.388 690.139 596.524 690.139 596.684C690.139 596.86 690.079 597.008 689.959 597.128C689.839 597.248 689.691 597.308 689.515 597.308ZM695.521 598.64C696.313 598.64 696.941 598.872 697.405 599.336C697.877 599.792 698.113 600.46 698.113 601.34V605H697.261V601.424C697.261 600.768 697.097 600.268 696.769 599.924C696.441 599.58 695.973 599.408 695.365 599.408C694.685 599.408 694.145 599.612 693.745 600.02C693.353 600.42 693.157 600.976 693.157 601.688V605H692.305V598.688H693.121V599.852C693.353 599.468 693.673 599.172 694.081 598.964C694.497 598.748 694.977 598.64 695.521 598.64ZM706.21 596.096V605H705.394V603.752C705.138 604.176 704.798 604.5 704.374 604.724C703.958 604.948 703.486 605.06 702.958 605.06C702.366 605.06 701.83 604.924 701.35 604.652C700.87 604.38 700.494 604 700.222 603.512C699.95 603.024 699.814 602.468 699.814 601.844C699.814 601.22 699.95 600.664 700.222 600.176C700.494 599.688 700.87 599.312 701.35 599.048C701.83 598.776 702.366 598.64 702.958 598.64C703.47 598.64 703.93 598.748 704.338 598.964C704.754 599.172 705.094 599.48 705.358 599.888V596.096H706.21ZM703.03 604.304C703.47 604.304 703.866 604.204 704.218 604.004C704.578 603.796 704.858 603.504 705.058 603.128C705.266 602.752 705.37 602.324 705.37 601.844C705.37 601.364 705.266 600.936 705.058 600.56C704.858 600.184 704.578 599.896 704.218 599.696C703.866 599.488 703.47 599.384 703.03 599.384C702.582 599.384 702.178 599.488 701.818 599.696C701.466 599.896 701.186 600.184 700.978 600.56C700.778 600.936 700.678 601.364 700.678 601.844C700.678 602.324 700.778 602.752 700.978 603.128C701.186 603.504 701.466 603.796 701.818 604.004C702.178 604.204 702.582 604.304 703.03 604.304ZM715.575 605.072C714.743 605.072 713.987 604.888 713.307 604.52C712.635 604.144 712.107 603.632 711.723 602.984C711.347 602.336 711.159 601.608 711.159 600.8C711.159 599.992 711.347 599.264 711.723 598.616C712.107 597.968 712.635 597.46 713.307 597.092C713.987 596.716 714.743 596.528 715.575 596.528C716.407 596.528 717.155 596.712 717.819 597.08C718.491 597.448 719.019 597.96 719.403 598.616C719.787 599.264 719.979 599.992 719.979 600.8C719.979 601.608 719.787 602.34 719.403 602.996C719.019 603.644 718.491 604.152 717.819 604.52C717.155 604.888 716.407 605.072 715.575 605.072ZM715.575 604.28C716.239 604.28 716.839 604.132 717.375 603.836C717.911 603.532 718.331 603.116 718.635 602.588C718.939 602.052 719.091 601.456 719.091 600.8C719.091 600.144 718.939 599.552 718.635 599.024C718.331 598.488 717.911 598.072 717.375 597.776C716.839 597.472 716.239 597.32 715.575 597.32C714.911 597.32 714.307 597.472 713.763 597.776C713.227 598.072 712.803 598.488 712.491 599.024C712.187 599.552 712.035 600.144 712.035 600.8C712.035 601.456 712.187 602.052 712.491 602.588C712.803 603.116 713.227 603.532 713.763 603.836C714.307 604.132 714.911 604.28 715.575 604.28ZM727.478 598.688V605H726.662V603.848C726.438 604.232 726.13 604.532 725.738 604.748C725.346 604.956 724.898 605.06 724.394 605.06C723.57 605.06 722.918 604.832 722.438 604.376C721.966 603.912 721.73 603.236 721.73 602.348V598.688H722.582V602.264C722.582 602.928 722.746 603.432 723.074 603.776C723.402 604.12 723.87 604.292 724.478 604.292C725.142 604.292 725.666 604.092 726.05 603.692C726.434 603.284 726.626 602.72 726.626 602V598.688H727.478ZM733.188 604.616C733.028 604.76 732.828 604.872 732.588 604.952C732.356 605.024 732.112 605.06 731.856 605.06C731.264 605.06 730.808 604.9 730.488 604.58C730.168 604.26 730.008 603.808 730.008 603.224V599.408H728.88V598.688H730.008V597.308H730.86V598.688H732.78V599.408H730.86V603.176C730.86 603.552 730.952 603.84 731.136 604.04C731.328 604.232 731.6 604.328 731.952 604.328C732.128 604.328 732.296 604.3 732.456 604.244C732.624 604.188 732.768 604.108 732.888 604.004L733.188 604.616ZM746.783 596.6V605H745.931V598.28L742.631 603.932H742.211L738.911 598.316V605H738.059V596.6H738.791L742.439 602.828L746.051 596.6H746.783ZM751.92 605.06C751.312 605.06 750.764 604.924 750.276 604.652C749.788 604.372 749.404 603.988 749.124 603.5C748.844 603.012 748.704 602.46 748.704 601.844C748.704 601.228 748.844 600.676 749.124 600.188C749.404 599.7 749.788 599.32 750.276 599.048C750.764 598.776 751.312 598.64 751.92 598.64C752.528 598.64 753.076 598.776 753.564 599.048C754.052 599.32 754.432 599.7 754.704 600.188C754.984 600.676 755.124 601.228 755.124 601.844C755.124 602.46 754.984 603.012 754.704 603.5C754.432 603.988 754.052 604.372 753.564 604.652C753.076 604.924 752.528 605.06 751.92 605.06ZM751.92 604.304C752.368 604.304 752.768 604.204 753.12 604.004C753.48 603.796 753.76 603.504 753.96 603.128C754.16 602.752 754.26 602.324 754.26 601.844C754.26 601.364 754.16 600.936 753.96 600.56C753.76 600.184 753.48 599.896 753.12 599.696C752.768 599.488 752.368 599.384 751.92 599.384C751.472 599.384 751.068 599.488 750.708 599.696C750.356 599.896 750.076 600.184 749.868 600.56C749.668 600.936 749.568 601.364 749.568 601.844C749.568 602.324 749.668 602.752 749.868 603.128C750.076 603.504 750.356 603.796 750.708 604.004C751.068 604.204 751.472 604.304 751.92 604.304ZM757.68 599.924C757.88 599.5 758.176 599.18 758.568 598.964C758.968 598.748 759.46 598.64 760.044 598.64V599.468L759.84 599.456C759.176 599.456 758.656 599.66 758.28 600.068C757.904 600.476 757.716 601.048 757.716 601.784V605H756.864V598.688H757.68V599.924ZM767.024 602.108H761.744C761.792 602.764 762.044 603.296 762.5 603.704C762.956 604.104 763.532 604.304 764.228 604.304C764.62 604.304 764.98 604.236 765.308 604.1C765.636 603.956 765.92 603.748 766.16 603.476L766.64 604.028C766.36 604.364 766.008 604.62 765.584 604.796C765.168 604.972 764.708 605.06 764.204 605.06C763.556 605.06 762.98 604.924 762.476 604.652C761.98 604.372 761.592 603.988 761.312 603.5C761.032 603.012 760.892 602.46 760.892 601.844C760.892 601.228 761.024 600.676 761.288 600.188C761.56 599.7 761.928 599.32 762.392 599.048C762.864 598.776 763.392 598.64 763.976 598.64C764.56 598.64 765.084 598.776 765.548 599.048C766.012 599.32 766.376 599.7 766.64 600.188C766.904 600.668 767.036 601.22 767.036 601.844L767.024 602.108ZM763.976 599.372C763.368 599.372 762.856 599.568 762.44 599.96C762.032 600.344 761.8 600.848 761.744 601.472H766.22C766.164 600.848 765.928 600.344 765.512 599.96C765.104 599.568 764.592 599.372 763.976 599.372Z" fill="#F2709C" fill-opacity="0.78"/>
</g>
<defs>
<filter id="filter0_d" x="543" y="345" width="365" height="342" filterUnits="userSpaceOnUse" color-interpolation-filters="sRGB">
<feFlood flood-opacity="0" result="BackgroundImageFix"/>
<feColorMatrix in="SourceAlpha" type="matrix" values="0 0 0 0 0 0 0 0 0 0 0 0 0 0 0 0 0 0 127 0"/>
<feOffset dx="5" dy="4"/>
<feGaussianBlur stdDeviation="2.5"/>
<feColorMatrix type="matrix" values="0 0 0 0 0 0 0 0 0 0 0 0 0 0 0 0 0 0 0.05 0"/>
<feBlend mode="normal" in2="BackgroundImageFix" result="effect1_dropShadow"/>
<feBlend mode="normal" in="SourceGraphic" in2="effect1_dropShadow" result="shape"/>
</filter>
<linearGradient id="paint0_linear" x1="206.332" y1="881.156" x2="255.797" y2="1279.09" gradientUnits="userSpaceOnUse">
<stop stop-color="#B24592"/>
<stop offset="1" stop-color="#F15F79"/>
</linearGradient>
<linearGradient id="paint1_linear" x1="701.767" y1="370.681" x2="740.527" y2="428.468" gradientUnits="userSpaceOnUse">
<stop stop-color="#B24592"/>
<stop offset="1" stop-color="#F15F79"/>
</linearGradient>
<clipPath id="clip0">
<rect width="1440" height="1024" fill="white"/>
</clipPath>
</defs>
</svg>
