<svg width="1440" height="1024" viewBox="0 0 1440 1024" fill="none" xmlns="http://www.w3.org/2000/svg">
<rect width="1440" height="1024" fill="#FAFAFA"/>
<path d="M125.994 63.448C127.466 63.768 128.597 64.408 129.386 65.368C130.197 66.3067 130.602 67.5227 130.602 69.016C130.602 70.936 129.888 72.4187 128.458 73.464C127.05 74.488 124.96 75 122.186 75H111.882V52.6H121.546C124.042 52.6 125.973 53.1013 127.338 54.104C128.725 55.1067 129.418 56.5253 129.418 58.36C129.418 59.5973 129.109 60.6533 128.49 61.528C127.893 62.3813 127.061 63.0213 125.994 63.448ZM114.25 54.552V62.68H121.386C123.2 62.68 124.597 62.3387 125.578 61.656C126.56 60.952 127.05 59.9387 127.05 58.616C127.05 57.2933 126.56 56.2907 125.578 55.608C124.597 54.904 123.2 54.552 121.386 54.552H114.25ZM122.154 73.048C124.16 73.048 125.674 72.7067 126.698 72.024C127.722 71.3413 128.234 70.2747 128.234 68.824C128.234 66.0293 126.208 64.632 122.154 64.632H114.25V73.048H122.154ZM141.415 58.04C143.613 58.04 145.298 58.5947 146.471 59.704C147.645 60.792 148.231 62.4133 148.231 64.568V75H146.055V72.376C145.543 73.2507 144.786 73.9333 143.783 74.424C142.802 74.9147 141.629 75.16 140.263 75.16C138.386 75.16 136.893 74.712 135.783 73.816C134.674 72.92 134.119 71.736 134.119 70.264C134.119 68.8347 134.631 67.6827 135.655 66.808C136.701 65.9333 138.354 65.496 140.615 65.496H145.959V64.472C145.959 63.0213 145.554 61.9227 144.743 61.176C143.933 60.408 142.749 60.024 141.191 60.024C140.125 60.024 139.101 60.2053 138.119 60.568C137.138 60.9093 136.295 61.3893 135.591 62.008L134.567 60.312C135.421 59.5867 136.445 59.032 137.639 58.648C138.834 58.2427 140.093 58.04 141.415 58.04ZM140.615 73.368C141.895 73.368 142.994 73.08 143.911 72.504C144.829 71.9067 145.511 71.0533 145.959 69.944V67.192H140.679C137.799 67.192 136.359 68.1947 136.359 70.2C136.359 71.1813 136.733 71.96 137.479 72.536C138.226 73.0907 139.271 73.368 140.615 73.368ZM170.049 58.168V72.952C170.049 75.8107 169.345 77.9227 167.937 79.288C166.55 80.6747 164.449 81.368 161.633 81.368C160.076 81.368 158.593 81.1333 157.185 80.664C155.798 80.216 154.668 79.5867 153.793 78.776L154.945 77.048C155.756 77.7733 156.737 78.3387 157.889 78.744C159.062 79.1493 160.289 79.352 161.569 79.352C163.702 79.352 165.27 78.8507 166.273 77.848C167.276 76.8667 167.777 75.3307 167.777 73.24V71.096C167.073 72.1627 166.145 72.9733 164.993 73.528C163.862 74.0827 162.604 74.36 161.217 74.36C159.638 74.36 158.198 74.0187 156.897 73.336C155.617 72.632 154.604 71.6613 153.857 70.424C153.132 69.1653 152.769 67.7467 152.769 66.168C152.769 64.5893 153.132 63.1813 153.857 61.944C154.604 60.7067 155.617 59.7467 156.897 59.064C158.177 58.3813 159.617 58.04 161.217 58.04C162.646 58.04 163.937 58.328 165.089 58.904C166.241 59.48 167.169 60.312 167.873 61.4V58.168H170.049ZM161.441 72.344C162.657 72.344 163.756 72.088 164.737 71.576C165.718 71.0427 166.476 70.3067 167.009 69.368C167.564 68.4293 167.841 67.3627 167.841 66.168C167.841 64.9733 167.564 63.9173 167.009 63C166.476 62.0613 165.718 61.336 164.737 60.824C163.777 60.2907 162.678 60.024 161.441 60.024C160.225 60.024 159.126 60.28 158.145 60.792C157.185 61.304 156.428 62.0293 155.873 62.968C155.34 63.9067 155.073 64.9733 155.073 66.168C155.073 67.3627 155.34 68.4293 155.873 69.368C156.428 70.3067 157.185 71.0427 158.145 71.576C159.126 72.088 160.225 72.344 161.441 72.344ZM185.074 58.04C186.653 58.04 188.082 58.4027 189.362 59.128C190.642 59.832 191.645 60.8347 192.37 62.136C193.096 63.4373 193.458 64.92 193.458 66.584C193.458 68.2693 193.096 69.7627 192.37 71.064C191.645 72.3653 190.642 73.3787 189.362 74.104C188.104 74.808 186.674 75.16 185.074 75.16C183.709 75.16 182.472 74.8827 181.362 74.328C180.274 73.752 179.378 72.92 178.674 71.832V81.208H176.402V58.168H178.578V61.496C179.261 60.3867 180.157 59.5333 181.266 58.936C182.397 58.3387 183.666 58.04 185.074 58.04ZM184.914 73.144C186.088 73.144 187.154 72.8773 188.114 72.344C189.074 71.7893 189.821 71.0107 190.354 70.008C190.909 69.0053 191.186 67.864 191.186 66.584C191.186 65.304 190.909 64.1733 190.354 63.192C189.821 62.1893 189.074 61.4107 188.114 60.856C187.154 60.3013 186.088 60.024 184.914 60.024C183.72 60.024 182.642 60.3013 181.682 60.856C180.744 61.4107 179.997 62.1893 179.442 63.192C178.909 64.1733 178.642 65.304 178.642 66.584C178.642 67.864 178.909 69.0053 179.442 70.008C179.997 71.0107 180.744 71.7893 181.682 72.344C182.642 72.8773 183.72 73.144 184.914 73.144ZM203.884 58.04C206.081 58.04 207.767 58.5947 208.94 59.704C210.113 60.792 210.7 62.4133 210.7 64.568V75H208.524V72.376C208.012 73.2507 207.255 73.9333 206.252 74.424C205.271 74.9147 204.097 75.16 202.732 75.16C200.855 75.16 199.361 74.712 198.252 73.816C197.143 72.92 196.588 71.736 196.588 70.264C196.588 68.8347 197.1 67.6827 198.124 66.808C199.169 65.9333 200.823 65.496 203.084 65.496H208.428V64.472C208.428 63.0213 208.023 61.9227 207.212 61.176C206.401 60.408 205.217 60.024 203.66 60.024C202.593 60.024 201.569 60.2053 200.588 60.568C199.607 60.9093 198.764 61.3893 198.06 62.008L197.036 60.312C197.889 59.5867 198.913 59.032 200.108 58.648C201.303 58.2427 202.561 58.04 203.884 58.04ZM203.084 73.368C204.364 73.368 205.463 73.08 206.38 72.504C207.297 71.9067 207.98 71.0533 208.428 69.944V67.192H203.148C200.268 67.192 198.828 68.1947 198.828 70.2C198.828 71.1813 199.201 71.96 199.948 72.536C200.695 73.0907 201.74 73.368 203.084 73.368ZM223.91 75.16C222.246 75.16 220.752 74.7973 219.43 74.072C218.128 73.3467 217.104 72.3333 216.358 71.032C215.611 69.7093 215.238 68.2267 215.238 66.584C215.238 64.9413 215.611 63.4693 216.358 62.168C217.104 60.8667 218.128 59.8533 219.43 59.128C220.752 58.4027 222.246 58.04 223.91 58.04C225.36 58.04 226.651 58.328 227.782 58.904C228.934 59.4587 229.84 60.28 230.502 61.368L228.806 62.52C228.251 61.688 227.547 61.0693 226.694 60.664C225.84 60.2373 224.912 60.024 223.91 60.024C222.694 60.024 221.595 60.3013 220.614 60.856C219.654 61.3893 218.896 62.1573 218.342 63.16C217.808 64.1627 217.542 65.304 217.542 66.584C217.542 67.8853 217.808 69.0373 218.342 70.04C218.896 71.0213 219.654 71.7893 220.614 72.344C221.595 72.8773 222.694 73.144 223.91 73.144C224.912 73.144 225.84 72.9413 226.694 72.536C227.547 72.1307 228.251 71.512 228.806 70.68L230.502 71.832C229.84 72.92 228.934 73.752 227.782 74.328C226.63 74.8827 225.339 75.16 223.91 75.16ZM240.955 66.552L236.987 70.2V75H234.715V51.256H236.987V67.352L247.035 58.168H249.851L242.651 65.048L250.523 75H247.739L240.955 66.552Z" fill="#6FCF97"/>
<path d="M36 53.0523C36 51.3448 36.8713 49.7554 38.3108 48.8371L57.3109 36.7156C58.951 35.6693 61.0491 35.6693 62.6893 36.7156L81.6892 48.8371C83.1287 49.7554 84 51.3448 84 53.0523V74.0931C84 75.8809 83.0454 77.5327 81.4964 78.4253L62.4964 89.3737C60.9513 90.2641 59.0488 90.2641 57.5037 89.3737L38.5036 78.4253C36.9546 77.5327 36 75.8809 36 74.0931V53.0523Z" fill="url(#paint0_linear)"/>
<path d="M59.4897 62.7798L50.4378 57.7857C49.8608 57.4674 49.7456 56.6849 50.2282 56.2361C58.3679 48.668 65.6197 52.6563 68.9044 56.3094C69.2979 56.747 69.1677 57.42 68.6665 57.7284L60.4968 62.7559C60.19 62.9448 59.8052 62.9539 59.4897 62.7798Z" fill="white"/>
<path d="M49.2925 72.6615V60.3246C49.2925 59.5634 50.1091 59.0813 50.7756 59.449L59.4994 64.2621C59.8097 64.4333 60.1874 64.4275 60.4923 64.2468L68.4597 59.5254C69.1263 59.1304 69.9695 59.6109 69.9695 60.3857V72.5787C69.9695 72.6338 69.9649 72.69 69.9552 72.7442C69.3341 76.2199 66.5127 77.0923 65.1695 77.0923H53.8135C53.7535 77.0923 53.6925 77.0869 53.6337 77.0753C50.4546 76.4533 49.4145 73.8809 49.2925 72.6615Z" fill="white"/>
<path d="M62.0375 51.2462C62.3396 51.2462 62.5896 50.9992 62.534 50.7023C62.4251 50.1211 62.1433 49.5815 61.7193 49.1575C61.1654 48.6035 60.4141 48.2923 59.6307 48.2923C58.8473 48.2923 58.0959 48.6035 57.542 49.1575C57.118 49.5815 56.8362 50.1211 56.7273 50.7023C56.6717 50.9992 56.9217 51.2462 57.2238 51.2462C57.5259 51.2462 57.7631 50.9961 57.8507 50.707C57.9387 50.4167 58.0971 50.1495 58.3156 49.9311C58.6644 49.5823 59.1374 49.3863 59.6307 49.3863C60.1239 49.3863 60.597 49.5823 60.9458 49.9311C61.1642 50.1495 61.3227 50.4167 61.4106 50.707C61.4982 50.9961 61.7354 51.2462 62.0375 51.2462Z" fill="white"/>
<rect x="218" y="519" width="1050" height="60" rx="30" fill="#EEEEEE"/>
<path d="M248.229 550.525C249.505 551.801 251.054 552.439 252.877 552.439C254.7 552.439 256.249 551.801 257.525 550.525C258.801 549.249 259.439 547.7 259.439 545.877C259.439 544.054 258.801 542.505 257.525 541.229C256.249 539.952 254.7 539.314 252.877 539.314C251.054 539.314 249.505 539.952 248.229 541.229C246.952 542.505 246.314 544.054 246.314 545.877C246.314 547.7 246.952 549.249 248.229 550.525ZM261.627 552.439L268.873 559.686L266.686 561.873L259.439 554.627V553.465L259.029 553.055C257.298 554.559 255.247 555.311 252.877 555.311C250.234 555.311 247.978 554.399 246.109 552.576C244.286 550.753 243.375 548.52 243.375 545.877C243.375 543.234 244.286 541.001 246.109 539.178C247.978 537.309 250.234 536.375 252.877 536.375C255.52 536.375 257.753 537.309 259.576 539.178C261.399 541.001 262.311 543.234 262.311 545.877C262.311 546.834 262.083 547.928 261.627 549.158C261.171 550.343 260.647 551.3 260.055 552.029L260.465 552.439H261.627Z" fill="#BBBBBB"/>
<rect x="328" y="607" width="940" height="68" rx="12" fill="#F2F2F2"/>
<path d="M311.5 642H269C262.925 642 258 637.075 258 631V601" stroke="#6FCF97" stroke-opacity="0.62" stroke-width="4" stroke-linecap="round"/>
<path d="M398.034 634.8L394.29 646H392.61L389.554 637.056L386.498 646H384.786L381.042 634.8H382.69L385.714 643.904L388.866 634.8H390.338L393.426 643.952L396.514 634.8H398.034ZM406.79 641.808C406.79 641.925 406.78 642.08 406.758 642.272H399.878C399.974 643.019 400.3 643.621 400.854 644.08C401.42 644.528 402.118 644.752 402.95 644.752C403.964 644.752 404.78 644.411 405.398 643.728L406.246 644.72C405.862 645.168 405.382 645.509 404.806 645.744C404.241 645.979 403.606 646.096 402.902 646.096C402.006 646.096 401.212 645.915 400.518 645.552C399.825 645.179 399.286 644.661 398.902 644C398.529 643.339 398.342 642.592 398.342 641.76C398.342 640.939 398.524 640.197 398.886 639.536C399.26 638.875 399.766 638.363 400.406 638C401.057 637.627 401.788 637.44 402.598 637.44C403.409 637.44 404.129 637.627 404.758 638C405.398 638.363 405.894 638.875 406.246 639.536C406.609 640.197 406.79 640.955 406.79 641.808ZM402.598 638.736C401.862 638.736 401.244 638.96 400.742 639.408C400.252 639.856 399.964 640.443 399.878 641.168H405.318C405.233 640.453 404.94 639.872 404.438 639.424C403.948 638.965 403.334 638.736 402.598 638.736ZM411.777 637.44C412.95 637.44 413.846 637.728 414.465 638.304C415.094 638.88 415.409 639.739 415.409 640.88V646H413.953V644.88C413.697 645.275 413.329 645.579 412.849 645.792C412.379 645.995 411.819 646.096 411.169 646.096C410.219 646.096 409.457 645.867 408.881 645.408C408.315 644.949 408.033 644.347 408.033 643.6C408.033 642.853 408.305 642.256 408.849 641.808C409.393 641.349 410.257 641.12 411.441 641.12H413.873V640.816C413.873 640.155 413.681 639.648 413.297 639.296C412.913 638.944 412.347 638.768 411.601 638.768C411.099 638.768 410.609 638.853 410.129 639.024C409.649 639.184 409.243 639.403 408.913 639.68L408.273 638.528C408.71 638.176 409.233 637.909 409.841 637.728C410.449 637.536 411.094 637.44 411.777 637.44ZM411.425 644.912C412.011 644.912 412.518 644.784 412.945 644.528C413.371 644.261 413.681 643.888 413.873 643.408V642.224H411.505C410.203 642.224 409.553 642.661 409.553 643.536C409.553 643.963 409.718 644.299 410.049 644.544C410.379 644.789 410.838 644.912 411.425 644.912ZM422.747 637.44C423.569 637.44 424.305 637.621 424.955 637.984C425.606 638.347 426.113 638.853 426.475 639.504C426.849 640.155 427.035 640.907 427.035 641.76C427.035 642.613 426.849 643.371 426.475 644.032C426.113 644.683 425.606 645.189 424.955 645.552C424.305 645.915 423.569 646.096 422.747 646.096C422.139 646.096 421.579 645.979 421.067 645.744C420.566 645.509 420.139 645.168 419.787 644.72V649.104H418.251V637.52H419.723V638.864C420.065 638.395 420.497 638.043 421.019 637.808C421.542 637.563 422.118 637.44 422.747 637.44ZM422.619 644.752C423.163 644.752 423.649 644.629 424.075 644.384C424.513 644.128 424.854 643.776 425.099 643.328C425.355 642.869 425.483 642.347 425.483 641.76C425.483 641.173 425.355 640.656 425.099 640.208C424.854 639.749 424.513 639.397 424.075 639.152C423.649 638.907 423.163 638.784 422.619 638.784C422.086 638.784 421.601 638.912 421.163 639.168C420.737 639.413 420.395 639.76 420.139 640.208C419.894 640.656 419.771 641.173 419.771 641.76C419.771 642.347 419.894 642.869 420.139 643.328C420.385 643.776 420.726 644.128 421.163 644.384C421.601 644.629 422.086 644.752 422.619 644.752ZM432.79 646.096C431.947 646.096 431.19 645.909 430.518 645.536C429.846 645.163 429.318 644.651 428.934 644C428.56 643.339 428.374 642.592 428.374 641.76C428.374 640.928 428.56 640.187 428.934 639.536C429.318 638.875 429.846 638.363 430.518 638C431.19 637.627 431.947 637.44 432.79 637.44C433.632 637.44 434.384 637.627 435.046 638C435.718 638.363 436.24 638.875 436.614 639.536C436.998 640.187 437.19 640.928 437.19 641.76C437.19 642.592 436.998 643.339 436.614 644C436.24 644.651 435.718 645.163 435.046 645.536C434.384 645.909 433.632 646.096 432.79 646.096ZM432.79 644.752C433.334 644.752 433.819 644.629 434.246 644.384C434.683 644.128 435.024 643.776 435.27 643.328C435.515 642.869 435.638 642.347 435.638 641.76C435.638 641.173 435.515 640.656 435.27 640.208C435.024 639.749 434.683 639.397 434.246 639.152C433.819 638.907 433.334 638.784 432.79 638.784C432.246 638.784 431.755 638.907 431.318 639.152C430.891 639.397 430.55 639.749 430.294 640.208C430.048 640.656 429.926 641.173 429.926 641.76C429.926 642.347 430.048 642.869 430.294 643.328C430.55 643.776 430.891 644.128 431.318 644.384C431.755 644.629 432.246 644.752 432.79 644.752ZM443.842 637.44C444.919 637.44 445.772 637.755 446.402 638.384C447.042 639.003 447.362 639.915 447.362 641.12V646H445.826V641.296C445.826 640.475 445.628 639.856 445.234 639.44C444.839 639.024 444.274 638.816 443.538 638.816C442.706 638.816 442.05 639.061 441.57 639.552C441.09 640.032 440.85 640.725 440.85 641.632V646H439.314V637.52H440.786V638.8C441.095 638.363 441.511 638.027 442.034 637.792C442.567 637.557 443.17 637.44 443.842 637.44ZM452.636 646.096C451.943 646.096 451.276 646.005 450.636 645.824C449.996 645.632 449.495 645.392 449.132 645.104L449.772 643.888C450.146 644.155 450.599 644.368 451.132 644.528C451.666 644.688 452.204 644.768 452.748 644.768C454.092 644.768 454.764 644.384 454.764 643.616C454.764 643.36 454.674 643.157 454.492 643.008C454.311 642.859 454.082 642.752 453.804 642.688C453.538 642.613 453.154 642.533 452.652 642.448C451.97 642.341 451.41 642.219 450.972 642.08C450.546 641.941 450.178 641.707 449.868 641.376C449.559 641.045 449.404 640.581 449.404 639.984C449.404 639.216 449.724 638.603 450.364 638.144C451.004 637.675 451.863 637.44 452.94 637.44C453.506 637.44 454.071 637.509 454.636 637.648C455.202 637.787 455.666 637.973 456.028 638.208L455.372 639.424C454.679 638.976 453.863 638.752 452.924 638.752C452.274 638.752 451.778 638.859 451.436 639.072C451.095 639.285 450.924 639.568 450.924 639.92C450.924 640.197 451.02 640.416 451.212 640.576C451.404 640.736 451.639 640.853 451.916 640.928C452.204 641.003 452.604 641.088 453.116 641.184C453.799 641.301 454.348 641.429 454.764 641.568C455.191 641.696 455.554 641.92 455.852 642.24C456.151 642.56 456.3 643.008 456.3 643.584C456.3 644.352 455.97 644.965 455.308 645.424C454.658 645.872 453.767 646.096 452.636 646.096Z" fill="#6FCF97"/>
<rect x="345.5" y="629" width="23" height="22" rx="4" fill="#6FCF97"/>
<path d="M354.5 642.812L361.562 635.719L362.5 636.656L354.5 644.656L350.781 640.938L351.688 640L354.5 642.812Z" fill="white"/>
<path d="M538.119 646L538.103 637.84L534.055 644.64H533.319L529.271 637.888V646H527.735V634.8H529.047L533.719 642.672L538.327 634.8H539.639L539.655 646H538.119ZM545.88 637.44C547.053 637.44 547.949 637.728 548.568 638.304C549.197 638.88 549.512 639.739 549.512 640.88V646H548.056V644.88C547.8 645.275 547.432 645.579 546.952 645.792C546.483 645.995 545.923 646.096 545.272 646.096C544.323 646.096 543.56 645.867 542.984 645.408C542.419 644.949 542.136 644.347 542.136 643.6C542.136 642.853 542.408 642.256 542.952 641.808C543.496 641.349 544.36 641.12 545.544 641.12H547.976V640.816C547.976 640.155 547.784 639.648 547.4 639.296C547.016 638.944 546.451 638.768 545.704 638.768C545.203 638.768 544.712 638.853 544.232 639.024C543.752 639.184 543.347 639.403 543.016 639.68L542.376 638.528C542.813 638.176 543.336 637.909 543.944 637.728C544.552 637.536 545.197 637.44 545.88 637.44ZM545.528 644.912C546.115 644.912 546.621 644.784 547.048 644.528C547.475 644.261 547.784 643.888 547.976 643.408V642.224H545.608C544.307 642.224 543.656 642.661 543.656 643.536C543.656 643.963 543.821 644.299 544.152 644.544C544.483 644.789 544.941 644.912 545.528 644.912ZM560.513 637.52V644.848C560.513 646.331 560.145 647.424 559.409 648.128C558.673 648.843 557.575 649.2 556.113 649.2C555.313 649.2 554.551 649.088 553.825 648.864C553.1 648.651 552.513 648.341 552.065 647.936L552.801 646.752C553.196 647.093 553.681 647.36 554.257 647.552C554.844 647.755 555.447 647.856 556.065 647.856C557.057 647.856 557.788 647.621 558.257 647.152C558.737 646.683 558.977 645.968 558.977 645.008V644.336C558.615 644.773 558.167 645.104 557.633 645.328C557.111 645.541 556.54 645.648 555.921 645.648C555.111 645.648 554.375 645.477 553.713 645.136C553.063 644.784 552.551 644.299 552.177 643.68C551.804 643.051 551.617 642.336 551.617 641.536C551.617 640.736 551.804 640.027 552.177 639.408C552.551 638.779 553.063 638.293 553.713 637.952C554.375 637.611 555.111 637.44 555.921 637.44C556.561 637.44 557.153 637.557 557.697 637.792C558.252 638.027 558.705 638.373 559.057 638.832V637.52H560.513ZM556.097 644.304C556.652 644.304 557.148 644.187 557.585 643.952C558.033 643.717 558.38 643.392 558.625 642.976C558.881 642.549 559.009 642.069 559.009 641.536C559.009 640.715 558.737 640.053 558.193 639.552C557.649 639.04 556.951 638.784 556.097 638.784C555.233 638.784 554.529 639.04 553.985 639.552C553.441 640.053 553.169 640.715 553.169 641.536C553.169 642.069 553.292 642.549 553.537 642.976C553.793 643.392 554.14 643.717 554.577 643.952C555.025 644.187 555.532 644.304 556.097 644.304ZM563.448 637.52H564.984V646H563.448V637.52ZM564.216 635.888C563.918 635.888 563.667 635.792 563.464 635.6C563.272 635.408 563.176 635.173 563.176 634.896C563.176 634.619 563.272 634.384 563.464 634.192C563.667 633.989 563.918 633.888 564.216 633.888C564.515 633.888 564.76 633.984 564.952 634.176C565.155 634.357 565.256 634.587 565.256 634.864C565.256 635.152 565.155 635.397 564.952 635.6C564.76 635.792 564.515 635.888 564.216 635.888ZM571.613 646.096C570.749 646.096 569.976 645.909 569.293 645.536C568.621 645.163 568.093 644.651 567.709 644C567.325 643.339 567.133 642.592 567.133 641.76C567.133 640.928 567.325 640.187 567.709 639.536C568.093 638.875 568.621 638.363 569.293 638C569.976 637.627 570.749 637.44 571.613 637.44C572.381 637.44 573.064 637.595 573.661 637.904C574.269 638.213 574.738 638.661 575.069 639.248L573.901 640C573.634 639.595 573.304 639.291 572.909 639.088C572.514 638.885 572.077 638.784 571.597 638.784C571.042 638.784 570.541 638.907 570.093 639.152C569.656 639.397 569.309 639.749 569.053 640.208C568.808 640.656 568.685 641.173 568.685 641.76C568.685 642.357 568.808 642.885 569.053 643.344C569.309 643.792 569.656 644.139 570.093 644.384C570.541 644.629 571.042 644.752 571.597 644.752C572.077 644.752 572.514 644.651 572.909 644.448C573.304 644.245 573.634 643.941 573.901 643.536L575.069 644.272C574.738 644.859 574.269 645.312 573.661 645.632C573.064 645.941 572.381 646.096 571.613 646.096ZM580.146 637.44C581.319 637.44 582.215 637.728 582.834 638.304C583.463 638.88 583.778 639.739 583.778 640.88V646H582.322V644.88C582.066 645.275 581.698 645.579 581.218 645.792C580.748 645.995 580.188 646.096 579.538 646.096C578.588 646.096 577.826 645.867 577.25 645.408C576.684 644.949 576.402 644.347 576.402 643.6C576.402 642.853 576.674 642.256 577.218 641.808C577.762 641.349 578.626 641.12 579.81 641.12H582.242V640.816C582.242 640.155 582.05 639.648 581.666 639.296C581.282 638.944 580.716 638.768 579.97 638.768C579.468 638.768 578.978 638.853 578.498 639.024C578.018 639.184 577.612 639.403 577.282 639.68L576.642 638.528C577.079 638.176 577.602 637.909 578.21 637.728C578.818 637.536 579.463 637.44 580.146 637.44ZM579.794 644.912C580.38 644.912 580.887 644.784 581.314 644.528C581.74 644.261 582.05 643.888 582.242 643.408V642.224H579.874C578.572 642.224 577.922 642.661 577.922 643.536C577.922 643.963 578.087 644.299 578.418 644.544C578.748 644.789 579.207 644.912 579.794 644.912ZM586.62 634.128H588.156V646H586.62V634.128ZM595.61 634.8H597.21V646H595.61V634.8ZM605.107 645.504C604.883 645.696 604.605 645.845 604.275 645.952C603.944 646.048 603.603 646.096 603.251 646.096C602.397 646.096 601.736 645.867 601.267 645.408C600.797 644.949 600.563 644.293 600.563 643.44V638.784H599.123V637.52H600.563V635.664H602.099V637.52H604.531V638.784H602.099V643.376C602.099 643.835 602.211 644.187 602.435 644.432C602.669 644.677 603 644.8 603.427 644.8C603.896 644.8 604.296 644.667 604.627 644.4L605.107 645.504ZM614.347 641.808C614.347 641.925 614.336 642.08 614.315 642.272H607.435C607.531 643.019 607.856 643.621 608.411 644.08C608.976 644.528 609.675 644.752 610.507 644.752C611.52 644.752 612.336 644.411 612.955 643.728L613.803 644.72C613.419 645.168 612.939 645.509 612.363 645.744C611.797 645.979 611.163 646.096 610.459 646.096C609.563 646.096 608.768 645.915 608.075 645.552C607.381 645.179 606.843 644.661 606.459 644C606.085 643.339 605.899 642.592 605.899 641.76C605.899 640.939 606.08 640.197 606.443 639.536C606.816 638.875 607.323 638.363 607.963 638C608.613 637.627 609.344 637.44 610.155 637.44C610.965 637.44 611.685 637.627 612.315 638C612.955 638.363 613.451 638.875 613.803 639.536C614.165 640.197 614.347 640.955 614.347 641.808ZM610.155 638.736C609.419 638.736 608.8 638.96 608.299 639.408C607.808 639.856 607.52 640.443 607.435 641.168H612.875C612.789 640.453 612.496 639.872 611.995 639.424C611.504 638.965 610.891 638.736 610.155 638.736ZM627.087 637.44C628.154 637.44 628.997 637.749 629.615 638.368C630.245 638.987 630.559 639.904 630.559 641.12V646H629.023V641.296C629.023 640.475 628.831 639.856 628.447 639.44C628.074 639.024 627.535 638.816 626.831 638.816C626.053 638.816 625.434 639.061 624.975 639.552C624.517 640.032 624.287 640.725 624.287 641.632V646H622.751V641.296C622.751 640.475 622.559 639.856 622.175 639.44C621.802 639.024 621.263 638.816 620.559 638.816C619.781 638.816 619.162 639.061 618.703 639.552C618.245 640.032 618.015 640.725 618.015 641.632V646H616.479V637.52H617.951V638.784C618.261 638.347 618.666 638.016 619.167 637.792C619.669 637.557 620.239 637.44 620.879 637.44C621.541 637.44 622.127 637.573 622.639 637.84C623.151 638.107 623.546 638.496 623.823 639.008C624.143 638.517 624.586 638.133 625.151 637.856C625.727 637.579 626.373 637.44 627.087 637.44ZM635.818 646.096C635.124 646.096 634.458 646.005 633.818 645.824C633.178 645.632 632.676 645.392 632.314 645.104L632.954 643.888C633.327 644.155 633.78 644.368 634.314 644.528C634.847 644.688 635.386 644.768 635.93 644.768C637.274 644.768 637.946 644.384 637.946 643.616C637.946 643.36 637.855 643.157 637.674 643.008C637.492 642.859 637.263 642.752 636.986 642.688C636.719 642.613 636.335 642.533 635.834 642.448C635.151 642.341 634.591 642.219 634.154 642.08C633.727 641.941 633.359 641.707 633.05 641.376C632.74 641.045 632.586 640.581 632.586 639.984C632.586 639.216 632.906 638.603 633.546 638.144C634.186 637.675 635.044 637.44 636.122 637.44C636.687 637.44 637.252 637.509 637.818 637.648C638.383 637.787 638.847 637.973 639.21 638.208L638.554 639.424C637.86 638.976 637.044 638.752 636.106 638.752C635.455 638.752 634.959 638.859 634.618 639.072C634.276 639.285 634.106 639.568 634.106 639.92C634.106 640.197 634.202 640.416 634.394 640.576C634.586 640.736 634.82 640.853 635.098 640.928C635.386 641.003 635.786 641.088 636.298 641.184C636.98 641.301 637.53 641.429 637.946 641.568C638.372 641.696 638.735 641.92 639.034 642.24C639.332 642.56 639.482 643.008 639.482 643.584C639.482 644.352 639.151 644.965 638.49 645.424C637.839 645.872 636.948 646.096 635.818 646.096Z" fill="#CECECE"/>
<rect x="496.5" y="630" width="21" height="20" rx="3" stroke="#C4C4C4" stroke-width="2"/>
<path d="M722.859 634.8C724.31 634.8 725.451 635.147 726.283 635.84C727.115 636.533 727.531 637.488 727.531 638.704C727.531 639.92 727.115 640.875 726.283 641.568C725.451 642.261 724.31 642.608 722.859 642.608H720.091V646H718.491V634.8H722.859ZM722.811 641.216C723.824 641.216 724.598 641.003 725.131 640.576C725.664 640.139 725.931 639.515 725.931 638.704C725.931 637.893 725.664 637.275 725.131 636.848C724.598 636.411 723.824 636.192 722.811 636.192H720.091V641.216H722.811ZM733.258 646.096C732.416 646.096 731.658 645.909 730.986 645.536C730.314 645.163 729.786 644.651 729.402 644C729.029 643.339 728.842 642.592 728.842 641.76C728.842 640.928 729.029 640.187 729.402 639.536C729.786 638.875 730.314 638.363 730.986 638C731.658 637.627 732.416 637.44 733.258 637.44C734.101 637.44 734.853 637.627 735.514 638C736.186 638.363 736.709 638.875 737.082 639.536C737.466 640.187 737.658 640.928 737.658 641.76C737.658 642.592 737.466 643.339 737.082 644C736.709 644.651 736.186 645.163 735.514 645.536C734.853 645.909 734.101 646.096 733.258 646.096ZM733.258 644.752C733.802 644.752 734.288 644.629 734.714 644.384C735.152 644.128 735.493 643.776 735.738 643.328C735.984 642.869 736.106 642.347 736.106 641.76C736.106 641.173 735.984 640.656 735.738 640.208C735.493 639.749 735.152 639.397 734.714 639.152C734.288 638.907 733.802 638.784 733.258 638.784C732.714 638.784 732.224 638.907 731.786 639.152C731.36 639.397 731.018 639.749 730.762 640.208C730.517 640.656 730.394 641.173 730.394 641.76C730.394 642.347 730.517 642.869 730.762 643.328C731.018 643.776 731.36 644.128 731.786 644.384C732.224 644.629 732.714 644.752 733.258 644.752ZM744.551 645.504C744.327 645.696 744.049 645.845 743.719 645.952C743.388 646.048 743.047 646.096 742.695 646.096C741.841 646.096 741.18 645.867 740.711 645.408C740.241 644.949 740.007 644.293 740.007 643.44V638.784H738.567V637.52H740.007V635.664H741.543V637.52H743.975V638.784H741.543V643.376C741.543 643.835 741.655 644.187 741.879 644.432C742.113 644.677 742.444 644.8 742.871 644.8C743.34 644.8 743.74 644.667 744.071 644.4L744.551 645.504ZM746.408 637.52H747.944V646H746.408V637.52ZM747.176 635.888C746.877 635.888 746.626 635.792 746.424 635.6C746.232 635.408 746.136 635.173 746.136 634.896C746.136 634.619 746.232 634.384 746.424 634.192C746.626 633.989 746.877 633.888 747.176 633.888C747.474 633.888 747.72 633.984 747.912 634.176C748.114 634.357 748.216 634.587 748.216 634.864C748.216 635.152 748.114 635.397 747.912 635.6C747.72 635.792 747.474 635.888 747.176 635.888ZM754.508 646.096C753.666 646.096 752.908 645.909 752.236 645.536C751.564 645.163 751.036 644.651 750.652 644C750.279 643.339 750.092 642.592 750.092 641.76C750.092 640.928 750.279 640.187 750.652 639.536C751.036 638.875 751.564 638.363 752.236 638C752.908 637.627 753.666 637.44 754.508 637.44C755.351 637.44 756.103 637.627 756.764 638C757.436 638.363 757.959 638.875 758.332 639.536C758.716 640.187 758.908 640.928 758.908 641.76C758.908 642.592 758.716 643.339 758.332 644C757.959 644.651 757.436 645.163 756.764 645.536C756.103 645.909 755.351 646.096 754.508 646.096ZM754.508 644.752C755.052 644.752 755.538 644.629 755.964 644.384C756.402 644.128 756.743 643.776 756.988 643.328C757.234 642.869 757.356 642.347 757.356 641.76C757.356 641.173 757.234 640.656 756.988 640.208C756.743 639.749 756.402 639.397 755.964 639.152C755.538 638.907 755.052 638.784 754.508 638.784C753.964 638.784 753.474 638.907 753.036 639.152C752.61 639.397 752.268 639.749 752.012 640.208C751.767 640.656 751.644 641.173 751.644 641.76C751.644 642.347 751.767 642.869 752.012 643.328C752.268 643.776 752.61 644.128 753.036 644.384C753.474 644.629 753.964 644.752 754.508 644.752ZM765.561 637.44C766.638 637.44 767.491 637.755 768.121 638.384C768.761 639.003 769.081 639.915 769.081 641.12V646H767.545V641.296C767.545 640.475 767.347 639.856 766.953 639.44C766.558 639.024 765.993 638.816 765.257 638.816C764.425 638.816 763.769 639.061 763.289 639.552C762.809 640.032 762.569 640.725 762.569 641.632V646H761.033V637.52H762.505V638.8C762.814 638.363 763.23 638.027 763.753 637.792C764.286 637.557 764.889 637.44 765.561 637.44ZM774.355 646.096C773.662 646.096 772.995 646.005 772.355 645.824C771.715 645.632 771.214 645.392 770.851 645.104L771.491 643.888C771.864 644.155 772.318 644.368 772.851 644.528C773.384 644.688 773.923 644.768 774.467 644.768C775.811 644.768 776.483 644.384 776.483 643.616C776.483 643.36 776.392 643.157 776.211 643.008C776.03 642.859 775.8 642.752 775.523 642.688C775.256 642.613 774.872 642.533 774.371 642.448C773.688 642.341 773.128 642.219 772.691 642.08C772.264 641.941 771.896 641.707 771.587 641.376C771.278 641.045 771.123 640.581 771.123 639.984C771.123 639.216 771.443 638.603 772.083 638.144C772.723 637.675 773.582 637.44 774.659 637.44C775.224 637.44 775.79 637.509 776.355 637.648C776.92 637.787 777.384 637.973 777.747 638.208L777.091 639.424C776.398 638.976 775.582 638.752 774.643 638.752C773.992 638.752 773.496 638.859 773.155 639.072C772.814 639.285 772.643 639.568 772.643 639.92C772.643 640.197 772.739 640.416 772.931 640.576C773.123 640.736 773.358 640.853 773.635 640.928C773.923 641.003 774.323 641.088 774.835 641.184C775.518 641.301 776.067 641.429 776.483 641.568C776.91 641.696 777.272 641.92 777.571 642.24C777.87 642.56 778.019 643.008 778.019 643.584C778.019 644.352 777.688 644.965 777.027 645.424C776.376 645.872 775.486 646.096 774.355 646.096Z" fill="#6FCF97"/>
<rect x="674.5" y="629" width="23" height="22" rx="4" fill="#6FCF97"/>
<path d="M683.5 642.812L690.562 635.719L691.5 636.656L683.5 644.656L679.781 640.938L680.688 640L683.5 642.812Z" fill="white"/>
<path d="M441.132 342L436.012 334.8C435.436 334.864 434.838 334.896 434.22 334.896H428.204V342H425.836V319.6H434.22C437.078 319.6 439.318 320.283 440.94 321.648C442.561 323.013 443.372 324.891 443.372 327.28C443.372 329.029 442.924 330.512 442.028 331.728C441.153 332.923 439.894 333.787 438.252 334.32L443.724 342H441.132ZM434.156 332.88C436.374 332.88 438.07 332.389 439.244 331.408C440.417 330.427 441.003 329.051 441.003 327.28C441.003 325.467 440.417 324.08 439.244 323.12C438.07 322.139 436.374 321.648 434.156 321.648H428.204V332.88H434.156ZM463.649 325.168V342H461.472V338.928C460.875 339.952 460.054 340.752 459.009 341.328C457.963 341.883 456.769 342.16 455.425 342.16C453.227 342.16 451.489 341.552 450.209 340.336C448.95 339.099 448.321 337.296 448.321 334.928V325.168H450.593V334.704C450.593 336.475 451.03 337.819 451.905 338.736C452.779 339.653 454.027 340.112 455.649 340.112C457.419 340.112 458.817 339.579 459.841 338.512C460.865 337.424 461.377 335.92 461.377 334V325.168H463.649ZM491.004 325.04C493.116 325.04 494.769 325.648 495.964 326.864C497.18 328.08 497.788 329.872 497.788 332.24V342H495.516V332.464C495.516 330.715 495.089 329.381 494.236 328.464C493.404 327.547 492.22 327.088 490.684 327.088C488.934 327.088 487.558 327.632 486.556 328.72C485.553 329.787 485.052 331.269 485.052 333.168V342H482.78V332.464C482.78 330.715 482.353 329.381 481.5 328.464C480.668 327.547 479.473 327.088 477.916 327.088C476.188 327.088 474.812 327.632 473.788 328.72C472.785 329.787 472.284 331.269 472.284 333.168V342H470.012V325.168H472.188V328.24C472.785 327.216 473.617 326.427 474.684 325.872C475.75 325.317 476.977 325.04 478.364 325.04C479.772 325.04 480.988 325.339 482.012 325.936C483.057 326.533 483.836 327.419 484.348 328.592C484.966 327.483 485.852 326.619 487.004 326C488.177 325.36 489.51 325.04 491.004 325.04ZM509.837 325.04C512.035 325.04 513.72 325.595 514.893 326.704C516.067 327.792 516.653 329.413 516.653 331.568V342H514.477V339.376C513.965 340.251 513.208 340.933 512.205 341.424C511.224 341.915 510.051 342.16 508.685 342.16C506.808 342.16 505.315 341.712 504.205 340.816C503.096 339.92 502.541 338.736 502.541 337.264C502.541 335.835 503.053 334.683 504.077 333.808C505.123 332.933 506.776 332.496 509.037 332.496H514.381V331.472C514.381 330.021 513.976 328.923 513.165 328.176C512.355 327.408 511.171 327.024 509.613 327.024C508.547 327.024 507.523 327.205 506.541 327.568C505.56 327.909 504.717 328.389 504.013 329.008L502.989 327.312C503.843 326.587 504.867 326.032 506.061 325.648C507.256 325.243 508.515 325.04 509.837 325.04ZM509.037 340.368C510.317 340.368 511.416 340.08 512.333 339.504C513.251 338.907 513.933 338.053 514.381 336.944V334.192H509.101C506.221 334.192 504.781 335.195 504.781 337.2C504.781 338.181 505.155 338.96 505.901 339.536C506.648 340.091 507.693 340.368 509.037 340.368ZM538.471 325.168V339.952C538.471 342.811 537.767 344.923 536.359 346.288C534.972 347.675 532.871 348.368 530.055 348.368C528.497 348.368 527.015 348.133 525.607 347.664C524.22 347.216 523.089 346.587 522.215 345.776L523.367 344.048C524.177 344.773 525.159 345.339 526.311 345.744C527.484 346.149 528.711 346.352 529.991 346.352C532.124 346.352 533.692 345.851 534.695 344.848C535.697 343.867 536.199 342.331 536.199 340.24V338.096C535.495 339.163 534.567 339.973 533.415 340.528C532.284 341.083 531.025 341.36 529.639 341.36C528.06 341.36 526.62 341.019 525.319 340.336C524.039 339.632 523.025 338.661 522.279 337.424C521.553 336.165 521.191 334.747 521.191 333.168C521.191 331.589 521.553 330.181 522.279 328.944C523.025 327.707 524.039 326.747 525.319 326.064C526.599 325.381 528.039 325.04 529.639 325.04C531.068 325.04 532.359 325.328 533.511 325.904C534.663 326.48 535.591 327.312 536.295 328.4V325.168H538.471ZM529.863 339.344C531.079 339.344 532.177 339.088 533.159 338.576C534.14 338.043 534.897 337.307 535.431 336.368C535.985 335.429 536.263 334.363 536.263 333.168C536.263 331.973 535.985 330.917 535.431 330C534.897 329.061 534.14 328.336 533.159 327.824C532.199 327.291 531.1 327.024 529.863 327.024C528.647 327.024 527.548 327.28 526.567 327.792C525.607 328.304 524.849 329.029 524.295 329.968C523.761 330.907 523.495 331.973 523.495 333.168C523.495 334.363 523.761 335.429 524.295 336.368C524.849 337.307 525.607 338.043 526.567 338.576C527.548 339.088 528.647 339.344 529.863 339.344ZM544.824 325.168H547.096V342H544.824V325.168ZM545.976 321.488C545.507 321.488 545.112 321.328 544.792 321.008C544.472 320.688 544.312 320.304 544.312 319.856C544.312 319.429 544.472 319.056 544.792 318.736C545.112 318.416 545.507 318.256 545.976 318.256C546.446 318.256 546.84 318.416 547.16 318.736C547.48 319.035 547.64 319.397 547.64 319.824C547.64 320.293 547.48 320.688 547.16 321.008C546.84 321.328 546.446 321.488 545.976 321.488ZM561.994 325.04C564.106 325.04 565.781 325.659 567.018 326.896C568.277 328.112 568.906 329.893 568.906 332.24V342H566.634V332.464C566.634 330.715 566.197 329.381 565.322 328.464C564.447 327.547 563.199 327.088 561.578 327.088C559.765 327.088 558.325 327.632 557.258 328.72C556.213 329.787 555.69 331.269 555.69 333.168V342H553.418V325.168H555.594V328.272C556.213 327.248 557.066 326.459 558.154 325.904C559.263 325.328 560.543 325.04 561.994 325.04ZM590.721 325.168V339.952C590.721 342.811 590.017 344.923 588.609 346.288C587.222 347.675 585.121 348.368 582.305 348.368C580.747 348.368 579.265 348.133 577.857 347.664C576.47 347.216 575.339 346.587 574.465 345.776L575.617 344.048C576.427 344.773 577.409 345.339 578.561 345.744C579.734 346.149 580.961 346.352 582.241 346.352C584.374 346.352 585.942 345.851 586.945 344.848C587.947 343.867 588.449 342.331 588.449 340.24V338.096C587.745 339.163 586.817 339.973 585.665 340.528C584.534 341.083 583.275 341.36 581.889 341.36C580.31 341.36 578.87 341.019 577.569 340.336C576.289 339.632 575.275 338.661 574.529 337.424C573.803 336.165 573.441 334.747 573.441 333.168C573.441 331.589 573.803 330.181 574.529 328.944C575.275 327.707 576.289 326.747 577.569 326.064C578.849 325.381 580.289 325.04 581.889 325.04C583.318 325.04 584.609 325.328 585.761 325.904C586.913 326.48 587.841 327.312 588.545 328.4V325.168H590.721ZM582.113 339.344C583.329 339.344 584.427 339.088 585.409 338.576C586.39 338.043 587.147 337.307 587.681 336.368C588.235 335.429 588.513 334.363 588.513 333.168C588.513 331.973 588.235 330.917 587.681 330C587.147 329.061 586.39 328.336 585.409 327.824C584.449 327.291 583.35 327.024 582.113 327.024C580.897 327.024 579.798 327.28 578.817 327.792C577.857 328.304 577.099 329.029 576.545 329.968C576.011 330.907 575.745 331.973 575.745 333.168C575.745 334.363 576.011 335.429 576.545 336.368C577.099 337.307 577.857 338.043 578.817 338.576C579.798 339.088 580.897 339.344 582.113 339.344ZM614.313 340.976C613.887 341.36 613.353 341.659 612.713 341.872C612.095 342.064 611.444 342.16 610.761 342.16C609.183 342.16 607.967 341.733 607.113 340.88C606.26 340.027 605.833 338.821 605.833 337.264V327.088H602.825V325.168H605.833V321.488H608.105V325.168H613.225V327.088H608.105V337.136C608.105 338.139 608.351 338.907 608.841 339.44C609.353 339.952 610.079 340.208 611.017 340.208C611.487 340.208 611.935 340.133 612.361 339.984C612.809 339.835 613.193 339.621 613.513 339.344L614.313 340.976ZM627.025 325.04C629.137 325.04 630.812 325.659 632.049 326.896C633.308 328.112 633.937 329.893 633.937 332.24V342H631.665V332.464C631.665 330.715 631.228 329.381 630.353 328.464C629.479 327.547 628.231 327.088 626.609 327.088C624.796 327.088 623.356 327.632 622.289 328.72C621.244 329.787 620.721 331.269 620.721 333.168V342H618.449V318.256H620.721V328.112C621.34 327.131 622.193 326.373 623.281 325.84C624.369 325.307 625.617 325.04 627.025 325.04ZM642.282 328.464C642.815 327.333 643.604 326.48 644.65 325.904C645.716 325.328 647.028 325.04 648.586 325.04V327.248L648.042 327.216C646.271 327.216 644.884 327.76 643.882 328.848C642.879 329.936 642.378 331.461 642.378 333.424V342H640.106V325.168H642.282V328.464ZM659.423 342.16C657.802 342.16 656.34 341.797 655.039 341.072C653.738 340.325 652.714 339.301 651.967 338C651.22 336.699 650.847 335.227 650.847 333.584C650.847 331.941 651.22 330.469 651.967 329.168C652.714 327.867 653.738 326.853 655.039 326.128C656.34 325.403 657.802 325.04 659.423 325.04C661.044 325.04 662.506 325.403 663.807 326.128C665.108 326.853 666.122 327.867 666.847 329.168C667.594 330.469 667.967 331.941 667.967 333.584C667.967 335.227 667.594 336.699 666.847 338C666.122 339.301 665.108 340.325 663.807 341.072C662.506 341.797 661.044 342.16 659.423 342.16ZM659.423 340.144C660.618 340.144 661.684 339.877 662.623 339.344C663.583 338.789 664.33 338.011 664.863 337.008C665.396 336.005 665.663 334.864 665.663 333.584C665.663 332.304 665.396 331.163 664.863 330.16C664.33 329.157 663.583 328.389 662.623 327.856C661.684 327.301 660.618 327.024 659.423 327.024C658.228 327.024 657.151 327.301 656.191 327.856C655.252 328.389 654.506 329.157 653.951 330.16C653.418 331.163 653.151 332.304 653.151 333.584C653.151 334.864 653.418 336.005 653.951 337.008C654.506 338.011 655.252 338.789 656.191 339.344C657.151 339.877 658.228 340.144 659.423 340.144ZM687.774 325.168V342H685.597V338.928C685 339.952 684.179 340.752 683.134 341.328C682.088 341.883 680.894 342.16 679.55 342.16C677.352 342.16 675.614 341.552 674.334 340.336C673.075 339.099 672.446 337.296 672.446 334.928V325.168H674.718V334.704C674.718 336.475 675.155 337.819 676.03 338.736C676.904 339.653 678.152 340.112 679.774 340.112C681.544 340.112 682.942 339.579 683.966 338.512C684.99 337.424 685.502 335.92 685.502 334V325.168H687.774ZM709.721 325.168V339.952C709.721 342.811 709.017 344.923 707.609 346.288C706.222 347.675 704.121 348.368 701.305 348.368C699.747 348.368 698.265 348.133 696.857 347.664C695.47 347.216 694.339 346.587 693.465 345.776L694.617 344.048C695.427 344.773 696.409 345.339 697.561 345.744C698.734 346.149 699.961 346.352 701.241 346.352C703.374 346.352 704.942 345.851 705.945 344.848C706.947 343.867 707.449 342.331 707.449 340.24V338.096C706.745 339.163 705.817 339.973 704.665 340.528C703.534 341.083 702.275 341.36 700.889 341.36C699.31 341.36 697.87 341.019 696.569 340.336C695.289 339.632 694.275 338.661 693.529 337.424C692.803 336.165 692.441 334.747 692.441 333.168C692.441 331.589 692.803 330.181 693.529 328.944C694.275 327.707 695.289 326.747 696.569 326.064C697.849 325.381 699.289 325.04 700.889 325.04C702.318 325.04 703.609 325.328 704.761 325.904C705.913 326.48 706.841 327.312 707.545 328.4V325.168H709.721ZM701.113 339.344C702.329 339.344 703.427 339.088 704.409 338.576C705.39 338.043 706.147 337.307 706.681 336.368C707.235 335.429 707.513 334.363 707.513 333.168C707.513 331.973 707.235 330.917 706.681 330C706.147 329.061 705.39 328.336 704.409 327.824C703.449 327.291 702.35 327.024 701.113 327.024C699.897 327.024 698.798 327.28 697.817 327.792C696.857 328.304 696.099 329.029 695.545 329.968C695.011 330.907 694.745 331.973 694.745 333.168C694.745 334.363 695.011 335.429 695.545 336.368C696.099 337.307 696.857 338.043 697.817 338.576C698.798 339.088 699.897 339.344 701.113 339.344ZM724.65 325.04C726.762 325.04 728.437 325.659 729.674 326.896C730.933 328.112 731.562 329.893 731.562 332.24V342H729.29V332.464C729.29 330.715 728.853 329.381 727.978 328.464C727.104 327.547 725.856 327.088 724.234 327.088C722.421 327.088 720.981 327.632 719.914 328.72C718.869 329.787 718.346 331.269 718.346 333.168V342H716.074V318.256H718.346V328.112C718.965 327.131 719.818 326.373 720.906 325.84C721.994 325.307 723.242 325.04 724.65 325.04ZM977.184 325.04C978.762 325.04 980.192 325.403 981.472 326.128C982.752 326.832 983.754 327.835 984.48 329.136C985.205 330.437 985.568 331.92 985.568 333.584C985.568 335.248 985.205 336.731 984.48 338.032C983.754 339.333 982.752 340.347 981.472 341.072C980.192 341.797 978.762 342.16 977.184 342.16C975.776 342.16 974.506 341.861 973.376 341.264C972.266 340.667 971.37 339.803 970.688 338.672V342H968.512V318.256H970.784V328.368C971.488 327.28 972.384 326.459 973.472 325.904C974.581 325.328 975.818 325.04 977.184 325.04ZM977.024 340.144C978.197 340.144 979.264 339.877 980.224 339.344C981.184 338.789 981.93 338.011 982.464 337.008C983.018 336.005 983.296 334.864 983.296 333.584C983.296 332.304 983.018 331.163 982.464 330.16C981.93 329.157 981.184 328.389 980.224 327.856C979.264 327.301 978.197 327.024 977.024 327.024C975.829 327.024 974.752 327.301 973.792 327.856C972.853 328.389 972.106 329.157 971.552 330.16C971.018 331.163 970.752 332.304 970.752 333.584C970.752 334.864 971.018 336.005 971.552 337.008C972.106 338.011 972.853 338.789 973.792 339.344C974.752 339.877 975.829 340.144 977.024 340.144ZM995.994 325.04C998.191 325.04 999.876 325.595 1001.05 326.704C1002.22 327.792 1002.81 329.413 1002.81 331.568V342H1000.63V339.376C1000.12 340.251 999.364 340.933 998.362 341.424C997.38 341.915 996.207 342.16 994.842 342.16C992.964 342.16 991.471 341.712 990.362 340.816C989.252 339.92 988.698 338.736 988.698 337.264C988.698 335.835 989.21 334.683 990.234 333.808C991.279 332.933 992.932 332.496 995.194 332.496H1000.54V331.472C1000.54 330.021 1000.13 328.923 999.322 328.176C998.511 327.408 997.327 327.024 995.77 327.024C994.703 327.024 993.679 327.205 992.698 327.568C991.716 327.909 990.874 328.389 990.17 329.008L989.146 327.312C989.999 326.587 991.023 326.032 992.218 325.648C993.412 325.243 994.671 325.04 995.994 325.04ZM995.194 340.368C996.474 340.368 997.572 340.08 998.49 339.504C999.407 338.907 1000.09 338.053 1000.54 336.944V334.192H995.258C992.378 334.192 990.938 335.195 990.938 337.2C990.938 338.181 991.311 338.96 992.058 339.536C992.804 340.091 993.85 340.368 995.194 340.368ZM1024.63 325.168V339.952C1024.63 342.811 1023.92 344.923 1022.52 346.288C1021.13 347.675 1019.03 348.368 1016.21 348.368C1014.65 348.368 1013.17 348.133 1011.76 347.664C1010.38 347.216 1009.25 346.587 1008.37 345.776L1009.52 344.048C1010.33 344.773 1011.32 345.339 1012.47 345.744C1013.64 346.149 1014.87 346.352 1016.15 346.352C1018.28 346.352 1019.85 345.851 1020.85 344.848C1021.85 343.867 1022.36 342.331 1022.36 340.24V338.096C1021.65 339.163 1020.72 339.973 1019.57 340.528C1018.44 341.083 1017.18 341.36 1015.8 341.36C1014.22 341.36 1012.78 341.019 1011.48 340.336C1010.2 339.632 1009.18 338.661 1008.44 337.424C1007.71 336.165 1007.35 334.747 1007.35 333.168C1007.35 331.589 1007.71 330.181 1008.44 328.944C1009.18 327.707 1010.2 326.747 1011.48 326.064C1012.76 325.381 1014.2 325.04 1015.8 325.04C1017.22 325.04 1018.52 325.328 1019.67 325.904C1020.82 326.48 1021.75 327.312 1022.45 328.4V325.168H1024.63ZM1016.02 339.344C1017.24 339.344 1018.33 339.088 1019.32 338.576C1020.3 338.043 1021.05 337.307 1021.59 336.368C1022.14 335.429 1022.42 334.363 1022.42 333.168C1022.42 331.973 1022.14 330.917 1021.59 330C1021.05 329.061 1020.3 328.336 1019.32 327.824C1018.36 327.291 1017.26 327.024 1016.02 327.024C1014.8 327.024 1013.7 327.28 1012.72 327.792C1011.76 328.304 1011.01 329.029 1010.45 329.968C1009.92 330.907 1009.65 331.973 1009.65 333.168C1009.65 334.363 1009.92 335.429 1010.45 336.368C1011.01 337.307 1011.76 338.043 1012.72 338.576C1013.7 339.088 1014.8 339.344 1016.02 339.344Z" fill="#777777"/>
<path d="M762.042 330.352C763.322 330.757 764.324 331.44 765.05 332.4C765.775 333.339 766.138 334.501 766.138 335.888C766.138 337.851 765.37 339.365 763.834 340.432C762.319 341.477 760.1 342 757.178 342H745.594V319.6H756.538C759.268 319.6 761.359 320.123 762.81 321.168C764.282 322.213 765.018 323.632 765.018 325.424C765.018 326.512 764.751 327.483 764.218 328.336C763.706 329.189 762.98 329.861 762.042 330.352ZM750.746 323.504V328.784H755.898C757.178 328.784 758.148 328.56 758.81 328.112C759.471 327.664 759.802 327.003 759.802 326.128C759.802 325.253 759.471 324.603 758.81 324.176C758.148 323.728 757.178 323.504 755.898 323.504H750.746ZM756.794 338.096C758.159 338.096 759.183 337.872 759.866 337.424C760.57 336.976 760.922 336.283 760.922 335.344C760.922 333.488 759.546 332.56 756.794 332.56H750.746V338.096H756.794ZM769.71 318.256H774.702V342H769.71V318.256ZM786.279 324.528C788.946 324.528 790.994 325.168 792.423 326.448C793.853 327.707 794.567 329.616 794.567 332.176V342H789.895V339.856C788.957 341.456 787.207 342.256 784.647 342.256C783.325 342.256 782.173 342.032 781.191 341.584C780.231 341.136 779.495 340.517 778.983 339.728C778.471 338.939 778.215 338.043 778.215 337.04C778.215 335.44 778.813 334.181 780.007 333.264C781.223 332.347 783.09 331.888 785.607 331.888H789.575C789.575 330.8 789.245 329.968 788.583 329.392C787.922 328.795 786.93 328.496 785.607 328.496C784.69 328.496 783.783 328.645 782.887 328.944C782.013 329.221 781.266 329.605 780.647 330.096L778.855 326.608C779.794 325.947 780.914 325.435 782.215 325.072C783.538 324.709 784.893 324.528 786.279 324.528ZM785.895 338.896C786.749 338.896 787.506 338.704 788.167 338.32C788.829 337.915 789.298 337.328 789.575 336.56V334.8H786.151C784.103 334.8 783.079 335.472 783.079 336.816C783.079 337.456 783.325 337.968 783.815 338.352C784.327 338.715 785.021 338.896 785.895 338.896ZM816.809 318.256V342H812.041V340.016C810.803 341.509 809.011 342.256 806.665 342.256C805.043 342.256 803.571 341.893 802.249 341.168C800.947 340.443 799.923 339.408 799.177 338.064C798.43 336.72 798.057 335.163 798.057 333.392C798.057 331.621 798.43 330.064 799.177 328.72C799.923 327.376 800.947 326.341 802.249 325.616C803.571 324.891 805.043 324.528 806.665 324.528C808.862 324.528 810.579 325.221 811.817 326.608V318.256H816.809ZM807.529 338.16C808.787 338.16 809.833 337.733 810.665 336.88C811.497 336.005 811.913 334.843 811.913 333.392C811.913 331.941 811.497 330.789 810.665 329.936C809.833 329.061 808.787 328.624 807.529 328.624C806.249 328.624 805.193 329.061 804.361 329.936C803.529 330.789 803.113 331.941 803.113 333.392C803.113 334.843 803.529 336.005 804.361 336.88C805.193 337.733 806.249 338.16 807.529 338.16ZM838.293 333.456C838.293 333.52 838.261 333.968 838.197 334.8H825.173C825.408 335.867 825.962 336.709 826.837 337.328C827.712 337.947 828.8 338.256 830.101 338.256C830.997 338.256 831.786 338.128 832.469 337.872C833.173 337.595 833.824 337.168 834.421 336.592L837.077 339.472C835.456 341.328 833.088 342.256 829.973 342.256C828.032 342.256 826.314 341.883 824.821 341.136C823.328 340.368 822.176 339.312 821.365 337.968C820.554 336.624 820.149 335.099 820.149 333.392C820.149 331.707 820.544 330.192 821.333 328.848C822.144 327.483 823.242 326.427 824.629 325.68C826.037 324.912 827.605 324.528 829.333 324.528C831.018 324.528 832.544 324.891 833.909 325.616C835.274 326.341 836.341 327.387 837.109 328.752C837.898 330.096 838.293 331.664 838.293 333.456ZM829.365 328.304C828.234 328.304 827.285 328.624 826.517 329.264C825.749 329.904 825.28 330.779 825.109 331.888H833.589C833.418 330.8 832.949 329.936 832.181 329.296C831.413 328.635 830.474 328.304 829.365 328.304ZM852.721 341.168C852.23 341.531 851.622 341.808 850.897 342C850.193 342.171 849.446 342.256 848.657 342.256C846.609 342.256 845.019 341.733 843.889 340.688C842.779 339.643 842.225 338.107 842.225 336.08V329.008H839.569V325.168H842.225V320.976H847.217V325.168H851.505V329.008H847.217V336.016C847.217 336.741 847.398 337.307 847.76 337.712C848.145 338.096 848.678 338.288 849.361 338.288C850.15 338.288 850.822 338.075 851.377 337.648L852.721 341.168ZM865.987 324.528C868.12 324.528 869.837 325.168 871.139 326.448C872.461 327.728 873.123 329.627 873.123 332.144V342H868.131V332.912C868.131 331.547 867.832 330.533 867.235 329.872C866.637 329.189 865.773 328.848 864.643 328.848C863.384 328.848 862.381 329.243 861.635 330.032C860.888 330.8 860.515 331.952 860.515 333.488V342H855.523V318.256H860.515V326.576C861.176 325.915 861.976 325.413 862.915 325.072C863.853 324.709 864.877 324.528 865.987 324.528ZM886.027 342.256C884.214 342.256 882.582 341.883 881.131 341.136C879.702 340.368 878.582 339.312 877.771 337.968C876.961 336.624 876.555 335.099 876.555 333.392C876.555 331.685 876.961 330.16 877.771 328.816C878.582 327.472 879.702 326.427 881.131 325.68C882.582 324.912 884.214 324.528 886.027 324.528C887.841 324.528 889.462 324.912 890.891 325.68C892.321 326.427 893.441 327.472 894.251 328.816C895.062 330.16 895.467 331.685 895.467 333.392C895.467 335.099 895.062 336.624 894.251 337.968C893.441 339.312 892.321 340.368 890.891 341.136C889.462 341.883 887.841 342.256 886.027 342.256ZM886.027 338.16C887.307 338.16 888.353 337.733 889.163 336.88C889.995 336.005 890.411 334.843 890.411 333.392C890.411 331.941 889.995 330.789 889.163 329.936C888.353 329.061 887.307 328.624 886.027 328.624C884.747 328.624 883.691 329.061 882.859 329.936C882.027 330.789 881.611 331.941 881.611 333.392C881.611 334.843 882.027 336.005 882.859 336.88C883.691 337.733 884.747 338.16 886.027 338.16ZM903.572 327.056C904.169 326.224 904.969 325.595 905.972 325.168C906.996 324.741 908.169 324.528 909.492 324.528V329.136C908.937 329.093 908.564 329.072 908.372 329.072C906.943 329.072 905.823 329.477 905.012 330.288C904.201 331.077 903.796 332.272 903.796 333.872V342H898.804V324.784H903.572V327.056ZM922.924 324.528C925.058 324.528 926.775 325.168 928.076 326.448C929.399 327.728 930.06 329.627 930.06 332.144V342H925.068V332.912C925.068 331.547 924.77 330.533 924.172 329.872C923.575 329.189 922.711 328.848 921.58 328.848C920.322 328.848 919.319 329.243 918.572 330.032C917.826 330.8 917.452 331.952 917.452 333.488V342H912.46V324.784H917.228V326.8C917.89 326.075 918.711 325.52 919.692 325.136C920.674 324.731 921.751 324.528 922.924 324.528ZM936.38 318C937.276 318 938.012 318.288 938.588 318.864C939.164 319.419 939.452 320.155 939.452 321.072C939.452 321.499 939.399 321.925 939.292 322.352C939.186 322.779 938.962 323.419 938.62 324.272L936.764 328.88H933.596L934.972 323.824C934.439 323.589 934.023 323.237 933.724 322.768C933.426 322.299 933.276 321.733 933.276 321.072C933.276 320.155 933.564 319.419 934.14 318.864C934.738 318.288 935.484 318 936.38 318ZM948.065 342.256C946.635 342.256 945.238 342.085 943.873 341.744C942.507 341.381 941.419 340.933 940.609 340.4L942.273 336.816C943.041 337.307 943.969 337.712 945.057 338.032C946.145 338.331 947.211 338.48 948.257 338.48C950.369 338.48 951.425 337.957 951.425 336.912C951.425 336.421 951.137 336.069 950.561 335.856C949.985 335.643 949.099 335.461 947.905 335.312C946.497 335.099 945.334 334.853 944.417 334.576C943.499 334.299 942.699 333.808 942.017 333.104C941.355 332.4 941.025 331.397 941.025 330.096C941.025 329.008 941.334 328.048 941.953 327.216C942.593 326.363 943.51 325.701 944.705 325.232C945.921 324.763 947.35 324.528 948.993 324.528C950.209 324.528 951.414 324.667 952.609 324.944C953.825 325.2 954.827 325.563 955.617 326.032L953.953 329.584C952.438 328.731 950.785 328.304 948.993 328.304C947.926 328.304 947.126 328.453 946.593 328.752C946.059 329.051 945.793 329.435 945.793 329.904C945.793 330.437 946.081 330.811 946.657 331.024C947.233 331.237 948.15 331.44 949.409 331.632C950.817 331.867 951.969 332.123 952.865 332.4C953.761 332.656 954.539 333.136 955.201 333.84C955.862 334.544 956.193 335.525 956.193 336.784C956.193 337.851 955.873 338.8 955.233 339.632C954.593 340.464 953.654 341.115 952.417 341.584C951.201 342.032 949.75 342.256 948.065 342.256Z" fill="#6FCF97"/>
<circle cx="720" cy="199" r="72" fill="#6FCF97"/>
<path d="M734.239 201.704C736.799 202.515 738.805 203.88 740.255 205.8C741.706 207.677 742.431 210.003 742.431 212.776C742.431 216.701 740.895 219.731 737.823 221.864C734.794 223.955 730.357 225 724.511 225H701.343V180.2H723.231C728.693 180.2 732.874 181.245 735.775 183.336C738.719 185.427 740.191 188.264 740.191 191.848C740.191 194.024 739.658 195.965 738.591 197.672C737.567 199.379 736.117 200.723 734.239 201.704ZM711.647 188.008V198.568H721.951C724.511 198.568 726.453 198.12 727.775 197.224C729.098 196.328 729.759 195.005 729.759 193.256C729.759 191.507 729.098 190.205 727.775 189.352C726.453 188.456 724.511 188.008 721.951 188.008H711.647ZM723.743 217.192C726.474 217.192 728.522 216.744 729.887 215.848C731.295 214.952 731.999 213.565 731.999 211.688C731.999 207.976 729.247 206.12 723.743 206.12H711.647V217.192H723.743Z" fill="white"/>
<circle cx="770" cy="256" r="27" fill="#FAFAFA"/>
<circle cx="770" cy="256" r="22" fill="#C4EBD4"/>
<path d="M778.719 251.031L776.891 252.859L773.141 249.109L774.969 247.281C775.156 247.094 775.391 247 775.672 247C775.953 247 776.188 247.094 776.375 247.281L778.719 249.625C778.906 249.812 779 250.047 779 250.328C779 250.609 778.906 250.844 778.719 251.031ZM761 261.25L772.062 250.188L775.812 253.938L764.75 265H761V261.25Z" fill="#6FCF97"/>
<path d="M283 437L1083 435" stroke="#6FCF97" stroke-width="2" stroke-linecap="round" stroke-dasharray="1 5"/>
<path d="M1090 399V466" stroke="#6FCF97" stroke-width="2" stroke-linecap="round" stroke-dasharray="1 5"/>
<path d="M385.8 458.6C386.888 458.6 387.744 458.86 388.368 459.38C388.992 459.9 389.304 460.616 389.304 461.528C389.304 462.44 388.992 463.156 388.368 463.676C387.744 464.196 386.888 464.456 385.8 464.456H383.724V467H382.524V458.6H385.8ZM385.764 463.412C386.524 463.412 387.104 463.252 387.504 462.932C387.904 462.604 388.104 462.136 388.104 461.528C388.104 460.92 387.904 460.456 387.504 460.136C387.104 459.808 386.524 459.644 385.764 459.644H383.724V463.412H385.764ZM391.016 458.096H392.168V467H391.016V458.096ZM396.683 460.58C397.563 460.58 398.235 460.796 398.699 461.228C399.171 461.66 399.407 462.304 399.407 463.16V467H398.315V466.16C398.123 466.456 397.847 466.684 397.487 466.844C397.135 466.996 396.715 467.072 396.227 467.072C395.515 467.072 394.943 466.9 394.511 466.556C394.087 466.212 393.875 465.76 393.875 465.2C393.875 464.64 394.079 464.192 394.487 463.856C394.895 463.512 395.543 463.34 396.431 463.34H398.255V463.112C398.255 462.616 398.111 462.236 397.823 461.972C397.535 461.708 397.111 461.576 396.551 461.576C396.175 461.576 395.807 461.64 395.447 461.768C395.087 461.888 394.783 462.052 394.535 462.26L394.055 461.396C394.383 461.132 394.775 460.932 395.231 460.796C395.687 460.652 396.171 460.58 396.683 460.58ZM396.419 466.184C396.859 466.184 397.239 466.088 397.559 465.896C397.879 465.696 398.111 465.416 398.255 465.056V464.168H396.479C395.503 464.168 395.015 464.496 395.015 465.152C395.015 465.472 395.139 465.724 395.387 465.908C395.635 466.092 395.979 466.184 396.419 466.184ZM405.115 466.628C404.947 466.772 404.739 466.884 404.491 466.964C404.243 467.036 403.987 467.072 403.723 467.072C403.083 467.072 402.587 466.9 402.235 466.556C401.883 466.212 401.707 465.72 401.707 465.08V461.588H400.627V460.64H401.707V459.248H402.859V460.64H404.683V461.588H402.859V465.032C402.859 465.376 402.943 465.64 403.111 465.824C403.287 466.008 403.535 466.1 403.855 466.1C404.207 466.1 404.507 466 404.755 465.8L405.115 466.628ZM406.508 460.64H407.66V467H406.508V460.64ZM407.084 459.416C406.86 459.416 406.672 459.344 406.52 459.2C406.376 459.056 406.304 458.88 406.304 458.672C406.304 458.464 406.376 458.288 406.52 458.144C406.672 457.992 406.86 457.916 407.084 457.916C407.308 457.916 407.492 457.988 407.636 458.132C407.788 458.268 407.864 458.44 407.864 458.648C407.864 458.864 407.788 459.048 407.636 459.2C407.492 459.344 407.308 459.416 407.084 459.416ZM413.256 460.58C414.064 460.58 414.704 460.816 415.176 461.288C415.656 461.752 415.896 462.436 415.896 463.34V467H414.744V463.472C414.744 462.856 414.596 462.392 414.3 462.08C414.004 461.768 413.58 461.612 413.028 461.612C412.404 461.612 411.912 461.796 411.552 462.164C411.192 462.524 411.012 463.044 411.012 463.724V467H409.86V460.64H410.964V461.6C411.196 461.272 411.508 461.02 411.9 460.844C412.3 460.668 412.752 460.58 413.256 460.58ZM423.956 460.64V467H422.864V466.04C422.632 466.368 422.324 466.624 421.94 466.808C421.564 466.984 421.152 467.072 420.704 467.072C419.856 467.072 419.188 466.84 418.7 466.376C418.212 465.904 417.968 465.212 417.968 464.3V460.64H419.12V464.168C419.12 464.784 419.268 465.252 419.564 465.572C419.86 465.884 420.284 466.04 420.836 466.04C421.444 466.04 421.924 465.856 422.276 465.488C422.628 465.12 422.804 464.6 422.804 463.928V460.64H423.956ZM434.105 460.58C434.905 460.58 435.537 460.812 436.001 461.276C436.473 461.74 436.709 462.428 436.709 463.34V467H435.557V463.472C435.557 462.856 435.413 462.392 435.125 462.08C434.845 461.768 434.441 461.612 433.913 461.612C433.329 461.612 432.865 461.796 432.521 462.164C432.177 462.524 432.005 463.044 432.005 463.724V467H430.853V463.472C430.853 462.856 430.709 462.392 430.421 462.08C430.141 461.768 429.737 461.612 429.209 461.612C428.625 461.612 428.161 461.796 427.817 462.164C427.473 462.524 427.301 463.044 427.301 463.724V467H426.149V460.64H427.253V461.588C427.485 461.26 427.789 461.012 428.165 460.844C428.541 460.668 428.969 460.58 429.449 460.58C429.945 460.58 430.385 460.68 430.769 460.88C431.153 461.08 431.449 461.372 431.657 461.756C431.897 461.388 432.229 461.1 432.653 460.892C433.085 460.684 433.569 460.58 434.105 460.58Z" fill="#6FCF97"/>
<rect x="342" y="415" width="107" height="35" rx="17.5" fill="#E7F7EE"/>
<path d="M362.392 426.5V437H360.907V427.805H358.537V426.5H362.392ZM372.069 435.695V437H364.524V435.98L368.799 431.855C369.319 431.355 369.669 430.925 369.849 430.565C370.029 430.195 370.119 429.825 370.119 429.455C370.119 428.905 369.924 428.48 369.534 428.18C369.154 427.87 368.604 427.715 367.884 427.715C366.724 427.715 365.829 428.095 365.199 428.855L364.179 427.97C364.589 427.47 365.124 427.08 365.784 426.8C366.454 426.52 367.199 426.38 368.019 426.38C369.119 426.38 369.994 426.645 370.644 427.175C371.294 427.695 371.619 428.405 371.619 429.305C371.619 429.865 371.499 430.395 371.259 430.895C371.019 431.395 370.564 431.965 369.894 432.605L366.684 435.695H372.069Z" fill="#6FCF97"/>
<path d="M427 427.344L431 423.344L435 427.344L434.062 428.281L431 425.219L427.938 428.281L427 427.344Z" fill="#6FCF97"/>
<path d="M435 438.656L431 442.656L427 438.656L427.938 437.719L431 440.781L434.062 437.719L435 438.656Z" fill="#6FCF97"/>
<path d="M563.371 462.752H564.523V466.028C564.107 466.372 563.623 466.636 563.071 466.82C562.519 467.004 561.943 467.096 561.343 467.096C560.495 467.096 559.731 466.912 559.051 466.544C558.371 466.168 557.835 465.656 557.443 465.008C557.059 464.352 556.867 463.616 556.867 462.8C556.867 461.984 557.059 461.248 557.443 460.592C557.835 459.936 558.371 459.424 559.051 459.056C559.739 458.688 560.511 458.504 561.367 458.504C562.039 458.504 562.647 458.616 563.191 458.84C563.743 459.056 564.211 459.376 564.595 459.8L563.851 460.544C563.179 459.896 562.367 459.572 561.415 459.572C560.775 459.572 560.199 459.712 559.687 459.992C559.183 460.264 558.787 460.648 558.499 461.144C558.211 461.632 558.067 462.184 558.067 462.8C558.067 463.408 558.211 463.96 558.499 464.456C558.787 464.944 559.183 465.328 559.687 465.608C560.199 465.888 560.771 466.028 561.403 466.028C562.155 466.028 562.811 465.848 563.371 465.488V462.752ZM569.377 467.072C568.745 467.072 568.177 466.932 567.673 466.652C567.169 466.372 566.773 465.988 566.485 465.5C566.205 465.004 566.065 464.444 566.065 463.82C566.065 463.196 566.205 462.64 566.485 462.152C566.773 461.656 567.169 461.272 567.673 461C568.177 460.72 568.745 460.58 569.377 460.58C570.009 460.58 570.573 460.72 571.069 461C571.573 461.272 571.965 461.656 572.245 462.152C572.533 462.64 572.677 463.196 572.677 463.82C572.677 464.444 572.533 465.004 572.245 465.5C571.965 465.988 571.573 466.372 571.069 466.652C570.573 466.932 570.009 467.072 569.377 467.072ZM569.377 466.064C569.785 466.064 570.149 465.972 570.469 465.788C570.797 465.596 571.053 465.332 571.237 464.996C571.421 464.652 571.513 464.26 571.513 463.82C571.513 463.38 571.421 462.992 571.237 462.656C571.053 462.312 570.797 462.048 570.469 461.864C570.149 461.68 569.785 461.588 569.377 461.588C568.969 461.588 568.601 461.68 568.273 461.864C567.953 462.048 567.697 462.312 567.505 462.656C567.321 462.992 567.229 463.38 567.229 463.82C567.229 464.26 567.321 464.652 567.505 464.996C567.697 465.332 567.953 465.596 568.273 465.788C568.601 465.972 568.969 466.064 569.377 466.064ZM574.27 458.096H575.422V467H574.27V458.096ZM583.621 458.096V467H582.517V465.992C582.261 466.344 581.937 466.612 581.545 466.796C581.153 466.98 580.721 467.072 580.249 467.072C579.633 467.072 579.081 466.936 578.593 466.664C578.105 466.392 577.721 466.012 577.441 465.524C577.169 465.028 577.033 464.46 577.033 463.82C577.033 463.18 577.169 462.616 577.441 462.128C577.721 461.64 578.105 461.26 578.593 460.988C579.081 460.716 579.633 460.58 580.249 460.58C580.705 460.58 581.125 460.668 581.509 460.844C581.893 461.012 582.213 461.264 582.469 461.6V458.096H583.621ZM580.345 466.064C580.745 466.064 581.109 465.972 581.437 465.788C581.765 465.596 582.021 465.332 582.205 464.996C582.389 464.652 582.481 464.26 582.481 463.82C582.481 463.38 582.389 462.992 582.205 462.656C582.021 462.312 581.765 462.048 581.437 461.864C581.109 461.68 580.745 461.588 580.345 461.588C579.937 461.588 579.569 461.68 579.241 461.864C578.921 462.048 578.665 462.312 578.473 462.656C578.289 462.992 578.197 463.38 578.197 463.82C578.197 464.26 578.289 464.652 578.473 464.996C578.665 465.332 578.921 465.596 579.241 465.788C579.569 465.972 579.937 466.064 580.345 466.064Z" fill="#6FCF97"/>
<rect x="489" y="415" width="107" height="35" rx="17.5" fill="#E7F7EE"/>
<path d="M509.392 426.5V437H507.907V427.805H505.537V426.5H509.392ZM519.069 435.695V437H511.524V435.98L515.799 431.855C516.319 431.355 516.669 430.925 516.849 430.565C517.029 430.195 517.119 429.825 517.119 429.455C517.119 428.905 516.924 428.48 516.534 428.18C516.154 427.87 515.604 427.715 514.884 427.715C513.724 427.715 512.829 428.095 512.199 428.855L511.179 427.97C511.589 427.47 512.124 427.08 512.784 426.8C513.454 426.52 514.199 426.38 515.019 426.38C516.119 426.38 516.994 426.645 517.644 427.175C518.294 427.695 518.619 428.405 518.619 429.305C518.619 429.865 518.499 430.395 518.259 430.895C518.019 431.395 517.564 431.965 516.894 432.605L513.684 435.695H519.069Z" fill="#6FCF97"/>
<path d="M574 427.344L578 423.344L582 427.344L581.062 428.281L578 425.219L574.938 428.281L574 427.344Z" fill="#6FCF97"/>
<path d="M582 438.656L578 442.656L574 438.656L574.938 437.719L578 440.781L581.062 437.719L582 438.656Z" fill="#6FCF97"/>
<path d="M683.672 465.956V467H677.576V458.6H683.504V459.644H678.776V462.224H682.988V463.244H678.776V465.956H683.672ZM685.447 458.096H686.599V467H685.447V458.096ZM694.547 463.856C694.547 463.944 694.539 464.06 694.523 464.204H689.363C689.435 464.764 689.679 465.216 690.095 465.56C690.519 465.896 691.043 466.064 691.667 466.064C692.427 466.064 693.039 465.808 693.503 465.296L694.139 466.04C693.851 466.376 693.491 466.632 693.059 466.808C692.635 466.984 692.159 467.072 691.631 467.072C690.959 467.072 690.363 466.936 689.843 466.664C689.323 466.384 688.919 465.996 688.631 465.5C688.351 465.004 688.211 464.444 688.211 463.82C688.211 463.204 688.347 462.648 688.619 462.152C688.899 461.656 689.279 461.272 689.759 461C690.247 460.72 690.795 460.58 691.403 460.58C692.011 460.58 692.551 460.72 693.023 461C693.503 461.272 693.875 461.656 694.139 462.152C694.411 462.648 694.547 463.216 694.547 463.856ZM691.403 461.552C690.851 461.552 690.387 461.72 690.011 462.056C689.643 462.392 689.427 462.832 689.363 463.376H693.443C693.379 462.84 693.159 462.404 692.783 462.068C692.415 461.724 691.955 461.552 691.403 461.552ZM698.919 467.072C698.271 467.072 697.691 466.932 697.179 466.652C696.675 466.372 696.279 465.988 695.991 465.5C695.703 465.004 695.559 464.444 695.559 463.82C695.559 463.196 695.703 462.64 695.991 462.152C696.279 461.656 696.675 461.272 697.179 461C697.691 460.72 698.271 460.58 698.919 460.58C699.495 460.58 700.007 460.696 700.455 460.928C700.911 461.16 701.263 461.496 701.511 461.936L700.635 462.5C700.435 462.196 700.187 461.968 699.891 461.816C699.595 461.664 699.267 461.588 698.907 461.588C698.491 461.588 698.115 461.68 697.779 461.864C697.451 462.048 697.191 462.312 696.999 462.656C696.815 462.992 696.723 463.38 696.723 463.82C696.723 464.268 696.815 464.664 696.999 465.008C697.191 465.344 697.451 465.604 697.779 465.788C698.115 465.972 698.491 466.064 698.907 466.064C699.267 466.064 699.595 465.988 699.891 465.836C700.187 465.684 700.435 465.456 700.635 465.152L701.511 465.704C701.263 466.144 700.911 466.484 700.455 466.724C700.007 466.956 699.495 467.072 698.919 467.072ZM706.66 466.628C706.492 466.772 706.284 466.884 706.036 466.964C705.788 467.036 705.532 467.072 705.268 467.072C704.628 467.072 704.132 466.9 703.78 466.556C703.428 466.212 703.252 465.72 703.252 465.08V461.588H702.172V460.64H703.252V459.248H704.404V460.64H706.228V461.588H704.404V465.032C704.404 465.376 704.488 465.64 704.656 465.824C704.832 466.008 705.08 466.1 705.4 466.1C705.752 466.1 706.052 466 706.3 465.8L706.66 466.628ZM709.157 461.708C709.357 461.34 709.653 461.06 710.045 460.868C710.437 460.676 710.913 460.58 711.473 460.58V461.696C711.409 461.688 711.321 461.684 711.209 461.684C710.585 461.684 710.093 461.872 709.733 462.248C709.381 462.616 709.205 463.144 709.205 463.832V467H708.053V460.64H709.157V461.708ZM718.903 460.64V467H717.811V466.04C717.579 466.368 717.271 466.624 716.887 466.808C716.511 466.984 716.099 467.072 715.651 467.072C714.803 467.072 714.135 466.84 713.647 466.376C713.159 465.904 712.915 465.212 712.915 464.3V460.64H714.067V464.168C714.067 464.784 714.215 465.252 714.511 465.572C714.807 465.884 715.231 466.04 715.783 466.04C716.391 466.04 716.871 465.856 717.223 465.488C717.575 465.12 717.751 464.6 717.751 463.928V460.64H718.903ZM729.052 460.58C729.852 460.58 730.484 460.812 730.948 461.276C731.42 461.74 731.656 462.428 731.656 463.34V467H730.504V463.472C730.504 462.856 730.36 462.392 730.072 462.08C729.792 461.768 729.388 461.612 728.86 461.612C728.276 461.612 727.812 461.796 727.468 462.164C727.124 462.524 726.952 463.044 726.952 463.724V467H725.8V463.472C725.8 462.856 725.656 462.392 725.368 462.08C725.088 461.768 724.684 461.612 724.156 461.612C723.572 461.612 723.108 461.796 722.764 462.164C722.42 462.524 722.248 463.044 722.248 463.724V467H721.096V460.64H722.2V461.588C722.432 461.26 722.736 461.012 723.112 460.844C723.488 460.668 723.916 460.58 724.396 460.58C724.892 460.58 725.332 460.68 725.716 460.88C726.1 461.08 726.396 461.372 726.604 461.756C726.844 461.388 727.176 461.1 727.6 460.892C728.032 460.684 728.516 460.58 729.052 460.58Z" fill="#6FCF97"/>
<rect x="636" y="415" width="107" height="35" rx="17.5" fill="#E7F7EE"/>
<path d="M656.392 426.5V437H654.907V427.805H652.537V426.5H656.392ZM666.069 435.695V437H658.524V435.98L662.799 431.855C663.319 431.355 663.669 430.925 663.849 430.565C664.029 430.195 664.119 429.825 664.119 429.455C664.119 428.905 663.924 428.48 663.534 428.18C663.154 427.87 662.604 427.715 661.884 427.715C660.724 427.715 659.829 428.095 659.199 428.855L658.179 427.97C658.589 427.47 659.124 427.08 659.784 426.8C660.454 426.52 661.199 426.38 662.019 426.38C663.119 426.38 663.994 426.645 664.644 427.175C665.294 427.695 665.619 428.405 665.619 429.305C665.619 429.865 665.499 430.395 665.259 430.895C665.019 431.395 664.564 431.965 663.894 432.605L660.684 435.695H666.069Z" fill="#6FCF97"/>
<path d="M721 427.344L725 423.344L729 427.344L728.062 428.281L725 425.219L721.938 428.281L721 427.344Z" fill="#6FCF97"/>
<path d="M729 438.656L725 442.656L721 438.656L721.938 437.719L725 440.781L728.062 437.719L729 438.656Z" fill="#6FCF97"/>
<path d="M850.731 464.096C850.099 464.096 849.487 464 848.895 463.808C848.311 463.608 847.851 463.352 847.515 463.04L847.959 462.104C848.279 462.392 848.687 462.628 849.183 462.812C849.687 462.988 850.203 463.076 850.731 463.076C851.427 463.076 851.947 462.96 852.291 462.728C852.635 462.488 852.807 462.172 852.807 461.78C852.807 461.492 852.711 461.26 852.519 461.084C852.335 460.9 852.103 460.76 851.823 460.664C851.551 460.568 851.163 460.46 850.659 460.34C850.027 460.188 849.515 460.036 849.123 459.884C848.739 459.732 848.407 459.5 848.127 459.188C847.855 458.868 847.719 458.44 847.719 457.904C847.719 457.456 847.835 457.052 848.067 456.692C848.307 456.332 848.667 456.044 849.147 455.828C849.627 455.612 850.223 455.504 850.935 455.504C851.431 455.504 851.919 455.568 852.399 455.696C852.879 455.824 853.291 456.008 853.635 456.248L853.239 457.208C852.887 456.984 852.511 456.816 852.111 456.704C851.711 456.584 851.319 456.524 850.935 456.524C850.255 456.524 849.743 456.648 849.399 456.896C849.063 457.144 848.895 457.464 848.895 457.856C848.895 458.144 848.991 458.38 849.183 458.564C849.375 458.74 849.611 458.88 849.891 458.984C850.179 459.08 850.567 459.184 851.055 459.296C851.687 459.448 852.195 459.6 852.579 459.752C852.963 459.904 853.291 460.136 853.563 460.448C853.843 460.76 853.983 461.18 853.983 461.708C853.983 462.148 853.863 462.552 853.623 462.92C853.383 463.28 853.019 463.568 852.531 463.784C852.043 463.992 851.443 464.096 850.731 464.096ZM855.569 457.64H856.721V464H855.569V457.64ZM856.145 456.416C855.921 456.416 855.733 456.344 855.581 456.2C855.437 456.056 855.365 455.88 855.365 455.672C855.365 455.464 855.437 455.288 855.581 455.144C855.733 454.992 855.921 454.916 856.145 454.916C856.369 454.916 856.553 454.988 856.697 455.132C856.849 455.268 856.925 455.44 856.925 455.648C856.925 455.864 856.849 456.048 856.697 456.2C856.553 456.344 856.369 456.416 856.145 456.416ZM858.92 455.096H860.072V464H858.92V455.096ZM867.9 457.64L865.116 464H863.94L861.156 457.64H862.356L864.54 462.74L866.772 457.64H867.9ZM874.547 460.856C874.547 460.944 874.539 461.06 874.523 461.204H869.363C869.435 461.764 869.679 462.216 870.095 462.56C870.519 462.896 871.043 463.064 871.667 463.064C872.427 463.064 873.039 462.808 873.503 462.296L874.139 463.04C873.851 463.376 873.491 463.632 873.059 463.808C872.635 463.984 872.159 464.072 871.631 464.072C870.959 464.072 870.363 463.936 869.843 463.664C869.323 463.384 868.919 462.996 868.631 462.5C868.351 462.004 868.211 461.444 868.211 460.82C868.211 460.204 868.347 459.648 868.619 459.152C868.899 458.656 869.279 458.272 869.759 458C870.247 457.72 870.795 457.58 871.403 457.58C872.011 457.58 872.551 457.72 873.023 458C873.503 458.272 873.875 458.656 874.139 459.152C874.411 459.648 874.547 460.216 874.547 460.856ZM871.403 458.552C870.851 458.552 870.387 458.72 870.011 459.056C869.643 459.392 869.427 459.832 869.363 460.376H873.443C873.379 459.84 873.159 459.404 872.783 459.068C872.415 458.724 871.955 458.552 871.403 458.552ZM877.251 458.708C877.451 458.34 877.747 458.06 878.139 457.868C878.531 457.676 879.007 457.58 879.567 457.58V458.696C879.503 458.688 879.415 458.684 879.303 458.684C878.679 458.684 878.187 458.872 877.827 459.248C877.475 459.616 877.299 460.144 877.299 460.832V464H876.147V457.64H877.251V458.708Z" fill="#6FCF97"/>
<rect x="783" y="415" width="107" height="35" rx="17.5" fill="#E7F7EE"/>
<path d="M803.392 426.5V437H801.907V427.805H799.537V426.5H803.392ZM813.069 435.695V437H805.524V435.98L809.799 431.855C810.319 431.355 810.669 430.925 810.849 430.565C811.029 430.195 811.119 429.825 811.119 429.455C811.119 428.905 810.924 428.48 810.534 428.18C810.154 427.87 809.604 427.715 808.884 427.715C807.724 427.715 806.829 428.095 806.199 428.855L805.179 427.97C805.589 427.47 806.124 427.08 806.784 426.8C807.454 426.52 808.199 426.38 809.019 426.38C810.119 426.38 810.994 426.645 811.644 427.175C812.294 427.695 812.619 428.405 812.619 429.305C812.619 429.865 812.499 430.395 812.259 430.895C812.019 431.395 811.564 431.965 810.894 432.605L807.684 435.695H813.069Z" fill="#6FCF97"/>
<path d="M868 427.344L872 423.344L876 427.344L875.062 428.281L872 425.219L868.938 428.281L868 427.344Z" fill="#6FCF97"/>
<path d="M876 438.656L872 442.656L868 438.656L868.938 437.719L872 440.781L875.062 437.719L876 438.656Z" fill="#6FCF97"/>
<path d="M987.192 467.096C986.352 467.096 985.592 466.912 984.912 466.544C984.24 466.168 983.712 465.656 983.328 465.008C982.944 464.352 982.752 463.616 982.752 462.8C982.752 461.984 982.944 461.252 983.328 460.604C983.712 459.948 984.244 459.436 984.924 459.068C985.604 458.692 986.364 458.504 987.204 458.504C987.86 458.504 988.46 458.616 989.004 458.84C989.548 459.056 990.012 459.38 990.396 459.812L989.616 460.568C988.984 459.904 988.196 459.572 987.252 459.572C986.628 459.572 986.064 459.712 985.56 459.992C985.056 460.272 984.66 460.66 984.372 461.156C984.092 461.644 983.952 462.192 983.952 462.8C983.952 463.408 984.092 463.96 984.372 464.456C984.66 464.944 985.056 465.328 985.56 465.608C986.064 465.888 986.628 466.028 987.252 466.028C988.188 466.028 988.976 465.692 989.616 465.02L990.396 465.776C990.012 466.208 989.544 466.536 988.992 466.76C988.448 466.984 987.848 467.096 987.192 467.096ZM994.394 467.072C993.762 467.072 993.194 466.932 992.69 466.652C992.186 466.372 991.79 465.988 991.502 465.5C991.222 465.004 991.082 464.444 991.082 463.82C991.082 463.196 991.222 462.64 991.502 462.152C991.79 461.656 992.186 461.272 992.69 461C993.194 460.72 993.762 460.58 994.394 460.58C995.026 460.58 995.59 460.72 996.086 461C996.59 461.272 996.982 461.656 997.262 462.152C997.55 462.64 997.694 463.196 997.694 463.82C997.694 464.444 997.55 465.004 997.262 465.5C996.982 465.988 996.59 466.372 996.086 466.652C995.59 466.932 995.026 467.072 994.394 467.072ZM994.394 466.064C994.802 466.064 995.166 465.972 995.486 465.788C995.814 465.596 996.07 465.332 996.254 464.996C996.438 464.652 996.53 464.26 996.53 463.82C996.53 463.38 996.438 462.992 996.254 462.656C996.07 462.312 995.814 462.048 995.486 461.864C995.166 461.68 994.802 461.588 994.394 461.588C993.986 461.588 993.618 461.68 993.29 461.864C992.97 462.048 992.714 462.312 992.522 462.656C992.338 462.992 992.246 463.38 992.246 463.82C992.246 464.26 992.338 464.652 992.522 464.996C992.714 465.332 992.97 465.596 993.29 465.788C993.618 465.972 993.986 466.064 994.394 466.064ZM1002.66 460.58C1003.28 460.58 1003.83 460.716 1004.32 460.988C1004.8 461.26 1005.18 461.64 1005.46 462.128C1005.74 462.616 1005.88 463.18 1005.88 463.82C1005.88 464.46 1005.74 465.028 1005.46 465.524C1005.18 466.012 1004.8 466.392 1004.32 466.664C1003.83 466.936 1003.28 467.072 1002.66 467.072C1002.2 467.072 1001.78 466.984 1001.4 466.808C1001.02 466.632 1000.7 466.376 1000.44 466.04V469.328H999.287V460.64H1000.39V461.648C1000.65 461.296 1000.97 461.032 1001.36 460.856C1001.76 460.672 1002.19 460.58 1002.66 460.58ZM1002.56 466.064C1002.97 466.064 1003.34 465.972 1003.66 465.788C1003.98 465.596 1004.24 465.332 1004.42 464.996C1004.62 464.652 1004.71 464.26 1004.71 463.82C1004.71 463.38 1004.62 462.992 1004.42 462.656C1004.24 462.312 1003.98 462.048 1003.66 461.864C1003.34 461.68 1002.97 461.588 1002.56 461.588C1002.16 461.588 1001.8 461.684 1001.47 461.876C1001.15 462.06 1000.9 462.32 1000.7 462.656C1000.52 462.992 1000.43 463.38 1000.43 463.82C1000.43 464.26 1000.52 464.652 1000.7 464.996C1000.89 465.332 1001.14 465.596 1001.47 465.788C1001.8 465.972 1002.16 466.064 1002.56 466.064ZM1010.84 460.58C1011.46 460.58 1012.01 460.716 1012.5 460.988C1012.98 461.26 1013.36 461.64 1013.64 462.128C1013.92 462.616 1014.06 463.18 1014.06 463.82C1014.06 464.46 1013.92 465.028 1013.64 465.524C1013.36 466.012 1012.98 466.392 1012.5 466.664C1012.01 466.936 1011.46 467.072 1010.84 467.072C1010.38 467.072 1009.96 466.984 1009.58 466.808C1009.2 466.632 1008.88 466.376 1008.62 466.04V469.328H1007.47V460.64H1008.57V461.648C1008.83 461.296 1009.15 461.032 1009.54 460.856C1009.94 460.672 1010.37 460.58 1010.84 460.58ZM1010.74 466.064C1011.15 466.064 1011.52 465.972 1011.84 465.788C1012.16 465.596 1012.42 465.332 1012.6 464.996C1012.8 464.652 1012.89 464.26 1012.89 463.82C1012.89 463.38 1012.8 462.992 1012.6 462.656C1012.42 462.312 1012.16 462.048 1011.84 461.864C1011.52 461.68 1011.15 461.588 1010.74 461.588C1010.34 461.588 1009.98 461.684 1009.65 461.876C1009.33 462.06 1009.08 462.32 1008.88 462.656C1008.7 462.992 1008.61 463.38 1008.61 463.82C1008.61 464.26 1008.7 464.652 1008.88 464.996C1009.07 465.332 1009.32 465.596 1009.65 465.788C1009.98 465.972 1010.34 466.064 1010.74 466.064ZM1021.39 463.856C1021.39 463.944 1021.39 464.06 1021.37 464.204H1016.21C1016.28 464.764 1016.53 465.216 1016.94 465.56C1017.37 465.896 1017.89 466.064 1018.51 466.064C1019.27 466.064 1019.89 465.808 1020.35 465.296L1020.99 466.04C1020.7 466.376 1020.34 466.632 1019.91 466.808C1019.48 466.984 1019.01 467.072 1018.48 467.072C1017.81 467.072 1017.21 466.936 1016.69 466.664C1016.17 466.384 1015.77 465.996 1015.48 465.5C1015.2 465.004 1015.06 464.444 1015.06 463.82C1015.06 463.204 1015.19 462.648 1015.47 462.152C1015.75 461.656 1016.13 461.272 1016.61 461C1017.09 460.72 1017.64 460.58 1018.25 460.58C1018.86 460.58 1019.4 460.72 1019.87 461C1020.35 461.272 1020.72 461.656 1020.99 462.152C1021.26 462.648 1021.39 463.216 1021.39 463.856ZM1018.25 461.552C1017.7 461.552 1017.23 461.72 1016.86 462.056C1016.49 462.392 1016.27 462.832 1016.21 463.376H1020.29C1020.23 462.84 1020.01 462.404 1019.63 462.068C1019.26 461.724 1018.8 461.552 1018.25 461.552ZM1024.1 461.708C1024.3 461.34 1024.59 461.06 1024.99 460.868C1025.38 460.676 1025.85 460.58 1026.41 460.58V461.696C1026.35 461.688 1026.26 461.684 1026.15 461.684C1025.53 461.684 1025.03 461.872 1024.67 462.248C1024.32 462.616 1024.15 463.144 1024.15 463.832V467H1022.99V460.64H1024.1V461.708Z" fill="#6FCF97"/>
<rect x="930" y="415" width="107" height="35" rx="17.5" fill="#E7F7EE"/>
<path d="M950.392 426.5V437H948.907V427.805H946.537V426.5H950.392ZM960.069 435.695V437H952.524V435.98L956.799 431.855C957.319 431.355 957.669 430.925 957.849 430.565C958.029 430.195 958.119 429.825 958.119 429.455C958.119 428.905 957.924 428.48 957.534 428.18C957.154 427.87 956.604 427.715 955.884 427.715C954.724 427.715 953.829 428.095 953.199 428.855L952.179 427.97C952.589 427.47 953.124 427.08 953.784 426.8C954.454 426.52 955.199 426.38 956.019 426.38C957.119 426.38 957.994 426.645 958.644 427.175C959.294 427.695 959.619 428.405 959.619 429.305C959.619 429.865 959.499 430.395 959.259 430.895C959.019 431.395 958.564 431.965 957.894 432.605L954.684 435.695H960.069Z" fill="#6FCF97"/>
<path d="M1015 427.344L1019 423.344L1023 427.344L1022.06 428.281L1019 425.219L1015.94 428.281L1015 427.344Z" fill="#6FCF97"/>
<path d="M1023 438.656L1019 442.656L1015 438.656L1015.94 437.719L1019 440.781L1022.06 437.719L1023 438.656Z" fill="#6FCF97"/>
<rect x="1105" y="437" width="127" height="23" rx="4" fill="#6FCF97"/>
<path d="M1119.75 444.333C1120.99 444.333 1122.17 444.825 1123.05 445.7C1123.93 446.575 1124.42 447.762 1124.42 449C1124.42 450.238 1123.93 451.425 1123.05 452.3C1122.17 453.175 1120.99 453.667 1119.75 453.667C1118.51 453.667 1117.33 453.175 1116.45 452.3C1115.58 451.425 1115.08 450.238 1115.08 449C1115.08 447.762 1115.58 446.575 1116.45 445.7C1117.33 444.825 1118.51 444.333 1119.75 444.333ZM1119.75 452.5C1120.68 452.5 1121.57 452.131 1122.22 451.475C1122.88 450.818 1123.25 449.928 1123.25 449C1123.25 448.072 1122.88 447.182 1122.22 446.525C1121.57 445.869 1120.68 445.5 1119.75 445.5C1118.82 445.5 1117.93 445.869 1117.28 446.525C1116.62 447.182 1116.25 448.072 1116.25 449C1116.25 449.928 1116.62 450.818 1117.28 451.475C1117.93 452.131 1118.82 452.5 1119.75 452.5ZM1112.75 449C1112.75 450.523 1113.72 451.818 1115.08 452.296V453.515C1113.07 452.996 1111.58 451.176 1111.58 449C1111.58 446.824 1113.07 445.004 1115.08 444.485V445.704C1113.72 446.183 1112.75 447.478 1112.75 449Z" fill="white"/>
<path d="M1140.94 450.756H1136.26L1135.25 453H1134.33L1138.17 444.6H1139.04L1142.88 453H1141.95L1140.94 450.756ZM1140.61 450.036L1138.6 445.524L1136.58 450.036H1140.61ZM1149.66 446.688V453H1148.85V451.848C1148.62 452.232 1148.32 452.532 1147.92 452.748C1147.53 452.956 1147.08 453.06 1146.58 453.06C1145.76 453.06 1145.1 452.832 1144.62 452.376C1144.15 451.912 1143.92 451.236 1143.92 450.348V446.688H1144.77V450.264C1144.77 450.928 1144.93 451.432 1145.26 451.776C1145.59 452.12 1146.06 452.292 1146.66 452.292C1147.33 452.292 1147.85 452.092 1148.24 451.692C1148.62 451.284 1148.81 450.72 1148.81 450V446.688H1149.66ZM1155.37 452.616C1155.21 452.76 1155.01 452.872 1154.77 452.952C1154.54 453.024 1154.3 453.06 1154.04 453.06C1153.45 453.06 1152.99 452.9 1152.67 452.58C1152.35 452.26 1152.19 451.808 1152.19 451.224V447.408H1151.07V446.688H1152.19V445.308H1153.05V446.688H1154.97V447.408H1153.05V451.176C1153.05 451.552 1153.14 451.84 1153.32 452.04C1153.51 452.232 1153.79 452.328 1154.14 452.328C1154.31 452.328 1154.48 452.3 1154.64 452.244C1154.81 452.188 1154.95 452.108 1155.07 452.004L1155.37 452.616ZM1159.28 453.06C1158.67 453.06 1158.13 452.924 1157.64 452.652C1157.15 452.372 1156.77 451.988 1156.49 451.5C1156.21 451.012 1156.07 450.46 1156.07 449.844C1156.07 449.228 1156.21 448.676 1156.49 448.188C1156.77 447.7 1157.15 447.32 1157.64 447.048C1158.13 446.776 1158.67 446.64 1159.28 446.64C1159.89 446.64 1160.44 446.776 1160.93 447.048C1161.41 447.32 1161.79 447.7 1162.07 448.188C1162.35 448.676 1162.49 449.228 1162.49 449.844C1162.49 450.46 1162.35 451.012 1162.07 451.5C1161.79 451.988 1161.41 452.372 1160.93 452.652C1160.44 452.924 1159.89 453.06 1159.28 453.06ZM1159.28 452.304C1159.73 452.304 1160.13 452.204 1160.48 452.004C1160.84 451.796 1161.12 451.504 1161.32 451.128C1161.52 450.752 1161.62 450.324 1161.62 449.844C1161.62 449.364 1161.52 448.936 1161.32 448.56C1161.12 448.184 1160.84 447.896 1160.48 447.696C1160.13 447.488 1159.73 447.384 1159.28 447.384C1158.83 447.384 1158.43 447.488 1158.07 447.696C1157.72 447.896 1157.44 448.184 1157.23 448.56C1157.03 448.936 1156.93 449.364 1156.93 449.844C1156.93 450.324 1157.03 450.752 1157.23 451.128C1157.44 451.504 1157.72 451.796 1158.07 452.004C1158.43 452.204 1158.83 452.304 1159.28 452.304ZM1173.49 452.232V453H1167.55V444.6H1173.31V445.368H1168.43V448.356H1172.78V449.112H1168.43V452.232H1173.49ZM1179.24 453L1177.23 450.36L1175.22 453H1174.26L1176.75 449.76L1174.38 446.688H1175.34L1177.23 449.16L1179.13 446.688H1180.07L1177.69 449.76L1180.21 453H1179.24ZM1184.02 453.06C1183.4 453.06 1182.84 452.924 1182.34 452.652C1181.85 452.38 1181.47 452 1181.19 451.512C1180.91 451.016 1180.77 450.46 1180.77 449.844C1180.77 449.228 1180.91 448.676 1181.19 448.188C1181.47 447.7 1181.85 447.32 1182.34 447.048C1182.84 446.776 1183.4 446.64 1184.02 446.64C1184.56 446.64 1185.05 446.748 1185.47 446.964C1185.9 447.172 1186.24 447.48 1186.49 447.888L1185.86 448.32C1185.65 448.008 1185.38 447.776 1185.06 447.624C1184.74 447.464 1184.4 447.384 1184.02 447.384C1183.56 447.384 1183.15 447.488 1182.78 447.696C1182.42 447.896 1182.14 448.184 1181.93 448.56C1181.73 448.936 1181.63 449.364 1181.63 449.844C1181.63 450.332 1181.73 450.764 1181.93 451.14C1182.14 451.508 1182.42 451.796 1182.78 452.004C1183.15 452.204 1183.56 452.304 1184.02 452.304C1184.4 452.304 1184.74 452.228 1185.06 452.076C1185.38 451.924 1185.65 451.692 1185.86 451.38L1186.49 451.812C1186.24 452.22 1185.9 452.532 1185.47 452.748C1185.04 452.956 1184.56 453.06 1184.02 453.06ZM1191.29 446.64C1192.08 446.64 1192.71 446.872 1193.17 447.336C1193.64 447.792 1193.88 448.46 1193.88 449.34V453H1193.03V449.424C1193.03 448.768 1192.86 448.268 1192.54 447.924C1192.21 447.58 1191.74 447.408 1191.13 447.408C1190.45 447.408 1189.91 447.612 1189.51 448.02C1189.12 448.42 1188.92 448.976 1188.92 449.688V453H1188.07V444.096H1188.92V447.792C1189.16 447.424 1189.48 447.14 1189.88 446.94C1190.29 446.74 1190.76 446.64 1191.29 446.64ZM1198.4 446.64C1199.23 446.64 1199.86 446.848 1200.3 447.264C1200.74 447.672 1200.96 448.28 1200.96 449.088V453H1200.14V452.016C1199.95 452.344 1199.67 452.6 1199.29 452.784C1198.92 452.968 1198.48 453.06 1197.97 453.06C1197.27 453.06 1196.71 452.892 1196.29 452.556C1195.87 452.22 1195.67 451.776 1195.67 451.224C1195.67 450.688 1195.86 450.256 1196.24 449.928C1196.63 449.6 1197.25 449.436 1198.1 449.436H1200.11V449.052C1200.11 448.508 1199.95 448.096 1199.65 447.816C1199.35 447.528 1198.9 447.384 1198.32 447.384C1197.92 447.384 1197.53 447.452 1197.17 447.588C1196.8 447.716 1196.48 447.896 1196.22 448.128L1195.83 447.492C1196.15 447.22 1196.54 447.012 1196.99 446.868C1197.43 446.716 1197.91 446.64 1198.4 446.64ZM1198.1 452.388C1198.58 452.388 1198.99 452.28 1199.34 452.064C1199.68 451.84 1199.94 451.52 1200.11 451.104V450.072H1198.13C1197.05 450.072 1196.51 450.448 1196.51 451.2C1196.51 451.568 1196.65 451.86 1196.93 452.076C1197.21 452.284 1197.6 452.388 1198.1 452.388ZM1206.49 446.64C1207.28 446.64 1207.91 446.872 1208.37 447.336C1208.84 447.792 1209.08 448.46 1209.08 449.34V453H1208.23V449.424C1208.23 448.768 1208.06 448.268 1207.74 447.924C1207.41 447.58 1206.94 447.408 1206.33 447.408C1205.65 447.408 1205.11 447.612 1204.71 448.02C1204.32 448.42 1204.12 448.976 1204.12 449.688V453H1203.27V446.688H1204.09V447.852C1204.32 447.468 1204.64 447.172 1205.05 446.964C1205.46 446.748 1205.94 446.64 1206.49 446.64ZM1217.26 446.688V452.232C1217.26 453.304 1217 454.096 1216.47 454.608C1215.95 455.128 1215.16 455.388 1214.1 455.388C1213.52 455.388 1212.96 455.3 1212.44 455.124C1211.92 454.956 1211.49 454.72 1211.16 454.416L1211.6 453.768C1211.9 454.04 1212.27 454.252 1212.7 454.404C1213.14 454.556 1213.6 454.632 1214.08 454.632C1214.88 454.632 1215.47 454.444 1215.84 454.068C1216.22 453.7 1216.41 453.124 1216.41 452.34V451.536C1216.14 451.936 1215.8 452.24 1215.36 452.448C1214.94 452.656 1214.47 452.76 1213.95 452.76C1213.36 452.76 1212.82 452.632 1212.33 452.376C1211.85 452.112 1211.47 451.748 1211.19 451.284C1210.92 450.812 1210.78 450.28 1210.78 449.688C1210.78 449.096 1210.92 448.568 1211.19 448.104C1211.47 447.64 1211.85 447.28 1212.33 447.024C1212.81 446.768 1213.35 446.64 1213.95 446.64C1214.48 446.64 1214.97 446.748 1215.4 446.964C1215.83 447.18 1216.18 447.492 1216.44 447.9V446.688H1217.26ZM1214.03 452.004C1214.49 452.004 1214.9 451.908 1215.27 451.716C1215.64 451.516 1215.92 451.24 1216.12 450.888C1216.33 450.536 1216.43 450.136 1216.43 449.688C1216.43 449.24 1216.33 448.844 1216.12 448.5C1215.92 448.148 1215.64 447.876 1215.27 447.684C1214.91 447.484 1214.5 447.384 1214.03 447.384C1213.58 447.384 1213.16 447.48 1212.8 447.672C1212.44 447.864 1212.15 448.136 1211.94 448.488C1211.74 448.84 1211.64 449.24 1211.64 449.688C1211.64 450.136 1211.74 450.536 1211.94 450.888C1212.15 451.24 1212.44 451.516 1212.8 451.716C1213.16 451.908 1213.58 452.004 1214.03 452.004ZM1225.14 450.108H1219.86C1219.91 450.764 1220.16 451.296 1220.62 451.704C1221.07 452.104 1221.65 452.304 1222.34 452.304C1222.74 452.304 1223.1 452.236 1223.42 452.1C1223.75 451.956 1224.04 451.748 1224.28 451.476L1224.76 452.028C1224.48 452.364 1224.12 452.62 1223.7 452.796C1223.28 452.972 1222.82 453.06 1222.32 453.06C1221.67 453.06 1221.1 452.924 1220.59 452.652C1220.1 452.372 1219.71 451.988 1219.43 451.5C1219.15 451.012 1219.01 450.46 1219.01 449.844C1219.01 449.228 1219.14 448.676 1219.4 448.188C1219.68 447.7 1220.04 447.32 1220.51 447.048C1220.98 446.776 1221.51 446.64 1222.09 446.64C1222.68 446.64 1223.2 446.776 1223.66 447.048C1224.13 447.32 1224.49 447.7 1224.76 448.188C1225.02 448.668 1225.15 449.22 1225.15 449.844L1225.14 450.108ZM1222.09 447.372C1221.48 447.372 1220.97 447.568 1220.56 447.96C1220.15 448.344 1219.92 448.848 1219.86 449.472H1224.34C1224.28 448.848 1224.04 448.344 1223.63 447.96C1223.22 447.568 1222.71 447.372 1222.09 447.372Z" fill="white"/>
<rect x="1105" y="403" width="80" height="23" rx="4" fill="#6FCF97"/>
<path d="M1135.11 418.072C1134.28 418.072 1133.53 417.888 1132.86 417.52C1132.19 417.152 1131.67 416.644 1131.28 415.996C1130.91 415.34 1130.72 414.608 1130.72 413.8C1130.72 412.992 1130.91 412.264 1131.28 411.616C1131.67 410.96 1132.2 410.448 1132.87 410.08C1133.54 409.712 1134.29 409.528 1135.12 409.528C1135.75 409.528 1136.32 409.632 1136.85 409.84C1137.38 410.048 1137.83 410.352 1138.2 410.752L1137.63 411.316C1136.98 410.652 1136.15 410.32 1135.15 410.32C1134.48 410.32 1133.88 410.472 1133.34 410.776C1132.79 411.08 1132.36 411.496 1132.05 412.024C1131.75 412.552 1131.6 413.144 1131.6 413.8C1131.6 414.456 1131.75 415.048 1132.05 415.576C1132.36 416.104 1132.79 416.52 1133.34 416.824C1133.88 417.128 1134.48 417.28 1135.15 417.28C1136.16 417.28 1136.98 416.944 1137.63 416.272L1138.2 416.836C1137.83 417.236 1137.38 417.544 1136.84 417.76C1136.31 417.968 1135.74 418.072 1135.11 418.072ZM1139.91 409.096H1140.76V418H1139.91V409.096ZM1148.63 415.108H1143.35C1143.4 415.764 1143.65 416.296 1144.1 416.704C1144.56 417.104 1145.14 417.304 1145.83 417.304C1146.22 417.304 1146.58 417.236 1146.91 417.1C1147.24 416.956 1147.52 416.748 1147.76 416.476L1148.24 417.028C1147.96 417.364 1147.61 417.62 1147.19 417.796C1146.77 417.972 1146.31 418.06 1145.81 418.06C1145.16 418.06 1144.58 417.924 1144.08 417.652C1143.58 417.372 1143.2 416.988 1142.92 416.5C1142.64 416.012 1142.5 415.46 1142.5 414.844C1142.5 414.228 1142.63 413.676 1142.89 413.188C1143.16 412.7 1143.53 412.32 1144 412.048C1144.47 411.776 1145 411.64 1145.58 411.64C1146.16 411.64 1146.69 411.776 1147.15 412.048C1147.62 412.32 1147.98 412.7 1148.24 413.188C1148.51 413.668 1148.64 414.22 1148.64 414.844L1148.63 415.108ZM1145.58 412.372C1144.97 412.372 1144.46 412.568 1144.04 412.96C1143.64 413.344 1143.4 413.848 1143.35 414.472H1147.82C1147.77 413.848 1147.53 413.344 1147.12 412.96C1146.71 412.568 1146.2 412.372 1145.58 412.372ZM1152.41 411.64C1153.23 411.64 1153.86 411.848 1154.3 412.264C1154.74 412.672 1154.96 413.28 1154.96 414.088V418H1154.15V417.016C1153.95 417.344 1153.67 417.6 1153.29 417.784C1152.93 417.968 1152.49 418.06 1151.97 418.06C1151.27 418.06 1150.71 417.892 1150.29 417.556C1149.88 417.22 1149.67 416.776 1149.67 416.224C1149.67 415.688 1149.86 415.256 1150.25 414.928C1150.64 414.6 1151.26 414.436 1152.11 414.436H1154.11V414.052C1154.11 413.508 1153.96 413.096 1153.65 412.816C1153.35 412.528 1152.91 412.384 1152.32 412.384C1151.92 412.384 1151.54 412.452 1151.17 412.588C1150.8 412.716 1150.49 412.896 1150.22 413.128L1149.84 412.492C1150.16 412.22 1150.54 412.012 1150.99 411.868C1151.44 411.716 1151.91 411.64 1152.41 411.64ZM1152.11 417.388C1152.59 417.388 1153 417.28 1153.34 417.064C1153.69 416.84 1153.94 416.52 1154.11 416.104V415.072H1152.13C1151.05 415.072 1150.51 415.448 1150.51 416.2C1150.51 416.568 1150.65 416.86 1150.93 417.076C1151.21 417.284 1151.6 417.388 1152.11 417.388ZM1158.09 412.924C1158.29 412.5 1158.59 412.18 1158.98 411.964C1159.38 411.748 1159.87 411.64 1160.46 411.64V412.468L1160.25 412.456C1159.59 412.456 1159.07 412.66 1158.69 413.068C1158.32 413.476 1158.13 414.048 1158.13 414.784V418H1157.28V411.688H1158.09V412.924Z" fill="white"/>
<path d="M1113.89 416.926L1116 414.82L1118.11 416.926L1118.93 416.105L1116.82 414L1118.93 411.895L1118.11 411.074L1116 413.18L1113.89 411.074L1113.07 411.895L1115.18 414L1113.07 416.105L1113.89 416.926ZM1120.1 409.871C1121.25 411.02 1121.82 412.396 1121.82 414C1121.82 415.604 1121.25 416.971 1120.1 418.102C1118.97 419.25 1117.6 419.824 1116 419.824C1114.4 419.824 1113.02 419.25 1111.87 418.102C1110.74 416.971 1110.18 415.604 1110.18 414C1110.18 412.396 1110.74 411.02 1111.87 409.871C1113.02 408.741 1114.4 408.176 1116 408.176C1117.6 408.176 1118.97 408.741 1120.1 409.871Z" fill="white"/>
<defs>
<linearGradient id="paint0_linear" x1="75.2946" y1="81.7556" x2="49.4298" y2="42.461" gradientUnits="userSpaceOnUse">
<stop stop-color="#6FCF97"/>
<stop offset="1" stop-color="#ABE5C3"/>
</linearGradient>
</defs>
</svg>
