<svg width="402" height="401" viewBox="0 0 402 401" fill="none" xmlns="http://www.w3.org/2000/svg">
<rect width="402" height="401" fill="#FAFAFA"/>
<rect x="35.5" y="61.5" width="53" height="53" rx="4.5" fill="white" stroke="#EBEBEB"/>
<rect x="100.5" y="61.5" width="53" height="53" rx="4.5" fill="white" stroke="#EBEBEB"/>
<rect x="169.5" y="52.5" width="72" height="72" rx="4.5" fill="white" stroke="#EBEBEB"/>
<rect x="321.5" y="61.5" width="53" height="53" rx="4.5" fill="white" stroke="#EBEBEB"/>
<rect x="257.5" y="61.5" width="53" height="53" rx="4.5" fill="white" stroke="#EBEBEB"/>
<path d="M197.61 75.5V100H195.09V77.74H189.315V75.5H197.61ZM211.796 86C214.363 86.14 216.311 86.84 217.641 88.1C218.995 89.3367 219.671 90.9583 219.671 92.965C219.671 94.365 219.333 95.6133 218.656 96.71C217.98 97.7833 216.976 98.635 215.646 99.265C214.316 99.895 212.695 100.21 210.781 100.21C209.008 100.21 207.328 99.93 205.741 99.37C204.178 98.7867 202.918 98.0167 201.961 97.06L203.186 95.065C204.003 95.905 205.088 96.5933 206.441 97.13C207.795 97.6433 209.241 97.9 210.781 97.9C212.788 97.9 214.34 97.4683 215.436 96.605C216.533 95.7183 217.081 94.505 217.081 92.965C217.081 91.4483 216.533 90.2583 215.436 89.395C214.34 88.5317 212.683 88.1 210.466 88.1H208.716V86.245L215.506 77.74H202.976V75.5H218.726V77.285L211.796 86Z" fill="#2D9CDB" fill-opacity="0.69"/>
<path d="M66.6 93.72V95H56.78V93.98L62.6 88.28C63.3333 87.56 63.8267 86.94 64.08 86.42C64.3467 85.8867 64.48 85.3533 64.48 84.82C64.48 83.9933 64.1933 83.3533 63.62 82.9C63.06 82.4333 62.2533 82.2 61.2 82.2C59.56 82.2 58.2867 82.72 57.38 83.76L56.36 82.88C56.9067 82.24 57.6 81.7467 58.44 81.4C59.2933 81.0533 60.2533 80.88 61.32 80.88C62.7467 80.88 63.8733 81.22 64.7 81.9C65.54 82.5667 65.96 83.4867 65.96 84.66C65.96 85.38 65.8 86.0733 65.48 86.74C65.16 87.4067 64.5533 88.1733 63.66 89.04L58.9 93.72H66.6Z" fill="#2D9CDB" fill-opacity="0.69"/>
<path d="M125.1 88.6H121.38V92.24H120.12V88.6H116.4V87.42H120.12V83.76H121.38V87.42H125.1V88.6ZM136.87 93.72V95H127.05V93.98L132.87 88.28C133.603 87.56 134.096 86.94 134.35 86.42C134.616 85.8867 134.75 85.3533 134.75 84.82C134.75 83.9933 134.463 83.3533 133.89 82.9C133.33 82.4333 132.523 82.2 131.47 82.2C129.83 82.2 128.556 82.72 127.65 83.76L126.63 82.88C127.176 82.24 127.87 81.7467 128.71 81.4C129.563 81.0533 130.523 80.88 131.59 80.88C133.016 80.88 134.143 81.22 134.97 81.9C135.81 82.5667 136.23 83.4867 136.23 84.66C136.23 85.38 136.07 86.0733 135.75 86.74C135.43 87.4067 134.823 88.1733 133.93 89.04L129.17 93.72H136.87Z" fill="#6FCF97"/>
<path d="M282.1 88.6H278.38V92.24H277.12V88.6H273.4V87.42H277.12V83.76H278.38V87.42H282.1V88.6ZM293.87 93.72V95H284.05V93.98L289.87 88.28C290.603 87.56 291.096 86.94 291.35 86.42C291.616 85.8867 291.75 85.3533 291.75 84.82C291.75 83.9933 291.463 83.3533 290.89 82.9C290.33 82.4333 289.523 82.2 288.47 82.2C286.83 82.2 285.556 82.72 284.65 83.76L283.63 82.88C284.176 82.24 284.87 81.7467 285.71 81.4C286.563 81.0533 287.523 80.88 288.59 80.88C290.016 80.88 291.143 81.22 291.97 81.9C292.81 82.5667 293.23 83.4867 293.23 84.66C293.23 85.38 293.07 86.0733 292.75 86.74C292.43 87.4067 291.823 88.1733 290.93 89.04L286.17 93.72H293.87Z" fill="#6FCF97"/>
<path d="M347.6 93.72V95H337.78V93.98L343.6 88.28C344.333 87.56 344.827 86.94 345.08 86.42C345.347 85.8867 345.48 85.3533 345.48 84.82C345.48 83.9933 345.193 83.3533 344.62 82.9C344.06 82.4333 343.253 82.2 342.2 82.2C340.56 82.2 339.287 82.72 338.38 83.76L337.36 82.88C337.907 82.24 338.6 81.7467 339.44 81.4C340.293 81.0533 341.253 80.88 342.32 80.88C343.747 80.88 344.873 81.22 345.7 81.9C346.54 82.5667 346.96 83.4867 346.96 84.66C346.96 85.38 346.8 86.0733 346.48 86.74C346.16 87.4067 345.553 88.1733 344.66 89.04L339.9 93.72H347.6ZM353.087 86.74C355.114 86.74 356.587 87.1067 357.507 87.84C358.441 88.56 358.907 89.5733 358.907 90.88C358.907 91.6933 358.714 92.42 358.327 93.06C357.954 93.7 357.387 94.2067 356.627 94.58C355.867 94.94 354.934 95.12 353.827 95.12C352.827 95.12 351.874 94.96 350.967 94.64C350.074 94.3067 349.354 93.8667 348.807 93.32L349.507 92.18C349.974 92.66 350.587 93.0533 351.347 93.36C352.107 93.6533 352.927 93.8 353.807 93.8C354.967 93.8 355.861 93.54 356.487 93.02C357.127 92.5 357.447 91.8067 357.447 90.94C357.447 89.98 357.087 89.2533 356.367 88.76C355.661 88.2667 354.461 88.02 352.767 88.02H349.787L350.507 81H358.167V82.28H351.767L351.287 86.74H353.087Z" fill="#2D9CDB" fill-opacity="0.69"/>
<path d="M42.798 120.1H43.316V125H42.798V120.1ZM46.6813 121.29C47.1433 121.29 47.5096 121.425 47.7803 121.696C48.0556 121.962 48.1933 122.352 48.1933 122.865V125H47.6963V122.914C47.6963 122.531 47.6006 122.24 47.4093 122.039C47.218 121.838 46.945 121.738 46.5903 121.738C46.1936 121.738 45.8786 121.857 45.6453 122.095C45.4166 122.328 45.3023 122.653 45.3023 123.068V125H44.8053V121.318H45.2813V121.997C45.4166 121.773 45.6033 121.6 45.8413 121.479C46.084 121.353 46.364 121.29 46.6813 121.29ZM50.5296 125.035C50.2309 125.035 49.9439 124.993 49.6686 124.909C49.3979 124.82 49.1856 124.711 49.0316 124.58L49.2556 124.188C49.4096 124.309 49.6033 124.41 49.8366 124.489C50.0699 124.564 50.3126 124.601 50.5646 124.601C50.9006 124.601 51.1479 124.55 51.3066 124.447C51.4699 124.34 51.5516 124.19 51.5516 123.999C51.5516 123.864 51.5073 123.759 51.4186 123.684C51.3299 123.605 51.2179 123.546 51.0826 123.509C50.9473 123.467 50.7676 123.427 50.5436 123.39C50.2449 123.334 50.0046 123.278 49.8226 123.222C49.6406 123.161 49.4843 123.061 49.3536 122.921C49.2276 122.781 49.1646 122.587 49.1646 122.34C49.1646 122.032 49.2929 121.78 49.5496 121.584C49.8063 121.388 50.1633 121.29 50.6206 121.29C50.8586 121.29 51.0966 121.323 51.3346 121.388C51.5726 121.449 51.7686 121.53 51.9226 121.633L51.7056 122.032C51.4023 121.822 51.0406 121.717 50.6206 121.717C50.3033 121.717 50.0629 121.773 49.8996 121.885C49.7409 121.997 49.6616 122.144 49.6616 122.326C49.6616 122.466 49.7059 122.578 49.7946 122.662C49.8879 122.746 50.0023 122.809 50.1376 122.851C50.2729 122.888 50.4596 122.928 50.6976 122.97C50.9916 123.026 51.2273 123.082 51.4046 123.138C51.5819 123.194 51.7336 123.29 51.8596 123.425C51.9856 123.56 52.0486 123.747 52.0486 123.985C52.0486 124.307 51.9133 124.564 51.6426 124.755C51.3766 124.942 51.0056 125.035 50.5296 125.035ZM54.8644 121.29C55.2097 121.29 55.5224 121.369 55.8024 121.528C56.0824 121.682 56.3017 121.901 56.4604 122.186C56.6191 122.471 56.6984 122.795 56.6984 123.159C56.6984 123.528 56.6191 123.854 56.4604 124.139C56.3017 124.424 56.0824 124.645 55.8024 124.804C55.5271 124.958 55.2144 125.035 54.8644 125.035C54.5657 125.035 54.2951 124.974 54.0524 124.853C53.8144 124.727 53.6184 124.545 53.4644 124.307V126.358H52.9674V121.318H53.4434V122.046C53.5927 121.803 53.7887 121.617 54.0314 121.486C54.2787 121.355 54.5564 121.29 54.8644 121.29ZM54.8294 124.594C55.0861 124.594 55.3194 124.536 55.5294 124.419C55.7394 124.298 55.9027 124.127 56.0194 123.908C56.1407 123.689 56.2014 123.439 56.2014 123.159C56.2014 122.879 56.1407 122.632 56.0194 122.417C55.9027 122.198 55.7394 122.027 55.5294 121.906C55.3194 121.785 55.0861 121.724 54.8294 121.724C54.5681 121.724 54.3324 121.785 54.1224 121.906C53.9171 122.027 53.7537 122.198 53.6324 122.417C53.5157 122.632 53.4574 122.879 53.4574 123.159C53.4574 123.439 53.5157 123.689 53.6324 123.908C53.7537 124.127 53.9171 124.298 54.1224 124.419C54.3324 124.536 54.5681 124.594 54.8294 124.594ZM57.7116 121.318H58.2086V125H57.7116V121.318ZM57.9636 120.513C57.8609 120.513 57.7746 120.478 57.7046 120.408C57.6346 120.338 57.5996 120.254 57.5996 120.156C57.5996 120.063 57.6346 119.981 57.7046 119.911C57.7746 119.841 57.8609 119.806 57.9636 119.806C58.0662 119.806 58.1526 119.841 58.2226 119.911C58.2926 119.976 58.3276 120.056 58.3276 120.149C58.3276 120.252 58.2926 120.338 58.2226 120.408C58.1526 120.478 58.0662 120.513 57.9636 120.513ZM60.0674 122.039C60.1841 121.792 60.3568 121.605 60.5854 121.479C60.8188 121.353 61.1058 121.29 61.4464 121.29V121.773L61.3274 121.766C60.9401 121.766 60.6368 121.885 60.4174 122.123C60.1981 122.361 60.0884 122.695 60.0884 123.124V125H59.5914V121.318H60.0674V122.039ZM63.6275 121.29C64.1082 121.29 64.4768 121.411 64.7335 121.654C64.9902 121.892 65.1185 122.247 65.1185 122.718V125H64.6425V124.426C64.5305 124.617 64.3648 124.767 64.1455 124.874C63.9308 124.981 63.6742 125.035 63.3755 125.035C62.9648 125.035 62.6382 124.937 62.3955 124.741C62.1528 124.545 62.0315 124.286 62.0315 123.964C62.0315 123.651 62.1435 123.399 62.3675 123.208C62.5962 123.017 62.9578 122.921 63.4525 122.921H64.6215V122.697C64.6215 122.38 64.5328 122.139 64.3555 121.976C64.1782 121.808 63.9192 121.724 63.5785 121.724C63.3452 121.724 63.1212 121.764 62.9065 121.843C62.6918 121.918 62.5075 122.023 62.3535 122.158L62.1295 121.787C62.3162 121.628 62.5402 121.507 62.8015 121.423C63.0628 121.334 63.3382 121.29 63.6275 121.29ZM63.4525 124.643C63.7325 124.643 63.9728 124.58 64.1735 124.454C64.3742 124.323 64.5235 124.137 64.6215 123.894V123.292H63.4665C62.8365 123.292 62.5215 123.511 62.5215 123.95C62.5215 124.165 62.6032 124.335 62.7665 124.461C62.9298 124.582 63.1585 124.643 63.4525 124.643ZM68.4074 124.776C68.3141 124.86 68.1974 124.925 68.0574 124.972C67.9221 125.014 67.7797 125.035 67.6304 125.035C67.2851 125.035 67.0191 124.942 66.8324 124.755C66.6457 124.568 66.5524 124.305 66.5524 123.964V121.738H65.8944V121.318H66.5524V120.513H67.0494V121.318H68.1694V121.738H67.0494V123.936C67.0494 124.155 67.1031 124.323 67.2104 124.44C67.3224 124.552 67.4811 124.608 67.6864 124.608C67.7891 124.608 67.8871 124.592 67.9804 124.559C68.0784 124.526 68.1624 124.48 68.2324 124.419L68.4074 124.776ZM69.3121 121.318H69.8091V125H69.3121V121.318ZM69.5641 120.513C69.4615 120.513 69.3751 120.478 69.3051 120.408C69.2351 120.338 69.2001 120.254 69.2001 120.156C69.2001 120.063 69.2351 119.981 69.3051 119.911C69.3751 119.841 69.4615 119.806 69.5641 119.806C69.6668 119.806 69.7531 119.841 69.8231 119.911C69.8931 119.976 69.9281 120.056 69.9281 120.149C69.9281 120.252 69.8931 120.338 69.8231 120.408C69.7531 120.478 69.6668 120.513 69.5641 120.513ZM72.697 125.035C72.3424 125.035 72.0227 124.956 71.738 124.797C71.4534 124.634 71.2294 124.41 71.066 124.125C70.9027 123.84 70.821 123.518 70.821 123.159C70.821 122.8 70.9027 122.478 71.066 122.193C71.2294 121.908 71.4534 121.687 71.738 121.528C72.0227 121.369 72.3424 121.29 72.697 121.29C73.0517 121.29 73.3714 121.369 73.656 121.528C73.9407 121.687 74.1624 121.908 74.321 122.193C74.4844 122.478 74.566 122.8 74.566 123.159C74.566 123.518 74.4844 123.84 74.321 124.125C74.1624 124.41 73.9407 124.634 73.656 124.797C73.3714 124.956 73.0517 125.035 72.697 125.035ZM72.697 124.594C72.9584 124.594 73.1917 124.536 73.397 124.419C73.607 124.298 73.7704 124.127 73.887 123.908C74.0037 123.689 74.062 123.439 74.062 123.159C74.062 122.879 74.0037 122.629 73.887 122.41C73.7704 122.191 73.607 122.023 73.397 121.906C73.1917 121.785 72.9584 121.724 72.697 121.724C72.4357 121.724 72.2 121.785 71.99 121.906C71.7847 122.023 71.6214 122.191 71.5 122.41C71.3834 122.629 71.325 122.879 71.325 123.159C71.325 123.439 71.3834 123.689 71.5 123.908C71.6214 124.127 71.7847 124.298 71.99 124.419C72.2 124.536 72.4357 124.594 72.697 124.594ZM77.4567 121.29C77.9187 121.29 78.285 121.425 78.5557 121.696C78.831 121.962 78.9687 122.352 78.9687 122.865V125H78.4717V122.914C78.4717 122.531 78.376 122.24 78.1847 122.039C77.9934 121.838 77.7204 121.738 77.3657 121.738C76.969 121.738 76.654 121.857 76.4207 122.095C76.192 122.328 76.0777 122.653 76.0777 123.068V125H75.5807V121.318H76.0567V121.997C76.192 121.773 76.3787 121.6 76.6167 121.479C76.8594 121.353 77.1394 121.29 77.4567 121.29Z" fill="#777777"/>
<path d="M110.632 120.1C111.257 120.1 111.747 120.249 112.102 120.548C112.457 120.847 112.634 121.257 112.634 121.78C112.634 122.303 112.457 122.713 112.102 123.012C111.747 123.306 111.257 123.453 110.632 123.453H109.316V125H108.798V120.1H110.632ZM110.618 122.998C111.103 122.998 111.474 122.893 111.731 122.683C111.988 122.468 112.116 122.167 112.116 121.78C112.116 121.383 111.988 121.08 111.731 120.87C111.474 120.655 111.103 120.548 110.618 120.548H109.316V122.998H110.618ZM116.835 123.313H113.755C113.783 123.696 113.93 124.006 114.196 124.244C114.462 124.477 114.798 124.594 115.204 124.594C115.432 124.594 115.642 124.554 115.834 124.475C116.025 124.391 116.191 124.27 116.331 124.111L116.611 124.433C116.447 124.629 116.242 124.778 115.995 124.881C115.752 124.984 115.484 125.035 115.19 125.035C114.812 125.035 114.476 124.956 114.182 124.797C113.892 124.634 113.666 124.41 113.503 124.125C113.339 123.84 113.258 123.518 113.258 123.159C113.258 122.8 113.335 122.478 113.489 122.193C113.647 121.908 113.862 121.687 114.133 121.528C114.408 121.369 114.716 121.29 115.057 121.29C115.397 121.29 115.703 121.369 115.974 121.528C116.244 121.687 116.457 121.908 116.611 122.193C116.765 122.473 116.842 122.795 116.842 123.159L116.835 123.313ZM115.057 121.717C114.702 121.717 114.403 121.831 114.161 122.06C113.923 122.284 113.787 122.578 113.755 122.942H116.366C116.333 122.578 116.195 122.284 115.953 122.06C115.715 121.831 115.416 121.717 115.057 121.717ZM118.329 122.039C118.446 121.792 118.618 121.605 118.847 121.479C119.08 121.353 119.367 121.29 119.708 121.29V121.773L119.589 121.766C119.202 121.766 118.898 121.885 118.679 122.123C118.46 122.361 118.35 122.695 118.35 123.124V125H117.853V121.318H118.329V122.039ZM122.1 125.035C121.736 125.035 121.409 124.956 121.12 124.797C120.835 124.638 120.611 124.417 120.448 124.132C120.285 123.843 120.203 123.518 120.203 123.159C120.203 122.8 120.285 122.478 120.448 122.193C120.611 121.908 120.835 121.687 121.12 121.528C121.409 121.369 121.736 121.29 122.1 121.29C122.417 121.29 122.7 121.353 122.947 121.479C123.199 121.6 123.397 121.78 123.542 122.018L123.171 122.27C123.05 122.088 122.896 121.953 122.709 121.864C122.522 121.771 122.319 121.724 122.1 121.724C121.834 121.724 121.594 121.785 121.379 121.906C121.169 122.023 121.003 122.191 120.882 122.41C120.765 122.629 120.707 122.879 120.707 123.159C120.707 123.444 120.765 123.696 120.882 123.915C121.003 124.13 121.169 124.298 121.379 124.419C121.594 124.536 121.834 124.594 122.1 124.594C122.319 124.594 122.522 124.55 122.709 124.461C122.896 124.372 123.05 124.237 123.171 124.055L123.542 124.307C123.397 124.545 123.199 124.727 122.947 124.853C122.695 124.974 122.413 125.035 122.1 125.035ZM127.663 123.313H124.583C124.611 123.696 124.758 124.006 125.024 124.244C125.29 124.477 125.626 124.594 126.032 124.594C126.26 124.594 126.47 124.554 126.662 124.475C126.853 124.391 127.019 124.27 127.159 124.111L127.439 124.433C127.275 124.629 127.07 124.778 126.823 124.881C126.58 124.984 126.312 125.035 126.018 125.035C125.64 125.035 125.304 124.956 125.01 124.797C124.72 124.634 124.494 124.41 124.331 124.125C124.167 123.84 124.086 123.518 124.086 123.159C124.086 122.8 124.163 122.478 124.317 122.193C124.475 121.908 124.69 121.687 124.961 121.528C125.236 121.369 125.544 121.29 125.885 121.29C126.225 121.29 126.531 121.369 126.802 121.528C127.072 121.687 127.285 121.908 127.439 122.193C127.593 122.473 127.67 122.795 127.67 123.159L127.663 123.313ZM125.885 121.717C125.53 121.717 125.231 121.831 124.989 122.06C124.751 122.284 124.615 122.578 124.583 122.942H127.194C127.161 122.578 127.023 122.284 126.781 122.06C126.543 121.831 126.244 121.717 125.885 121.717ZM130.578 121.29C130.924 121.29 131.236 121.369 131.516 121.528C131.796 121.682 132.016 121.901 132.174 122.186C132.333 122.471 132.412 122.795 132.412 123.159C132.412 123.528 132.333 123.854 132.174 124.139C132.016 124.424 131.796 124.645 131.516 124.804C131.241 124.958 130.928 125.035 130.578 125.035C130.28 125.035 130.009 124.974 129.766 124.853C129.528 124.727 129.332 124.545 129.178 124.307V126.358H128.681V121.318H129.157V122.046C129.307 121.803 129.503 121.617 129.745 121.486C129.993 121.355 130.27 121.29 130.578 121.29ZM130.543 124.594C130.8 124.594 131.033 124.536 131.243 124.419C131.453 124.298 131.617 124.127 131.733 123.908C131.855 123.689 131.915 123.439 131.915 123.159C131.915 122.879 131.855 122.632 131.733 122.417C131.617 122.198 131.453 122.027 131.243 121.906C131.033 121.785 130.8 121.724 130.543 121.724C130.282 121.724 130.046 121.785 129.836 121.906C129.631 122.027 129.468 122.198 129.346 122.417C129.23 122.632 129.171 122.879 129.171 123.159C129.171 123.439 129.23 123.689 129.346 123.908C129.468 124.127 129.631 124.298 129.836 124.419C130.046 124.536 130.282 124.594 130.543 124.594ZM135.364 124.776C135.271 124.86 135.154 124.925 135.014 124.972C134.879 125.014 134.737 125.035 134.587 125.035C134.242 125.035 133.976 124.942 133.789 124.755C133.603 124.568 133.509 124.305 133.509 123.964V121.738H132.851V121.318H133.509V120.513H134.006V121.318H135.126V121.738H134.006V123.936C134.006 124.155 134.06 124.323 134.167 124.44C134.279 124.552 134.438 124.608 134.643 124.608C134.746 124.608 134.844 124.592 134.937 124.559C135.035 124.526 135.119 124.48 135.189 124.419L135.364 124.776ZM136.269 121.318H136.766V125H136.269V121.318ZM136.521 120.513C136.419 120.513 136.332 120.478 136.262 120.408C136.192 120.338 136.157 120.254 136.157 120.156C136.157 120.063 136.192 119.981 136.262 119.911C136.332 119.841 136.419 119.806 136.521 119.806C136.624 119.806 136.71 119.841 136.78 119.911C136.85 119.976 136.885 120.056 136.885 120.149C136.885 120.252 136.85 120.338 136.78 120.408C136.71 120.478 136.624 120.513 136.521 120.513ZM139.654 125.035C139.299 125.035 138.98 124.956 138.695 124.797C138.41 124.634 138.186 124.41 138.023 124.125C137.86 123.84 137.778 123.518 137.778 123.159C137.778 122.8 137.86 122.478 138.023 122.193C138.186 121.908 138.41 121.687 138.695 121.528C138.98 121.369 139.299 121.29 139.654 121.29C140.009 121.29 140.328 121.369 140.613 121.528C140.898 121.687 141.119 121.908 141.278 122.193C141.441 122.478 141.523 122.8 141.523 123.159C141.523 123.518 141.441 123.84 141.278 124.125C141.119 124.41 140.898 124.634 140.613 124.797C140.328 124.956 140.009 125.035 139.654 125.035ZM139.654 124.594C139.915 124.594 140.149 124.536 140.354 124.419C140.564 124.298 140.727 124.127 140.844 123.908C140.961 123.689 141.019 123.439 141.019 123.159C141.019 122.879 140.961 122.629 140.844 122.41C140.727 122.191 140.564 122.023 140.354 121.906C140.149 121.785 139.915 121.724 139.654 121.724C139.393 121.724 139.157 121.785 138.947 121.906C138.742 122.023 138.578 122.191 138.457 122.41C138.34 122.629 138.282 122.879 138.282 123.159C138.282 123.439 138.34 123.689 138.457 123.908C138.578 124.127 138.742 124.298 138.947 124.419C139.157 124.536 139.393 124.594 139.654 124.594ZM144.414 121.29C144.876 121.29 145.242 121.425 145.513 121.696C145.788 121.962 145.926 122.352 145.926 122.865V125H145.429V122.914C145.429 122.531 145.333 122.24 145.142 122.039C144.95 121.838 144.677 121.738 144.323 121.738C143.926 121.738 143.611 121.857 143.378 122.095C143.149 122.328 143.035 122.653 143.035 123.068V125H142.538V121.318H143.014V121.997C143.149 121.773 143.336 121.6 143.574 121.479C143.816 121.353 144.096 121.29 144.414 121.29Z" fill="#777777"/>
<path d="M185.871 136.691H183.141L182.553 138H182.014L184.254 133.1H184.765L187.005 138H186.459L185.871 136.691ZM185.682 136.271L184.506 133.639L183.33 136.271H185.682ZM188.187 135.039C188.303 134.792 188.476 134.605 188.705 134.479C188.938 134.353 189.225 134.29 189.566 134.29V134.773L189.447 134.766C189.059 134.766 188.756 134.885 188.537 135.123C188.317 135.361 188.208 135.695 188.208 136.124V138H187.711V134.318H188.187V135.039ZM195.057 134.29C195.519 134.29 195.881 134.423 196.142 134.689C196.408 134.955 196.541 135.347 196.541 135.865V138H196.044V135.914C196.044 135.531 195.951 135.24 195.764 135.039C195.582 134.838 195.323 134.738 194.987 134.738C194.605 134.738 194.304 134.857 194.084 135.095C193.865 135.328 193.755 135.653 193.755 136.068V138H193.258V135.914C193.258 135.531 193.165 135.24 192.978 135.039C192.796 134.838 192.535 134.738 192.194 134.738C191.816 134.738 191.515 134.857 191.291 135.095C191.072 135.328 190.962 135.653 190.962 136.068V138H190.465V134.318H190.941V134.99C191.072 134.766 191.254 134.593 191.487 134.472C191.721 134.351 191.989 134.29 192.292 134.29C192.6 134.29 192.866 134.355 193.09 134.486C193.319 134.617 193.489 134.81 193.601 135.067C193.737 134.824 193.93 134.635 194.182 134.5C194.439 134.36 194.731 134.29 195.057 134.29ZM199.408 138.035C199.053 138.035 198.734 137.956 198.449 137.797C198.164 137.634 197.94 137.41 197.777 137.125C197.614 136.84 197.532 136.518 197.532 136.159C197.532 135.8 197.614 135.478 197.777 135.193C197.94 134.908 198.164 134.687 198.449 134.528C198.734 134.369 199.053 134.29 199.408 134.29C199.763 134.29 200.082 134.369 200.367 134.528C200.652 134.687 200.873 134.908 201.032 135.193C201.195 135.478 201.277 135.8 201.277 136.159C201.277 136.518 201.195 136.84 201.032 137.125C200.873 137.41 200.652 137.634 200.367 137.797C200.082 137.956 199.763 138.035 199.408 138.035ZM199.408 137.594C199.669 137.594 199.903 137.536 200.108 137.419C200.318 137.298 200.481 137.127 200.598 136.908C200.715 136.689 200.773 136.439 200.773 136.159C200.773 135.879 200.715 135.629 200.598 135.41C200.481 135.191 200.318 135.023 200.108 134.906C199.903 134.785 199.669 134.724 199.408 134.724C199.147 134.724 198.911 134.785 198.701 134.906C198.496 135.023 198.332 135.191 198.211 135.41C198.094 135.629 198.036 135.879 198.036 136.159C198.036 136.439 198.094 136.689 198.211 136.908C198.332 137.127 198.496 137.298 198.701 137.419C198.911 137.536 199.147 137.594 199.408 137.594ZM205.61 134.318V138H205.134V137.328C205.003 137.552 204.823 137.727 204.595 137.853C204.366 137.974 204.105 138.035 203.811 138.035C203.33 138.035 202.95 137.902 202.67 137.636C202.394 137.365 202.257 136.971 202.257 136.453V134.318H202.754V136.404C202.754 136.791 202.849 137.085 203.041 137.286C203.232 137.487 203.505 137.587 203.86 137.587C204.247 137.587 204.553 137.47 204.777 137.237C205.001 136.999 205.113 136.67 205.113 136.25V134.318H205.61ZM207.478 135.039C207.594 134.792 207.767 134.605 207.996 134.479C208.229 134.353 208.516 134.29 208.857 134.29V134.773L208.738 134.766C208.35 134.766 208.047 134.885 207.828 135.123C207.608 135.361 207.499 135.695 207.499 136.124V138H207.002V134.318H207.478V135.039ZM213.876 138.042C213.391 138.042 212.952 137.935 212.56 137.72C212.173 137.505 211.867 137.209 211.643 136.831C211.424 136.448 211.314 136.021 211.314 135.55C211.314 135.079 211.424 134.654 211.643 134.276C211.867 133.893 212.175 133.595 212.567 133.38C212.959 133.165 213.398 133.058 213.883 133.058C214.247 133.058 214.583 133.119 214.891 133.24C215.199 133.361 215.461 133.539 215.675 133.772L215.346 134.101C214.964 133.714 214.481 133.52 213.897 133.52C213.51 133.52 213.158 133.609 212.84 133.786C212.523 133.963 212.273 134.206 212.091 134.514C211.914 134.822 211.825 135.167 211.825 135.55C211.825 135.933 211.914 136.278 212.091 136.586C212.273 136.894 212.523 137.137 212.84 137.314C213.158 137.491 213.51 137.58 213.897 137.58C214.485 137.58 214.968 137.384 215.346 136.992L215.675 137.321C215.461 137.554 215.197 137.734 214.884 137.86C214.576 137.981 214.24 138.042 213.876 138.042ZM216.674 132.806H217.171V138H216.674V132.806ZM219.842 134.29C220.323 134.29 220.692 134.411 220.948 134.654C221.205 134.892 221.333 135.247 221.333 135.718V138H220.857V137.426C220.745 137.617 220.58 137.767 220.36 137.874C220.146 137.981 219.889 138.035 219.59 138.035C219.18 138.035 218.853 137.937 218.61 137.741C218.368 137.545 218.246 137.286 218.246 136.964C218.246 136.651 218.358 136.399 218.582 136.208C218.811 136.017 219.173 135.921 219.667 135.921H220.836V135.697C220.836 135.38 220.748 135.139 220.57 134.976C220.393 134.808 220.134 134.724 219.793 134.724C219.56 134.724 219.336 134.764 219.121 134.843C218.907 134.918 218.722 135.023 218.568 135.158L218.344 134.787C218.531 134.628 218.755 134.507 219.016 134.423C219.278 134.334 219.553 134.29 219.842 134.29ZM219.667 137.643C219.947 137.643 220.188 137.58 220.388 137.454C220.589 137.323 220.738 137.137 220.836 136.894V136.292H219.681C219.051 136.292 218.736 136.511 218.736 136.95C218.736 137.165 218.818 137.335 218.981 137.461C219.145 137.582 219.373 137.643 219.667 137.643ZM223.67 138.035C223.372 138.035 223.085 137.993 222.809 137.909C222.539 137.82 222.326 137.711 222.172 137.58L222.396 137.188C222.55 137.309 222.744 137.41 222.977 137.489C223.211 137.564 223.453 137.601 223.705 137.601C224.041 137.601 224.289 137.55 224.447 137.447C224.611 137.34 224.692 137.19 224.692 136.999C224.692 136.864 224.648 136.759 224.559 136.684C224.471 136.605 224.359 136.546 224.223 136.509C224.088 136.467 223.908 136.427 223.684 136.39C223.386 136.334 223.145 136.278 222.963 136.222C222.781 136.161 222.625 136.061 222.494 135.921C222.368 135.781 222.305 135.587 222.305 135.34C222.305 135.032 222.434 134.78 222.69 134.584C222.947 134.388 223.304 134.29 223.761 134.29C223.999 134.29 224.237 134.323 224.475 134.388C224.713 134.449 224.909 134.53 225.063 134.633L224.846 135.032C224.543 134.822 224.181 134.717 223.761 134.717C223.444 134.717 223.204 134.773 223.04 134.885C222.882 134.997 222.802 135.144 222.802 135.326C222.802 135.466 222.847 135.578 222.935 135.662C223.029 135.746 223.143 135.809 223.278 135.851C223.414 135.888 223.6 135.928 223.838 135.97C224.132 136.026 224.368 136.082 224.545 136.138C224.723 136.194 224.874 136.29 225 136.425C225.126 136.56 225.189 136.747 225.189 136.985C225.189 137.307 225.054 137.564 224.783 137.755C224.517 137.942 224.146 138.035 223.67 138.035ZM227.095 138.035C226.796 138.035 226.509 137.993 226.234 137.909C225.963 137.82 225.751 137.711 225.597 137.58L225.821 137.188C225.975 137.309 226.169 137.41 226.402 137.489C226.635 137.564 226.878 137.601 227.13 137.601C227.466 137.601 227.713 137.55 227.872 137.447C228.035 137.34 228.117 137.19 228.117 136.999C228.117 136.864 228.073 136.759 227.984 136.684C227.895 136.605 227.783 136.546 227.648 136.509C227.513 136.467 227.333 136.427 227.109 136.39C226.81 136.334 226.57 136.278 226.388 136.222C226.206 136.161 226.05 136.061 225.919 135.921C225.793 135.781 225.73 135.587 225.73 135.34C225.73 135.032 225.858 134.78 226.115 134.584C226.372 134.388 226.729 134.29 227.186 134.29C227.424 134.29 227.662 134.323 227.9 134.388C228.138 134.449 228.334 134.53 228.488 134.633L228.271 135.032C227.968 134.822 227.606 134.717 227.186 134.717C226.869 134.717 226.628 134.773 226.465 134.885C226.306 134.997 226.227 135.144 226.227 135.326C226.227 135.466 226.271 135.578 226.36 135.662C226.453 135.746 226.568 135.809 226.703 135.851C226.838 135.888 227.025 135.928 227.263 135.97C227.557 136.026 227.793 136.082 227.97 136.138C228.147 136.194 228.299 136.29 228.425 136.425C228.551 136.56 228.614 136.747 228.614 136.985C228.614 137.307 228.479 137.564 228.208 137.755C227.942 137.942 227.571 138.035 227.095 138.035Z" fill="#777777"/>
<path d="M270.798 122.1H271.316V127H270.798V122.1ZM274.681 123.29C275.143 123.29 275.51 123.425 275.78 123.696C276.056 123.962 276.193 124.352 276.193 124.865V127H275.696V124.914C275.696 124.531 275.601 124.24 275.409 124.039C275.218 123.838 274.945 123.738 274.59 123.738C274.194 123.738 273.879 123.857 273.645 124.095C273.417 124.328 273.302 124.653 273.302 125.068V127H272.805V123.318H273.281V123.997C273.417 123.773 273.603 123.6 273.841 123.479C274.084 123.353 274.364 123.29 274.681 123.29ZM277.543 123.318H278.04V127H277.543V123.318ZM277.795 122.513C277.692 122.513 277.606 122.478 277.536 122.408C277.466 122.338 277.431 122.254 277.431 122.156C277.431 122.063 277.466 121.981 277.536 121.911C277.606 121.841 277.692 121.806 277.795 121.806C277.897 121.806 277.984 121.841 278.054 121.911C278.124 121.976 278.159 122.056 278.159 122.149C278.159 122.252 278.124 122.338 278.054 122.408C277.984 122.478 277.897 122.513 277.795 122.513ZM281.361 126.776C281.268 126.86 281.151 126.925 281.011 126.972C280.876 127.014 280.734 127.035 280.584 127.035C280.239 127.035 279.973 126.942 279.786 126.755C279.6 126.568 279.506 126.305 279.506 125.964V123.738H278.848V123.318H279.506V122.513H280.003V123.318H281.123V123.738H280.003V125.936C280.003 126.155 280.057 126.323 280.164 126.44C280.276 126.552 280.435 126.608 280.64 126.608C280.743 126.608 280.841 126.592 280.934 126.559C281.032 126.526 281.116 126.48 281.186 126.419L281.361 126.776ZM283.554 123.29C284.035 123.29 284.404 123.411 284.66 123.654C284.917 123.892 285.045 124.247 285.045 124.718V127H284.569V126.426C284.457 126.617 284.292 126.767 284.072 126.874C283.858 126.981 283.601 127.035 283.302 127.035C282.892 127.035 282.565 126.937 282.322 126.741C282.08 126.545 281.958 126.286 281.958 125.964C281.958 125.651 282.07 125.399 282.294 125.208C282.523 125.017 282.885 124.921 283.379 124.921H284.548V124.697C284.548 124.38 284.46 124.139 284.282 123.976C284.105 123.808 283.846 123.724 283.505 123.724C283.272 123.724 283.048 123.764 282.833 123.843C282.619 123.918 282.434 124.023 282.28 124.158L282.056 123.787C282.243 123.628 282.467 123.507 282.728 123.423C282.99 123.334 283.265 123.29 283.554 123.29ZM283.379 126.643C283.659 126.643 283.9 126.58 284.1 126.454C284.301 126.323 284.45 126.137 284.548 125.894V125.292H283.393C282.763 125.292 282.448 125.511 282.448 125.95C282.448 126.165 282.53 126.335 282.693 126.461C282.857 126.582 283.085 126.643 283.379 126.643ZM288.334 126.776C288.241 126.86 288.124 126.925 287.984 126.972C287.849 127.014 287.706 127.035 287.557 127.035C287.212 127.035 286.946 126.942 286.759 126.755C286.572 126.568 286.479 126.305 286.479 125.964V123.738H285.821V123.318H286.479V122.513H286.976V123.318H288.096V123.738H286.976V125.936C286.976 126.155 287.03 126.323 287.137 126.44C287.249 126.552 287.408 126.608 287.613 126.608C287.716 126.608 287.814 126.592 287.907 126.559C288.005 126.526 288.089 126.48 288.159 126.419L288.334 126.776ZM289.239 123.318H289.736V127H289.239V123.318ZM289.491 122.513C289.388 122.513 289.302 122.478 289.232 122.408C289.162 122.338 289.127 122.254 289.127 122.156C289.127 122.063 289.162 121.981 289.232 121.911C289.302 121.841 289.388 121.806 289.491 121.806C289.594 121.806 289.68 121.841 289.75 121.911C289.82 121.976 289.855 122.056 289.855 122.149C289.855 122.252 289.82 122.338 289.75 122.408C289.68 122.478 289.594 122.513 289.491 122.513ZM294.213 123.318L292.575 127H292.064L290.433 123.318H290.951L292.33 126.454L293.723 123.318H294.213ZM298.016 125.313H294.936C294.964 125.696 295.111 126.006 295.377 126.244C295.643 126.477 295.979 126.594 296.385 126.594C296.614 126.594 296.824 126.554 297.015 126.475C297.207 126.391 297.372 126.27 297.512 126.111L297.792 126.433C297.629 126.629 297.424 126.778 297.176 126.881C296.934 126.984 296.665 127.035 296.371 127.035C295.993 127.035 295.657 126.956 295.363 126.797C295.074 126.634 294.848 126.41 294.684 126.125C294.521 125.84 294.439 125.518 294.439 125.159C294.439 124.8 294.516 124.478 294.67 124.193C294.829 123.908 295.044 123.687 295.314 123.528C295.59 123.369 295.898 123.29 296.238 123.29C296.579 123.29 296.885 123.369 297.155 123.528C297.426 123.687 297.638 123.908 297.792 124.193C297.946 124.473 298.023 124.795 298.023 125.159L298.016 125.313ZM296.238 123.717C295.884 123.717 295.585 123.831 295.342 124.06C295.104 124.284 294.969 124.578 294.936 124.942H297.547C297.515 124.578 297.377 124.284 297.134 124.06C296.896 123.831 296.598 123.717 296.238 123.717Z" fill="#777777"/>
<path d="M339.149 128.042C338.785 128.042 338.435 127.984 338.099 127.867C337.768 127.75 337.511 127.596 337.329 127.405L337.532 127.006C337.709 127.183 337.945 127.328 338.239 127.44C338.533 127.547 338.836 127.601 339.149 127.601C339.588 127.601 339.917 127.522 340.136 127.363C340.355 127.2 340.465 126.99 340.465 126.733C340.465 126.537 340.404 126.381 340.283 126.264C340.166 126.147 340.022 126.059 339.849 125.998C339.676 125.933 339.436 125.863 339.128 125.788C338.759 125.695 338.465 125.606 338.246 125.522C338.027 125.433 337.838 125.3 337.679 125.123C337.525 124.946 337.448 124.705 337.448 124.402C337.448 124.155 337.513 123.931 337.644 123.73C337.775 123.525 337.975 123.361 338.246 123.24C338.517 123.119 338.853 123.058 339.254 123.058C339.534 123.058 339.807 123.098 340.073 123.177C340.344 123.252 340.577 123.357 340.773 123.492L340.598 123.905C340.393 123.77 340.173 123.669 339.94 123.604C339.707 123.534 339.478 123.499 339.254 123.499C338.825 123.499 338.5 123.583 338.281 123.751C338.066 123.914 337.959 124.127 337.959 124.388C337.959 124.584 338.017 124.743 338.134 124.864C338.255 124.981 338.405 125.072 338.582 125.137C338.764 125.198 339.007 125.265 339.31 125.34C339.669 125.429 339.959 125.517 340.178 125.606C340.402 125.69 340.591 125.821 340.745 125.998C340.899 126.171 340.976 126.406 340.976 126.705C340.976 126.952 340.908 127.179 340.773 127.384C340.642 127.585 340.439 127.746 340.164 127.867C339.889 127.984 339.55 128.042 339.149 128.042ZM343.897 124.29C344.242 124.29 344.555 124.369 344.835 124.528C345.115 124.682 345.334 124.901 345.493 125.186C345.651 125.471 345.731 125.795 345.731 126.159C345.731 126.528 345.651 126.854 345.493 127.139C345.334 127.424 345.115 127.645 344.835 127.804C344.559 127.958 344.247 128.035 343.897 128.035C343.598 128.035 343.327 127.974 343.085 127.853C342.847 127.727 342.651 127.545 342.497 127.307V129.358H342V124.318H342.476V125.046C342.625 124.803 342.821 124.617 343.064 124.486C343.311 124.355 343.589 124.29 343.897 124.29ZM343.862 127.594C344.118 127.594 344.352 127.536 344.562 127.419C344.772 127.298 344.935 127.127 345.052 126.908C345.173 126.689 345.234 126.439 345.234 126.159C345.234 125.879 345.173 125.632 345.052 125.417C344.935 125.198 344.772 125.027 344.562 124.906C344.352 124.785 344.118 124.724 343.862 124.724C343.6 124.724 343.365 124.785 343.155 124.906C342.949 125.027 342.786 125.198 342.665 125.417C342.548 125.632 342.49 125.879 342.49 126.159C342.49 126.439 342.548 126.689 342.665 126.908C342.786 127.127 342.949 127.298 343.155 127.419C343.365 127.536 343.6 127.594 343.862 127.594ZM349.95 126.313H346.87C346.898 126.696 347.045 127.006 347.311 127.244C347.577 127.477 347.913 127.594 348.319 127.594C348.547 127.594 348.757 127.554 348.949 127.475C349.14 127.391 349.306 127.27 349.446 127.111L349.726 127.433C349.562 127.629 349.357 127.778 349.11 127.881C348.867 127.984 348.599 128.035 348.305 128.035C347.927 128.035 347.591 127.956 347.297 127.797C347.007 127.634 346.781 127.41 346.618 127.125C346.454 126.84 346.373 126.518 346.373 126.159C346.373 125.8 346.45 125.478 346.604 125.193C346.762 124.908 346.977 124.687 347.248 124.528C347.523 124.369 347.831 124.29 348.172 124.29C348.512 124.29 348.818 124.369 349.089 124.528C349.359 124.687 349.572 124.908 349.726 125.193C349.88 125.473 349.957 125.795 349.957 126.159L349.95 126.313ZM348.172 124.717C347.817 124.717 347.518 124.831 347.276 125.06C347.038 125.284 346.902 125.578 346.87 125.942H349.481C349.448 125.578 349.31 125.284 349.068 125.06C348.83 124.831 348.531 124.717 348.172 124.717ZM354.174 126.313H351.094C351.122 126.696 351.269 127.006 351.535 127.244C351.801 127.477 352.137 127.594 352.543 127.594C352.772 127.594 352.982 127.554 353.173 127.475C353.365 127.391 353.53 127.27 353.67 127.111L353.95 127.433C353.787 127.629 353.582 127.778 353.334 127.881C353.092 127.984 352.823 128.035 352.529 128.035C352.151 128.035 351.815 127.956 351.521 127.797C351.232 127.634 351.006 127.41 350.842 127.125C350.679 126.84 350.597 126.518 350.597 126.159C350.597 125.8 350.674 125.478 350.828 125.193C350.987 124.908 351.202 124.687 351.472 124.528C351.748 124.369 352.056 124.29 352.396 124.29C352.737 124.29 353.043 124.369 353.313 124.528C353.584 124.687 353.796 124.908 353.95 125.193C354.104 125.473 354.181 125.795 354.181 126.159L354.174 126.313ZM352.396 124.717C352.042 124.717 351.743 124.831 351.5 125.06C351.262 125.284 351.127 125.578 351.094 125.942H353.705C353.673 125.578 353.535 125.284 353.292 125.06C353.054 124.831 352.756 124.717 352.396 124.717ZM358.553 122.806V128H358.077V127.272C357.928 127.519 357.729 127.708 357.482 127.839C357.239 127.97 356.964 128.035 356.656 128.035C356.311 128.035 355.998 127.956 355.718 127.797C355.438 127.638 355.219 127.417 355.06 127.132C354.901 126.847 354.822 126.523 354.822 126.159C354.822 125.795 354.901 125.471 355.06 125.186C355.219 124.901 355.438 124.682 355.718 124.528C355.998 124.369 356.311 124.29 356.656 124.29C356.955 124.29 357.223 124.353 357.461 124.479C357.704 124.6 357.902 124.78 358.056 125.018V122.806H358.553ZM356.698 127.594C356.955 127.594 357.186 127.536 357.391 127.419C357.601 127.298 357.764 127.127 357.881 126.908C358.002 126.689 358.063 126.439 358.063 126.159C358.063 125.879 358.002 125.629 357.881 125.41C357.764 125.191 357.601 125.023 357.391 124.906C357.186 124.785 356.955 124.724 356.698 124.724C356.437 124.724 356.201 124.785 355.991 124.906C355.786 125.023 355.622 125.191 355.501 125.41C355.384 125.629 355.326 125.879 355.326 126.159C355.326 126.439 355.384 126.689 355.501 126.908C355.622 127.127 355.786 127.298 355.991 127.419C356.201 127.536 356.437 127.594 356.698 127.594Z" fill="#777777"/>
<rect x="35.5" y="167.5" width="339" height="53" rx="4.5" fill="white" stroke="#EBEBEB"/>
<path d="M101.99 184V191H101.26V187.77H96.88V191H96.14V184H96.88V187.12H101.26V184H101.99ZM108.705 188.59H104.305C104.345 189.137 104.555 189.58 104.935 189.92C105.315 190.253 105.795 190.42 106.375 190.42C106.701 190.42 107.001 190.363 107.275 190.25C107.548 190.13 107.785 189.957 107.985 189.73L108.385 190.19C108.151 190.47 107.858 190.683 107.505 190.83C107.158 190.977 106.775 191.05 106.355 191.05C105.815 191.05 105.335 190.937 104.915 190.71C104.501 190.477 104.178 190.157 103.945 189.75C103.711 189.343 103.595 188.883 103.595 188.37C103.595 187.857 103.705 187.397 103.925 186.99C104.151 186.583 104.458 186.267 104.845 186.04C105.238 185.813 105.678 185.7 106.165 185.7C106.651 185.7 107.088 185.813 107.475 186.04C107.861 186.267 108.165 186.583 108.385 186.99C108.605 187.39 108.715 187.85 108.715 188.37L108.705 188.59ZM106.165 186.31C105.658 186.31 105.231 186.473 104.885 186.8C104.545 187.12 104.351 187.54 104.305 188.06H108.035C107.988 187.54 107.791 187.12 107.445 186.8C107.105 186.473 106.678 186.31 106.165 186.31ZM111.853 185.7C112.54 185.7 113.067 185.873 113.433 186.22C113.8 186.56 113.983 187.067 113.983 187.74V191H113.303V190.18C113.143 190.453 112.907 190.667 112.593 190.82C112.287 190.973 111.92 191.05 111.493 191.05C110.907 191.05 110.44 190.91 110.093 190.63C109.747 190.35 109.573 189.98 109.573 189.52C109.573 189.073 109.733 188.713 110.053 188.44C110.38 188.167 110.897 188.03 111.603 188.03H113.273V187.71C113.273 187.257 113.147 186.913 112.893 186.68C112.64 186.44 112.27 186.32 111.783 186.32C111.45 186.32 111.13 186.377 110.823 186.49C110.517 186.597 110.253 186.747 110.033 186.94L109.713 186.41C109.98 186.183 110.3 186.01 110.673 185.89C111.047 185.763 111.44 185.7 111.853 185.7ZM111.603 190.49C112.003 190.49 112.347 190.4 112.633 190.22C112.92 190.033 113.133 189.767 113.273 189.42V188.56H111.623C110.723 188.56 110.273 188.873 110.273 189.5C110.273 189.807 110.39 190.05 110.623 190.23C110.857 190.403 111.183 190.49 111.603 190.49ZM115.912 183.58H116.622V191H115.912V183.58ZM121.387 190.68C121.254 190.8 121.087 190.893 120.887 190.96C120.694 191.02 120.49 191.05 120.277 191.05C119.784 191.05 119.404 190.917 119.137 190.65C118.87 190.383 118.737 190.007 118.737 189.52V186.34H117.797V185.74H118.737V184.59H119.447V185.74H121.047V186.34H119.447V189.48C119.447 189.793 119.524 190.033 119.677 190.2C119.837 190.36 120.064 190.44 120.357 190.44C120.504 190.44 120.644 190.417 120.777 190.37C120.917 190.323 121.037 190.257 121.137 190.17L121.387 190.68ZM125.359 185.7C126.019 185.7 126.543 185.893 126.929 186.28C127.323 186.66 127.519 187.217 127.519 187.95V191H126.809V188.02C126.809 187.473 126.673 187.057 126.399 186.77C126.126 186.483 125.736 186.34 125.229 186.34C124.663 186.34 124.213 186.51 123.879 186.85C123.553 187.183 123.389 187.647 123.389 188.24V191H122.679V183.58H123.389V186.66C123.583 186.353 123.849 186.117 124.189 185.95C124.529 185.783 124.919 185.7 125.359 185.7Z" fill="#777777"/>
<rect x="95" y="197" width="270" height="6" rx="3" fill="#EBEBEB"/>
<rect x="95" y="197" width="58" height="6" rx="3" fill="#EB5757" fill-opacity="0.75"/>
<path d="M57.77 185.8C58.7233 185.852 59.447 186.112 59.941 186.58C60.4437 187.039 60.695 187.642 60.695 188.387C60.695 188.907 60.5693 189.371 60.318 189.778C60.0667 190.177 59.694 190.493 59.2 190.727C58.706 190.961 58.1037 191.078 57.393 191.078C56.7343 191.078 56.1103 190.974 55.521 190.766C54.9403 190.549 54.4723 190.263 54.117 189.908L54.572 189.167C54.8753 189.479 55.2783 189.735 55.781 189.934C56.2837 190.125 56.821 190.22 57.393 190.22C58.1383 190.22 58.7147 190.06 59.122 189.739C59.5293 189.41 59.733 188.959 59.733 188.387C59.733 187.824 59.5293 187.382 59.122 187.061C58.7147 186.74 58.0993 186.58 57.276 186.58H56.626V185.891L59.148 182.732H54.494V181.9H60.344V182.563L57.77 185.8Z" fill="#EB5757" fill-opacity="0.8"/>
<line x1="54.6678" y1="202.626" x2="72.6678" y2="186.626" stroke="#EBEBEB"/>
<path d="M69.198 197.9V207H68.262V198.732H66.117V197.9H69.198ZM74.4673 201.8C75.4206 201.852 76.1443 202.112 76.6383 202.58C77.1409 203.039 77.3923 203.642 77.3923 204.387C77.3923 204.907 77.2666 205.371 77.0153 205.778C76.7639 206.177 76.3913 206.493 75.8973 206.727C75.4033 206.961 74.8009 207.078 74.0903 207.078C73.4316 207.078 72.8076 206.974 72.2183 206.766C71.6376 206.549 71.1696 206.263 70.8143 205.908L71.2693 205.167C71.5726 205.479 71.9756 205.735 72.4783 205.934C72.9809 206.125 73.5183 206.22 74.0903 206.22C74.8356 206.22 75.4119 206.06 75.8193 205.739C76.2266 205.41 76.4303 204.959 76.4303 204.387C76.4303 203.824 76.2266 203.382 75.8193 203.061C75.4119 202.74 74.7966 202.58 73.9733 202.58H73.3233V201.891L75.8453 198.732H71.1913V197.9H77.0413V198.563L74.4673 201.8Z" fill="#BBBBBB"/>
<rect x="35.5" y="234.5" width="118" height="32" rx="4.5" fill="white" stroke="#EBEBEB"/>
<path d="M67.66 250.668C68.212 250.788 68.636 251.028 68.932 251.388C69.236 251.74 69.388 252.196 69.388 252.756C69.388 253.476 69.12 254.032 68.584 254.424C68.056 254.808 67.272 255 66.232 255H62.368V246.6H65.992C66.928 246.6 67.652 246.788 68.164 247.164C68.684 247.54 68.944 248.072 68.944 248.76C68.944 249.224 68.828 249.62 68.596 249.948C68.372 250.268 68.06 250.508 67.66 250.668ZM63.256 247.332V250.38H65.932C66.612 250.38 67.136 250.252 67.504 249.996C67.872 249.732 68.056 249.352 68.056 248.856C68.056 248.36 67.872 247.984 67.504 247.728C67.136 247.464 66.612 247.332 65.932 247.332H63.256ZM66.22 254.268C66.972 254.268 67.54 254.14 67.924 253.884C68.308 253.628 68.5 253.228 68.5 252.684C68.5 251.636 67.74 251.112 66.22 251.112H63.256V254.268H66.22ZM71.4149 246.6H72.3029V254.232H77.0069V255H71.4149V246.6ZM81.9892 255.072C81.1572 255.072 80.4012 254.888 79.7212 254.52C79.0492 254.144 78.5212 253.632 78.1372 252.984C77.7612 252.336 77.5732 251.608 77.5732 250.8C77.5732 249.992 77.7612 249.264 78.1372 248.616C78.5212 247.968 79.0492 247.46 79.7212 247.092C80.4012 246.716 81.1572 246.528 81.9892 246.528C82.8212 246.528 83.5692 246.712 84.2332 247.08C84.9052 247.448 85.4332 247.96 85.8172 248.616C86.2012 249.264 86.3932 249.992 86.3932 250.8C86.3932 251.608 86.2012 252.34 85.8172 252.996C85.4332 253.644 84.9052 254.152 84.2332 254.52C83.5692 254.888 82.8212 255.072 81.9892 255.072ZM81.9892 254.28C82.6532 254.28 83.2532 254.132 83.7892 253.836C84.3252 253.532 84.7452 253.116 85.0492 252.588C85.3532 252.052 85.5052 251.456 85.5052 250.8C85.5052 250.144 85.3532 249.552 85.0492 249.024C84.7452 248.488 84.3252 248.072 83.7892 247.776C83.2532 247.472 82.6532 247.32 81.9892 247.32C81.3252 247.32 80.7212 247.472 80.1772 247.776C79.6412 248.072 79.2172 248.488 78.9052 249.024C78.6012 249.552 78.4492 250.144 78.4492 250.8C78.4492 251.456 78.6012 252.052 78.9052 252.588C79.2172 253.116 79.6412 253.532 80.1772 253.836C80.7212 254.132 81.3252 254.28 81.9892 254.28ZM92.0556 255.072C91.2236 255.072 90.4676 254.888 89.7876 254.52C89.1156 254.144 88.5876 253.632 88.2036 252.984C87.8276 252.336 87.6396 251.608 87.6396 250.8C87.6396 249.992 87.8276 249.264 88.2036 248.616C88.5876 247.968 89.1156 247.46 89.7876 247.092C90.4676 246.716 91.2236 246.528 92.0556 246.528C92.8876 246.528 93.6356 246.712 94.2996 247.08C94.9716 247.448 95.4996 247.96 95.8836 248.616C96.2676 249.264 96.4596 249.992 96.4596 250.8C96.4596 251.608 96.2676 252.34 95.8836 252.996C95.4996 253.644 94.9716 254.152 94.2996 254.52C93.6356 254.888 92.8876 255.072 92.0556 255.072ZM92.0556 254.28C92.7196 254.28 93.3196 254.132 93.8556 253.836C94.3916 253.532 94.8116 253.116 95.1156 252.588C95.4196 252.052 95.5716 251.456 95.5716 250.8C95.5716 250.144 95.4196 249.552 95.1156 249.024C94.8116 248.488 94.3916 248.072 93.8556 247.776C93.3196 247.472 92.7196 247.32 92.0556 247.32C91.3916 247.32 90.7876 247.472 90.2436 247.776C89.7076 248.072 89.2836 248.488 88.9716 249.024C88.6676 249.552 88.5156 250.144 88.5156 250.8C88.5156 251.456 88.6676 252.052 88.9716 252.588C89.2836 253.116 89.7076 253.532 90.2436 253.836C90.7876 254.132 91.3916 254.28 92.0556 254.28ZM98.45 246.6H101.87C102.758 246.6 103.542 246.78 104.222 247.14C104.902 247.492 105.43 247.988 105.806 248.628C106.182 249.26 106.37 249.984 106.37 250.8C106.37 251.616 106.182 252.344 105.806 252.984C105.43 253.616 104.902 254.112 104.222 254.472C103.542 254.824 102.758 255 101.87 255H98.45V246.6ZM101.822 254.232C102.558 254.232 103.202 254.088 103.754 253.8C104.306 253.504 104.734 253.1 105.038 252.588C105.342 252.068 105.494 251.472 105.494 250.8C105.494 250.128 105.342 249.536 105.038 249.024C104.734 248.504 104.306 248.1 103.754 247.812C103.202 247.516 102.558 247.368 101.822 247.368H99.338V254.232H101.822ZM108.364 246.6H109.252V255H108.364V246.6ZM117.925 254.232V255H111.985V246.6H117.745V247.368H112.873V250.356H117.217V251.112H112.873V254.232H117.925ZM120.013 246.6H123.433C124.321 246.6 125.105 246.78 125.785 247.14C126.465 247.492 126.993 247.988 127.369 248.628C127.745 249.26 127.933 249.984 127.933 250.8C127.933 251.616 127.745 252.344 127.369 252.984C126.993 253.616 126.465 254.112 125.785 254.472C125.105 254.824 124.321 255 123.433 255H120.013V246.6ZM123.385 254.232C124.121 254.232 124.765 254.088 125.317 253.8C125.869 253.504 126.297 253.1 126.601 252.588C126.905 252.068 127.057 251.472 127.057 250.8C127.057 250.128 126.905 249.536 126.601 249.024C126.297 248.504 125.869 248.1 125.317 247.812C124.765 247.516 124.121 247.368 123.385 247.368H120.901V254.232H123.385Z" fill="#EB5757" fill-opacity="0.75"/>
<rect x="180.5" y="233.5" width="79" height="32" rx="4.5" fill="white" stroke="#EBEBEB"/>
<line x1="221.5" y1="233" x2="221.5" y2="266" stroke="#EBEBEB"/>
<path d="M212.822 239.1V239.457L210.771 244H210.225L212.241 239.548H209.721V240.465H209.224V239.1H212.822Z" fill="#2D9CDB" fill-opacity="0.69"/>
<path d="M203.25 245.75V256.25H192.75V245.75H203.25ZM203.25 244.25H192.75C191.925 244.25 191.25 244.925 191.25 245.75V256.25C191.25 257.075 191.925 257.75 192.75 257.75H203.25C204.075 257.75 204.75 257.075 204.75 256.25V245.75C204.75 244.925 204.075 244.25 203.25 244.25ZM194.625 246.5C194.025 246.5 193.5 247.025 193.5 247.625C193.5 248.225 194.025 248.75 194.625 248.75C195.225 248.75 195.75 248.225 195.75 247.625C195.75 247.025 195.225 246.5 194.625 246.5ZM201.375 253.25C200.775 253.25 200.25 253.775 200.25 254.375C200.25 254.975 200.775 255.5 201.375 255.5C201.975 255.5 202.5 254.975 202.5 254.375C202.5 253.775 201.975 253.25 201.375 253.25ZM201.375 246.5C200.775 246.5 200.25 247.025 200.25 247.625C200.25 248.225 200.775 248.75 201.375 248.75C201.975 248.75 202.5 248.225 202.5 247.625C202.5 247.025 201.975 246.5 201.375 246.5ZM198 249.875C197.4 249.875 196.875 250.4 196.875 251C196.875 251.6 197.4 252.125 198 252.125C198.6 252.125 199.125 251.6 199.125 251C199.125 250.4 198.6 249.875 198 249.875ZM194.625 253.25C194.025 253.25 193.5 253.775 193.5 254.375C193.5 254.975 194.025 255.5 194.625 255.5C195.225 255.5 195.75 254.975 195.75 254.375C195.75 253.775 195.225 253.25 194.625 253.25Z" fill="#2D9CDB" fill-opacity="0.69"/>
<path d="M208.167 241.068L207.932 240.833L207 241.765L206.068 240.833L205.833 241.068L206.765 242L205.833 242.932L206.068 243.167L207 242.235L207.932 243.167L208.167 242.932L207.235 242L208.167 241.068Z" fill="#2D9CDB" fill-opacity="0.69"/>
<path d="M239.948 245.096V254H239.132V252.752C238.876 253.176 238.536 253.5 238.112 253.724C237.696 253.948 237.224 254.06 236.696 254.06C236.104 254.06 235.568 253.924 235.088 253.652C234.608 253.38 234.232 253 233.96 252.512C233.688 252.024 233.552 251.468 233.552 250.844C233.552 250.22 233.688 249.664 233.96 249.176C234.232 248.688 234.608 248.312 235.088 248.048C235.568 247.776 236.104 247.64 236.696 247.64C237.208 247.64 237.668 247.748 238.076 247.964C238.492 248.172 238.832 248.48 239.096 248.888V245.096H239.948ZM236.768 253.304C237.208 253.304 237.604 253.204 237.956 253.004C238.316 252.796 238.596 252.504 238.796 252.128C239.004 251.752 239.108 251.324 239.108 250.844C239.108 250.364 239.004 249.936 238.796 249.56C238.596 249.184 238.316 248.896 237.956 248.696C237.604 248.488 237.208 248.384 236.768 248.384C236.32 248.384 235.916 248.488 235.556 248.696C235.204 248.896 234.924 249.184 234.716 249.56C234.516 249.936 234.416 250.364 234.416 250.844C234.416 251.324 234.516 251.752 234.716 252.128C234.924 252.504 235.204 252.796 235.556 253.004C235.916 253.204 236.32 253.304 236.768 253.304ZM246.569 249.596C247.097 249.772 247.501 250.036 247.781 250.388C248.069 250.74 248.213 251.164 248.213 251.66C248.213 252.148 248.081 252.576 247.817 252.944C247.553 253.304 247.173 253.584 246.677 253.784C246.189 253.976 245.613 254.072 244.949 254.072C243.941 254.072 243.149 253.856 242.573 253.424C241.997 252.992 241.709 252.404 241.709 251.66C241.709 251.156 241.845 250.732 242.117 250.388C242.397 250.036 242.801 249.772 243.329 249.596C242.897 249.428 242.569 249.188 242.345 248.876C242.121 248.556 242.009 248.18 242.009 247.748C242.009 247.068 242.273 246.528 242.801 246.128C243.337 245.728 244.053 245.528 244.949 245.528C245.541 245.528 246.057 245.62 246.497 245.804C246.945 245.98 247.293 246.236 247.541 246.572C247.789 246.908 247.913 247.3 247.913 247.748C247.913 248.18 247.797 248.556 247.565 248.876C247.333 249.188 247.001 249.428 246.569 249.596ZM242.873 247.772C242.873 248.236 243.057 248.604 243.425 248.876C243.793 249.148 244.301 249.284 244.949 249.284C245.597 249.284 246.105 249.148 246.473 248.876C246.849 248.604 247.037 248.24 247.037 247.784C247.037 247.312 246.845 246.94 246.461 246.668C246.085 246.396 245.581 246.26 244.949 246.26C244.309 246.26 243.801 246.396 243.425 246.668C243.057 246.94 242.873 247.308 242.873 247.772ZM244.949 253.34C245.693 253.34 246.273 253.188 246.689 252.884C247.113 252.58 247.325 252.168 247.325 251.648C247.325 251.128 247.113 250.72 246.689 250.424C246.273 250.12 245.693 249.968 244.949 249.968C244.213 249.968 243.633 250.12 243.209 250.424C242.793 250.72 242.585 251.128 242.585 251.648C242.585 252.176 242.793 252.592 243.209 252.896C243.625 253.192 244.205 253.34 244.949 253.34Z" fill="#2D9CDB" fill-opacity="0.69"/>
<rect x="286.5" y="235.5" width="88" height="32" rx="4.5" fill="white" stroke="#EBEBEB"/>
<path d="M307 239C304.25 239 302 241.25 302 244C302 246.75 304.25 249 307 249C309.75 249 312 246.75 312 244C312 241.25 309.75 239 307 239ZM307 248C304.795 248 303 246.205 303 244C303 241.795 304.795 240 307 240C309.205 240 311 241.795 311 244C311 246.205 309.205 248 307 248ZM309.295 241.79L306 245.085L304.705 243.795L304 244.5L306 246.5L310 242.5L309.295 241.79Z" fill="#EBEBEB"/>
<path d="M329 239C326.25 239 324 241.25 324 244C324 246.75 326.25 249 329 249C331.75 249 334 246.75 334 244C334 241.25 331.75 239 329 239ZM329 248C326.795 248 325 246.205 325 244C325 241.795 326.795 240 329 240C331.205 240 333 241.795 333 244C333 246.205 331.205 248 329 248ZM331.295 241.79L328 245.085L326.705 243.795L326 244.5L328 246.5L332 242.5L331.295 241.79Z" fill="#EBEBEB"/>
<path d="M351 239C348.25 239 346 241.25 346 244C346 246.75 348.25 249 351 249C353.75 249 356 246.75 356 244C356 241.25 353.75 239 351 239ZM351 248C348.795 248 347 246.205 347 244C347 241.795 348.795 240 351 240C353.205 240 355 241.795 355 244C355 246.205 353.205 248 351 248ZM353.295 241.79L350 245.085L348.705 243.795L348 244.5L350 246.5L354 242.5L353.295 241.79Z" fill="#EBEBEB"/>
<path d="M305 259.5C304.735 259.5 304.48 259.395 304.293 259.207C304.105 259.02 304 258.765 304 258.5C304 258.235 304.105 257.98 304.293 257.793C304.48 257.605 304.735 257.5 305 257.5C305.265 257.5 305.52 257.605 305.707 257.793C305.895 257.98 306 258.235 306 258.5C306 258.765 305.895 259.02 305.707 259.207C305.52 259.395 305.265 259.5 305 259.5ZM306.25 260.5L307 259L307.75 260.5H306.25ZM309 259.5C308.735 259.5 308.48 259.395 308.293 259.207C308.105 259.02 308 258.765 308 258.5C308 258.235 308.105 257.98 308.293 257.793C308.48 257.605 308.735 257.5 309 257.5C309.265 257.5 309.52 257.605 309.707 257.793C309.895 257.98 310 258.235 310 258.5C310 258.765 309.895 259.02 309.707 259.207C309.52 259.395 309.265 259.5 309 259.5ZM312 257.5C312 256.174 311.473 254.902 310.536 253.964C309.598 253.027 308.326 252.5 307 252.5C306.343 252.5 305.693 252.629 305.087 252.881C304.48 253.132 303.929 253.5 303.464 253.964C302.527 254.902 302 256.174 302 257.5C302 258.9 302.6 260.15 303.5 261.05V263H310.5V261.05C311.4 260.15 312 258.9 312 257.5ZM309.5 262H308.5V261H307.5V262H306.5V261H305.5V262H304.5V260.6C303.6 259.85 303 258.75 303 257.5C303 256.439 303.421 255.422 304.172 254.672C304.922 253.921 305.939 253.5 307 253.5C308.061 253.5 309.078 253.921 309.828 254.672C310.579 255.422 311 256.439 311 257.5C311 258.75 310.4 259.9 309.5 260.6V262Z" fill="#EBEBEB"/>
<path d="M327 259.5C326.735 259.5 326.48 259.395 326.293 259.207C326.105 259.02 326 258.765 326 258.5C326 258.235 326.105 257.98 326.293 257.793C326.48 257.605 326.735 257.5 327 257.5C327.265 257.5 327.52 257.605 327.707 257.793C327.895 257.98 328 258.235 328 258.5C328 258.765 327.895 259.02 327.707 259.207C327.52 259.395 327.265 259.5 327 259.5ZM328.25 260.5L329 259L329.75 260.5H328.25ZM331 259.5C330.735 259.5 330.48 259.395 330.293 259.207C330.105 259.02 330 258.765 330 258.5C330 258.235 330.105 257.98 330.293 257.793C330.48 257.605 330.735 257.5 331 257.5C331.265 257.5 331.52 257.605 331.707 257.793C331.895 257.98 332 258.235 332 258.5C332 258.765 331.895 259.02 331.707 259.207C331.52 259.395 331.265 259.5 331 259.5ZM334 257.5C334 256.174 333.473 254.902 332.536 253.964C331.598 253.027 330.326 252.5 329 252.5C328.343 252.5 327.693 252.629 327.087 252.881C326.48 253.132 325.929 253.5 325.464 253.964C324.527 254.902 324 256.174 324 257.5C324 258.9 324.6 260.15 325.5 261.05V263H332.5V261.05C333.4 260.15 334 258.9 334 257.5ZM331.5 262H330.5V261H329.5V262H328.5V261H327.5V262H326.5V260.6C325.6 259.85 325 258.75 325 257.5C325 256.439 325.421 255.422 326.172 254.672C326.922 253.921 327.939 253.5 329 253.5C330.061 253.5 331.078 253.921 331.828 254.672C332.579 255.422 333 256.439 333 257.5C333 258.75 332.4 259.9 331.5 260.6V262Z" fill="#EBEBEB"/>
<path d="M349 259.5C348.735 259.5 348.48 259.395 348.293 259.207C348.105 259.02 348 258.765 348 258.5C348 258.235 348.105 257.981 348.293 257.793C348.48 257.606 348.735 257.5 349 257.5C349.265 257.5 349.52 257.606 349.707 257.793C349.895 257.981 350 258.235 350 258.5C350 258.765 349.895 259.02 349.707 259.207C349.52 259.395 349.265 259.5 349 259.5ZM350.25 260.5L351 259L351.75 260.5H350.25ZM353 259.5C352.735 259.5 352.48 259.395 352.293 259.207C352.105 259.02 352 258.765 352 258.5C352 258.235 352.105 257.981 352.293 257.793C352.48 257.606 352.735 257.5 353 257.5C353.265 257.5 353.52 257.606 353.707 257.793C353.895 257.981 354 258.235 354 258.5C354 258.765 353.895 259.02 353.707 259.207C353.52 259.395 353.265 259.5 353 259.5ZM356 257.5C356 256.174 355.473 254.902 354.536 253.965C353.598 253.027 352.326 252.5 351 252.5C350.343 252.5 349.693 252.63 349.087 252.881C348.48 253.132 347.929 253.5 347.464 253.965C346.527 254.902 346 256.174 346 257.5C346 258.9 346.6 260.15 347.5 261.05V263H354.5V261.05C355.4 260.15 356 258.9 356 257.5ZM353.5 262H352.5V261H351.5V262H350.5V261H349.5V262H348.5V260.6C347.6 259.85 347 258.75 347 257.5C347 256.439 347.421 255.422 348.172 254.672C348.922 253.922 349.939 253.5 351 253.5C352.061 253.5 353.078 253.922 353.828 254.672C354.579 255.422 355 256.439 355 257.5C355 258.75 354.4 259.9 353.5 260.6V262Z" fill="#EBEBEB"/>
</svg>
