<svg width="1440" height="1024" viewBox="0 0 1440 1024" fill="none" xmlns="http://www.w3.org/2000/svg">
<g clip-path="url(#clip0)">
<rect width="1440" height="1024" fill="#FAFAFA"/>
<path d="M8.01515 -46.2567C8.01515 -46.2567 453.76 -151.96 585.558 30.6447C673.326 152.245 668.876 292.256 627.371 409.312C571.336 567.348 625.185 690.09 641.809 800.928C676.791 1034.16 597.828 1131.24 597.828 1131.24L-135.765 1033.56L8.01515 -46.2567Z" fill="#74D3C8"/>
<path d="M77.712 95.792C77.712 91.9947 78.2667 88.6453 79.376 85.744C80.528 82.8427 82.064 80.432 83.984 78.512C85.9467 76.5493 88.208 75.0773 90.768 74.096C93.3707 73.1147 96.1227 72.624 99.024 72.624C101.883 72.624 104.571 73.1147 107.088 74.096C109.648 75.0773 111.888 76.5493 113.808 78.512C115.728 80.432 117.243 82.8427 118.352 85.744C119.504 88.6453 120.08 91.9947 120.08 95.792C120.08 99.5893 119.504 102.939 118.352 105.84C117.243 108.741 115.728 111.173 113.808 113.136C111.888 115.056 109.648 116.507 107.088 117.488C104.571 118.469 101.883 118.96 99.024 118.96C96.1227 118.96 93.3707 118.469 90.768 117.488C88.208 116.507 85.9467 115.056 83.984 113.136C82.064 111.173 80.528 108.741 79.376 105.84C78.2667 102.939 77.712 99.5893 77.712 95.792ZM84.24 95.792C84.24 98.48 84.5813 100.933 85.264 103.152C85.9467 105.328 86.9067 107.184 88.144 108.72C89.424 110.256 90.96 111.451 92.752 112.304C94.5867 113.115 96.6347 113.52 98.896 113.52C101.157 113.52 103.184 113.115 104.976 112.304C106.768 111.451 108.283 110.256 109.52 108.72C110.8 107.184 111.781 105.328 112.464 103.152C113.147 100.933 113.488 98.48 113.488 95.792C113.488 93.104 113.147 90.672 112.464 88.496C111.781 86.2773 110.8 84.4 109.52 82.864C108.283 81.328 106.768 80.1547 104.976 79.344C103.184 78.4907 101.157 78.064 98.896 78.064C96.6347 78.064 94.5867 78.4907 92.752 79.344C90.96 80.1547 89.424 81.328 88.144 82.864C86.9067 84.4 85.9467 86.2773 85.264 88.496C84.5813 90.672 84.24 93.104 84.24 95.792ZM154.917 84.72C153.253 90.9493 151.29 96.9227 149.029 102.64C146.81 108.357 144.655 113.477 142.565 118H137.189C135.098 113.477 132.922 108.357 130.661 102.64C128.442 96.9227 126.501 90.9493 124.837 84.72H131.237C131.749 86.8107 132.346 89.0507 133.029 91.44C133.754 93.7867 134.501 96.1333 135.269 98.48C136.079 100.784 136.89 103.024 137.701 105.2C138.511 107.376 139.279 109.317 140.005 111.024C140.73 109.317 141.498 107.376 142.309 105.2C143.119 103.024 143.909 100.784 144.677 98.48C145.487 96.1333 146.234 93.7867 146.917 91.44C147.642 89.0507 148.261 86.8107 148.773 84.72H154.917ZM158.327 101.424C158.327 98.48 158.753 95.92 159.607 93.744C160.46 91.5253 161.591 89.6907 162.999 88.24C164.407 86.7893 166.028 85.7013 167.863 84.976C169.697 84.2507 171.575 83.888 173.495 83.888C177.975 83.888 181.409 85.296 183.799 88.112C186.188 90.8853 187.382 95.1307 187.382 100.848C187.382 101.104 187.382 101.445 187.382 101.872C187.382 102.256 187.361 102.619 187.319 102.96H164.535C164.791 106.416 165.793 109.04 167.543 110.832C169.292 112.624 172.023 113.52 175.735 113.52C177.825 113.52 179.575 113.349 180.983 113.008C182.433 112.624 183.521 112.261 184.247 111.92L185.079 116.912C184.353 117.296 183.073 117.701 181.239 118.128C179.447 118.555 177.399 118.768 175.095 118.768C172.193 118.768 169.676 118.341 167.543 117.488C165.452 116.592 163.724 115.376 162.359 113.84C160.993 112.304 159.969 110.491 159.286 108.4C158.647 106.267 158.327 103.941 158.327 101.424ZM181.175 98.16C181.217 95.472 180.535 93.2747 179.127 91.568C177.761 89.8187 175.863 88.944 173.431 88.944C172.065 88.944 170.849 89.2213 169.783 89.776C168.759 90.288 167.884 90.9707 167.159 91.824C166.433 92.6773 165.857 93.6587 165.431 94.768C165.047 95.8773 164.791 97.008 164.663 98.16H181.175ZM208.221 84.016C208.733 84.016 209.309 84.0587 209.949 84.144C210.631 84.1867 211.293 84.272 211.933 84.4C212.573 84.4853 213.149 84.592 213.661 84.72C214.215 84.8053 214.621 84.8907 214.877 84.976L213.853 90.16C213.383 89.9893 212.594 89.7973 211.485 89.584C210.418 89.328 209.031 89.2 207.325 89.2C206.215 89.2 205.106 89.328 203.997 89.584C202.93 89.7973 202.226 89.9467 201.885 90.032V118H195.933V86.128C197.341 85.616 199.09 85.1467 201.181 84.72C203.271 84.2507 205.618 84.016 208.221 84.016ZM247.979 84.72C246.315 90.9493 244.352 96.9227 242.091 102.64C239.872 108.357 237.718 113.477 235.627 118H230.251C228.16 113.477 225.984 108.357 223.723 102.64C221.504 96.9227 219.563 90.9493 217.899 84.72H224.299C224.811 86.8107 225.408 89.0507 226.091 91.44C226.816 93.7867 227.563 96.1333 228.331 98.48C229.142 100.784 229.952 103.024 230.763 105.2C231.574 107.376 232.342 109.317 233.067 111.024C233.792 109.317 234.56 107.376 235.371 105.2C236.182 103.024 236.971 100.784 237.739 98.48C238.55 96.1333 239.296 93.7867 239.979 91.44C240.704 89.0507 241.323 86.8107 241.835 84.72H247.979ZM260.072 118H254.12V84.72H260.072V118ZM257.064 78.704C255.997 78.704 255.08 78.3627 254.312 77.68C253.587 76.9547 253.224 75.9947 253.224 74.8C253.224 73.6053 253.587 72.6667 254.312 71.984C255.08 71.2587 255.997 70.896 257.064 70.896C258.131 70.896 259.027 71.2587 259.752 71.984C260.52 72.6667 260.904 73.6053 260.904 74.8C260.904 75.9947 260.52 76.9547 259.752 77.68C259.027 78.3627 258.131 78.704 257.064 78.704ZM268.452 101.424C268.452 98.48 268.878 95.92 269.732 93.744C270.585 91.5253 271.716 89.6907 273.124 88.24C274.532 86.7893 276.153 85.7013 277.988 84.976C279.822 84.2507 281.7 83.888 283.62 83.888C288.1 83.888 291.534 85.296 293.924 88.112C296.313 90.8853 297.507 95.1307 297.507 100.848C297.507 101.104 297.507 101.445 297.507 101.872C297.507 102.256 297.486 102.619 297.444 102.96H274.66C274.916 106.416 275.918 109.04 277.668 110.832C279.417 112.624 282.148 113.52 285.86 113.52C287.95 113.52 289.7 113.349 291.108 113.008C292.558 112.624 293.646 112.261 294.372 111.92L295.204 116.912C294.478 117.296 293.198 117.701 291.364 118.128C289.572 118.555 287.524 118.768 285.22 118.768C282.318 118.768 279.801 118.341 277.668 117.488C275.577 116.592 273.849 115.376 272.484 113.84C271.118 112.304 270.094 110.491 269.411 108.4C268.772 106.267 268.452 103.941 268.452 101.424ZM291.3 98.16C291.342 95.472 290.66 93.2747 289.252 91.568C287.886 89.8187 285.988 88.944 283.556 88.944C282.19 88.944 280.974 89.2213 279.908 89.776C278.884 90.288 278.009 90.9707 277.284 91.824C276.558 92.6773 275.982 93.6587 275.556 94.768C275.172 95.8773 274.916 97.008 274.788 98.16H291.3ZM333.257 118C332.063 114.928 330.783 111.429 329.418 107.504C328.095 103.536 326.879 99.4187 325.77 95.152C324.66 99.4187 323.444 103.536 322.122 107.504C320.799 111.429 319.54 114.928 318.346 118H313.162C311.199 113.605 309.279 108.592 307.402 102.96C305.524 97.328 303.754 91.248 302.09 84.72H308.49C308.916 86.7253 309.428 88.9013 310.026 91.248C310.623 93.5947 311.242 95.9413 311.882 98.288C312.564 100.635 313.268 102.896 313.994 105.072C314.719 107.248 315.402 109.147 316.042 110.768C316.767 108.763 317.471 106.651 318.154 104.432C318.879 102.171 319.562 99.9093 320.202 97.648C320.842 95.344 321.439 93.104 321.994 90.928C322.591 88.7093 323.103 86.64 323.53 84.72H328.458C328.842 86.64 329.311 88.7093 329.866 90.928C330.42 93.104 331.018 95.344 331.658 97.648C332.298 99.9093 332.959 102.171 333.642 104.432C334.367 106.651 335.092 108.763 335.818 110.768C336.458 109.147 337.119 107.248 337.802 105.072C338.527 102.896 339.231 100.635 339.914 98.288C340.596 95.9413 341.236 93.5947 341.834 91.248C342.431 88.9013 342.943 86.7253 343.37 84.72H349.514C347.85 91.248 346.079 97.328 344.202 102.96C342.324 108.592 340.404 113.605 338.442 118H333.257Z" fill="white"/>
<path d="M86.288 233.48C84.7307 233.48 83.312 233.224 82.032 232.712C80.752 232.2 79.6533 231.453 78.736 230.472C77.8187 229.491 77.104 228.285 76.592 226.856C76.1013 225.405 75.856 223.752 75.856 221.896C75.856 220.04 76.1333 218.397 76.688 216.968C77.264 215.517 78.032 214.301 78.992 213.32C79.952 212.339 81.072 211.592 82.352 211.08C83.632 210.568 84.9973 210.312 86.448 210.312C87.3653 210.312 88.1867 210.376 88.912 210.504C89.6587 210.632 90.2987 210.781 90.832 210.952C91.3867 211.123 91.8347 211.293 92.176 211.464C92.5173 211.635 92.752 211.763 92.88 211.848L91.984 214.408C91.792 214.28 91.5147 214.141 91.152 213.992C90.7893 213.843 90.3733 213.693 89.904 213.544C89.456 213.395 88.9547 213.277 88.4 213.192C87.8667 213.085 87.3227 213.032 86.768 213.032C85.5947 213.032 84.5387 213.235 83.6 213.64C82.6613 214.045 81.8613 214.632 81.2 215.4C80.5387 216.168 80.0267 217.107 79.664 218.216C79.3227 219.304 79.152 220.531 79.152 221.896C79.152 223.219 79.3013 224.424 79.6 225.512C79.92 226.6 80.3893 227.539 81.008 228.328C81.6267 229.096 82.3947 229.693 83.312 230.12C84.2507 230.547 85.3387 230.76 86.576 230.76C88.0053 230.76 89.1893 230.611 90.128 230.312C91.0667 230.013 91.7707 229.747 92.24 229.512L93.04 232.072C92.8907 232.179 92.624 232.317 92.24 232.488C91.856 232.637 91.376 232.787 90.8 232.936C90.224 233.085 89.552 233.213 88.784 233.32C88.016 233.427 87.184 233.48 86.288 233.48ZM101.396 233.32C99.5611 233.277 98.2598 232.883 97.4918 232.136C96.7238 231.389 96.3398 230.227 96.3398 228.648V208.68L99.3158 208.168V228.168C99.3158 228.659 99.3584 229.064 99.4438 229.384C99.5291 229.704 99.6678 229.96 99.8598 230.152C100.052 230.344 100.308 230.493 100.628 230.6C100.948 230.685 101.342 230.76 101.812 230.824L101.396 233.32ZM108.13 233H105.154V216.36H108.13V233ZM106.626 213.352C106.092 213.352 105.634 213.181 105.25 212.84C104.887 212.477 104.706 211.997 104.706 211.4C104.706 210.803 104.887 210.333 105.25 209.992C105.634 209.629 106.092 209.448 106.626 209.448C107.159 209.448 107.607 209.629 107.97 209.992C108.354 210.333 108.546 210.803 108.546 211.4C108.546 211.997 108.354 212.477 107.97 212.84C107.607 213.181 107.159 213.352 106.626 213.352ZM112.32 224.712C112.32 223.24 112.533 221.96 112.96 220.872C113.386 219.763 113.952 218.845 114.656 218.12C115.36 217.395 116.17 216.851 117.088 216.488C118.005 216.125 118.944 215.944 119.904 215.944C122.144 215.944 123.861 216.648 125.056 218.056C126.25 219.443 126.847 221.565 126.847 224.424C126.847 224.552 126.847 224.723 126.847 224.936C126.847 225.128 126.837 225.309 126.816 225.48H115.424C115.552 227.208 116.053 228.52 116.928 229.416C117.802 230.312 119.168 230.76 121.024 230.76C122.069 230.76 122.944 230.675 123.648 230.504C124.373 230.312 124.917 230.131 125.28 229.96L125.696 232.456C125.333 232.648 124.693 232.851 123.776 233.064C122.88 233.277 121.856 233.384 120.704 233.384C119.253 233.384 117.994 233.171 116.928 232.744C115.882 232.296 115.018 231.688 114.336 230.92C113.653 230.152 113.141 229.245 112.799 228.2C112.48 227.133 112.32 225.971 112.32 224.712ZM123.744 223.08C123.765 221.736 123.424 220.637 122.72 219.784C122.037 218.909 121.088 218.472 119.872 218.472C119.189 218.472 118.581 218.611 118.048 218.888C117.536 219.144 117.098 219.485 116.736 219.912C116.373 220.339 116.085 220.829 115.872 221.384C115.68 221.939 115.552 222.504 115.488 223.08H123.744ZM131.123 216.84C131.805 216.669 132.712 216.488 133.843 216.296C134.973 216.104 136.275 216.008 137.747 216.008C139.069 216.008 140.168 216.2 141.043 216.584C141.917 216.947 142.611 217.469 143.123 218.152C143.656 218.813 144.029 219.613 144.243 220.552C144.456 221.491 144.562 222.525 144.562 223.656V233H141.587V224.296C141.587 223.272 141.512 222.397 141.363 221.672C141.235 220.947 141.011 220.36 140.691 219.912C140.371 219.464 139.944 219.144 139.411 218.952C138.877 218.739 138.216 218.632 137.427 218.632C137.107 218.632 136.776 218.643 136.435 218.664C136.093 218.685 135.763 218.717 135.443 218.76C135.144 218.781 134.867 218.813 134.611 218.856C134.376 218.899 134.205 218.931 134.099 218.952V233H131.123V216.84ZM152.282 216.36H158.586V218.856H152.282V226.536C152.282 227.368 152.346 228.061 152.474 228.616C152.602 229.149 152.794 229.576 153.05 229.896C153.306 230.195 153.626 230.408 154.01 230.536C154.394 230.664 154.842 230.728 155.354 230.728C156.25 230.728 156.964 230.632 157.498 230.44C158.052 230.227 158.436 230.077 158.65 229.992L159.226 232.456C158.927 232.605 158.404 232.787 157.658 233C156.911 233.235 156.058 233.352 155.098 233.352C153.967 233.352 153.028 233.213 152.282 232.936C151.556 232.637 150.97 232.2 150.522 231.624C150.074 231.048 149.754 230.344 149.562 229.512C149.391 228.659 149.306 227.677 149.306 226.568V211.72L152.282 211.208V216.36ZM173.651 230.856C174.867 230.856 175.763 230.696 176.339 230.376C176.936 230.056 177.235 229.544 177.235 228.84C177.235 228.115 176.947 227.539 176.371 227.112C175.795 226.685 174.845 226.205 173.523 225.672C172.883 225.416 172.264 225.16 171.667 224.904C171.091 224.627 170.589 224.307 170.163 223.944C169.736 223.581 169.395 223.144 169.139 222.632C168.883 222.12 168.755 221.491 168.755 220.744C168.755 219.272 169.299 218.109 170.387 217.256C171.475 216.381 172.957 215.944 174.835 215.944C175.304 215.944 175.773 215.976 176.243 216.04C176.712 216.083 177.149 216.147 177.555 216.232C177.96 216.296 178.312 216.371 178.611 216.456C178.931 216.541 179.176 216.616 179.347 216.68L178.803 219.24C178.483 219.069 177.981 218.899 177.299 218.728C176.616 218.536 175.795 218.44 174.835 218.44C174.003 218.44 173.277 218.611 172.659 218.952C172.04 219.272 171.731 219.784 171.731 220.488C171.731 220.851 171.795 221.171 171.923 221.448C172.072 221.725 172.285 221.981 172.563 222.216C172.861 222.429 173.224 222.632 173.651 222.824C174.077 223.016 174.589 223.219 175.187 223.432C175.976 223.731 176.68 224.029 177.299 224.328C177.917 224.605 178.44 224.936 178.867 225.32C179.315 225.704 179.656 226.173 179.891 226.728C180.125 227.261 180.243 227.923 180.243 228.712C180.243 230.248 179.667 231.411 178.515 232.2C177.384 232.989 175.763 233.384 173.651 233.384C172.179 233.384 171.027 233.256 170.195 233C169.363 232.765 168.797 232.584 168.499 232.456L169.043 229.896C169.384 230.024 169.928 230.216 170.675 230.472C171.421 230.728 172.413 230.856 173.651 230.856ZM183.132 224.712C183.132 223.24 183.345 221.96 183.772 220.872C184.199 219.763 184.764 218.845 185.468 218.12C186.172 217.395 186.983 216.851 187.9 216.488C188.817 216.125 189.756 215.944 190.716 215.944C192.956 215.944 194.673 216.648 195.868 218.056C197.063 219.443 197.66 221.565 197.66 224.424C197.66 224.552 197.66 224.723 197.66 224.936C197.66 225.128 197.649 225.309 197.628 225.48H186.236C186.364 227.208 186.865 228.52 187.74 229.416C188.615 230.312 189.98 230.76 191.836 230.76C192.881 230.76 193.756 230.675 194.46 230.504C195.185 230.312 195.729 230.131 196.092 229.96L196.508 232.456C196.145 232.648 195.505 232.851 194.588 233.064C193.692 233.277 192.668 233.384 191.516 233.384C190.065 233.384 188.807 233.171 187.74 232.744C186.695 232.296 185.831 231.688 185.148 230.92C184.465 230.152 183.953 229.245 183.612 228.2C183.292 227.133 183.132 225.971 183.132 224.712ZM194.556 223.08C194.577 221.736 194.236 220.637 193.532 219.784C192.849 218.909 191.9 218.472 190.684 218.472C190.001 218.472 189.393 218.611 188.86 218.888C188.348 219.144 187.911 219.485 187.548 219.912C187.185 220.339 186.897 220.829 186.684 221.384C186.492 221.939 186.364 222.504 186.3 223.08H194.556ZM208.079 216.008C208.335 216.008 208.623 216.029 208.943 216.072C209.284 216.093 209.615 216.136 209.935 216.2C210.255 216.243 210.543 216.296 210.799 216.36C211.076 216.403 211.279 216.445 211.407 216.488L210.895 219.08C210.66 218.995 210.266 218.899 209.711 218.792C209.178 218.664 208.484 218.6 207.631 218.6C207.076 218.6 206.522 218.664 205.967 218.792C205.434 218.899 205.082 218.973 204.911 219.016V233H201.935V217.064C202.639 216.808 203.514 216.573 204.559 216.36C205.604 216.125 206.778 216.008 208.079 216.008ZM227.958 216.36C227.126 219.475 226.145 222.461 225.014 225.32C223.905 228.179 222.828 230.739 221.782 233H219.094C218.049 230.739 216.961 228.179 215.83 225.32C214.721 222.461 213.75 219.475 212.918 216.36H216.118C216.374 217.405 216.673 218.525 217.014 219.72C217.377 220.893 217.75 222.067 218.134 223.24C218.54 224.392 218.945 225.512 219.35 226.6C219.756 227.688 220.14 228.659 220.502 229.512C220.865 228.659 221.249 227.688 221.654 226.6C222.06 225.512 222.454 224.392 222.838 223.24C223.244 222.067 223.617 220.893 223.958 219.72C224.321 218.525 224.63 217.405 224.886 216.36H227.958ZM229.663 224.712C229.663 223.24 229.877 221.96 230.303 220.872C230.73 219.763 231.295 218.845 231.999 218.12C232.703 217.395 233.514 216.851 234.431 216.488C235.349 216.125 236.287 215.944 237.247 215.944C239.487 215.944 241.205 216.648 242.399 218.056C243.594 219.443 244.191 221.565 244.191 224.424C244.191 224.552 244.191 224.723 244.191 224.936C244.191 225.128 244.181 225.309 244.159 225.48H232.767C232.895 227.208 233.397 228.52 234.271 229.416C235.146 230.312 236.511 230.76 238.367 230.76C239.413 230.76 240.287 230.675 240.991 230.504C241.717 230.312 242.261 230.131 242.623 229.96L243.039 232.456C242.677 232.648 242.037 232.851 241.119 233.064C240.223 233.277 239.199 233.384 238.047 233.384C236.597 233.384 235.338 233.171 234.271 232.744C233.226 232.296 232.362 231.688 231.679 230.92C230.997 230.152 230.485 229.245 230.143 228.2C229.823 227.133 229.663 225.971 229.663 224.712ZM241.087 223.08C241.109 221.736 240.767 220.637 240.063 219.784C239.381 218.909 238.431 218.472 237.215 218.472C236.533 218.472 235.925 218.611 235.391 218.888C234.879 219.144 234.442 219.485 234.079 219.912C233.717 220.339 233.429 220.829 233.215 221.384C233.023 221.939 232.895 222.504 232.831 223.08H241.087ZM254.61 216.008C254.866 216.008 255.154 216.029 255.474 216.072C255.816 216.093 256.146 216.136 256.466 216.2C256.786 216.243 257.074 216.296 257.33 216.36C257.608 216.403 257.81 216.445 257.938 216.488L257.426 219.08C257.192 218.995 256.797 218.899 256.242 218.792C255.709 218.664 255.016 218.6 254.162 218.6C253.608 218.6 253.053 218.664 252.498 218.792C251.965 218.899 251.613 218.973 251.442 219.016V233H248.466V217.064C249.17 216.808 250.045 216.573 251.09 216.36C252.136 216.125 253.309 216.008 254.61 216.008ZM268.408 210.824H271.512V233H268.408V210.824ZM276.81 216.84C277.493 216.669 278.399 216.488 279.53 216.296C280.661 216.104 281.962 216.008 283.434 216.008C284.757 216.008 285.855 216.2 286.73 216.584C287.605 216.947 288.298 217.469 288.81 218.152C289.343 218.813 289.717 219.613 289.93 220.552C290.143 221.491 290.25 222.525 290.25 223.656V233H287.274V224.296C287.274 223.272 287.199 222.397 287.05 221.672C286.922 220.947 286.698 220.36 286.378 219.912C286.058 219.464 285.631 219.144 285.098 218.952C284.565 218.739 283.903 218.632 283.114 218.632C282.794 218.632 282.463 218.643 282.122 218.664C281.781 218.685 281.45 218.717 281.13 218.76C280.831 218.781 280.554 218.813 280.298 218.856C280.063 218.899 279.893 218.931 279.786 218.952V233H276.81V216.84ZM297.969 216.36H304.273V218.856H297.969V226.536C297.969 227.368 298.033 228.061 298.161 228.616C298.289 229.149 298.481 229.576 298.737 229.896C298.993 230.195 299.313 230.408 299.697 230.536C300.081 230.664 300.529 230.728 301.041 230.728C301.937 230.728 302.652 230.632 303.185 230.44C303.74 230.227 304.124 230.077 304.337 229.992L304.913 232.456C304.614 232.605 304.092 232.787 303.345 233C302.598 233.235 301.745 233.352 300.785 233.352C299.654 233.352 298.716 233.213 297.969 232.936C297.244 232.637 296.657 232.2 296.209 231.624C295.761 231.048 295.441 230.344 295.249 229.512C295.078 228.659 294.993 227.677 294.993 226.568V211.72L297.969 211.208V216.36ZM306.82 224.712C306.82 223.24 307.033 221.96 307.46 220.872C307.886 219.763 308.452 218.845 309.156 218.12C309.86 217.395 310.67 216.851 311.588 216.488C312.505 216.125 313.444 215.944 314.404 215.944C316.644 215.944 318.361 216.648 319.556 218.056C320.75 219.443 321.347 221.565 321.347 224.424C321.347 224.552 321.347 224.723 321.347 224.936C321.347 225.128 321.337 225.309 321.316 225.48H309.924C310.052 227.208 310.553 228.52 311.428 229.416C312.302 230.312 313.668 230.76 315.524 230.76C316.569 230.76 317.444 230.675 318.148 230.504C318.873 230.312 319.417 230.131 319.78 229.96L320.196 232.456C319.833 232.648 319.193 232.851 318.276 233.064C317.38 233.277 316.356 233.384 315.204 233.384C313.753 233.384 312.494 233.171 311.428 232.744C310.382 232.296 309.518 231.688 308.836 230.92C308.153 230.152 307.641 229.245 307.299 228.2C306.98 227.133 306.82 225.971 306.82 224.712ZM318.244 223.08C318.265 221.736 317.924 220.637 317.22 219.784C316.537 218.909 315.588 218.472 314.372 218.472C313.689 218.472 313.081 218.611 312.548 218.888C312.036 219.144 311.598 219.485 311.236 219.912C310.873 220.339 310.585 220.829 310.372 221.384C310.18 221.939 310.052 222.504 309.988 223.08H318.244ZM331.767 216.008C332.023 216.008 332.311 216.029 332.631 216.072C332.972 216.093 333.303 216.136 333.623 216.2C333.943 216.243 334.231 216.296 334.487 216.36C334.764 216.403 334.967 216.445 335.095 216.488L334.583 219.08C334.348 218.995 333.953 218.899 333.399 218.792C332.865 218.664 332.172 218.6 331.319 218.6C330.764 218.6 330.209 218.664 329.655 218.792C329.121 218.899 328.769 218.973 328.599 219.016V233H325.623V217.064C326.327 216.808 327.201 216.573 328.247 216.36C329.292 216.125 330.465 216.008 331.767 216.008ZM343.598 230.856C344.302 230.856 344.921 230.845 345.454 230.824C346.009 230.781 346.468 230.717 346.83 230.632V225.672C346.617 225.565 346.265 225.48 345.774 225.416C345.305 225.331 344.729 225.288 344.046 225.288C343.598 225.288 343.118 225.32 342.606 225.384C342.116 225.448 341.657 225.587 341.23 225.8C340.825 225.992 340.484 226.269 340.206 226.632C339.929 226.973 339.79 227.432 339.79 228.008C339.79 229.075 340.132 229.821 340.814 230.248C341.497 230.653 342.425 230.856 343.598 230.856ZM343.342 215.944C344.537 215.944 345.54 216.104 346.35 216.424C347.182 216.723 347.844 217.16 348.334 217.736C348.846 218.291 349.209 218.963 349.422 219.752C349.636 220.52 349.742 221.373 349.742 222.312V232.712C349.486 232.755 349.124 232.819 348.654 232.904C348.206 232.968 347.694 233.032 347.118 233.096C346.542 233.16 345.913 233.213 345.23 233.256C344.569 233.32 343.908 233.352 343.246 233.352C342.308 233.352 341.444 233.256 340.654 233.064C339.865 232.872 339.182 232.573 338.606 232.168C338.03 231.741 337.582 231.187 337.262 230.504C336.942 229.821 336.782 229 336.782 228.04C336.782 227.123 336.964 226.333 337.326 225.672C337.71 225.011 338.222 224.477 338.862 224.072C339.502 223.667 340.249 223.368 341.102 223.176C341.956 222.984 342.852 222.888 343.79 222.888C344.089 222.888 344.398 222.909 344.718 222.952C345.038 222.973 345.337 223.016 345.614 223.08C345.913 223.123 346.169 223.165 346.382 223.208C346.596 223.251 346.745 223.283 346.83 223.304V222.472C346.83 221.981 346.777 221.501 346.67 221.032C346.564 220.541 346.372 220.115 346.094 219.752C345.817 219.368 345.433 219.069 344.942 218.856C344.473 218.621 343.854 218.504 343.086 218.504C342.105 218.504 341.241 218.579 340.494 218.728C339.769 218.856 339.225 218.995 338.862 219.144L338.51 216.68C338.894 216.509 339.534 216.349 340.43 216.2C341.326 216.029 342.297 215.944 343.342 215.944ZM361.917 233.384C360.573 233.384 359.389 233.171 358.365 232.744C357.362 232.317 356.509 231.72 355.805 230.952C355.122 230.184 354.61 229.277 354.269 228.232C353.928 227.165 353.757 225.992 353.757 224.712C353.757 223.432 353.938 222.259 354.301 221.192C354.685 220.125 355.218 219.208 355.901 218.44C356.584 217.651 357.416 217.043 358.397 216.616C359.4 216.168 360.509 215.944 361.725 215.944C362.472 215.944 363.218 216.008 363.965 216.136C364.712 216.264 365.426 216.467 366.109 216.744L365.437 219.272C364.989 219.059 364.466 218.888 363.869 218.76C363.293 218.632 362.674 218.568 362.013 218.568C360.349 218.568 359.069 219.091 358.173 220.136C357.298 221.181 356.861 222.707 356.861 224.712C356.861 225.608 356.957 226.429 357.149 227.176C357.362 227.923 357.682 228.563 358.109 229.096C358.557 229.629 359.122 230.045 359.805 230.344C360.488 230.621 361.32 230.76 362.301 230.76C363.09 230.76 363.805 230.685 364.445 230.536C365.085 230.387 365.586 230.227 365.949 230.056L366.365 232.552C366.194 232.659 365.949 232.765 365.629 232.872C365.309 232.957 364.946 233.032 364.541 233.096C364.136 233.181 363.698 233.245 363.229 233.288C362.781 233.352 362.344 233.384 361.917 233.384ZM372.344 216.36H378.648V218.856H372.344V226.536C372.344 227.368 372.408 228.061 372.536 228.616C372.664 229.149 372.856 229.576 373.112 229.896C373.368 230.195 373.688 230.408 374.072 230.536C374.456 230.664 374.904 230.728 375.416 230.728C376.312 230.728 377.027 230.632 377.56 230.44C378.115 230.227 378.499 230.077 378.712 229.992L379.288 232.456C378.989 232.605 378.467 232.787 377.72 233C376.973 233.235 376.12 233.352 375.16 233.352C374.029 233.352 373.091 233.213 372.344 232.936C371.619 232.637 371.032 232.2 370.584 231.624C370.136 231.048 369.816 230.344 369.624 229.512C369.453 228.659 369.368 227.677 369.368 226.568V211.72L372.344 211.208V216.36ZM385.411 233H382.435V216.36H385.411V233ZM383.907 213.352C383.374 213.352 382.915 213.181 382.531 212.84C382.168 212.477 381.987 211.997 381.987 211.4C381.987 210.803 382.168 210.333 382.531 209.992C382.915 209.629 383.374 209.448 383.907 209.448C384.44 209.448 384.888 209.629 385.251 209.992C385.635 210.333 385.827 210.803 385.827 211.4C385.827 211.997 385.635 212.477 385.251 212.84C384.888 213.181 384.44 213.352 383.907 213.352ZM405.217 224.68C405.217 226.003 405.025 227.197 404.641 228.264C404.257 229.331 403.713 230.248 403.009 231.016C402.326 231.784 401.505 232.381 400.545 232.808C399.585 233.213 398.539 233.416 397.409 233.416C396.278 233.416 395.233 233.213 394.273 232.808C393.313 232.381 392.481 231.784 391.777 231.016C391.094 230.248 390.561 229.331 390.177 228.264C389.793 227.197 389.601 226.003 389.601 224.68C389.601 223.379 389.793 222.195 390.177 221.128C390.561 220.04 391.094 219.112 391.777 218.344C392.481 217.576 393.313 216.989 394.273 216.584C395.233 216.157 396.278 215.944 397.409 215.944C398.539 215.944 399.585 216.157 400.545 216.584C401.505 216.989 402.326 217.576 403.009 218.344C403.713 219.112 404.257 220.04 404.641 221.128C405.025 222.195 405.217 223.379 405.217 224.68ZM402.113 224.68C402.113 222.803 401.686 221.32 400.833 220.232C400.001 219.123 398.859 218.568 397.409 218.568C395.958 218.568 394.806 219.123 393.953 220.232C393.121 221.32 392.705 222.803 392.705 224.68C392.705 226.557 393.121 228.051 393.953 229.16C394.806 230.248 395.958 230.792 397.409 230.792C398.859 230.792 400.001 230.248 400.833 229.16C401.686 228.051 402.113 226.557 402.113 224.68ZM409.404 216.84C410.086 216.669 410.993 216.488 412.124 216.296C413.254 216.104 414.556 216.008 416.028 216.008C417.35 216.008 418.449 216.2 419.324 216.584C420.198 216.947 420.892 217.469 421.404 218.152C421.937 218.813 422.31 219.613 422.524 220.552C422.737 221.491 422.844 222.525 422.844 223.656V233H419.868V224.296C419.868 223.272 419.793 222.397 419.644 221.672C419.516 220.947 419.292 220.36 418.972 219.912C418.652 219.464 418.225 219.144 417.692 218.952C417.158 218.739 416.497 218.632 415.708 218.632C415.388 218.632 415.057 218.643 414.716 218.664C414.374 218.685 414.044 218.717 413.724 218.76C413.425 218.781 413.148 218.813 412.892 218.856C412.657 218.899 412.486 218.931 412.38 218.952V233H409.404V216.84ZM431.651 230.856C432.867 230.856 433.763 230.696 434.339 230.376C434.936 230.056 435.235 229.544 435.235 228.84C435.235 228.115 434.947 227.539 434.371 227.112C433.795 226.685 432.845 226.205 431.523 225.672C430.883 225.416 430.264 225.16 429.667 224.904C429.091 224.627 428.589 224.307 428.163 223.944C427.736 223.581 427.395 223.144 427.139 222.632C426.883 222.12 426.755 221.491 426.755 220.744C426.755 219.272 427.299 218.109 428.387 217.256C429.475 216.381 430.957 215.944 432.835 215.944C433.304 215.944 433.773 215.976 434.243 216.04C434.712 216.083 435.149 216.147 435.555 216.232C435.96 216.296 436.312 216.371 436.611 216.456C436.931 216.541 437.176 216.616 437.347 216.68L436.803 219.24C436.483 219.069 435.981 218.899 435.299 218.728C434.616 218.536 433.795 218.44 432.835 218.44C432.003 218.44 431.277 218.611 430.659 218.952C430.04 219.272 429.731 219.784 429.731 220.488C429.731 220.851 429.795 221.171 429.923 221.448C430.072 221.725 430.285 221.981 430.563 222.216C430.861 222.429 431.224 222.632 431.651 222.824C432.077 223.016 432.589 223.219 433.187 223.432C433.976 223.731 434.68 224.029 435.299 224.328C435.917 224.605 436.44 224.936 436.867 225.32C437.315 225.704 437.656 226.173 437.891 226.728C438.125 227.261 438.243 227.923 438.243 228.712C438.243 230.248 437.667 231.411 436.515 232.2C435.384 232.989 433.763 233.384 431.651 233.384C430.179 233.384 429.027 233.256 428.195 233C427.363 232.765 426.797 232.584 426.499 232.456L427.043 229.896C427.384 230.024 427.928 230.216 428.675 230.472C429.421 230.728 430.413 230.856 431.651 230.856Z" fill="white" fill-opacity="0.5"/>
<path d="M91.568 318C91.2053 317.04 90.864 316.101 90.544 315.184C90.224 314.245 89.8933 313.296 89.552 312.336H79.504L77.488 318H74.256C75.1093 315.653 75.9093 313.488 76.656 311.504C77.4027 309.499 78.128 307.6 78.832 305.808C79.5573 304.016 80.272 302.309 80.976 300.688C81.68 299.045 82.416 297.424 83.184 295.824H86.032C86.8 297.424 87.536 299.045 88.24 300.688C88.944 302.309 89.648 304.016 90.352 305.808C91.0773 307.6 91.8133 309.499 92.56 311.504C93.3067 313.488 94.1067 315.653 94.96 318H91.568ZM88.656 309.776C87.9733 307.92 87.2907 306.128 86.608 304.4C85.9467 302.651 85.2533 300.976 84.528 299.376C83.7813 300.976 83.0667 302.651 82.384 304.4C81.7227 306.128 81.0613 307.92 80.4 309.776H88.656ZM109.564 310.864C109.564 311.931 109.447 312.923 109.212 313.84C108.999 314.757 108.604 315.568 108.028 316.272C107.474 316.955 106.716 317.499 105.756 317.904C104.818 318.288 103.634 318.48 102.204 318.48C101.479 318.48 100.807 318.416 100.188 318.288C99.5909 318.181 99.0469 318.043 98.5563 317.872C98.0656 317.68 97.6389 317.488 97.2763 317.296C96.9136 317.083 96.6256 316.88 96.4123 316.688L97.6283 314.224C98.0763 314.544 98.6523 314.885 99.3563 315.248C100.082 315.589 100.978 315.76 102.044 315.76C103.58 315.76 104.7 315.376 105.404 314.608C106.108 313.819 106.46 312.475 106.46 310.576V295.824H109.564V310.864ZM129.412 318C129.049 317.04 128.708 316.101 128.388 315.184C128.068 314.245 127.737 313.296 127.396 312.336H117.348L115.332 318H112.1C112.953 315.653 113.753 313.488 114.5 311.504C115.246 309.499 115.972 307.6 116.676 305.808C117.401 304.016 118.116 302.309 118.82 300.688C119.524 299.045 120.26 297.424 121.028 295.824H123.876C124.644 297.424 125.38 299.045 126.084 300.688C126.788 302.309 127.492 304.016 128.196 305.808C128.921 307.6 129.657 309.499 130.404 311.504C131.15 313.488 131.95 315.653 132.804 318H129.412ZM126.5 309.776C125.817 307.92 125.134 306.128 124.452 304.4C123.79 302.651 123.097 300.976 122.372 299.376C121.625 300.976 120.91 302.651 120.228 304.4C119.566 306.128 118.905 307.92 118.244 309.776H126.5ZM149.939 318C149.619 317.36 149.235 316.656 148.787 315.888C148.339 315.099 147.848 314.288 147.315 313.456C146.782 312.603 146.227 311.76 145.651 310.928C145.075 310.075 144.52 309.275 143.987 308.528C143.454 309.275 142.899 310.075 142.323 310.928C141.747 311.76 141.192 312.603 140.659 313.456C140.147 314.288 139.656 315.099 139.187 315.888C138.739 316.656 138.355 317.36 138.035 318H134.611C135.571 316.123 136.68 314.213 137.939 312.272C139.219 310.331 140.574 308.336 142.003 306.288L134.899 295.824H138.483L143.955 304.08L149.363 295.824H152.915L145.939 306.16C147.39 308.229 148.755 310.245 150.035 312.208C151.315 314.171 152.446 316.101 153.427 318H149.939Z" fill="white" fill-opacity="0.5"/>
<path d="M76.752 403V380.824H90.288V383.48H79.856V390.072H89.136V392.664H79.856V400.344H91.088V403H76.752ZM107.021 386.36C106.189 389.475 105.207 392.461 104.077 395.32C102.967 398.179 101.89 400.739 100.845 403H98.1568C97.1114 400.739 96.0234 398.179 94.8928 395.32C93.7834 392.461 92.8128 389.475 91.9808 386.36H95.1808C95.4368 387.405 95.7354 388.525 96.0768 389.72C96.4394 390.893 96.8128 392.067 97.1968 393.24C97.6021 394.392 98.0074 395.512 98.4128 396.6C98.8181 397.688 99.2021 398.659 99.5648 399.512C99.9274 398.659 100.311 397.688 100.717 396.6C101.122 395.512 101.517 394.392 101.901 393.24C102.306 392.067 102.679 390.893 103.021 389.72C103.383 388.525 103.693 387.405 103.949 386.36H107.021ZM108.726 394.712C108.726 393.24 108.939 391.96 109.366 390.872C109.792 389.763 110.358 388.845 111.062 388.12C111.766 387.395 112.576 386.851 113.494 386.488C114.411 386.125 115.35 385.944 116.31 385.944C118.55 385.944 120.267 386.648 121.462 388.056C122.656 389.443 123.254 391.565 123.254 394.424C123.254 394.552 123.254 394.723 123.254 394.936C123.254 395.128 123.243 395.309 123.222 395.48H111.83C111.958 397.208 112.459 398.52 113.334 399.416C114.208 400.312 115.574 400.76 117.43 400.76C118.475 400.76 119.35 400.675 120.054 400.504C120.779 400.312 121.323 400.131 121.686 399.96L122.102 402.456C121.739 402.648 121.099 402.851 120.182 403.064C119.286 403.277 118.262 403.384 117.11 403.384C115.659 403.384 114.4 403.171 113.334 402.744C112.288 402.296 111.424 401.688 110.742 400.92C110.059 400.152 109.547 399.245 109.206 398.2C108.886 397.133 108.726 395.971 108.726 394.712ZM120.15 393.08C120.171 391.736 119.83 390.637 119.126 389.784C118.443 388.909 117.494 388.472 116.278 388.472C115.595 388.472 114.987 388.611 114.454 388.888C113.942 389.144 113.504 389.485 113.142 389.912C112.779 390.339 112.491 390.829 112.278 391.384C112.086 391.939 111.958 392.504 111.894 393.08H120.15ZM127.529 386.84C128.211 386.669 129.118 386.488 130.249 386.296C131.379 386.104 132.681 386.008 134.153 386.008C135.475 386.008 136.574 386.2 137.449 386.584C138.323 386.947 139.017 387.469 139.529 388.152C140.062 388.813 140.435 389.613 140.649 390.552C140.862 391.491 140.969 392.525 140.969 393.656V403H137.993V394.296C137.993 393.272 137.918 392.397 137.769 391.672C137.641 390.947 137.417 390.36 137.097 389.912C136.777 389.464 136.35 389.144 135.817 388.952C135.283 388.739 134.622 388.632 133.833 388.632C133.513 388.632 133.182 388.643 132.841 388.664C132.499 388.685 132.169 388.717 131.849 388.76C131.55 388.781 131.273 388.813 131.017 388.856C130.782 388.899 130.611 388.931 130.505 388.952V403H127.529V386.84ZM148.688 386.36H154.992V388.856H148.688V396.536C148.688 397.368 148.752 398.061 148.88 398.616C149.008 399.149 149.2 399.576 149.456 399.896C149.712 400.195 150.032 400.408 150.416 400.536C150.8 400.664 151.248 400.728 151.76 400.728C152.656 400.728 153.37 400.632 153.904 400.44C154.458 400.227 154.842 400.077 155.056 399.992L155.632 402.456C155.333 402.605 154.81 402.787 154.064 403C153.317 403.235 152.464 403.352 151.504 403.352C150.373 403.352 149.434 403.213 148.688 402.936C147.962 402.637 147.376 402.2 146.928 401.624C146.48 401.048 146.16 400.344 145.968 399.512C145.797 398.659 145.712 397.677 145.712 396.568V381.72L148.688 381.208V386.36ZM179.721 400.312V403H166.377V380.824H169.481V400.312H179.721ZM197.092 394.68C197.092 396.003 196.9 397.197 196.516 398.264C196.132 399.331 195.588 400.248 194.884 401.016C194.201 401.784 193.38 402.381 192.42 402.808C191.46 403.213 190.414 403.416 189.284 403.416C188.153 403.416 187.108 403.213 186.148 402.808C185.188 402.381 184.356 401.784 183.652 401.016C182.969 400.248 182.436 399.331 182.052 398.264C181.668 397.197 181.476 396.003 181.476 394.68C181.476 393.379 181.668 392.195 182.052 391.128C182.436 390.04 182.969 389.112 183.652 388.344C184.356 387.576 185.188 386.989 186.148 386.584C187.108 386.157 188.153 385.944 189.284 385.944C190.414 385.944 191.46 386.157 192.42 386.584C193.38 386.989 194.201 387.576 194.884 388.344C195.588 389.112 196.132 390.04 196.516 391.128C196.9 392.195 197.092 393.379 197.092 394.68ZM193.988 394.68C193.988 392.803 193.561 391.32 192.708 390.232C191.876 389.123 190.734 388.568 189.284 388.568C187.833 388.568 186.681 389.123 185.828 390.232C184.996 391.32 184.58 392.803 184.58 394.68C184.58 396.557 184.996 398.051 185.828 399.16C186.681 400.248 187.833 400.792 189.284 400.792C190.734 400.792 191.876 400.248 192.708 399.16C193.561 398.051 193.988 396.557 193.988 394.68ZM215.967 394.68C215.967 396.003 215.775 397.197 215.391 398.264C215.007 399.331 214.463 400.248 213.759 401.016C213.076 401.784 212.255 402.381 211.295 402.808C210.335 403.213 209.289 403.416 208.159 403.416C207.028 403.416 205.983 403.213 205.023 402.808C204.063 402.381 203.231 401.784 202.527 401.016C201.844 400.248 201.311 399.331 200.927 398.264C200.543 397.197 200.351 396.003 200.351 394.68C200.351 393.379 200.543 392.195 200.927 391.128C201.311 390.04 201.844 389.112 202.527 388.344C203.231 387.576 204.063 386.989 205.023 386.584C205.983 386.157 207.028 385.944 208.159 385.944C209.289 385.944 210.335 386.157 211.295 386.584C212.255 386.989 213.076 387.576 213.759 388.344C214.463 389.112 215.007 390.04 215.391 391.128C215.775 392.195 215.967 393.379 215.967 394.68ZM212.863 394.68C212.863 392.803 212.436 391.32 211.583 390.232C210.751 389.123 209.609 388.568 208.159 388.568C206.708 388.568 205.556 389.123 204.703 390.232C203.871 391.32 203.455 392.803 203.455 394.68C203.455 396.557 203.871 398.051 204.703 399.16C205.556 400.248 206.708 400.792 208.159 400.792C209.609 400.792 210.751 400.248 211.583 399.16C212.436 398.051 212.863 396.557 212.863 394.68ZM231.706 394.712C231.706 392.771 231.226 391.277 230.266 390.232C229.306 389.187 228.026 388.664 226.426 388.664C225.53 388.664 224.826 388.696 224.314 388.76C223.823 388.824 223.428 388.899 223.13 388.984V399.48C223.492 399.779 224.015 400.067 224.698 400.344C225.38 400.621 226.127 400.76 226.938 400.76C227.791 400.76 228.516 400.611 229.114 400.312C229.732 399.992 230.234 399.565 230.618 399.032C231.002 398.477 231.279 397.837 231.45 397.112C231.62 396.365 231.706 395.565 231.706 394.712ZM234.81 394.712C234.81 395.971 234.639 397.133 234.298 398.2C233.978 399.267 233.498 400.184 232.858 400.952C232.218 401.72 231.428 402.317 230.49 402.744C229.572 403.171 228.516 403.384 227.322 403.384C226.362 403.384 225.508 403.256 224.762 403C224.036 402.744 223.492 402.499 223.13 402.264V408.92H220.154V386.872C220.858 386.701 221.732 386.52 222.778 386.328C223.844 386.115 225.071 386.008 226.458 386.008C227.738 386.008 228.89 386.211 229.914 386.616C230.938 387.021 231.812 387.597 232.538 388.344C233.263 389.091 233.818 390.008 234.202 391.096C234.607 392.163 234.81 393.368 234.81 394.712Z" fill="white" fill-opacity="0.5"/>
<path d="M86.288 488.48C84.7307 488.48 83.312 488.224 82.032 487.712C80.752 487.2 79.6533 486.453 78.736 485.472C77.8187 484.491 77.104 483.285 76.592 481.856C76.1013 480.405 75.856 478.752 75.856 476.896C75.856 475.04 76.1333 473.397 76.688 471.968C77.264 470.517 78.032 469.301 78.992 468.32C79.952 467.339 81.072 466.592 82.352 466.08C83.632 465.568 84.9973 465.312 86.448 465.312C87.3653 465.312 88.1867 465.376 88.912 465.504C89.6587 465.632 90.2987 465.781 90.832 465.952C91.3867 466.123 91.8347 466.293 92.176 466.464C92.5173 466.635 92.752 466.763 92.88 466.848L91.984 469.408C91.792 469.28 91.5147 469.141 91.152 468.992C90.7893 468.843 90.3733 468.693 89.904 468.544C89.456 468.395 88.9547 468.277 88.4 468.192C87.8667 468.085 87.3227 468.032 86.768 468.032C85.5947 468.032 84.5387 468.235 83.6 468.64C82.6613 469.045 81.8613 469.632 81.2 470.4C80.5387 471.168 80.0267 472.107 79.664 473.216C79.3227 474.304 79.152 475.531 79.152 476.896C79.152 478.219 79.3013 479.424 79.6 480.512C79.92 481.6 80.3893 482.539 81.008 483.328C81.6267 484.096 82.3947 484.693 83.312 485.12C84.2507 485.547 85.3387 485.76 86.576 485.76C88.0053 485.76 89.1893 485.611 90.128 485.312C91.0667 485.013 91.7707 484.747 92.24 484.512L93.04 487.072C92.8907 487.179 92.624 487.317 92.24 487.488C91.856 487.637 91.376 487.787 90.8 487.936C90.224 488.085 89.552 488.213 88.784 488.32C88.016 488.427 87.184 488.48 86.288 488.48ZM102.036 485.856C102.74 485.856 103.358 485.845 103.892 485.824C104.446 485.781 104.905 485.717 105.268 485.632V480.672C105.054 480.565 104.702 480.48 104.212 480.416C103.742 480.331 103.166 480.288 102.484 480.288C102.036 480.288 101.556 480.32 101.044 480.384C100.553 480.448 100.094 480.587 99.6678 480.8C99.2624 480.992 98.9211 481.269 98.6438 481.632C98.3664 481.973 98.2278 482.432 98.2278 483.008C98.2278 484.075 98.5691 484.821 99.2518 485.248C99.9344 485.653 100.862 485.856 102.036 485.856ZM101.78 470.944C102.974 470.944 103.977 471.104 104.788 471.424C105.62 471.723 106.281 472.16 106.772 472.736C107.284 473.291 107.646 473.963 107.86 474.752C108.073 475.52 108.18 476.373 108.18 477.312V487.712C107.924 487.755 107.561 487.819 107.092 487.904C106.644 487.968 106.132 488.032 105.556 488.096C104.98 488.16 104.35 488.213 103.668 488.256C103.006 488.32 102.345 488.352 101.684 488.352C100.745 488.352 99.8811 488.256 99.0918 488.064C98.3024 487.872 97.6198 487.573 97.0438 487.168C96.4678 486.741 96.0198 486.187 95.6998 485.504C95.3798 484.821 95.2198 484 95.2198 483.04C95.2198 482.123 95.4011 481.333 95.7638 480.672C96.1478 480.011 96.6598 479.477 97.2998 479.072C97.9398 478.667 98.6864 478.368 99.5398 478.176C100.393 477.984 101.289 477.888 102.228 477.888C102.526 477.888 102.836 477.909 103.156 477.952C103.476 477.973 103.774 478.016 104.052 478.08C104.35 478.123 104.606 478.165 104.82 478.208C105.033 478.251 105.182 478.283 105.268 478.304V477.472C105.268 476.981 105.214 476.501 105.108 476.032C105.001 475.541 104.809 475.115 104.532 474.752C104.254 474.368 103.87 474.069 103.38 473.856C102.91 473.621 102.292 473.504 101.524 473.504C100.542 473.504 99.6784 473.579 98.9318 473.728C98.2064 473.856 97.6624 473.995 97.2998 474.144L96.9478 471.68C97.3318 471.509 97.9718 471.349 98.8678 471.2C99.7638 471.029 100.734 470.944 101.78 470.944ZM118.115 488.32C116.28 488.277 114.979 487.883 114.211 487.136C113.443 486.389 113.059 485.227 113.059 483.648V463.68L116.035 463.168V483.168C116.035 483.659 116.077 484.064 116.163 484.384C116.248 484.704 116.387 484.96 116.579 485.152C116.771 485.344 117.027 485.493 117.347 485.6C117.667 485.685 118.061 485.76 118.531 485.824L118.115 488.32ZM126.865 488.32C125.03 488.277 123.729 487.883 122.961 487.136C122.193 486.389 121.809 485.227 121.809 483.648V463.68L124.785 463.168V483.168C124.785 483.659 124.827 484.064 124.913 484.384C124.998 484.704 125.137 484.96 125.329 485.152C125.521 485.344 125.777 485.493 126.097 485.6C126.417 485.685 126.811 485.76 127.281 485.824L126.865 488.32ZM133.599 472.096C133.961 471.861 134.505 471.616 135.231 471.36C135.977 471.104 136.831 470.976 137.791 470.976C138.985 470.976 140.041 471.189 140.959 471.616C141.897 472.043 142.687 472.64 143.327 473.408C143.967 474.176 144.447 475.093 144.767 476.16C145.108 477.227 145.279 478.4 145.279 479.68C145.279 481.024 145.076 482.24 144.671 483.328C144.287 484.395 143.732 485.301 143.007 486.048C142.281 486.795 141.407 487.371 140.383 487.776C139.359 488.181 138.207 488.384 136.927 488.384C135.54 488.384 134.313 488.288 133.247 488.096C132.18 487.904 131.305 487.712 130.623 487.52V463.68L133.599 463.168V472.096ZM133.599 485.408C133.897 485.493 134.313 485.579 134.847 485.664C135.401 485.728 136.084 485.76 136.895 485.76C138.495 485.76 139.775 485.237 140.735 484.192C141.695 483.125 142.175 481.621 142.175 479.68C142.175 478.827 142.089 478.027 141.919 477.28C141.748 476.533 141.471 475.893 141.087 475.36C140.703 474.805 140.201 474.379 139.583 474.08C138.985 473.76 138.26 473.6 137.407 473.6C136.596 473.6 135.849 473.739 135.167 474.016C134.484 474.293 133.961 474.581 133.599 474.88V485.408ZM155.098 485.856C155.802 485.856 156.421 485.845 156.954 485.824C157.509 485.781 157.968 485.717 158.33 485.632V480.672C158.117 480.565 157.765 480.48 157.274 480.416C156.805 480.331 156.229 480.288 155.546 480.288C155.098 480.288 154.618 480.32 154.106 480.384C153.616 480.448 153.157 480.587 152.73 480.8C152.325 480.992 151.984 481.269 151.706 481.632C151.429 481.973 151.29 482.432 151.29 483.008C151.29 484.075 151.632 484.821 152.314 485.248C152.997 485.653 153.925 485.856 155.098 485.856ZM154.842 470.944C156.037 470.944 157.04 471.104 157.85 471.424C158.682 471.723 159.344 472.16 159.834 472.736C160.346 473.291 160.709 473.963 160.922 474.752C161.136 475.52 161.242 476.373 161.242 477.312V487.712C160.986 487.755 160.624 487.819 160.154 487.904C159.706 487.968 159.194 488.032 158.618 488.096C158.042 488.16 157.413 488.213 156.73 488.256C156.069 488.32 155.408 488.352 154.746 488.352C153.808 488.352 152.944 488.256 152.154 488.064C151.365 487.872 150.682 487.573 150.106 487.168C149.53 486.741 149.082 486.187 148.762 485.504C148.442 484.821 148.282 484 148.282 483.04C148.282 482.123 148.464 481.333 148.826 480.672C149.21 480.011 149.722 479.477 150.362 479.072C151.002 478.667 151.749 478.368 152.602 478.176C153.456 477.984 154.352 477.888 155.29 477.888C155.589 477.888 155.898 477.909 156.218 477.952C156.538 477.973 156.837 478.016 157.114 478.08C157.413 478.123 157.669 478.165 157.882 478.208C158.096 478.251 158.245 478.283 158.33 478.304V477.472C158.33 476.981 158.277 476.501 158.17 476.032C158.064 475.541 157.872 475.115 157.594 474.752C157.317 474.368 156.933 474.069 156.442 473.856C155.973 473.621 155.354 473.504 154.586 473.504C153.605 473.504 152.741 473.579 151.994 473.728C151.269 473.856 150.725 473.995 150.362 474.144L150.01 471.68C150.394 471.509 151.034 471.349 151.93 471.2C152.826 471.029 153.797 470.944 154.842 470.944ZM173.417 488.384C172.073 488.384 170.889 488.171 169.865 487.744C168.862 487.317 168.009 486.72 167.305 485.952C166.622 485.184 166.11 484.277 165.769 483.232C165.428 482.165 165.257 480.992 165.257 479.712C165.257 478.432 165.438 477.259 165.801 476.192C166.185 475.125 166.718 474.208 167.401 473.44C168.084 472.651 168.916 472.043 169.897 471.616C170.9 471.168 172.009 470.944 173.225 470.944C173.972 470.944 174.718 471.008 175.465 471.136C176.212 471.264 176.926 471.467 177.609 471.744L176.937 474.272C176.489 474.059 175.966 473.888 175.369 473.76C174.793 473.632 174.174 473.568 173.513 473.568C171.849 473.568 170.569 474.091 169.673 475.136C168.798 476.181 168.361 477.707 168.361 479.712C168.361 480.608 168.457 481.429 168.649 482.176C168.862 482.923 169.182 483.563 169.609 484.096C170.057 484.629 170.622 485.045 171.305 485.344C171.988 485.621 172.82 485.76 173.801 485.76C174.59 485.76 175.305 485.685 175.945 485.536C176.585 485.387 177.086 485.227 177.449 485.056L177.865 487.552C177.694 487.659 177.449 487.765 177.129 487.872C176.809 487.957 176.446 488.032 176.041 488.096C175.636 488.181 175.198 488.245 174.729 488.288C174.281 488.352 173.844 488.384 173.417 488.384ZM187.076 478.848C187.716 479.339 188.388 479.947 189.092 480.672C189.817 481.397 190.521 482.187 191.204 483.04C191.908 483.872 192.569 484.725 193.188 485.6C193.807 486.453 194.329 487.253 194.756 488H191.268C190.82 487.253 190.297 486.496 189.7 485.728C189.124 484.939 188.516 484.192 187.876 483.488C187.236 482.763 186.585 482.101 185.924 481.504C185.263 480.907 184.633 480.405 184.036 480V488H181.06V463.68L184.036 463.168V478.336C184.548 477.824 185.113 477.259 185.732 476.64C186.351 476.021 186.959 475.392 187.556 474.752C188.153 474.112 188.719 473.504 189.252 472.928C189.785 472.331 190.244 471.808 190.628 471.36H194.116C193.625 471.893 193.092 472.48 192.516 473.12C191.94 473.76 191.343 474.411 190.724 475.072C190.105 475.712 189.476 476.363 188.836 477.024C188.217 477.664 187.631 478.272 187.076 478.848ZM201.651 485.856C202.867 485.856 203.763 485.696 204.339 485.376C204.936 485.056 205.235 484.544 205.235 483.84C205.235 483.115 204.947 482.539 204.371 482.112C203.795 481.685 202.845 481.205 201.523 480.672C200.883 480.416 200.264 480.16 199.667 479.904C199.091 479.627 198.589 479.307 198.163 478.944C197.736 478.581 197.395 478.144 197.139 477.632C196.883 477.12 196.755 476.491 196.755 475.744C196.755 474.272 197.299 473.109 198.387 472.256C199.475 471.381 200.957 470.944 202.835 470.944C203.304 470.944 203.773 470.976 204.243 471.04C204.712 471.083 205.149 471.147 205.555 471.232C205.96 471.296 206.312 471.371 206.611 471.456C206.931 471.541 207.176 471.616 207.347 471.68L206.803 474.24C206.483 474.069 205.981 473.899 205.299 473.728C204.616 473.536 203.795 473.44 202.835 473.44C202.003 473.44 201.277 473.611 200.659 473.952C200.04 474.272 199.731 474.784 199.731 475.488C199.731 475.851 199.795 476.171 199.923 476.448C200.072 476.725 200.285 476.981 200.563 477.216C200.861 477.429 201.224 477.632 201.651 477.824C202.077 478.016 202.589 478.219 203.187 478.432C203.976 478.731 204.68 479.029 205.299 479.328C205.917 479.605 206.44 479.936 206.867 480.32C207.315 480.704 207.656 481.173 207.891 481.728C208.125 482.261 208.243 482.923 208.243 483.712C208.243 485.248 207.667 486.411 206.515 487.2C205.384 487.989 203.763 488.384 201.651 488.384C200.179 488.384 199.027 488.256 198.195 488C197.363 487.765 196.797 487.584 196.499 487.456L197.043 484.896C197.384 485.024 197.928 485.216 198.675 485.472C199.421 485.728 200.413 485.856 201.651 485.856ZM225.098 485.856C225.802 485.856 226.421 485.845 226.954 485.824C227.509 485.781 227.968 485.717 228.33 485.632V480.672C228.117 480.565 227.765 480.48 227.274 480.416C226.805 480.331 226.229 480.288 225.546 480.288C225.098 480.288 224.618 480.32 224.106 480.384C223.616 480.448 223.157 480.587 222.73 480.8C222.325 480.992 221.984 481.269 221.706 481.632C221.429 481.973 221.29 482.432 221.29 483.008C221.29 484.075 221.632 484.821 222.314 485.248C222.997 485.653 223.925 485.856 225.098 485.856ZM224.842 470.944C226.037 470.944 227.04 471.104 227.85 471.424C228.682 471.723 229.344 472.16 229.834 472.736C230.346 473.291 230.709 473.963 230.922 474.752C231.136 475.52 231.242 476.373 231.242 477.312V487.712C230.986 487.755 230.624 487.819 230.154 487.904C229.706 487.968 229.194 488.032 228.618 488.096C228.042 488.16 227.413 488.213 226.73 488.256C226.069 488.32 225.408 488.352 224.746 488.352C223.808 488.352 222.944 488.256 222.154 488.064C221.365 487.872 220.682 487.573 220.106 487.168C219.53 486.741 219.082 486.187 218.762 485.504C218.442 484.821 218.282 484 218.282 483.04C218.282 482.123 218.464 481.333 218.826 480.672C219.21 480.011 219.722 479.477 220.362 479.072C221.002 478.667 221.749 478.368 222.602 478.176C223.456 477.984 224.352 477.888 225.29 477.888C225.589 477.888 225.898 477.909 226.218 477.952C226.538 477.973 226.837 478.016 227.114 478.08C227.413 478.123 227.669 478.165 227.882 478.208C228.096 478.251 228.245 478.283 228.33 478.304V477.472C228.33 476.981 228.277 476.501 228.17 476.032C228.064 475.541 227.872 475.115 227.594 474.752C227.317 474.368 226.933 474.069 226.442 473.856C225.973 473.621 225.354 473.504 224.586 473.504C223.605 473.504 222.741 473.579 221.994 473.728C221.269 473.856 220.725 473.995 220.362 474.144L220.01 471.68C220.394 471.509 221.034 471.349 221.93 471.2C222.826 471.029 223.797 470.944 224.842 470.944ZM236.185 471.84C236.868 471.669 237.774 471.488 238.905 471.296C240.036 471.104 241.337 471.008 242.809 471.008C244.132 471.008 245.23 471.2 246.105 471.584C246.98 471.947 247.673 472.469 248.185 473.152C248.718 473.813 249.092 474.613 249.305 475.552C249.518 476.491 249.625 477.525 249.625 478.656V488H246.649V479.296C246.649 478.272 246.574 477.397 246.425 476.672C246.297 475.947 246.073 475.36 245.753 474.912C245.433 474.464 245.006 474.144 244.473 473.952C243.94 473.739 243.278 473.632 242.489 473.632C242.169 473.632 241.838 473.643 241.497 473.664C241.156 473.685 240.825 473.717 240.505 473.76C240.206 473.781 239.929 473.813 239.673 473.856C239.438 473.899 239.268 473.931 239.161 473.952V488H236.185V471.84ZM265.312 474.88C264.949 474.581 264.427 474.293 263.744 474.016C263.061 473.739 262.315 473.6 261.504 473.6C260.651 473.6 259.915 473.76 259.296 474.08C258.699 474.379 258.208 474.805 257.824 475.36C257.44 475.893 257.163 476.533 256.992 477.28C256.821 478.027 256.736 478.827 256.736 479.68C256.736 481.621 257.216 483.125 258.176 484.192C259.136 485.237 260.416 485.76 262.016 485.76C262.827 485.76 263.499 485.728 264.032 485.664C264.587 485.579 265.013 485.493 265.312 485.408V474.88ZM265.312 463.68L268.288 463.168V487.52C267.605 487.712 266.731 487.904 265.664 488.096C264.597 488.288 263.371 488.384 261.984 488.384C260.704 488.384 259.552 488.181 258.528 487.776C257.504 487.371 256.629 486.795 255.904 486.048C255.179 485.301 254.613 484.395 254.208 483.328C253.824 482.24 253.632 481.024 253.632 479.68C253.632 478.4 253.792 477.227 254.112 476.16C254.453 475.093 254.944 474.176 255.584 473.408C256.224 472.64 257.003 472.043 257.92 471.616C258.859 471.189 259.925 470.976 261.12 470.976C262.08 470.976 262.923 471.104 263.648 471.36C264.395 471.616 264.949 471.861 265.312 472.096V463.68ZM294.314 488C293.994 487.36 293.61 486.656 293.162 485.888C292.714 485.099 292.223 484.288 291.69 483.456C291.157 482.603 290.602 481.76 290.026 480.928C289.45 480.075 288.895 479.275 288.362 478.528C287.829 479.275 287.274 480.075 286.698 480.928C286.122 481.76 285.567 482.603 285.034 483.456C284.522 484.288 284.031 485.099 283.562 485.888C283.114 486.656 282.73 487.36 282.41 488H278.986C279.946 486.123 281.055 484.213 282.314 482.272C283.594 480.331 284.949 478.336 286.378 476.288L279.274 465.824H282.858L288.33 474.08L293.738 465.824H297.29L290.314 476.16C291.765 478.229 293.13 480.245 294.41 482.208C295.69 484.171 296.821 486.101 297.802 488H294.314ZM311.142 484.928C310.928 484.416 310.64 483.765 310.278 482.976C309.936 482.187 309.563 481.333 309.158 480.416C308.752 479.499 308.315 478.56 307.845 477.6C307.398 476.619 306.971 475.701 306.566 474.848C306.16 473.973 305.776 473.195 305.414 472.512C305.072 471.829 304.795 471.307 304.582 470.944C304.347 473.461 304.155 476.192 304.006 479.136C303.856 482.059 303.728 485.013 303.622 488H300.582C300.667 486.08 300.763 484.149 300.87 482.208C300.976 480.245 301.094 478.325 301.222 476.448C301.371 474.549 301.52 472.704 301.67 470.912C301.84 469.12 302.022 467.424 302.214 465.824H304.934C305.51 466.763 306.128 467.872 306.79 469.152C307.451 470.432 308.112 471.776 308.774 473.184C309.435 474.571 310.075 475.968 310.694 477.376C311.312 478.763 311.878 480.032 312.39 481.184C312.902 480.032 313.467 478.763 314.086 477.376C314.704 475.968 315.344 474.571 316.006 473.184C316.667 471.776 317.328 470.432 317.99 469.152C318.651 467.872 319.27 466.763 319.846 465.824H322.566C323.291 472.971 323.835 480.363 324.198 488H321.158C321.051 485.013 320.923 482.059 320.774 479.136C320.624 476.192 320.432 473.461 320.198 470.944C319.984 471.307 319.696 471.829 319.334 472.512C318.992 473.195 318.619 473.973 318.214 474.848C317.808 475.701 317.371 476.619 316.902 477.6C316.454 478.56 316.027 479.499 315.622 480.416C315.216 481.333 314.832 482.187 314.47 482.976C314.128 483.765 313.851 484.416 313.638 484.928H311.142ZM342.409 485.312V488H329.065V465.824H332.169V485.312H342.409ZM359.61 465.824H362.714V488H359.61V477.76H348.762V488H345.658V465.824H348.762V475.072H359.61V465.824ZM383.037 465.824V468.512H376.061V488H372.957V468.512H365.981V465.824H383.037ZM401.912 465.824V468.512H394.936V488H391.832V468.512H384.856V465.824H401.912ZM411.078 465.6C414.192 465.6 416.582 466.197 418.246 467.392C419.931 468.565 420.774 470.325 420.774 472.672C420.774 473.952 420.539 475.051 420.069 475.968C419.622 476.864 418.96 477.6 418.086 478.176C417.232 478.731 416.187 479.136 414.95 479.392C413.712 479.648 412.315 479.776 410.758 479.776H408.294V488H405.19V466.144C406.064 465.931 407.035 465.792 408.102 465.728C409.19 465.643 410.182 465.6 411.078 465.6ZM411.334 468.32C410.011 468.32 408.998 468.352 408.294 468.416V477.12H410.63C411.696 477.12 412.656 477.056 413.51 476.928C414.363 476.779 415.078 476.544 415.654 476.224C416.251 475.883 416.71 475.424 417.03 474.848C417.35 474.272 417.51 473.536 417.51 472.64C417.51 471.787 417.339 471.083 416.998 470.528C416.678 469.973 416.23 469.536 415.654 469.216C415.099 468.875 414.448 468.64 413.702 468.512C412.955 468.384 412.166 468.32 411.334 468.32Z" fill="white" fill-opacity="0.5"/>
<path d="M122.64 550.6C125.755 550.6 128.144 551.197 129.808 552.392C131.493 553.565 132.336 555.325 132.336 557.672C132.336 558.952 132.101 560.051 131.632 560.968C131.184 561.864 130.523 562.6 129.648 563.176C128.795 563.731 127.749 564.136 126.512 564.392C125.275 564.648 123.877 564.776 122.32 564.776H119.856V573H116.752V551.144C117.627 550.931 118.597 550.792 119.664 550.728C120.752 550.643 121.744 550.6 122.64 550.6ZM122.896 553.32C121.573 553.32 120.56 553.352 119.856 553.416V562.12H122.192C123.259 562.12 124.219 562.056 125.072 561.928C125.925 561.779 126.64 561.544 127.216 561.224C127.813 560.883 128.272 560.424 128.592 559.848C128.912 559.272 129.072 558.536 129.072 557.64C129.072 556.787 128.901 556.083 128.56 555.528C128.24 554.973 127.792 554.536 127.216 554.216C126.661 553.875 126.011 553.64 125.264 553.512C124.517 553.384 123.728 553.32 122.896 553.32ZM142.173 556.008C142.429 556.008 142.717 556.029 143.037 556.072C143.378 556.093 143.709 556.136 144.029 556.2C144.349 556.243 144.637 556.296 144.893 556.36C145.17 556.403 145.373 556.445 145.501 556.488L144.989 559.08C144.754 558.995 144.359 558.899 143.805 558.792C143.271 558.664 142.578 558.6 141.725 558.6C141.17 558.6 140.615 558.664 140.061 558.792C139.527 558.899 139.175 558.973 139.005 559.016V573H136.029V557.064C136.733 556.808 137.607 556.573 138.653 556.36C139.698 556.125 140.871 556.008 142.173 556.008ZM163.061 564.68C163.061 566.003 162.869 567.197 162.485 568.264C162.101 569.331 161.557 570.248 160.853 571.016C160.17 571.784 159.349 572.381 158.389 572.808C157.429 573.213 156.383 573.416 155.253 573.416C154.122 573.416 153.077 573.213 152.117 572.808C151.157 572.381 150.325 571.784 149.621 571.016C148.938 570.248 148.405 569.331 148.021 568.264C147.637 567.197 147.445 566.003 147.445 564.68C147.445 563.379 147.637 562.195 148.021 561.128C148.405 560.04 148.938 559.112 149.621 558.344C150.325 557.576 151.157 556.989 152.117 556.584C153.077 556.157 154.122 555.944 155.253 555.944C156.383 555.944 157.429 556.157 158.389 556.584C159.349 556.989 160.17 557.576 160.853 558.344C161.557 559.112 162.101 560.04 162.485 561.128C162.869 562.195 163.061 563.379 163.061 564.68ZM159.957 564.68C159.957 562.803 159.53 561.32 158.677 560.232C157.845 559.123 156.703 558.568 155.253 558.568C153.802 558.568 152.65 559.123 151.797 560.232C150.965 561.32 150.549 562.803 150.549 564.68C150.549 566.557 150.965 568.051 151.797 569.16C152.65 570.248 153.802 570.792 155.253 570.792C156.703 570.792 157.845 570.248 158.677 569.16C159.53 568.051 159.957 566.557 159.957 564.68ZM167.248 556.84C167.93 556.669 168.826 556.488 169.936 556.296C171.066 556.104 172.368 556.008 173.84 556.008C174.906 556.008 175.802 556.157 176.528 556.456C177.253 556.733 177.861 557.149 178.352 557.704C178.501 557.597 178.736 557.448 179.056 557.256C179.376 557.064 179.77 556.883 180.24 556.712C180.709 556.52 181.232 556.36 181.808 556.232C182.384 556.083 183.002 556.008 183.664 556.008C184.944 556.008 185.989 556.2 186.8 556.584C187.61 556.947 188.24 557.469 188.688 558.152C189.157 558.835 189.466 559.645 189.616 560.584C189.786 561.523 189.872 562.547 189.872 563.656V573H186.896V564.296C186.896 563.315 186.842 562.472 186.736 561.768C186.65 561.064 186.469 560.477 186.192 560.008C185.936 559.539 185.573 559.197 185.104 558.984C184.656 558.749 184.069 558.632 183.344 558.632C182.341 558.632 181.509 558.771 180.847 559.048C180.208 559.304 179.77 559.539 179.536 559.752C179.706 560.307 179.834 560.915 179.92 561.576C180.005 562.237 180.048 562.931 180.048 563.656V573H177.072V564.296C177.072 563.315 177.018 562.472 176.912 561.768C176.805 561.064 176.613 560.477 176.336 560.008C176.08 559.539 175.717 559.197 175.248 558.984C174.8 558.749 174.224 558.632 173.52 558.632C173.221 558.632 172.901 558.643 172.56 558.664C172.218 558.685 171.888 558.717 171.568 558.76C171.269 558.781 170.992 558.813 170.736 558.856C170.48 558.899 170.309 558.931 170.224 558.952V573H167.248V556.84ZM197.786 573H194.81V556.36H197.786V573ZM196.282 553.352C195.749 553.352 195.29 553.181 194.906 552.84C194.543 552.477 194.362 551.997 194.362 551.4C194.362 550.803 194.543 550.333 194.906 549.992C195.29 549.629 195.749 549.448 196.282 549.448C196.815 549.448 197.263 549.629 197.626 549.992C198.01 550.333 198.202 550.803 198.202 551.4C198.202 551.997 198.01 552.477 197.626 552.84C197.263 553.181 196.815 553.352 196.282 553.352ZM206.776 570.856C207.992 570.856 208.888 570.696 209.464 570.376C210.061 570.056 210.36 569.544 210.36 568.84C210.36 568.115 210.072 567.539 209.496 567.112C208.92 566.685 207.97 566.205 206.648 565.672C206.008 565.416 205.389 565.16 204.792 564.904C204.216 564.627 203.714 564.307 203.288 563.944C202.861 563.581 202.52 563.144 202.264 562.632C202.008 562.12 201.88 561.491 201.88 560.744C201.88 559.272 202.424 558.109 203.512 557.256C204.6 556.381 206.082 555.944 207.96 555.944C208.429 555.944 208.898 555.976 209.368 556.04C209.837 556.083 210.274 556.147 210.68 556.232C211.085 556.296 211.437 556.371 211.736 556.456C212.056 556.541 212.301 556.616 212.472 556.68L211.928 559.24C211.608 559.069 211.106 558.899 210.424 558.728C209.741 558.536 208.92 558.44 207.96 558.44C207.128 558.44 206.402 558.611 205.784 558.952C205.165 559.272 204.856 559.784 204.856 560.488C204.856 560.851 204.92 561.171 205.048 561.448C205.197 561.725 205.41 561.981 205.688 562.216C205.986 562.429 206.349 562.632 206.776 562.824C207.202 563.016 207.714 563.219 208.312 563.432C209.101 563.731 209.805 564.029 210.424 564.328C211.042 564.605 211.565 564.936 211.992 565.32C212.44 565.704 212.781 566.173 213.016 566.728C213.25 567.261 213.368 567.923 213.368 568.712C213.368 570.248 212.792 571.411 211.64 572.2C210.509 572.989 208.888 573.384 206.776 573.384C205.304 573.384 204.152 573.256 203.32 573C202.488 572.765 201.922 572.584 201.624 572.456L202.168 569.896C202.509 570.024 203.053 570.216 203.8 570.472C204.546 570.728 205.538 570.856 206.776 570.856ZM216.257 564.712C216.257 563.24 216.47 561.96 216.897 560.872C217.324 559.763 217.889 558.845 218.593 558.12C219.297 557.395 220.108 556.851 221.025 556.488C221.942 556.125 222.881 555.944 223.841 555.944C226.081 555.944 227.798 556.648 228.993 558.056C230.188 559.443 230.785 561.565 230.785 564.424C230.785 564.552 230.785 564.723 230.785 564.936C230.785 565.128 230.774 565.309 230.753 565.48H219.361C219.489 567.208 219.99 568.52 220.865 569.416C221.74 570.312 223.105 570.76 224.961 570.76C226.006 570.76 226.881 570.675 227.585 570.504C228.31 570.312 228.854 570.131 229.217 569.96L229.633 572.456C229.27 572.648 228.63 572.851 227.713 573.064C226.817 573.277 225.793 573.384 224.641 573.384C223.19 573.384 221.932 573.171 220.865 572.744C219.82 572.296 218.956 571.688 218.273 570.92C217.59 570.152 217.078 569.245 216.737 568.2C216.417 567.133 216.257 565.971 216.257 564.712ZM227.681 563.08C227.702 561.736 227.361 560.637 226.657 559.784C225.974 558.909 225.025 558.472 223.809 558.472C223.126 558.472 222.518 558.611 221.985 558.888C221.473 559.144 221.036 559.485 220.673 559.912C220.31 560.339 220.022 560.829 219.809 561.384C219.617 561.939 219.489 562.504 219.425 563.08H227.681ZM238.932 570.856C240.148 570.856 241.044 570.696 241.62 570.376C242.217 570.056 242.516 569.544 242.516 568.84C242.516 568.115 242.228 567.539 241.652 567.112C241.076 566.685 240.127 566.205 238.804 565.672C238.164 565.416 237.545 565.16 236.948 564.904C236.372 564.627 235.871 564.307 235.444 563.944C235.017 563.581 234.676 563.144 234.42 562.632C234.164 562.12 234.036 561.491 234.036 560.744C234.036 559.272 234.58 558.109 235.668 557.256C236.756 556.381 238.239 555.944 240.116 555.944C240.585 555.944 241.055 555.976 241.524 556.04C241.993 556.083 242.431 556.147 242.836 556.232C243.241 556.296 243.593 556.371 243.892 556.456C244.212 556.541 244.457 556.616 244.628 556.68L244.084 559.24C243.764 559.069 243.263 558.899 242.58 558.728C241.897 558.536 241.076 558.44 240.116 558.44C239.284 558.44 238.559 558.611 237.94 558.952C237.321 559.272 237.012 559.784 237.012 560.488C237.012 560.851 237.076 561.171 237.204 561.448C237.353 561.725 237.567 561.981 237.844 562.216C238.143 562.429 238.505 562.632 238.932 562.824C239.359 563.016 239.871 563.219 240.468 563.432C241.257 563.731 241.961 564.029 242.58 564.328C243.199 564.605 243.721 564.936 244.148 565.32C244.596 565.704 244.937 566.173 245.172 566.728C245.407 567.261 245.524 567.923 245.524 568.712C245.524 570.248 244.948 571.411 243.796 572.2C242.665 572.989 241.044 573.384 238.932 573.384C237.46 573.384 236.308 573.256 235.476 573C234.644 572.765 234.079 572.584 233.78 572.456L234.324 569.896C234.665 570.024 235.209 570.216 235.956 570.472C236.703 570.728 237.695 570.856 238.932 570.856ZM262.38 570.856C263.084 570.856 263.702 570.845 264.236 570.824C264.79 570.781 265.249 570.717 265.612 570.632V565.672C265.398 565.565 265.046 565.48 264.556 565.416C264.086 565.331 263.51 565.288 262.828 565.288C262.38 565.288 261.9 565.32 261.388 565.384C260.897 565.448 260.438 565.587 260.012 565.8C259.606 565.992 259.265 566.269 258.988 566.632C258.71 566.973 258.572 567.432 258.572 568.008C258.572 569.075 258.913 569.821 259.596 570.248C260.278 570.653 261.206 570.856 262.38 570.856ZM262.124 555.944C263.318 555.944 264.321 556.104 265.132 556.424C265.964 556.723 266.625 557.16 267.116 557.736C267.628 558.291 267.99 558.963 268.204 559.752C268.417 560.52 268.524 561.373 268.524 562.312V572.712C268.268 572.755 267.905 572.819 267.436 572.904C266.988 572.968 266.476 573.032 265.9 573.096C265.324 573.16 264.694 573.213 264.012 573.256C263.35 573.32 262.689 573.352 262.028 573.352C261.089 573.352 260.225 573.256 259.436 573.064C258.646 572.872 257.964 572.573 257.388 572.168C256.812 571.741 256.364 571.187 256.044 570.504C255.724 569.821 255.564 569 255.564 568.04C255.564 567.123 255.745 566.333 256.108 565.672C256.492 565.011 257.004 564.477 257.644 564.072C258.284 563.667 259.03 563.368 259.884 563.176C260.737 562.984 261.633 562.888 262.572 562.888C262.87 562.888 263.18 562.909 263.5 562.952C263.82 562.973 264.118 563.016 264.396 563.08C264.694 563.123 264.95 563.165 265.164 563.208C265.377 563.251 265.526 563.283 265.612 563.304V562.472C265.612 561.981 265.558 561.501 265.452 561.032C265.345 560.541 265.153 560.115 264.876 559.752C264.598 559.368 264.214 559.069 263.724 558.856C263.254 558.621 262.636 558.504 261.868 558.504C260.886 558.504 260.022 558.579 259.276 558.728C258.55 558.856 258.006 558.995 257.644 559.144L257.292 556.68C257.676 556.509 258.316 556.349 259.212 556.2C260.108 556.029 261.078 555.944 262.124 555.944ZM273.466 556.84C274.149 556.669 275.056 556.488 276.186 556.296C277.317 556.104 278.618 556.008 280.09 556.008C281.413 556.008 282.512 556.2 283.386 556.584C284.261 556.947 284.954 557.469 285.466 558.152C286 558.813 286.373 559.613 286.586 560.552C286.8 561.491 286.906 562.525 286.906 563.656V573H283.93V564.296C283.93 563.272 283.856 562.397 283.706 561.672C283.578 560.947 283.354 560.36 283.034 559.912C282.714 559.464 282.288 559.144 281.754 558.952C281.221 558.739 280.56 558.632 279.77 558.632C279.45 558.632 279.12 558.643 278.778 558.664C278.437 558.685 278.106 558.717 277.786 558.76C277.488 558.781 277.21 558.813 276.954 558.856C276.72 558.899 276.549 558.931 276.442 558.952V573H273.466V556.84ZM302.593 559.88C302.231 559.581 301.708 559.293 301.025 559.016C300.343 558.739 299.596 558.6 298.785 558.6C297.932 558.6 297.196 558.76 296.577 559.08C295.98 559.379 295.489 559.805 295.105 560.36C294.721 560.893 294.444 561.533 294.273 562.28C294.103 563.027 294.017 563.827 294.017 564.68C294.017 566.621 294.497 568.125 295.457 569.192C296.417 570.237 297.697 570.76 299.297 570.76C300.108 570.76 300.78 570.728 301.313 570.664C301.868 570.579 302.295 570.493 302.593 570.408V559.88ZM302.593 548.68L305.569 548.168V572.52C304.887 572.712 304.012 572.904 302.945 573.096C301.879 573.288 300.652 573.384 299.265 573.384C297.985 573.384 296.833 573.181 295.809 572.776C294.785 572.371 293.911 571.795 293.185 571.048C292.46 570.301 291.895 569.395 291.489 568.328C291.105 567.24 290.913 566.024 290.913 564.68C290.913 563.4 291.073 562.227 291.393 561.16C291.735 560.093 292.225 559.176 292.865 558.408C293.505 557.64 294.284 557.043 295.201 556.616C296.14 556.189 297.207 555.976 298.401 555.976C299.361 555.976 300.204 556.104 300.929 556.36C301.676 556.616 302.231 556.861 302.593 557.096V548.68ZM318.283 573V550.824H331.659V553.48H321.387V560.168H330.507V562.792H321.387V573H318.283ZM333.913 564.712C333.913 563.24 334.127 561.96 334.553 560.872C334.98 559.763 335.545 558.845 336.249 558.12C336.953 557.395 337.764 556.851 338.681 556.488C339.599 556.125 340.537 555.944 341.497 555.944C343.737 555.944 345.455 556.648 346.649 558.056C347.844 559.443 348.441 561.565 348.441 564.424C348.441 564.552 348.441 564.723 348.441 564.936C348.441 565.128 348.431 565.309 348.409 565.48H337.017C337.145 567.208 337.647 568.52 338.521 569.416C339.396 570.312 340.761 570.76 342.617 570.76C343.663 570.76 344.537 570.675 345.241 570.504C345.967 570.312 346.511 570.131 346.873 569.96L347.289 572.456C346.927 572.648 346.287 572.851 345.369 573.064C344.473 573.277 343.449 573.384 342.297 573.384C340.847 573.384 339.588 573.171 338.521 572.744C337.476 572.296 336.612 571.688 335.929 570.92C335.247 570.152 334.735 569.245 334.393 568.2C334.073 567.133 333.913 565.971 333.913 564.712ZM345.337 563.08C345.359 561.736 345.017 560.637 344.313 559.784C343.631 558.909 342.681 558.472 341.465 558.472C340.783 558.472 340.175 558.611 339.641 558.888C339.129 559.144 338.692 559.485 338.329 559.912C337.967 560.339 337.679 560.829 337.465 561.384C337.273 561.939 337.145 562.504 337.081 563.08H345.337ZM355.5 556.36H361.804V558.856H355.5V566.536C355.5 567.368 355.564 568.061 355.692 568.616C355.82 569.149 356.012 569.576 356.268 569.896C356.524 570.195 356.844 570.408 357.228 570.536C357.612 570.664 358.06 570.728 358.572 570.728C359.468 570.728 360.183 570.632 360.716 570.44C361.271 570.227 361.655 570.077 361.868 569.992L362.444 572.456C362.146 572.605 361.623 572.787 360.876 573C360.13 573.235 359.276 573.352 358.316 573.352C357.186 573.352 356.247 573.213 355.5 572.936C354.775 572.637 354.188 572.2 353.74 571.624C353.292 571.048 352.972 570.344 352.78 569.512C352.61 568.659 352.524 567.677 352.524 566.568V551.72L355.5 551.208V556.36ZM372.417 573.384C371.073 573.384 369.889 573.171 368.865 572.744C367.862 572.317 367.009 571.72 366.305 570.952C365.622 570.184 365.11 569.277 364.769 568.232C364.428 567.165 364.257 565.992 364.257 564.712C364.257 563.432 364.438 562.259 364.801 561.192C365.185 560.125 365.718 559.208 366.401 558.44C367.084 557.651 367.916 557.043 368.897 556.616C369.9 556.168 371.009 555.944 372.225 555.944C372.972 555.944 373.718 556.008 374.465 556.136C375.212 556.264 375.926 556.467 376.609 556.744L375.937 559.272C375.489 559.059 374.966 558.888 374.369 558.76C373.793 558.632 373.174 558.568 372.513 558.568C370.849 558.568 369.569 559.091 368.673 560.136C367.798 561.181 367.361 562.707 367.361 564.712C367.361 565.608 367.457 566.429 367.649 567.176C367.862 567.923 368.182 568.563 368.609 569.096C369.057 569.629 369.622 570.045 370.305 570.344C370.988 570.621 371.82 570.76 372.801 570.76C373.59 570.76 374.305 570.685 374.945 570.536C375.585 570.387 376.086 570.227 376.449 570.056L376.865 572.552C376.694 572.659 376.449 572.765 376.129 572.872C375.809 572.957 375.446 573.032 375.041 573.096C374.636 573.181 374.198 573.245 373.729 573.288C373.281 573.352 372.844 573.384 372.417 573.384ZM380.06 573V548.68L383.036 548.168V556.68C383.591 556.467 384.177 556.307 384.796 556.2C385.436 556.072 386.065 556.008 386.684 556.008C388.007 556.008 389.105 556.2 389.98 556.584C390.855 556.947 391.548 557.469 392.06 558.152C392.593 558.813 392.967 559.613 393.18 560.552C393.393 561.491 393.5 562.525 393.5 563.656V573H390.524V564.296C390.524 563.272 390.449 562.397 390.3 561.672C390.172 560.947 389.948 560.36 389.628 559.912C389.308 559.464 388.881 559.144 388.348 558.952C387.815 558.739 387.153 558.632 386.364 558.632C386.044 558.632 385.713 558.653 385.372 558.696C385.031 558.739 384.7 558.792 384.38 558.856C384.081 558.899 383.804 558.952 383.548 559.016C383.313 559.08 383.143 559.133 383.036 559.176V573H380.06Z" fill="white"/>
<path d="M91.568 658C91.2053 657.04 90.864 656.101 90.544 655.184C90.224 654.245 89.8933 653.296 89.552 652.336H79.504L77.488 658H74.256C75.1093 655.653 75.9093 653.488 76.656 651.504C77.4027 649.499 78.128 647.6 78.832 645.808C79.5573 644.016 80.272 642.309 80.976 640.688C81.68 639.045 82.416 637.424 83.184 635.824H86.032C86.8 637.424 87.536 639.045 88.24 640.688C88.944 642.309 89.648 644.016 90.352 645.808C91.0773 647.6 91.8133 649.499 92.56 651.504C93.3067 653.488 94.1067 655.653 94.96 658H91.568ZM88.656 649.776C87.9733 647.92 87.2907 646.128 86.608 644.4C85.9467 642.651 85.2533 640.976 84.528 639.376C83.7813 640.976 83.0667 642.651 82.384 644.4C81.7227 646.128 81.0613 647.92 80.4 649.776H88.656ZM102.057 655.856C103.273 655.856 104.169 655.696 104.745 655.376C105.342 655.056 105.641 654.544 105.641 653.84C105.641 653.115 105.353 652.539 104.777 652.112C104.201 651.685 103.252 651.205 101.929 650.672C101.289 650.416 100.67 650.16 100.073 649.904C99.497 649.627 98.9957 649.307 98.569 648.944C98.1423 648.581 97.801 648.144 97.545 647.632C97.289 647.12 97.161 646.491 97.161 645.744C97.161 644.272 97.705 643.109 98.793 642.256C99.881 641.381 101.364 640.944 103.241 640.944C103.71 640.944 104.18 640.976 104.649 641.04C105.118 641.083 105.556 641.147 105.961 641.232C106.366 641.296 106.718 641.371 107.017 641.456C107.337 641.541 107.582 641.616 107.753 641.68L107.209 644.24C106.889 644.069 106.388 643.899 105.705 643.728C105.022 643.536 104.201 643.44 103.241 643.44C102.409 643.44 101.684 643.611 101.065 643.952C100.446 644.272 100.137 644.784 100.137 645.488C100.137 645.851 100.201 646.171 100.329 646.448C100.478 646.725 100.692 646.981 100.969 647.216C101.268 647.429 101.63 647.632 102.057 647.824C102.484 648.016 102.996 648.219 103.593 648.432C104.382 648.731 105.086 649.029 105.705 649.328C106.324 649.605 106.846 649.936 107.273 650.32C107.721 650.704 108.062 651.173 108.297 651.728C108.532 652.261 108.649 652.923 108.649 653.712C108.649 655.248 108.073 656.411 106.921 657.2C105.79 657.989 104.169 658.384 102.057 658.384C100.585 658.384 99.433 658.256 98.601 658C97.769 657.765 97.2037 657.584 96.905 657.456L97.449 654.896C97.7903 655.024 98.3343 655.216 99.081 655.472C99.8277 655.728 100.82 655.856 102.057 655.856ZM110.514 661.104C110.749 661.211 111.048 661.307 111.41 661.392C111.794 661.499 112.168 661.552 112.53 661.552C113.704 661.552 114.621 661.285 115.282 660.752C115.944 660.24 116.541 659.397 117.074 658.224C115.73 655.664 114.472 652.955 113.298 650.096C112.146 647.216 111.186 644.304 110.418 641.36H113.618C113.853 642.32 114.13 643.355 114.45 644.464C114.792 645.573 115.165 646.715 115.57 647.888C115.976 649.061 116.413 650.235 116.882 651.408C117.352 652.581 117.842 653.712 118.354 654.8C119.165 652.56 119.869 650.341 120.466 648.144C121.064 645.947 121.629 643.685 122.162 641.36H125.234C124.466 644.496 123.613 647.515 122.674 650.416C121.736 653.296 120.722 655.995 119.634 658.512C119.208 659.472 118.76 660.293 118.29 660.976C117.842 661.68 117.341 662.256 116.786 662.704C116.232 663.152 115.602 663.483 114.898 663.696C114.216 663.909 113.437 664.016 112.562 664.016C112.328 664.016 112.082 663.995 111.826 663.952C111.57 663.931 111.314 663.888 111.058 663.824C110.824 663.781 110.6 663.728 110.386 663.664C110.194 663.6 110.056 663.547 109.97 663.504L110.514 661.104ZM128.373 641.84C129.055 641.669 129.962 641.488 131.093 641.296C132.223 641.104 133.525 641.008 134.997 641.008C136.319 641.008 137.418 641.2 138.293 641.584C139.167 641.947 139.861 642.469 140.373 643.152C140.906 643.813 141.279 644.613 141.493 645.552C141.706 646.491 141.812 647.525 141.812 648.656V658H138.837V649.296C138.837 648.272 138.762 647.397 138.613 646.672C138.485 645.947 138.261 645.36 137.941 644.912C137.621 644.464 137.194 644.144 136.661 643.952C136.127 643.739 135.466 643.632 134.677 643.632C134.357 643.632 134.026 643.643 133.685 643.664C133.343 643.685 133.013 643.717 132.693 643.76C132.394 643.781 132.117 643.813 131.861 643.856C131.626 643.899 131.455 643.931 131.349 643.952V658H128.373V641.84ZM153.98 658.384C152.636 658.384 151.452 658.171 150.428 657.744C149.425 657.317 148.572 656.72 147.868 655.952C147.185 655.184 146.673 654.277 146.332 653.232C145.99 652.165 145.82 650.992 145.82 649.712C145.82 648.432 146.001 647.259 146.364 646.192C146.748 645.125 147.281 644.208 147.964 643.44C148.646 642.651 149.478 642.043 150.46 641.616C151.462 641.168 152.572 640.944 153.788 640.944C154.534 640.944 155.281 641.008 156.028 641.136C156.774 641.264 157.489 641.467 158.172 641.744L157.5 644.272C157.052 644.059 156.529 643.888 155.932 643.76C155.356 643.632 154.737 643.568 154.076 643.568C152.412 643.568 151.132 644.091 150.236 645.136C149.361 646.181 148.924 647.707 148.924 649.712C148.924 650.608 149.02 651.429 149.212 652.176C149.425 652.923 149.745 653.563 150.172 654.096C150.62 654.629 151.185 655.045 151.868 655.344C152.55 655.621 153.382 655.76 154.364 655.76C155.153 655.76 155.868 655.685 156.508 655.536C157.148 655.387 157.649 655.227 158.012 655.056L158.428 657.552C158.257 657.659 158.012 657.765 157.692 657.872C157.372 657.957 157.009 658.032 156.604 658.096C156.198 658.181 155.761 658.245 155.292 658.288C154.844 658.352 154.406 658.384 153.98 658.384ZM184.037 658C183.674 657.04 183.333 656.101 183.013 655.184C182.693 654.245 182.362 653.296 182.021 652.336H171.973L169.957 658H166.725C167.578 655.653 168.378 653.488 169.125 651.504C169.871 649.499 170.597 647.6 171.301 645.808C172.026 644.016 172.741 642.309 173.445 640.688C174.149 639.045 174.885 637.424 175.653 635.824H178.501C179.269 637.424 180.005 639.045 180.709 640.688C181.413 642.309 182.117 644.016 182.821 645.808C183.546 647.6 184.282 649.499 185.029 651.504C185.775 653.488 186.575 655.653 187.429 658H184.037ZM181.125 649.776C180.442 647.92 179.759 646.128 179.077 644.4C178.415 642.651 177.722 640.976 176.997 639.376C176.25 640.976 175.535 642.651 174.853 644.4C174.191 646.128 173.53 647.92 172.869 649.776H181.125ZM203.254 658C202.656 656.464 202.016 654.715 201.334 652.752C200.672 650.768 200.064 648.709 199.51 646.576C198.955 648.709 198.347 650.768 197.686 652.752C197.024 654.715 196.395 656.464 195.798 658H193.206C192.224 655.803 191.264 653.296 190.326 650.48C189.387 647.664 188.502 644.624 187.67 641.36H190.87C191.083 642.363 191.339 643.451 191.638 644.624C191.936 645.797 192.246 646.971 192.566 648.144C192.907 649.317 193.259 650.448 193.622 651.536C193.984 652.624 194.326 653.573 194.646 654.384C195.008 653.381 195.36 652.325 195.702 651.216C196.064 650.085 196.406 648.955 196.726 647.824C197.046 646.672 197.344 645.552 197.622 644.464C197.92 643.355 198.176 642.32 198.39 641.36H200.854C201.046 642.32 201.28 643.355 201.558 644.464C201.835 645.552 202.134 646.672 202.454 647.824C202.774 648.955 203.104 650.085 203.446 651.216C203.808 652.325 204.171 653.381 204.534 654.384C204.854 653.573 205.184 652.624 205.526 651.536C205.888 650.448 206.24 649.317 206.582 648.144C206.923 646.971 207.243 645.797 207.542 644.624C207.84 643.451 208.096 642.363 208.31 641.36H211.382C210.55 644.624 209.664 647.664 208.726 650.48C207.787 653.296 206.827 655.803 205.846 658H203.254ZM220.161 655.856C220.865 655.856 221.483 655.845 222.017 655.824C222.571 655.781 223.03 655.717 223.393 655.632V650.672C223.179 650.565 222.827 650.48 222.337 650.416C221.867 650.331 221.291 650.288 220.609 650.288C220.161 650.288 219.681 650.32 219.169 650.384C218.678 650.448 218.219 650.587 217.793 650.8C217.387 650.992 217.046 651.269 216.769 651.632C216.491 651.973 216.353 652.432 216.353 653.008C216.353 654.075 216.694 654.821 217.377 655.248C218.059 655.653 218.987 655.856 220.161 655.856ZM219.905 640.944C221.099 640.944 222.102 641.104 222.913 641.424C223.745 641.723 224.406 642.16 224.897 642.736C225.409 643.291 225.771 643.963 225.985 644.752C226.198 645.52 226.305 646.373 226.305 647.312V657.712C226.049 657.755 225.686 657.819 225.217 657.904C224.769 657.968 224.257 658.032 223.681 658.096C223.105 658.16 222.475 658.213 221.793 658.256C221.131 658.32 220.47 658.352 219.809 658.352C218.87 658.352 218.006 658.256 217.217 658.064C216.427 657.872 215.745 657.573 215.169 657.168C214.593 656.741 214.145 656.187 213.825 655.504C213.505 654.821 213.345 654 213.345 653.04C213.345 652.123 213.526 651.333 213.889 650.672C214.273 650.011 214.785 649.477 215.425 649.072C216.065 648.667 216.811 648.368 217.665 648.176C218.518 647.984 219.414 647.888 220.353 647.888C220.651 647.888 220.961 647.909 221.281 647.952C221.601 647.973 221.899 648.016 222.177 648.08C222.475 648.123 222.731 648.165 222.945 648.208C223.158 648.251 223.307 648.283 223.393 648.304V647.472C223.393 646.981 223.339 646.501 223.233 646.032C223.126 645.541 222.934 645.115 222.657 644.752C222.379 644.368 221.995 644.069 221.505 643.856C221.035 643.621 220.417 643.504 219.649 643.504C218.667 643.504 217.803 643.579 217.057 643.728C216.331 643.856 215.787 643.995 215.425 644.144L215.073 641.68C215.457 641.509 216.097 641.349 216.993 641.2C217.889 641.029 218.859 640.944 219.905 640.944ZM234.224 658H231.248V641.36H234.224V658ZM232.72 638.352C232.186 638.352 231.728 638.181 231.344 637.84C230.981 637.477 230.799 636.997 230.799 636.4C230.799 635.803 230.981 635.333 231.344 634.992C231.728 634.629 232.186 634.448 232.72 634.448C233.253 634.448 233.701 634.629 234.064 634.992C234.448 635.333 234.64 635.803 234.64 636.4C234.64 636.997 234.448 637.477 234.064 637.84C233.701 638.181 233.253 638.352 232.72 638.352ZM242.125 641.36H248.429V643.856H242.125V651.536C242.125 652.368 242.189 653.061 242.317 653.616C242.445 654.149 242.637 654.576 242.893 654.896C243.149 655.195 243.469 655.408 243.853 655.536C244.237 655.664 244.685 655.728 245.197 655.728C246.093 655.728 246.808 655.632 247.341 655.44C247.896 655.227 248.28 655.077 248.493 654.992L249.069 657.456C248.771 657.605 248.248 657.787 247.501 658C246.755 658.235 245.901 658.352 244.941 658.352C243.811 658.352 242.872 658.213 242.125 657.936C241.4 657.637 240.813 657.2 240.365 656.624C239.917 656.048 239.597 655.344 239.405 654.512C239.235 653.659 239.149 652.677 239.149 651.568V636.72L242.125 636.208V641.36Z" fill="white" fill-opacity="0.5"/>
<rect x="74" y="543" width="8" height="39" fill="white"/>
<g opacity="0.8">
<path d="M1184.22 569.674C1207.88 644.308 1167.5 738.927 1096.13 790.722C1024.76 842.11 922.797 850.674 857.543 804.181C791.881 757.687 762.924 656.136 790.249 577.423C817.167 498.71 900.366 442.836 986.012 442.02C1071.66 440.797 1160.16 495.039 1184.22 569.674Z" fill="#B3EAE4" fill-opacity="0.35"/>
<path d="M1292.21 413.448C1305.44 455.214 1282.85 508.163 1242.91 537.149C1202.97 565.906 1145.91 570.699 1109.39 544.68C1072.65 518.662 1056.44 461.833 1071.74 417.784C1086.8 373.735 1133.36 342.468 1181.29 342.011C1229.21 341.327 1278.74 371.681 1292.21 413.448Z" fill="#B3EAE4" fill-opacity="0.35"/>
<path d="M1212.13 280.052C1222.14 311.649 1205.05 351.706 1174.84 373.634C1144.62 395.39 1101.45 399.016 1073.83 379.332C1046.03 359.649 1033.77 316.656 1045.34 283.332C1056.73 250.009 1091.96 226.354 1128.22 226.009C1164.48 225.491 1201.94 248.455 1212.13 280.052Z" fill="#B3EAE4" fill-opacity="0.35"/>
<rect width="23.3902" height="116.951" transform="matrix(-1 0 0 1 970.853 779.495)" fill="#F3CCA5"/>
<rect width="21.8309" height="128.402" transform="matrix(-0.956305 -0.292372 -0.292372 0.956305 935.71 770.285)" fill="#F3CCA5"/>
<path d="M986.972 904.243C999.447 901.124 981.774 892.548 971.378 888.65H944.09V904.243C953.186 905.543 974.497 907.362 986.972 904.243Z" fill="#BA9878"/>
<path d="M911.537 906.289C924.395 906.258 909.3 893.688 900.145 887.407L873.655 880.853L869.91 895.99C878.428 899.436 898.678 906.32 911.537 906.289Z" fill="#B28B67"/>
<path d="M977.529 786.047C991.274 783.794 986.119 728.762 981.824 701.528H947.462V786.047C951.757 786.987 963.784 788.301 977.529 786.047Z" fill="#9BE4DC"/>
<path d="M931.858 785.978C945.632 787.817 950.5 735.642 951.212 709.325L917.79 699.535L902.614 777.412C906.623 779.501 918.085 784.139 931.858 785.978Z" fill="#9BE4DC"/>
<rect width="15.5935" height="46.7804" rx="7.79674" transform="matrix(-1 0 0 1 963.056 740.512)" fill="black" fill-opacity="0.07"/>
<rect width="15.5935" height="15.5935" transform="matrix(-0.980807 -0.194982 -0.194982 0.980807 953.256 592.11)" fill="#F0C293"/>
<path d="M985.191 559.273C981.614 578.317 965.668 599.238 946.624 595.661C932.018 588.951 927.163 572.566 930.832 553.03C935.15 530.041 940.534 523.12 959.578 526.697C978.622 530.274 988.768 540.229 985.191 559.273Z" fill="#F3CCA5"/>
<path d="M939.42 592.052C947.689 584.757 934.366 535.489 946.232 545.606C958.098 555.723 978.339 558.091 986.445 553.39C990.343 510.508 924.072 514.406 920.173 530C915.351 549.285 887.37 624.23 892.884 635.256C896.783 643.053 900.681 631.358 920.172 623.561L939.42 592.052Z" fill="#CCA966"/>
<path d="M1038.01 630.751C1034.79 641.169 1023.51 646.227 1018.27 647.453L1010.54 633.155C1014.57 620.132 1018.46 623.246 1026.32 621.407C1028.96 618.104 1035.02 612.121 1038.14 614.613C1039.43 615.651 1041.23 620.332 1038.01 630.751Z" fill="#F3CCA5"/>
<path d="M992.306 641.716C973.089 657.93 955.427 651.744 948.998 646.624C937.568 643.826 919.424 645.765 938.281 675.912C957.138 706.059 1005.91 668.832 1027.93 646.45L1009.99 627.43C1012.1 625.436 1011.52 625.501 992.306 641.716Z" fill="#E9E9E9"/>
<path d="M920.581 735.057C910.622 730.614 906.949 718.81 906.357 713.463L921.476 707.5C933.925 713.053 930.367 716.549 931.254 724.569C934.218 727.586 939.434 734.317 936.587 737.114C935.401 738.279 930.54 739.499 920.581 735.057Z" fill="#F3CCA5"/>
<path d="M898.618 647.408C912.075 602.076 935.766 596.272 935.766 600.171C946.174 610.341 962.211 627.818 941.642 641.965C924.601 667.887 936.297 692.873 940.8 705.677L915.113 732.285C903.521 717.058 887.852 683.673 898.618 647.408Z" fill="#EDEDED"/>
<path d="M990.787 717.121C1001.49 731.893 983.55 657.412 979.092 623.56C963.045 603.557 937.353 585.81 924.515 607.967C911.677 630.124 905.456 693.506 909.914 722.741C927.744 716.586 980.089 702.35 990.787 717.121Z" fill="#EDEDED"/>
<path d="M939.665 646.951C927.97 645.651 920.173 666.443 939.666 713.223" stroke="#D9D9D9" stroke-width="0.2" stroke-linecap="round"/>
<path d="M916.274 740.512C921.157 736.769 933.56 725.698 939.665 721.02C939.665 721.02 947.461 740.512 935.766 744.41C924.07 748.309 911.391 744.254 916.274 740.512Z" fill="#B3EAE4"/>
<rect x="1038.21" y="603.965" width="7.79674" height="38.9657" rx="3.89837" transform="rotate(44 1038.21 603.965)" fill="#2B3A3B"/>
</g>
<path d="M1350.57 135.267C1361.2 150.8 1360.43 173.167 1355.8 195.1C1351.13 217.033 1342.6 238.5 1325.6 249.3C1308.63 260.1 1283.23 260.2 1261 250.633C1238.8 241.1 1219.8 221.933 1215.63 200.333C1211.5 178.733 1222.2 154.7 1238.1 137.967C1253.97 121.233 1274.97 111.8 1296.47 111.4C1317.97 111.033 1339.97 119.733 1350.57 135.267Z" fill="#B3EAE4" fill-opacity="0.35"/>
<path fill-rule="evenodd" clip-rule="evenodd" d="M1308 185C1308 173.403 1298.6 164 1287 164C1275.4 164 1266 173.403 1266 185C1266 195.481 1273.68 204.169 1283.72 205.746V191.072H1278.39V185H1283.72V180.372C1283.72 175.11 1286.85 172.201 1291.65 172.201C1293.95 172.201 1296.35 172.612 1296.35 172.612V177.78H1293.7C1291.1 177.78 1290.28 179.398 1290.28 181.062V185.001H1296.1L1295.17 191.073H1290.28V205.748C1300.32 204.172 1308 195.484 1308 185Z" fill="#74D3C8" fill-opacity="0.69"/>
<path d="M1214.57 48.2667C1225.2 63.8001 1224.43 86.1667 1219.8 108.1C1215.13 130.033 1206.6 151.5 1189.6 162.3C1172.63 173.1 1147.23 173.2 1125 163.633C1102.8 154.1 1083.8 134.933 1079.63 113.333C1075.5 91.7334 1086.2 67.7001 1102.1 50.9667C1117.97 34.2334 1138.97 24.8001 1160.47 24.4001C1181.97 24.0334 1203.97 32.7334 1214.57 48.2667Z" fill="#B3EAE4" fill-opacity="0.35"/>
<path d="M1171.76 86.1282C1171.76 82.8758 1169.37 80.2595 1166.41 80.2595C1162.41 80.0723 1158.33 80 1154.15 80H1152.85C1148.69 80 1144.6 80.0723 1140.59 80.2602C1137.65 80.2602 1135.25 82.891 1135.25 86.1434C1135.07 88.7156 1135 91.2886 1135 93.8616C1134.99 96.4346 1135.08 99.01 1135.25 101.588C1135.25 104.84 1137.64 107.478 1140.59 107.478C1144.79 107.673 1149.11 107.76 1153.5 107.753C1157.89 107.767 1162.19 107.676 1166.4 107.478C1169.36 107.478 1171.75 104.84 1171.75 101.588C1171.93 99.0075 1172.01 96.4346 1172 93.8544C1172.01 91.2814 1171.94 88.706 1171.76 86.1282ZM1149.96 100.952V86.7497L1160.44 93.8471L1149.96 100.952Z" fill="#9BE4DC"/>
<path d="M1043.83 125.878C1054.46 141.411 1053.69 163.778 1049.06 185.711C1044.39 207.644 1035.86 229.111 1018.86 239.911C1001.89 250.711 976.492 250.811 954.258 241.244C932.058 231.711 913.058 212.544 908.892 190.944C904.758 169.344 915.458 145.311 931.358 128.578C947.225 111.844 968.225 102.411 989.725 102.011C1011.23 101.644 1033.23 110.344 1043.83 125.878Z" fill="#B3EAE4" fill-opacity="0.35"/>
<path d="M999.656 163.196C998.144 163.853 996.544 164.286 994.907 164.481C996.627 163.474 997.921 161.873 998.546 159.98C996.919 160.931 995.143 161.598 993.292 161.953C992.513 161.137 991.575 160.487 990.537 160.044C989.499 159.6 988.381 159.373 987.253 159.375C982.682 159.375 978.983 163.02 978.983 167.513C978.98 168.138 979.052 168.761 979.197 169.369C975.919 169.216 972.71 168.379 969.775 166.915C966.839 165.45 964.241 163.388 962.148 160.862C961.414 162.1 961.025 163.512 961.023 164.952C961.023 167.773 962.496 170.268 964.719 171.729C963.402 171.698 962.112 171.349 960.958 170.713V170.814C960.958 174.761 963.813 178.045 967.593 178.792C966.882 178.982 966.15 179.078 965.414 179.078C964.892 179.079 964.372 179.028 963.86 178.927C964.91 182.16 967.968 184.512 971.59 184.579C968.647 186.847 965.033 188.073 961.317 188.064C960.658 188.063 959.999 188.024 959.344 187.947C963.124 190.36 967.518 191.637 972.004 191.625C987.235 191.625 995.556 179.221 995.556 168.462C995.556 168.109 995.547 167.757 995.53 167.412C997.145 166.263 998.542 164.836 999.656 163.196Z" fill="#9BE4DC"/>
</g>
<defs>
<clipPath id="clip0">
<rect width="1440" height="1024" fill="white"/>
</clipPath>
</defs>
</svg>
