<svg width="340" height="437" viewBox="0 0 340 437" fill="none" xmlns="http://www.w3.org/2000/svg">
<g filter="url(#filter0_d)">
<rect x="4" y="2" width="326" height="426" rx="30" fill="white"/>
</g>
<path d="M36.9844 122.016L45.9844 113.016L44.5781 111.562L36.9844 119.156L33.4219 115.594L32.0156 117L36.9844 122.016ZM31.9219 109.969C33.8906 108 36.25 107.016 39 107.016C41.75 107.016 44.0938 108 46.0312 109.969C48 111.906 48.9844 114.25 48.9844 117C48.9844 119.75 48 122.109 46.0312 124.078C44.0938 126.016 41.75 126.984 39 126.984C36.25 126.984 33.8906 126.016 31.9219 124.078C29.9844 122.109 29.0156 119.75 29.0156 117C29.0156 114.25 29.9844 111.906 31.9219 109.969Z" fill="#E5E5E5"/>
<path d="M68.54 116C68.4467 116 68.3673 115.972 68.302 115.916C68.246 115.851 68.218 115.771 68.218 115.678V106.536C68.218 106.433 68.246 106.354 68.302 106.298C68.3673 106.233 68.4467 106.2 68.54 106.2H74.322C74.4153 106.2 74.49 106.233 74.546 106.298C74.6113 106.354 74.644 106.433 74.644 106.536V107.068C74.644 107.161 74.616 107.241 74.56 107.306C74.504 107.362 74.4247 107.39 74.322 107.39H69.562V110.456H74.014C74.1073 110.456 74.182 110.489 74.238 110.554C74.3033 110.61 74.336 110.689 74.336 110.792V111.31C74.336 111.403 74.3033 111.483 74.238 111.548C74.182 111.604 74.1073 111.632 74.014 111.632H69.562V114.81H74.434C74.5367 114.81 74.616 114.838 74.672 114.894C74.728 114.95 74.756 115.029 74.756 115.132V115.678C74.756 115.771 74.7233 115.851 74.658 115.916C74.602 115.972 74.5273 116 74.434 116H68.54ZM76.8482 116C76.7549 116 76.6756 115.972 76.6102 115.916C76.5542 115.851 76.5262 115.771 76.5262 115.678V109.042C76.5262 108.949 76.5542 108.874 76.6102 108.818C76.6756 108.753 76.7549 108.72 76.8482 108.72H77.5062C77.5996 108.72 77.6742 108.753 77.7302 108.818C77.7956 108.874 77.8282 108.949 77.8282 109.042V109.658C78.0989 109.313 78.4162 109.047 78.7802 108.86C79.1536 108.673 79.6156 108.58 80.1662 108.58C81.0622 108.58 81.7576 108.869 82.2522 109.448C82.7562 110.017 83.0082 110.778 83.0082 111.73V115.678C83.0082 115.771 82.9756 115.851 82.9102 115.916C82.8542 115.972 82.7796 116 82.6862 116H81.9862C81.8929 116 81.8136 115.972 81.7482 115.916C81.6922 115.851 81.6642 115.771 81.6642 115.678V111.8C81.6642 111.137 81.5009 110.624 81.1742 110.26C80.8569 109.896 80.3949 109.714 79.7882 109.714C79.2002 109.714 78.7336 109.901 78.3882 110.274C78.0429 110.638 77.8702 111.147 77.8702 111.8V115.678C77.8702 115.771 77.8376 115.851 77.7722 115.916C77.7162 115.972 77.6416 116 77.5482 116H76.8482ZM87.9985 119.08C87.2331 119.08 86.6171 118.949 86.1505 118.688C85.6838 118.436 85.3525 118.147 85.1565 117.82C84.9605 117.493 84.8531 117.199 84.8345 116.938C84.8251 116.845 84.8531 116.765 84.9185 116.7C84.9931 116.635 85.0725 116.602 85.1565 116.602H85.8285C85.9125 116.602 85.9825 116.621 86.0385 116.658C86.0945 116.705 86.1411 116.784 86.1785 116.896C86.2905 117.195 86.4725 117.451 86.7245 117.666C86.9858 117.89 87.3871 118.002 87.9285 118.002C88.6191 118.002 89.1278 117.853 89.4545 117.554C89.7811 117.265 89.9445 116.747 89.9445 116V115.048C89.7018 115.356 89.3938 115.603 89.0205 115.79C88.6471 115.967 88.2038 116.056 87.6905 116.056C86.7011 116.056 85.9591 115.743 85.4645 115.118C84.9791 114.483 84.7225 113.681 84.6945 112.71L84.6805 112.318L84.6945 111.94C84.7225 110.979 84.9838 110.181 85.4785 109.546C85.9731 108.902 86.7105 108.58 87.6905 108.58C88.6705 108.58 89.4358 108.939 89.9865 109.658V109.056C89.9865 108.963 90.0145 108.883 90.0705 108.818C90.1358 108.753 90.2151 108.72 90.3085 108.72H90.9525C91.0458 108.72 91.1251 108.753 91.1905 108.818C91.2558 108.883 91.2885 108.963 91.2885 109.056V115.846C91.2885 118.002 90.1918 119.08 87.9985 119.08ZM87.9705 114.936C88.6051 114.936 89.0858 114.726 89.4125 114.306C89.7391 113.886 89.9165 113.387 89.9445 112.808C89.9538 112.724 89.9585 112.561 89.9585 112.318C89.9585 112.085 89.9538 111.926 89.9445 111.842C89.9165 111.263 89.7391 110.764 89.4125 110.344C89.0951 109.924 88.6145 109.714 87.9705 109.714C87.3078 109.714 86.8271 109.919 86.5285 110.33C86.2298 110.741 86.0665 111.282 86.0385 111.954L86.0245 112.318L86.0385 112.696C86.0665 113.359 86.2298 113.9 86.5285 114.32C86.8271 114.731 87.3078 114.936 87.9705 114.936ZM93.706 116C93.6127 116 93.5333 115.972 93.468 115.916C93.412 115.851 93.384 115.771 93.384 115.678V106.382C93.384 106.289 93.412 106.214 93.468 106.158C93.5333 106.093 93.6127 106.06 93.706 106.06H94.364C94.4573 106.06 94.532 106.093 94.588 106.158C94.6533 106.214 94.686 106.289 94.686 106.382V115.678C94.686 115.771 94.6533 115.851 94.588 115.916C94.532 115.972 94.4573 116 94.364 116H93.706ZM96.9843 107.362C96.8909 107.362 96.8116 107.334 96.7463 107.278C96.6903 107.213 96.6623 107.133 96.6623 107.04V106.284C96.6623 106.191 96.6903 106.111 96.7463 106.046C96.8116 105.981 96.8909 105.948 96.9843 105.948H97.8663C97.9596 105.948 98.0389 105.981 98.1043 106.046C98.1696 106.111 98.2023 106.191 98.2023 106.284V107.04C98.2023 107.133 98.1696 107.213 98.1043 107.278C98.0389 107.334 97.9596 107.362 97.8663 107.362H96.9843ZM97.0963 116C97.0029 116 96.9236 115.972 96.8583 115.916C96.8023 115.851 96.7743 115.771 96.7743 115.678V109.042C96.7743 108.949 96.8023 108.874 96.8583 108.818C96.9236 108.753 97.0029 108.72 97.0963 108.72H97.7683C97.8616 108.72 97.9363 108.753 97.9923 108.818C98.0576 108.874 98.0903 108.949 98.0903 109.042V115.678C98.0903 115.771 98.0576 115.851 97.9923 115.916C97.9363 115.972 97.8616 116 97.7683 116H97.0963ZM102.685 116.14C102.032 116.14 101.481 116.037 101.033 115.832C100.594 115.617 100.263 115.375 100.039 115.104C99.8242 114.833 99.7169 114.609 99.7169 114.432C99.7169 114.339 99.7496 114.269 99.8149 114.222C99.8896 114.166 99.9642 114.138 100.039 114.138H100.669C100.762 114.138 100.846 114.185 100.921 114.278C101.145 114.539 101.388 114.745 101.649 114.894C101.91 115.043 102.26 115.118 102.699 115.118C103.184 115.118 103.576 115.025 103.875 114.838C104.183 114.642 104.337 114.376 104.337 114.04C104.337 113.816 104.272 113.634 104.141 113.494C104.02 113.345 103.805 113.219 103.497 113.116C103.198 113.004 102.75 112.883 102.153 112.752C101.341 112.575 100.762 112.318 100.417 111.982C100.081 111.646 99.9129 111.212 99.9129 110.68C99.9129 110.325 100.016 109.989 100.221 109.672C100.436 109.345 100.744 109.084 101.145 108.888C101.556 108.683 102.046 108.58 102.615 108.58C103.212 108.58 103.721 108.678 104.141 108.874C104.561 109.07 104.874 109.303 105.079 109.574C105.294 109.835 105.401 110.055 105.401 110.232C105.401 110.316 105.368 110.386 105.303 110.442C105.247 110.498 105.177 110.526 105.093 110.526H104.505C104.393 110.526 104.3 110.479 104.225 110.386C104.076 110.209 103.945 110.073 103.833 109.98C103.73 109.877 103.576 109.789 103.371 109.714C103.175 109.639 102.923 109.602 102.615 109.602C102.167 109.602 101.822 109.7 101.579 109.896C101.336 110.083 101.215 110.33 101.215 110.638C101.215 110.834 101.266 111.002 101.369 111.142C101.472 111.273 101.668 111.394 101.957 111.506C102.256 111.618 102.685 111.735 103.245 111.856C104.132 112.043 104.757 112.313 105.121 112.668C105.494 113.013 105.681 113.457 105.681 113.998C105.681 114.399 105.564 114.763 105.331 115.09C105.098 115.417 104.752 115.673 104.295 115.86C103.847 116.047 103.31 116.14 102.685 116.14ZM107.638 116C107.544 116 107.465 115.972 107.4 115.916C107.344 115.851 107.316 115.771 107.316 115.678V106.382C107.316 106.289 107.344 106.214 107.4 106.158C107.465 106.093 107.544 106.06 107.638 106.06H108.338C108.431 106.06 108.506 106.093 108.562 106.158C108.627 106.214 108.66 106.289 108.66 106.382V109.644C108.93 109.299 109.248 109.037 109.612 108.86C109.976 108.673 110.428 108.58 110.97 108.58C111.866 108.58 112.561 108.869 113.056 109.448C113.56 110.017 113.812 110.778 113.812 111.73V115.678C113.812 115.771 113.779 115.851 113.714 115.916C113.658 115.972 113.583 116 113.49 116H112.79C112.696 116 112.617 115.972 112.552 115.916C112.496 115.851 112.468 115.771 112.468 115.678V111.8C112.468 111.137 112.304 110.624 111.978 110.26C111.66 109.896 111.198 109.714 110.592 109.714C110.004 109.714 109.532 109.901 109.178 110.274C108.832 110.638 108.66 111.147 108.66 111.8V115.678C108.66 115.771 108.627 115.851 108.562 115.916C108.506 115.972 108.431 116 108.338 116H107.638ZM119.769 116C119.675 116 119.596 115.972 119.531 115.916C119.475 115.851 119.447 115.771 119.447 115.678V106.536C119.447 106.433 119.475 106.354 119.531 106.298C119.596 106.233 119.675 106.2 119.769 106.2H123.325C124.379 106.2 125.21 106.457 125.817 106.97C126.423 107.483 126.727 108.225 126.727 109.196C126.727 110.167 126.423 110.909 125.817 111.422C125.219 111.926 124.389 112.178 123.325 112.178H120.847V115.678C120.847 115.771 120.814 115.851 120.749 115.916C120.683 115.972 120.604 116 120.511 116H119.769ZM123.255 111.002C123.936 111.002 124.449 110.848 124.795 110.54C125.149 110.232 125.327 109.784 125.327 109.196C125.327 108.608 125.154 108.16 124.809 107.852C124.463 107.535 123.945 107.376 123.255 107.376H120.833V111.002H123.255ZM130.14 116.14C129.683 116.14 129.258 116.047 128.866 115.86C128.474 115.673 128.162 115.421 127.928 115.104C127.704 114.777 127.592 114.418 127.592 114.026C127.592 113.41 127.844 112.906 128.348 112.514C128.862 112.113 129.552 111.851 130.42 111.73L132.506 111.436V111.03C132.506 110.078 131.96 109.602 130.868 109.602C130.458 109.602 130.122 109.691 129.86 109.868C129.599 110.036 129.403 110.237 129.272 110.47C129.244 110.554 129.207 110.615 129.16 110.652C129.123 110.689 129.067 110.708 128.992 110.708H128.39C128.306 110.708 128.232 110.68 128.166 110.624C128.11 110.559 128.082 110.484 128.082 110.4C128.092 110.176 128.194 109.924 128.39 109.644C128.596 109.355 128.908 109.107 129.328 108.902C129.748 108.687 130.266 108.58 130.882 108.58C131.928 108.58 132.679 108.827 133.136 109.322C133.594 109.807 133.822 110.414 133.822 111.142V115.678C133.822 115.771 133.79 115.851 133.724 115.916C133.668 115.972 133.594 116 133.5 116H132.856C132.763 116 132.684 115.972 132.618 115.916C132.562 115.851 132.534 115.771 132.534 115.678V115.076C132.329 115.375 132.03 115.627 131.638 115.832C131.246 116.037 130.747 116.14 130.14 116.14ZM130.434 115.09C131.041 115.09 131.536 114.894 131.918 114.502C132.31 114.101 132.506 113.527 132.506 112.78V112.388L130.882 112.626C130.22 112.719 129.72 112.878 129.384 113.102C129.048 113.317 128.88 113.592 128.88 113.928C128.88 114.301 129.034 114.591 129.342 114.796C129.65 114.992 130.014 115.09 130.434 115.09ZM136.171 118.66C136.077 118.66 135.998 118.627 135.933 118.562C135.877 118.506 135.849 118.431 135.849 118.338V109.042C135.849 108.949 135.877 108.874 135.933 108.818C135.998 108.753 136.077 108.72 136.171 108.72H136.815C136.908 108.72 136.983 108.753 137.039 108.818C137.104 108.874 137.137 108.949 137.137 109.042V109.658C137.659 108.939 138.425 108.58 139.433 108.58C140.413 108.58 141.145 108.888 141.631 109.504C142.125 110.12 142.391 110.913 142.429 111.884C142.438 111.987 142.443 112.145 142.443 112.36C142.443 112.575 142.438 112.733 142.429 112.836C142.391 113.797 142.125 114.591 141.631 115.216C141.136 115.832 140.403 116.14 139.433 116.14C138.462 116.14 137.706 115.79 137.165 115.09V118.338C137.165 118.431 137.137 118.506 137.081 118.562C137.025 118.627 136.95 118.66 136.857 118.66H136.171ZM139.139 115.006C139.801 115.006 140.282 114.801 140.581 114.39C140.889 113.979 141.057 113.438 141.085 112.766C141.094 112.673 141.099 112.537 141.099 112.36C141.099 110.596 140.445 109.714 139.139 109.714C138.495 109.714 138.009 109.929 137.683 110.358C137.365 110.778 137.193 111.282 137.165 111.87L137.151 112.402L137.165 112.948C137.183 113.499 137.361 113.979 137.697 114.39C138.033 114.801 138.513 115.006 139.139 115.006ZM147.087 116.14C146.125 116.14 145.355 115.846 144.777 115.258C144.207 114.661 143.895 113.849 143.839 112.822L143.825 112.346L143.839 111.884C143.904 110.876 144.221 110.073 144.791 109.476C145.369 108.879 146.13 108.58 147.073 108.58C148.109 108.58 148.911 108.911 149.481 109.574C150.05 110.227 150.335 111.114 150.335 112.234V112.472C150.335 112.565 150.302 112.645 150.237 112.71C150.181 112.766 150.106 112.794 150.013 112.794H145.169V112.92C145.197 113.527 145.379 114.045 145.715 114.474C146.06 114.894 146.513 115.104 147.073 115.104C147.502 115.104 147.852 115.02 148.123 114.852C148.403 114.675 148.608 114.493 148.739 114.306C148.823 114.194 148.883 114.129 148.921 114.11C148.967 114.082 149.047 114.068 149.159 114.068H149.845C149.929 114.068 149.999 114.091 150.055 114.138C150.111 114.185 150.139 114.25 150.139 114.334C150.139 114.539 150.008 114.787 149.747 115.076C149.495 115.365 149.135 115.617 148.669 115.832C148.211 116.037 147.684 116.14 147.087 116.14ZM149.005 111.828V111.786C149.005 111.142 148.827 110.619 148.473 110.218C148.127 109.807 147.661 109.602 147.073 109.602C146.485 109.602 146.018 109.807 145.673 110.218C145.337 110.619 145.169 111.142 145.169 111.786V111.828H149.005ZM152.331 116C152.237 116 152.158 115.972 152.093 115.916C152.037 115.851 152.009 115.771 152.009 115.678V109.056C152.009 108.963 152.037 108.883 152.093 108.818C152.158 108.753 152.237 108.72 152.331 108.72H152.975C153.068 108.72 153.147 108.753 153.213 108.818C153.278 108.883 153.311 108.963 153.311 109.056V109.672C153.693 109.037 154.347 108.72 155.271 108.72H155.817C155.91 108.72 155.985 108.753 156.041 108.818C156.106 108.874 156.139 108.949 156.139 109.042V109.616C156.139 109.709 156.106 109.784 156.041 109.84C155.985 109.896 155.91 109.924 155.817 109.924H154.977C154.473 109.924 154.076 110.073 153.787 110.372C153.497 110.661 153.353 111.058 153.353 111.562V115.678C153.353 115.771 153.32 115.851 153.255 115.916C153.189 115.972 153.11 116 153.017 116H152.331Z" fill="black"/>
<path d="M68.1 129C68.0333 129 67.9767 128.98 67.93 128.94C67.89 128.893 67.87 128.837 67.87 128.77V122.24C67.87 122.167 67.89 122.11 67.93 122.07C67.9767 122.023 68.0333 122 68.1 122H70.37C71.3767 122 72.1033 122.227 72.55 122.68C72.9967 123.127 73.23 123.803 73.25 124.71C73.2567 124.903 73.26 125.163 73.26 125.49C73.26 125.817 73.2567 126.08 73.25 126.28C73.23 126.913 73.1233 127.43 72.93 127.83C72.7433 128.223 72.4467 128.517 72.04 128.71C71.6333 128.903 71.0933 129 70.42 129H68.1ZM70.37 128.15C70.83 128.15 71.1933 128.087 71.46 127.96C71.7333 127.833 71.93 127.633 72.05 127.36C72.1767 127.08 72.2467 126.707 72.26 126.24C72.2733 125.84 72.28 125.59 72.28 125.49C72.28 125.383 72.2733 125.137 72.26 124.75C72.2467 124.09 72.09 123.61 71.79 123.31C71.49 123.003 71 122.85 70.32 122.85H68.85V128.15H70.37ZM76.5745 129.1C75.9412 129.1 75.4512 128.897 75.1045 128.49C74.7579 128.077 74.5845 127.53 74.5845 126.85V124.03C74.5845 123.963 74.6045 123.91 74.6445 123.87C74.6912 123.823 74.7479 123.8 74.8145 123.8H75.3145C75.3812 123.8 75.4345 123.823 75.4745 123.87C75.5212 123.91 75.5445 123.963 75.5445 124.03V126.8C75.5445 127.793 75.9779 128.29 76.8445 128.29C77.2645 128.29 77.5979 128.16 77.8445 127.9C78.0912 127.633 78.2145 127.267 78.2145 126.8V124.03C78.2145 123.963 78.2345 123.91 78.2745 123.87C78.3212 123.823 78.3779 123.8 78.4445 123.8H78.9445C79.0112 123.8 79.0645 123.823 79.1045 123.87C79.1445 123.91 79.1645 123.963 79.1645 124.03V128.77C79.1645 128.837 79.1445 128.893 79.1045 128.94C79.0645 128.98 79.0112 129 78.9445 129H78.4745C78.4079 129 78.3512 128.98 78.3045 128.94C78.2645 128.893 78.2445 128.837 78.2445 128.77V128.33C78.0579 128.583 77.8312 128.777 77.5645 128.91C77.2979 129.037 76.9679 129.1 76.5745 129.1ZM82.7302 129.1C82.0435 129.1 81.4935 128.89 81.0802 128.47C80.6735 128.043 80.4502 127.463 80.4102 126.73L80.4002 126.39L80.4102 126.06C80.4568 125.34 80.6835 124.767 81.0902 124.34C81.5035 123.913 82.0468 123.7 82.7202 123.7C83.4602 123.7 84.0335 123.937 84.4402 124.41C84.8468 124.877 85.0502 125.51 85.0502 126.31V126.48C85.0502 126.547 85.0268 126.603 84.9802 126.65C84.9402 126.69 84.8868 126.71 84.8202 126.71H81.3602V126.8C81.3802 127.233 81.5102 127.603 81.7502 127.91C81.9968 128.21 82.3202 128.36 82.7202 128.36C83.0268 128.36 83.2768 128.3 83.4702 128.18C83.6702 128.053 83.8168 127.923 83.9102 127.79C83.9702 127.71 84.0135 127.663 84.0402 127.65C84.0735 127.63 84.1302 127.62 84.2102 127.62H84.7002C84.7602 127.62 84.8102 127.637 84.8502 127.67C84.8902 127.703 84.9102 127.75 84.9102 127.81C84.9102 127.957 84.8168 128.133 84.6302 128.34C84.4502 128.547 84.1935 128.727 83.8602 128.88C83.5335 129.027 83.1568 129.1 82.7302 129.1ZM84.1002 126.02V125.99C84.1002 125.53 83.9735 125.157 83.7202 124.87C83.4735 124.577 83.1402 124.43 82.7202 124.43C82.3002 124.43 81.9668 124.577 81.7202 124.87C81.4802 125.157 81.3602 125.53 81.3602 125.99V126.02H84.1002ZM91.137 129.1C90.617 129.1 90.1604 129.017 89.767 128.85C89.3737 128.677 89.067 128.43 88.847 128.11C88.627 127.79 88.517 127.417 88.517 126.99C88.517 126.597 88.6137 126.253 88.807 125.96C89.0004 125.66 89.2637 125.43 89.597 125.27C89.3304 125.117 89.1237 124.917 88.977 124.67C88.837 124.417 88.767 124.123 88.767 123.79C88.767 123.203 88.9804 122.743 89.407 122.41C89.8404 122.07 90.417 121.9 91.137 121.9C91.8504 121.9 92.4204 122.07 92.847 122.41C93.2804 122.743 93.497 123.2 93.497 123.78C93.497 124.113 93.4237 124.407 93.277 124.66C93.137 124.907 92.937 125.11 92.677 125.27C93.0104 125.43 93.2737 125.66 93.467 125.96C93.6604 126.253 93.757 126.597 93.757 126.99C93.757 127.417 93.647 127.79 93.427 128.11C93.207 128.43 92.897 128.677 92.497 128.85C92.1037 129.017 91.6504 129.1 91.137 129.1ZM91.137 124.91C91.537 124.903 91.8737 124.8 92.147 124.6C92.4204 124.4 92.557 124.137 92.557 123.81C92.557 123.477 92.4204 123.21 92.147 123.01C91.8804 122.803 91.5437 122.7 91.137 122.7C90.7237 122.7 90.3804 122.8 90.107 123C89.8404 123.2 89.707 123.47 89.707 123.81C89.707 124.143 89.8404 124.41 90.107 124.61C90.3804 124.81 90.7237 124.91 91.137 124.91ZM91.137 128.3C91.6037 128.3 91.9937 128.18 92.307 127.94C92.6204 127.7 92.777 127.383 92.777 126.99C92.777 126.597 92.6204 126.283 92.307 126.05C91.9937 125.817 91.6037 125.7 91.137 125.7C90.6637 125.7 90.2704 125.817 89.957 126.05C89.6437 126.283 89.487 126.597 89.487 126.99C89.487 127.383 89.6437 127.7 89.957 127.94C90.2704 128.18 90.6637 128.3 91.137 128.3ZM94.7354 129.84C94.6821 129.84 94.6354 129.82 94.5954 129.78C94.5554 129.74 94.5354 129.693 94.5354 129.64C94.5354 129.613 94.5454 129.573 94.5654 129.52L97.9854 121.32C98.0387 121.2 98.1254 121.14 98.2454 121.14H98.6354C98.6887 121.14 98.7354 121.16 98.7754 121.2C98.8154 121.24 98.8354 121.287 98.8354 121.34C98.8354 121.387 98.8287 121.427 98.8154 121.46L95.3854 129.66C95.3321 129.78 95.2454 129.84 95.1254 129.84H94.7354ZM100.59 129C100.53 129 100.48 128.98 100.44 128.94C100.406 128.893 100.39 128.84 100.39 128.78L100.41 128.69L102.9 122.87H99.6196C99.5529 122.87 99.4963 122.85 99.4496 122.81C99.4096 122.763 99.3896 122.707 99.3896 122.64V122.24C99.3896 122.167 99.4096 122.11 99.4496 122.07C99.4963 122.023 99.5529 122 99.6196 122H103.72C103.793 122 103.85 122.023 103.89 122.07C103.936 122.11 103.96 122.167 103.96 122.24V122.61C103.96 122.73 103.933 122.86 103.88 123L101.42 128.75C101.386 128.823 101.346 128.883 101.3 128.93C101.26 128.977 101.203 129 101.13 129H100.59ZM104.032 129.84C103.979 129.84 103.932 129.82 103.892 129.78C103.852 129.74 103.832 129.693 103.832 129.64C103.832 129.613 103.842 129.573 103.862 129.52L107.282 121.32C107.336 121.2 107.422 121.14 107.542 121.14H107.932C107.986 121.14 108.032 121.16 108.072 121.2C108.112 121.24 108.132 121.287 108.132 121.34C108.132 121.387 108.126 121.427 108.112 121.46L104.682 129.66C104.629 129.78 104.542 129.84 104.422 129.84H104.032ZM108.98 129C108.913 129 108.856 128.98 108.81 128.94C108.77 128.893 108.75 128.837 108.75 128.77V128.45C108.75 128.297 108.833 128.15 109 128.01L111.12 125.89C111.633 125.463 111.986 125.117 112.18 124.85C112.373 124.577 112.47 124.29 112.47 123.99C112.47 123.603 112.36 123.3 112.14 123.08C111.926 122.86 111.613 122.75 111.2 122.75C110.813 122.75 110.503 122.867 110.27 123.1C110.036 123.327 109.893 123.63 109.84 124.01C109.826 124.09 109.793 124.15 109.74 124.19C109.693 124.223 109.64 124.24 109.58 124.24H109.06C109 124.24 108.95 124.223 108.91 124.19C108.87 124.15 108.85 124.103 108.85 124.05C108.863 123.69 108.96 123.347 109.14 123.02C109.32 122.687 109.583 122.417 109.93 122.21C110.283 121.997 110.706 121.89 111.2 121.89C111.953 121.89 112.52 122.087 112.9 122.48C113.286 122.867 113.48 123.36 113.48 123.96C113.48 124.38 113.373 124.76 113.16 125.1C112.953 125.433 112.63 125.793 112.19 126.18L110.27 128.13H113.39C113.463 128.13 113.52 128.153 113.56 128.2C113.606 128.24 113.63 128.293 113.63 128.36V128.77C113.63 128.837 113.606 128.893 113.56 128.94C113.513 128.98 113.456 129 113.39 129H108.98ZM116.889 129C116.822 129 116.766 128.98 116.719 128.94C116.679 128.893 116.659 128.837 116.659 128.77V123.17L114.999 124.45C114.952 124.49 114.902 124.51 114.849 124.51C114.789 124.51 114.732 124.477 114.679 124.41L114.419 124.08C114.386 124.033 114.369 123.987 114.369 123.94C114.369 123.86 114.402 123.797 114.469 123.75L116.649 122.07C116.722 122.023 116.809 122 116.909 122H117.419C117.486 122 117.539 122.023 117.579 122.07C117.626 122.11 117.649 122.163 117.649 122.23V128.77C117.649 128.837 117.626 128.893 117.579 128.94C117.539 128.98 117.486 129 117.419 129H116.889Z" fill="#BBBBBB"/>
<line x1="27" y1="145.5" x2="308" y2="145.5" stroke="#F3F3F3"/>
<path d="M36.9844 178.016L45.9844 169.016L44.5781 167.562L36.9844 175.156L33.4219 171.594L32.0156 173L36.9844 178.016ZM31.9219 165.969C33.8906 164 36.25 163.016 39 163.016C41.75 163.016 44.0938 164 46.0312 165.969C48 167.906 48.9844 170.25 48.9844 173C48.9844 175.75 48 178.109 46.0312 180.078C44.0938 182.016 41.75 182.984 39 182.984C36.25 182.984 33.8906 182.016 31.9219 180.078C29.9844 178.109 29.0156 175.75 29.0156 173C29.0156 170.25 29.9844 167.906 31.9219 165.969Z" fill="#6CD4F9"/>
<path d="M71.368 172.14C70.5933 172.14 69.9213 172.019 69.352 171.776C68.792 171.533 68.3627 171.216 68.064 170.824C67.7653 170.423 67.6067 169.993 67.588 169.536C67.588 169.461 67.616 169.396 67.672 169.34C67.7373 169.275 67.812 169.242 67.896 169.242H68.61C68.7873 169.242 68.9087 169.335 68.974 169.522C69.058 169.914 69.296 170.25 69.688 170.53C70.0893 170.81 70.6493 170.95 71.368 170.95C72.1427 170.95 72.726 170.815 73.118 170.544C73.51 170.264 73.706 169.877 73.706 169.382C73.706 169.065 73.608 168.808 73.412 168.612C73.2253 168.416 72.9453 168.243 72.572 168.094C72.1987 167.945 71.6387 167.758 70.892 167.534C70.164 167.329 69.5853 167.109 69.156 166.876C68.7267 166.643 68.4047 166.353 68.19 166.008C67.9753 165.663 67.868 165.229 67.868 164.706C67.868 164.202 68.0033 163.749 68.274 163.348C68.554 162.947 68.9507 162.634 69.464 162.41C69.9773 162.177 70.5887 162.06 71.298 162.06C72.026 162.06 72.6513 162.191 73.174 162.452C73.6967 162.704 74.0933 163.026 74.364 163.418C74.6347 163.81 74.7793 164.202 74.798 164.594C74.798 164.669 74.77 164.734 74.714 164.79C74.6673 164.846 74.5973 164.874 74.504 164.874H73.762C73.566 164.874 73.4447 164.785 73.398 164.608C73.342 164.216 73.1227 163.894 72.74 163.642C72.3573 163.381 71.8767 163.25 71.298 163.25C70.6633 163.25 70.164 163.371 69.8 163.614C69.436 163.857 69.254 164.216 69.254 164.692C69.254 165.009 69.338 165.271 69.506 165.476C69.6833 165.681 69.9493 165.863 70.304 166.022C70.6587 166.171 71.1767 166.344 71.858 166.54C72.6513 166.755 73.2767 166.979 73.734 167.212C74.1913 167.436 74.532 167.721 74.756 168.066C74.98 168.402 75.092 168.831 75.092 169.354C75.092 170.222 74.756 170.903 74.084 171.398C73.412 171.893 72.5067 172.14 71.368 172.14ZM79.685 172.14C78.6863 172.14 77.9023 171.86 77.333 171.3C76.773 170.731 76.4743 169.937 76.437 168.92L76.423 168.36L76.437 167.8C76.4743 166.783 76.773 165.994 77.333 165.434C77.9023 164.865 78.6863 164.58 79.685 164.58C80.357 164.58 80.9263 164.701 81.393 164.944C81.8597 165.187 82.205 165.485 82.429 165.84C82.6623 166.195 82.7883 166.549 82.807 166.904C82.8163 166.997 82.7883 167.072 82.723 167.128C82.6577 167.184 82.5783 167.212 82.485 167.212H81.813C81.7197 167.212 81.6497 167.193 81.603 167.156C81.5563 167.119 81.5097 167.044 81.463 166.932C81.3043 166.484 81.0803 166.167 80.791 165.98C80.5017 165.784 80.1377 165.686 79.699 165.686C79.1203 165.686 78.6583 165.868 78.313 166.232C77.977 166.587 77.795 167.133 77.767 167.87L77.753 168.374L77.767 168.85C77.795 169.597 77.977 170.147 78.313 170.502C78.649 170.857 79.111 171.034 79.699 171.034C80.1377 171.034 80.5017 170.941 80.791 170.754C81.0803 170.558 81.3043 170.236 81.463 169.788C81.5097 169.676 81.5563 169.601 81.603 169.564C81.6497 169.517 81.7197 169.494 81.813 169.494H82.485C82.5783 169.494 82.6577 169.527 82.723 169.592C82.7883 169.648 82.8163 169.723 82.807 169.816C82.7883 170.161 82.6623 170.516 82.429 170.88C82.205 171.235 81.8597 171.533 81.393 171.776C80.9357 172.019 80.3663 172.14 79.685 172.14ZM84.6796 163.362C84.5863 163.362 84.5069 163.334 84.4416 163.278C84.3856 163.213 84.3576 163.133 84.3576 163.04V162.284C84.3576 162.191 84.3856 162.111 84.4416 162.046C84.5069 161.981 84.5863 161.948 84.6796 161.948H85.5616C85.6549 161.948 85.7343 161.981 85.7996 162.046C85.8649 162.111 85.8976 162.191 85.8976 162.284V163.04C85.8976 163.133 85.8649 163.213 85.7996 163.278C85.7343 163.334 85.6549 163.362 85.5616 163.362H84.6796ZM84.7916 172C84.6983 172 84.6189 171.972 84.5536 171.916C84.4976 171.851 84.4696 171.771 84.4696 171.678V165.042C84.4696 164.949 84.4976 164.874 84.5536 164.818C84.6189 164.753 84.6983 164.72 84.7916 164.72H85.4636C85.5569 164.72 85.6316 164.753 85.6876 164.818C85.7529 164.874 85.7856 164.949 85.7856 165.042V171.678C85.7856 171.771 85.7529 171.851 85.6876 171.916C85.6316 171.972 85.5569 172 85.4636 172H84.7916ZM90.7722 172.14C89.8109 172.14 89.0409 171.846 88.4622 171.258C87.8929 170.661 87.5802 169.849 87.5242 168.822L87.5102 168.346L87.5242 167.884C87.5896 166.876 87.9069 166.073 88.4762 165.476C89.0549 164.879 89.8156 164.58 90.7582 164.58C91.7942 164.58 92.5969 164.911 93.1662 165.574C93.7356 166.227 94.0202 167.114 94.0202 168.234V168.472C94.0202 168.565 93.9876 168.645 93.9222 168.71C93.8662 168.766 93.7916 168.794 93.6982 168.794H88.8542V168.92C88.8822 169.527 89.0642 170.045 89.4002 170.474C89.7456 170.894 90.1982 171.104 90.7582 171.104C91.1876 171.104 91.5376 171.02 91.8082 170.852C92.0882 170.675 92.2936 170.493 92.4242 170.306C92.5082 170.194 92.5689 170.129 92.6062 170.11C92.6529 170.082 92.7322 170.068 92.8442 170.068H93.5302C93.6142 170.068 93.6842 170.091 93.7402 170.138C93.7962 170.185 93.8242 170.25 93.8242 170.334C93.8242 170.539 93.6936 170.787 93.4322 171.076C93.1802 171.365 92.8209 171.617 92.3542 171.832C91.8969 172.037 91.3696 172.14 90.7722 172.14ZM92.6902 167.828V167.786C92.6902 167.142 92.5129 166.619 92.1582 166.218C91.8129 165.807 91.3462 165.602 90.7582 165.602C90.1702 165.602 89.7036 165.807 89.3582 166.218C89.0222 166.619 88.8542 167.142 88.8542 167.786V167.828H92.6902ZM96.0162 172C95.9229 172 95.8435 171.972 95.7782 171.916C95.7222 171.851 95.6942 171.771 95.6942 171.678V165.042C95.6942 164.949 95.7222 164.874 95.7782 164.818C95.8435 164.753 95.9229 164.72 96.0162 164.72H96.6742C96.7675 164.72 96.8422 164.753 96.8982 164.818C96.9635 164.874 96.9962 164.949 96.9962 165.042V165.658C97.2669 165.313 97.5842 165.047 97.9482 164.86C98.3215 164.673 98.7835 164.58 99.3342 164.58C100.23 164.58 100.926 164.869 101.42 165.448C101.924 166.017 102.176 166.778 102.176 167.73V171.678C102.176 171.771 102.144 171.851 102.078 171.916C102.022 171.972 101.948 172 101.854 172H101.154C101.061 172 100.982 171.972 100.916 171.916C100.86 171.851 100.832 171.771 100.832 171.678V167.8C100.832 167.137 100.669 166.624 100.342 166.26C100.025 165.896 99.5629 165.714 98.9562 165.714C98.3682 165.714 97.9015 165.901 97.5562 166.274C97.2109 166.638 97.0382 167.147 97.0382 167.8V171.678C97.0382 171.771 97.0055 171.851 96.9402 171.916C96.8842 171.972 96.8095 172 96.7162 172H96.0162ZM107.124 172.14C106.126 172.14 105.342 171.86 104.772 171.3C104.212 170.731 103.914 169.937 103.876 168.92L103.862 168.36L103.876 167.8C103.914 166.783 104.212 165.994 104.772 165.434C105.342 164.865 106.126 164.58 107.124 164.58C107.796 164.58 108.366 164.701 108.832 164.944C109.299 165.187 109.644 165.485 109.868 165.84C110.102 166.195 110.228 166.549 110.246 166.904C110.256 166.997 110.228 167.072 110.162 167.128C110.097 167.184 110.018 167.212 109.924 167.212H109.252C109.159 167.212 109.089 167.193 109.042 167.156C108.996 167.119 108.949 167.044 108.902 166.932C108.744 166.484 108.52 166.167 108.23 165.98C107.941 165.784 107.577 165.686 107.138 165.686C106.56 165.686 106.098 165.868 105.752 166.232C105.416 166.587 105.234 167.133 105.206 167.87L105.192 168.374L105.206 168.85C105.234 169.597 105.416 170.147 105.752 170.502C106.088 170.857 106.55 171.034 107.138 171.034C107.577 171.034 107.941 170.941 108.23 170.754C108.52 170.558 108.744 170.236 108.902 169.788C108.949 169.676 108.996 169.601 109.042 169.564C109.089 169.517 109.159 169.494 109.252 169.494H109.924C110.018 169.494 110.097 169.527 110.162 169.592C110.228 169.648 110.256 169.723 110.246 169.816C110.228 170.161 110.102 170.516 109.868 170.88C109.644 171.235 109.299 171.533 108.832 171.776C108.375 172.019 107.806 172.14 107.124 172.14ZM114.821 172.14C113.86 172.14 113.09 171.846 112.511 171.258C111.942 170.661 111.629 169.849 111.573 168.822L111.559 168.346L111.573 167.884C111.638 166.876 111.956 166.073 112.525 165.476C113.104 164.879 113.864 164.58 114.807 164.58C115.843 164.58 116.646 164.911 117.215 165.574C117.784 166.227 118.069 167.114 118.069 168.234V168.472C118.069 168.565 118.036 168.645 117.971 168.71C117.915 168.766 117.84 168.794 117.747 168.794H112.903V168.92C112.931 169.527 113.113 170.045 113.449 170.474C113.794 170.894 114.247 171.104 114.807 171.104C115.236 171.104 115.586 171.02 115.857 170.852C116.137 170.675 116.342 170.493 116.473 170.306C116.557 170.194 116.618 170.129 116.655 170.11C116.702 170.082 116.781 170.068 116.893 170.068H117.579C117.663 170.068 117.733 170.091 117.789 170.138C117.845 170.185 117.873 170.25 117.873 170.334C117.873 170.539 117.742 170.787 117.481 171.076C117.229 171.365 116.87 171.617 116.403 171.832C115.946 172.037 115.418 172.14 114.821 172.14ZM116.739 167.828V167.786C116.739 167.142 116.562 166.619 116.207 166.218C115.862 165.807 115.395 165.602 114.807 165.602C114.219 165.602 113.752 165.807 113.407 166.218C113.071 166.619 112.903 167.142 112.903 167.786V167.828H116.739ZM123.497 172C123.403 172 123.324 171.972 123.259 171.916C123.203 171.851 123.175 171.771 123.175 171.678V165.056C123.175 164.963 123.203 164.883 123.259 164.818C123.324 164.753 123.403 164.72 123.497 164.72H124.141C124.234 164.72 124.313 164.753 124.379 164.818C124.444 164.883 124.477 164.963 124.477 165.056V165.672C124.859 165.037 125.513 164.72 126.437 164.72H126.983C127.076 164.72 127.151 164.753 127.207 164.818C127.272 164.874 127.305 164.949 127.305 165.042V165.616C127.305 165.709 127.272 165.784 127.207 165.84C127.151 165.896 127.076 165.924 126.983 165.924H126.143C125.639 165.924 125.242 166.073 124.953 166.372C124.663 166.661 124.519 167.058 124.519 167.562V171.678C124.519 171.771 124.486 171.851 124.421 171.916C124.355 171.972 124.276 172 124.183 172H123.497ZM131.268 172.14C130.307 172.14 129.537 171.846 128.958 171.258C128.389 170.661 128.076 169.849 128.02 168.822L128.006 168.346L128.02 167.884C128.086 166.876 128.403 166.073 128.972 165.476C129.551 164.879 130.312 164.58 131.254 164.58C132.29 164.58 133.093 164.911 133.662 165.574C134.232 166.227 134.516 167.114 134.516 168.234V168.472C134.516 168.565 134.484 168.645 134.418 168.71C134.362 168.766 134.288 168.794 134.194 168.794H129.35V168.92C129.378 169.527 129.56 170.045 129.896 170.474C130.242 170.894 130.694 171.104 131.254 171.104C131.684 171.104 132.034 171.02 132.304 170.852C132.584 170.675 132.79 170.493 132.92 170.306C133.004 170.194 133.065 170.129 133.102 170.11C133.149 170.082 133.228 170.068 133.34 170.068H134.026C134.11 170.068 134.18 170.091 134.236 170.138C134.292 170.185 134.32 170.25 134.32 170.334C134.32 170.539 134.19 170.787 133.928 171.076C133.676 171.365 133.317 171.617 132.85 171.832C132.393 172.037 131.866 172.14 131.268 172.14ZM133.186 167.828V167.786C133.186 167.142 133.009 166.619 132.654 166.218C132.309 165.807 131.842 165.602 131.254 165.602C130.666 165.602 130.2 165.807 129.854 166.218C129.518 166.619 129.35 167.142 129.35 167.786V167.828H133.186ZM136.526 174.66C136.433 174.66 136.354 174.627 136.288 174.562C136.232 174.506 136.204 174.431 136.204 174.338V165.042C136.204 164.949 136.232 164.874 136.288 164.818C136.354 164.753 136.433 164.72 136.526 164.72H137.17C137.264 164.72 137.338 164.753 137.394 164.818C137.46 164.874 137.492 164.949 137.492 165.042V165.658C138.015 164.939 138.78 164.58 139.788 164.58C140.768 164.58 141.501 164.888 141.986 165.504C142.481 166.12 142.747 166.913 142.784 167.884C142.794 167.987 142.798 168.145 142.798 168.36C142.798 168.575 142.794 168.733 142.784 168.836C142.747 169.797 142.481 170.591 141.986 171.216C141.492 171.832 140.759 172.14 139.788 172.14C138.818 172.14 138.062 171.79 137.52 171.09V174.338C137.52 174.431 137.492 174.506 137.436 174.562C137.38 174.627 137.306 174.66 137.212 174.66H136.526ZM139.494 171.006C140.157 171.006 140.638 170.801 140.936 170.39C141.244 169.979 141.412 169.438 141.44 168.766C141.45 168.673 141.454 168.537 141.454 168.36C141.454 166.596 140.801 165.714 139.494 165.714C138.85 165.714 138.365 165.929 138.038 166.358C137.721 166.778 137.548 167.282 137.52 167.87L137.506 168.402L137.52 168.948C137.539 169.499 137.716 169.979 138.052 170.39C138.388 170.801 138.869 171.006 139.494 171.006ZM147.512 172.14C146.485 172.14 145.687 171.851 145.118 171.272C144.558 170.693 144.259 169.923 144.222 168.962L144.208 168.36L144.222 167.758C144.259 166.806 144.563 166.041 145.132 165.462C145.701 164.874 146.495 164.58 147.512 164.58C148.529 164.58 149.323 164.874 149.892 165.462C150.461 166.041 150.765 166.806 150.802 167.758C150.811 167.861 150.816 168.061 150.816 168.36C150.816 168.659 150.811 168.859 150.802 168.962C150.765 169.923 150.461 170.693 149.892 171.272C149.332 171.851 148.539 172.14 147.512 172.14ZM147.512 171.062C148.1 171.062 148.562 170.875 148.898 170.502C149.243 170.129 149.43 169.592 149.458 168.892C149.467 168.799 149.472 168.621 149.472 168.36C149.472 168.099 149.467 167.921 149.458 167.828C149.43 167.128 149.243 166.591 148.898 166.218C148.562 165.845 148.1 165.658 147.512 165.658C146.924 165.658 146.457 165.845 146.112 166.218C145.767 166.591 145.585 167.128 145.566 167.828L145.552 168.36L145.566 168.892C145.585 169.592 145.767 170.129 146.112 170.502C146.457 170.875 146.924 171.062 147.512 171.062ZM152.891 172C152.798 172 152.719 171.972 152.653 171.916C152.597 171.851 152.569 171.771 152.569 171.678V165.056C152.569 164.963 152.597 164.883 152.653 164.818C152.719 164.753 152.798 164.72 152.891 164.72H153.535C153.629 164.72 153.708 164.753 153.773 164.818C153.839 164.883 153.871 164.963 153.871 165.056V165.672C154.254 165.037 154.907 164.72 155.831 164.72H156.377C156.471 164.72 156.545 164.753 156.601 164.818C156.667 164.874 156.699 164.949 156.699 165.042V165.616C156.699 165.709 156.667 165.784 156.601 165.84C156.545 165.896 156.471 165.924 156.377 165.924H155.537C155.033 165.924 154.637 166.073 154.347 166.372C154.058 166.661 153.913 167.058 153.913 167.562V171.678C153.913 171.771 153.881 171.851 153.815 171.916C153.75 171.972 153.671 172 153.577 172H152.891ZM160.73 172C159.255 172 158.518 171.179 158.518 169.536V165.84H157.426C157.332 165.84 157.253 165.812 157.188 165.756C157.132 165.691 157.104 165.611 157.104 165.518V165.042C157.104 164.949 157.132 164.874 157.188 164.818C157.253 164.753 157.332 164.72 157.426 164.72H158.518V162.382C158.518 162.289 158.546 162.214 158.602 162.158C158.667 162.093 158.746 162.06 158.84 162.06H159.498C159.591 162.06 159.666 162.093 159.722 162.158C159.787 162.214 159.82 162.289 159.82 162.382V164.72H161.556C161.649 164.72 161.724 164.753 161.78 164.818C161.845 164.874 161.878 164.949 161.878 165.042V165.518C161.878 165.611 161.845 165.691 161.78 165.756C161.724 165.812 161.649 165.84 161.556 165.84H159.82V169.438C159.82 169.905 159.899 170.259 160.058 170.502C160.216 170.735 160.478 170.852 160.842 170.852H161.696C161.789 170.852 161.864 170.885 161.92 170.95C161.985 171.006 162.018 171.081 162.018 171.174V171.678C162.018 171.771 161.985 171.851 161.92 171.916C161.864 171.972 161.789 172 161.696 172H160.73Z" fill="black"/>
<path d="M70.12 185.1C69.5667 185.1 69.0867 185.013 68.68 184.84C68.28 184.667 67.9733 184.44 67.76 184.16C67.5467 183.873 67.4333 183.567 67.42 183.24C67.42 183.187 67.44 183.14 67.48 183.1C67.5267 183.053 67.58 183.03 67.64 183.03H68.15C68.2767 183.03 68.3633 183.097 68.41 183.23C68.47 183.51 68.64 183.75 68.92 183.95C69.2067 184.15 69.6067 184.25 70.12 184.25C70.6733 184.25 71.09 184.153 71.37 183.96C71.65 183.76 71.79 183.483 71.79 183.13C71.79 182.903 71.72 182.72 71.58 182.58C71.4467 182.44 71.2467 182.317 70.98 182.21C70.7133 182.103 70.3133 181.97 69.78 181.81C69.26 181.663 68.8467 181.507 68.54 181.34C68.2333 181.173 68.0033 180.967 67.85 180.72C67.6967 180.473 67.62 180.163 67.62 179.79C67.62 179.43 67.7167 179.107 67.91 178.82C68.11 178.533 68.3933 178.31 68.76 178.15C69.1267 177.983 69.5633 177.9 70.07 177.9C70.59 177.9 71.0367 177.993 71.41 178.18C71.7833 178.36 72.0667 178.59 72.26 178.87C72.4533 179.15 72.5567 179.43 72.57 179.71C72.57 179.763 72.55 179.81 72.51 179.85C72.4767 179.89 72.4267 179.91 72.36 179.91H71.83C71.69 179.91 71.6033 179.847 71.57 179.72C71.53 179.44 71.3733 179.21 71.1 179.03C70.8267 178.843 70.4833 178.75 70.07 178.75C69.6167 178.75 69.26 178.837 69 179.01C68.74 179.183 68.61 179.44 68.61 179.78C68.61 180.007 68.67 180.193 68.79 180.34C68.9167 180.487 69.1067 180.617 69.36 180.73C69.6133 180.837 69.9833 180.96 70.47 181.1C71.0367 181.253 71.4833 181.413 71.81 181.58C72.1367 181.74 72.38 181.943 72.54 182.19C72.7 182.43 72.78 182.737 72.78 183.11C72.78 183.73 72.54 184.217 72.06 184.57C71.58 184.923 70.9333 185.1 70.12 185.1ZM76.0407 185.1C75.354 185.1 74.804 184.89 74.3907 184.47C73.984 184.043 73.7607 183.463 73.7207 182.73L73.7107 182.39L73.7207 182.06C73.7674 181.34 73.994 180.767 74.4007 180.34C74.814 179.913 75.3574 179.7 76.0307 179.7C76.7707 179.7 77.344 179.937 77.7507 180.41C78.1574 180.877 78.3607 181.51 78.3607 182.31V182.48C78.3607 182.547 78.3374 182.603 78.2907 182.65C78.2507 182.69 78.1974 182.71 78.1307 182.71H74.6707V182.8C74.6907 183.233 74.8207 183.603 75.0607 183.91C75.3074 184.21 75.6307 184.36 76.0307 184.36C76.3374 184.36 76.5874 184.3 76.7807 184.18C76.9807 184.053 77.1274 183.923 77.2207 183.79C77.2807 183.71 77.324 183.663 77.3507 183.65C77.384 183.63 77.4407 183.62 77.5207 183.62H78.0107C78.0707 183.62 78.1207 183.637 78.1607 183.67C78.2007 183.703 78.2207 183.75 78.2207 183.81C78.2207 183.957 78.1274 184.133 77.9407 184.34C77.7607 184.547 77.504 184.727 77.1707 184.88C76.844 185.027 76.4674 185.1 76.0407 185.1ZM77.4107 182.02V181.99C77.4107 181.53 77.284 181.157 77.0307 180.87C76.784 180.577 76.4507 180.43 76.0307 180.43C75.6107 180.43 75.2774 180.577 75.0307 180.87C74.7907 181.157 74.6707 181.53 74.6707 181.99V182.02H77.4107ZM79.7864 185C79.7197 185 79.6631 184.98 79.6164 184.94C79.5764 184.893 79.5564 184.837 79.5564 184.77V180.03C79.5564 179.963 79.5764 179.91 79.6164 179.87C79.6631 179.823 79.7197 179.8 79.7864 179.8H80.2564C80.3231 179.8 80.3764 179.823 80.4164 179.87C80.4631 179.91 80.4864 179.963 80.4864 180.03V180.47C80.6797 180.223 80.9064 180.033 81.1664 179.9C81.4331 179.767 81.7631 179.7 82.1564 179.7C82.7964 179.7 83.2931 179.907 83.6464 180.32C84.0064 180.727 84.1864 181.27 84.1864 181.95V184.77C84.1864 184.837 84.1631 184.893 84.1164 184.94C84.0764 184.98 84.0231 185 83.9564 185H83.4564C83.3897 185 83.3331 184.98 83.2864 184.94C83.2464 184.893 83.2264 184.837 83.2264 184.77V182C83.2264 181.527 83.1097 181.16 82.8764 180.9C82.6497 180.64 82.3197 180.51 81.8864 180.51C81.4664 180.51 81.1331 180.643 80.8864 180.91C80.6397 181.17 80.5164 181.533 80.5164 182V184.77C80.5164 184.837 80.4931 184.893 80.4464 184.94C80.4064 184.98 80.3531 185 80.2864 185H79.7864ZM87.5209 185.1C86.8275 185.1 86.3042 184.873 85.9509 184.42C85.5975 183.967 85.4109 183.393 85.3909 182.7L85.3809 182.4L85.3909 182.1C85.4109 181.413 85.5975 180.843 85.9509 180.39C86.3042 179.93 86.8275 179.7 87.5209 179.7C88.2075 179.7 88.7475 179.943 89.1409 180.43V178.13C89.1409 178.063 89.1609 178.01 89.2009 177.97C89.2475 177.923 89.3042 177.9 89.3709 177.9H89.8509C89.9175 177.9 89.9709 177.923 90.0109 177.97C90.0575 178.01 90.0809 178.063 90.0809 178.13V184.77C90.0809 184.837 90.0575 184.893 90.0109 184.94C89.9709 184.98 89.9175 185 89.8509 185H89.4009C89.3342 185 89.2775 184.98 89.2309 184.94C89.1909 184.893 89.1709 184.837 89.1709 184.77V184.35C88.7842 184.85 88.2342 185.1 87.5209 185.1ZM87.7309 184.29C88.1909 184.29 88.5342 184.14 88.7609 183.84C88.9942 183.533 89.1209 183.17 89.1409 182.75C89.1475 182.677 89.1509 182.55 89.1509 182.37C89.1509 182.183 89.1475 182.053 89.1409 181.98C89.1275 181.587 89.0009 181.243 88.7609 180.95C88.5209 180.657 88.1775 180.51 87.7309 180.51C87.2575 180.51 86.9109 180.657 86.6909 180.95C86.4775 181.243 86.3609 181.63 86.3409 182.11L86.3309 182.4C86.3309 183.66 86.7975 184.29 87.7309 184.29ZM95.9193 185.1C95.226 185.1 94.7026 184.873 94.3493 184.42C93.996 183.967 93.8093 183.393 93.7893 182.7L93.7793 182.4L93.7893 182.1C93.8093 181.413 93.996 180.843 94.3493 180.39C94.7026 179.93 95.226 179.7 95.9193 179.7C96.606 179.7 97.146 179.943 97.5393 180.43V178.13C97.5393 178.063 97.5593 178.01 97.5993 177.97C97.646 177.923 97.7026 177.9 97.7693 177.9H98.2493C98.316 177.9 98.3693 177.923 98.4093 177.97C98.456 178.01 98.4793 178.063 98.4793 178.13V184.77C98.4793 184.837 98.456 184.893 98.4093 184.94C98.3693 184.98 98.316 185 98.2493 185H97.7993C97.7326 185 97.676 184.98 97.6293 184.94C97.5893 184.893 97.5693 184.837 97.5693 184.77V184.35C97.1826 184.85 96.6326 185.1 95.9193 185.1ZM96.1293 184.29C96.5893 184.29 96.9326 184.14 97.1593 183.84C97.3926 183.533 97.5193 183.17 97.5393 182.75C97.546 182.677 97.5493 182.55 97.5493 182.37C97.5493 182.183 97.546 182.053 97.5393 181.98C97.526 181.587 97.3993 181.243 97.1593 180.95C96.9193 180.657 96.576 180.51 96.1293 180.51C95.656 180.51 95.3093 180.657 95.0893 180.95C94.876 181.243 94.7593 181.63 94.7393 182.11L94.7293 182.4C94.7293 183.66 95.196 184.29 96.1293 184.29ZM100.197 185C100.13 185 100.073 184.98 100.027 184.94C99.9866 184.893 99.9666 184.837 99.9666 184.77V180.04C99.9666 179.973 99.9866 179.917 100.027 179.87C100.073 179.823 100.13 179.8 100.197 179.8H100.657C100.723 179.8 100.78 179.823 100.827 179.87C100.873 179.917 100.897 179.973 100.897 180.04V180.48C101.17 180.027 101.637 179.8 102.297 179.8H102.687C102.753 179.8 102.807 179.823 102.847 179.87C102.893 179.91 102.917 179.963 102.917 180.03V180.44C102.917 180.507 102.893 180.56 102.847 180.6C102.807 180.64 102.753 180.66 102.687 180.66H102.087C101.727 180.66 101.443 180.767 101.237 180.98C101.03 181.187 100.927 181.47 100.927 181.83V184.77C100.927 184.837 100.903 184.893 100.857 184.94C100.81 184.98 100.753 185 100.687 185H100.197ZM105.137 185.1C104.811 185.1 104.507 185.033 104.227 184.9C103.947 184.767 103.724 184.587 103.557 184.36C103.397 184.127 103.317 183.87 103.317 183.59C103.317 183.15 103.497 182.79 103.857 182.51C104.224 182.223 104.717 182.037 105.337 181.95L106.827 181.74V181.45C106.827 180.77 106.437 180.43 105.657 180.43C105.364 180.43 105.124 180.493 104.937 180.62C104.751 180.74 104.611 180.883 104.517 181.05C104.497 181.11 104.471 181.153 104.437 181.18C104.411 181.207 104.371 181.22 104.317 181.22H103.887C103.827 181.22 103.774 181.2 103.727 181.16C103.687 181.113 103.667 181.06 103.667 181C103.674 180.84 103.747 180.66 103.887 180.46C104.034 180.253 104.257 180.077 104.557 179.93C104.857 179.777 105.227 179.7 105.667 179.7C106.414 179.7 106.951 179.877 107.277 180.23C107.604 180.577 107.767 181.01 107.767 181.53V184.77C107.767 184.837 107.744 184.893 107.697 184.94C107.657 184.98 107.604 185 107.537 185H107.077C107.011 185 106.954 184.98 106.907 184.94C106.867 184.893 106.847 184.837 106.847 184.77V184.34C106.701 184.553 106.487 184.733 106.207 184.88C105.927 185.027 105.571 185.1 105.137 185.1ZM105.347 184.35C105.781 184.35 106.134 184.21 106.407 183.93C106.687 183.643 106.827 183.233 106.827 182.7V182.42L105.667 182.59C105.194 182.657 104.837 182.77 104.597 182.93C104.357 183.083 104.237 183.28 104.237 183.52C104.237 183.787 104.347 183.993 104.567 184.14C104.787 184.28 105.047 184.35 105.347 184.35ZM109.906 185C109.839 185 109.783 184.98 109.736 184.94C109.696 184.893 109.676 184.837 109.676 184.77V180.6H108.826C108.759 180.6 108.703 180.58 108.656 180.54C108.616 180.493 108.596 180.437 108.596 180.37V180.03C108.596 179.963 108.616 179.91 108.656 179.87C108.703 179.823 108.759 179.8 108.826 179.8H109.676V179.3C109.676 178.167 110.249 177.6 111.396 177.6H111.996C112.063 177.6 112.116 177.623 112.156 177.67C112.203 177.71 112.226 177.763 112.226 177.83V178.17C112.226 178.237 112.203 178.293 112.156 178.34C112.116 178.38 112.063 178.4 111.996 178.4H111.416C111.116 178.4 110.906 178.48 110.786 178.64C110.666 178.793 110.606 179.03 110.606 179.35V179.8H111.896C111.963 179.8 112.016 179.823 112.056 179.87C112.103 179.91 112.126 179.963 112.126 180.03V180.37C112.126 180.437 112.103 180.493 112.056 180.54C112.016 180.58 111.963 180.6 111.896 180.6H110.606V184.77C110.606 184.837 110.583 184.893 110.536 184.94C110.496 184.98 110.443 185 110.376 185H109.906ZM115.034 185C113.98 185 113.454 184.413 113.454 183.24V180.6H112.674C112.607 180.6 112.55 180.58 112.504 180.54C112.464 180.493 112.444 180.437 112.444 180.37V180.03C112.444 179.963 112.464 179.91 112.504 179.87C112.55 179.823 112.607 179.8 112.674 179.8H113.454V178.13C113.454 178.063 113.474 178.01 113.514 177.97C113.56 177.923 113.617 177.9 113.684 177.9H114.154C114.22 177.9 114.274 177.923 114.314 177.97C114.36 178.01 114.384 178.063 114.384 178.13V179.8H115.624C115.69 179.8 115.744 179.823 115.784 179.87C115.83 179.91 115.854 179.963 115.854 180.03V180.37C115.854 180.437 115.83 180.493 115.784 180.54C115.744 180.58 115.69 180.6 115.624 180.6H114.384V183.17C114.384 183.503 114.44 183.757 114.554 183.93C114.667 184.097 114.854 184.18 115.114 184.18H115.724C115.79 184.18 115.844 184.203 115.884 184.25C115.93 184.29 115.954 184.343 115.954 184.41V184.77C115.954 184.837 115.93 184.893 115.884 184.94C115.844 184.98 115.79 185 115.724 185H115.034ZM121.176 185C120.123 185 119.596 184.413 119.596 183.24V180.6H118.816C118.75 180.6 118.693 180.58 118.646 180.54C118.606 180.493 118.586 180.437 118.586 180.37V180.03C118.586 179.963 118.606 179.91 118.646 179.87C118.693 179.823 118.75 179.8 118.816 179.8H119.596V178.13C119.596 178.063 119.616 178.01 119.656 177.97C119.703 177.923 119.76 177.9 119.826 177.9H120.296C120.363 177.9 120.416 177.923 120.456 177.97C120.503 178.01 120.526 178.063 120.526 178.13V179.8H121.766C121.833 179.8 121.886 179.823 121.926 179.87C121.973 179.91 121.996 179.963 121.996 180.03V180.37C121.996 180.437 121.973 180.493 121.926 180.54C121.886 180.58 121.833 180.6 121.766 180.6H120.526V183.17C120.526 183.503 120.583 183.757 120.696 183.93C120.81 184.097 120.996 184.18 121.256 184.18H121.866C121.933 184.18 121.986 184.203 122.026 184.25C122.073 184.29 122.096 184.343 122.096 184.41V184.77C122.096 184.837 122.073 184.893 122.026 184.94C121.986 184.98 121.933 185 121.866 185H121.176ZM125.183 185.1C124.449 185.1 123.879 184.893 123.473 184.48C123.073 184.067 122.859 183.517 122.833 182.83L122.823 182.4L122.833 181.97C122.859 181.29 123.076 180.743 123.483 180.33C123.889 179.91 124.456 179.7 125.183 179.7C125.909 179.7 126.476 179.91 126.883 180.33C127.289 180.743 127.506 181.29 127.533 181.97C127.539 182.043 127.543 182.187 127.543 182.4C127.543 182.613 127.539 182.757 127.533 182.83C127.506 183.517 127.289 184.067 126.883 184.48C126.483 184.893 125.916 185.1 125.183 185.1ZM125.183 184.33C125.603 184.33 125.933 184.197 126.173 183.93C126.419 183.663 126.553 183.28 126.573 182.78C126.579 182.713 126.583 182.587 126.583 182.4C126.583 182.213 126.579 182.087 126.573 182.02C126.553 181.52 126.419 181.137 126.173 180.87C125.933 180.603 125.603 180.47 125.183 180.47C124.763 180.47 124.429 180.603 124.183 180.87C123.936 181.137 123.806 181.52 123.793 182.02L123.782 182.4L123.793 182.78C123.806 183.28 123.936 183.663 124.183 183.93C124.429 184.197 124.763 184.33 125.183 184.33ZM133.456 185.1C132.729 185.1 132.126 184.92 131.646 184.56C131.166 184.2 130.913 183.673 130.886 182.98C130.886 182.92 130.906 182.87 130.946 182.83C130.986 182.783 131.039 182.76 131.106 182.76H131.646C131.786 182.76 131.873 182.837 131.906 182.99C131.946 183.417 132.109 183.733 132.396 183.94C132.683 184.147 133.043 184.25 133.476 184.25C133.976 184.25 134.359 184.087 134.626 183.76C134.899 183.427 135.036 182.98 135.036 182.42V178.87H131.486C131.419 178.87 131.363 178.85 131.316 178.81C131.276 178.763 131.256 178.707 131.256 178.64V178.23C131.256 178.163 131.276 178.11 131.316 178.07C131.363 178.023 131.419 178 131.486 178H135.796C135.869 178 135.926 178.023 135.966 178.07C136.013 178.11 136.036 178.167 136.036 178.24V182.44C136.036 183.253 135.806 183.9 135.346 184.38C134.893 184.86 134.263 185.1 133.456 185.1ZM138.995 185.1C138.668 185.1 138.365 185.033 138.085 184.9C137.805 184.767 137.581 184.587 137.415 184.36C137.255 184.127 137.175 183.87 137.175 183.59C137.175 183.15 137.355 182.79 137.715 182.51C138.081 182.223 138.575 182.037 139.195 181.95L140.685 181.74V181.45C140.685 180.77 140.295 180.43 139.515 180.43C139.221 180.43 138.981 180.493 138.795 180.62C138.608 180.74 138.468 180.883 138.375 181.05C138.355 181.11 138.328 181.153 138.295 181.18C138.268 181.207 138.228 181.22 138.175 181.22H137.745C137.685 181.22 137.631 181.2 137.585 181.16C137.545 181.113 137.525 181.06 137.525 181C137.531 180.84 137.605 180.66 137.745 180.46C137.891 180.253 138.115 180.077 138.415 179.93C138.715 179.777 139.085 179.7 139.525 179.7C140.271 179.7 140.808 179.877 141.135 180.23C141.461 180.577 141.625 181.01 141.625 181.53V184.77C141.625 184.837 141.601 184.893 141.555 184.94C141.515 184.98 141.461 185 141.395 185H140.935C140.868 185 140.811 184.98 140.765 184.94C140.725 184.893 140.705 184.837 140.705 184.77V184.34C140.558 184.553 140.345 184.733 140.065 184.88C139.785 185.027 139.428 185.1 138.995 185.1ZM139.205 184.35C139.638 184.35 139.991 184.21 140.265 183.93C140.545 183.643 140.685 183.233 140.685 182.7V182.42L139.525 182.59C139.051 182.657 138.695 182.77 138.455 182.93C138.215 183.083 138.095 183.28 138.095 183.52C138.095 183.787 138.205 183.993 138.425 184.14C138.645 184.28 138.905 184.35 139.205 184.35ZM144.862 185.1C144.396 185.1 144.002 185.027 143.682 184.88C143.369 184.727 143.132 184.553 142.972 184.36C142.819 184.167 142.742 184.007 142.742 183.88C142.742 183.813 142.766 183.763 142.812 183.73C142.866 183.69 142.919 183.67 142.972 183.67H143.422C143.489 183.67 143.549 183.703 143.602 183.77C143.762 183.957 143.936 184.103 144.122 184.21C144.309 184.317 144.559 184.37 144.872 184.37C145.219 184.37 145.499 184.303 145.712 184.17C145.932 184.03 146.042 183.84 146.042 183.6C146.042 183.44 145.996 183.31 145.902 183.21C145.816 183.103 145.662 183.013 145.442 182.94C145.229 182.86 144.909 182.773 144.482 182.68C143.902 182.553 143.489 182.37 143.242 182.13C143.002 181.89 142.882 181.58 142.882 181.2C142.882 180.947 142.956 180.707 143.102 180.48C143.256 180.247 143.476 180.06 143.762 179.92C144.056 179.773 144.406 179.7 144.812 179.7C145.239 179.7 145.602 179.77 145.902 179.91C146.202 180.05 146.426 180.217 146.572 180.41C146.726 180.597 146.802 180.753 146.802 180.88C146.802 180.94 146.779 180.99 146.732 181.03C146.692 181.07 146.642 181.09 146.582 181.09H146.162C146.082 181.09 146.016 181.057 145.962 180.99C145.856 180.863 145.762 180.767 145.682 180.7C145.609 180.627 145.499 180.563 145.352 180.51C145.212 180.457 145.032 180.43 144.812 180.43C144.492 180.43 144.246 180.5 144.072 180.64C143.899 180.773 143.812 180.95 143.812 181.17C143.812 181.31 143.849 181.43 143.922 181.53C143.996 181.623 144.136 181.71 144.342 181.79C144.556 181.87 144.862 181.953 145.262 182.04C145.896 182.173 146.342 182.367 146.602 182.62C146.869 182.867 147.002 183.183 147.002 183.57C147.002 183.857 146.919 184.117 146.752 184.35C146.586 184.583 146.339 184.767 146.012 184.9C145.692 185.033 145.309 185.1 144.862 185.1ZM150.29 185.1C149.557 185.1 148.987 184.893 148.58 184.48C148.18 184.067 147.967 183.517 147.94 182.83L147.93 182.4L147.94 181.97C147.967 181.29 148.183 180.743 148.59 180.33C148.997 179.91 149.563 179.7 150.29 179.7C151.017 179.7 151.583 179.91 151.99 180.33C152.397 180.743 152.613 181.29 152.64 181.97C152.647 182.043 152.65 182.187 152.65 182.4C152.65 182.613 152.647 182.757 152.64 182.83C152.613 183.517 152.397 184.067 151.99 184.48C151.59 184.893 151.023 185.1 150.29 185.1ZM150.29 184.33C150.71 184.33 151.04 184.197 151.28 183.93C151.527 183.663 151.66 183.28 151.68 182.78C151.687 182.713 151.69 182.587 151.69 182.4C151.69 182.213 151.687 182.087 151.68 182.02C151.66 181.52 151.527 181.137 151.28 180.87C151.04 180.603 150.71 180.47 150.29 180.47C149.87 180.47 149.537 180.603 149.29 180.87C149.043 181.137 148.913 181.52 148.9 182.02L148.89 182.4L148.9 182.78C148.913 183.28 149.043 183.663 149.29 183.93C149.537 184.197 149.87 184.33 150.29 184.33ZM154.132 185C154.065 185 154.009 184.98 153.962 184.94C153.922 184.893 153.902 184.837 153.902 184.77V180.03C153.902 179.963 153.922 179.91 153.962 179.87C154.009 179.823 154.065 179.8 154.132 179.8H154.602C154.669 179.8 154.722 179.823 154.762 179.87C154.809 179.91 154.832 179.963 154.832 180.03V180.47C155.025 180.223 155.252 180.033 155.512 179.9C155.779 179.767 156.109 179.7 156.502 179.7C157.142 179.7 157.639 179.907 157.992 180.32C158.352 180.727 158.532 181.27 158.532 181.95V184.77C158.532 184.837 158.509 184.893 158.462 184.94C158.422 184.98 158.369 185 158.302 185H157.802C157.735 185 157.679 184.98 157.632 184.94C157.592 184.893 157.572 184.837 157.572 184.77V182C157.572 181.527 157.455 181.16 157.222 180.9C156.995 180.64 156.665 180.51 156.232 180.51C155.812 180.51 155.479 180.643 155.232 180.91C154.985 181.17 154.862 181.533 154.862 182V184.77C154.862 184.837 154.839 184.893 154.792 184.94C154.752 184.98 154.699 185 154.632 185H154.132ZM164.988 185.1C164.268 185.1 163.721 184.85 163.348 184.35V184.77C163.348 184.837 163.324 184.893 163.278 184.94C163.238 184.98 163.184 185 163.118 185H162.658C162.591 185 162.534 184.98 162.488 184.94C162.448 184.893 162.428 184.837 162.428 184.77V178.13C162.428 178.063 162.448 178.01 162.488 177.97C162.534 177.923 162.591 177.9 162.658 177.9H163.148C163.214 177.9 163.268 177.923 163.308 177.97C163.348 178.01 163.368 178.063 163.368 178.13V180.43C163.761 179.943 164.301 179.7 164.988 179.7C165.681 179.7 166.204 179.93 166.558 180.39C166.911 180.843 167.101 181.413 167.128 182.1C167.134 182.173 167.138 182.273 167.138 182.4C167.138 182.527 167.134 182.627 167.128 182.7C167.101 183.393 166.911 183.967 166.558 184.42C166.204 184.873 165.681 185.1 164.988 185.1ZM164.778 184.29C165.251 184.29 165.594 184.143 165.808 183.85C166.028 183.557 166.148 183.17 166.168 182.69C166.174 182.623 166.178 182.527 166.178 182.4C166.178 181.14 165.711 180.51 164.778 180.51C164.331 180.51 163.988 180.657 163.748 180.95C163.508 181.243 163.381 181.587 163.368 181.98L163.358 182.37L163.368 182.75C163.388 183.17 163.511 183.533 163.738 183.84C163.971 184.14 164.318 184.29 164.778 184.29ZM169.08 186.9C169.026 186.9 168.98 186.88 168.94 186.84C168.9 186.8 168.88 186.753 168.88 186.7C168.88 186.653 168.896 186.593 168.93 186.52L169.7 184.69L167.79 180.18C167.756 180.093 167.74 180.037 167.74 180.01C167.74 179.95 167.76 179.9 167.8 179.86C167.84 179.82 167.89 179.8 167.95 179.8H168.44C168.546 179.8 168.626 179.857 168.68 179.97L170.2 183.61L171.76 179.97C171.813 179.857 171.896 179.8 172.01 179.8H172.48C172.54 179.8 172.59 179.82 172.63 179.86C172.67 179.9 172.69 179.947 172.69 180C172.69 180.02 172.673 180.08 172.64 180.18L169.8 186.73C169.746 186.843 169.663 186.9 169.55 186.9H169.08ZM177.065 185C177.005 185 176.955 184.98 176.915 184.94C176.881 184.893 176.865 184.84 176.865 184.78C176.865 184.733 176.878 184.69 176.905 184.65L178.435 182.52C178.275 182.56 178.095 182.58 177.895 182.58C177.421 182.573 177.001 182.463 176.635 182.25C176.275 182.037 175.998 181.753 175.805 181.4C175.611 181.047 175.515 180.67 175.515 180.27C175.515 179.87 175.608 179.49 175.795 179.13C175.988 178.763 176.275 178.467 176.655 178.24C177.035 178.013 177.495 177.9 178.035 177.9C178.575 177.9 179.035 178.01 179.415 178.23C179.801 178.45 180.091 178.74 180.285 179.1C180.478 179.46 180.575 179.843 180.575 180.25C180.575 180.61 180.511 180.93 180.385 181.21C180.258 181.483 180.081 181.783 179.855 182.11L177.925 184.8C177.878 184.86 177.831 184.91 177.785 184.95C177.745 184.983 177.685 185 177.605 185H177.065ZM178.035 181.77C178.315 181.77 178.571 181.71 178.805 181.59C179.045 181.463 179.235 181.287 179.375 181.06C179.515 180.827 179.585 180.56 179.585 180.26C179.585 179.96 179.515 179.697 179.375 179.47C179.235 179.237 179.045 179.06 178.805 178.94C178.571 178.813 178.315 178.75 178.035 178.75C177.755 178.75 177.498 178.813 177.265 178.94C177.031 179.06 176.845 179.237 176.705 179.47C176.571 179.697 176.505 179.96 176.505 180.26C176.505 180.56 176.571 180.827 176.705 181.06C176.845 181.287 177.031 181.463 177.265 181.59C177.498 181.71 177.755 181.77 178.035 181.77ZM183.833 185C182.779 185 182.253 184.413 182.253 183.24V180.6H181.473C181.406 180.6 181.349 180.58 181.303 180.54C181.263 180.493 181.243 180.437 181.243 180.37V180.03C181.243 179.963 181.263 179.91 181.303 179.87C181.349 179.823 181.406 179.8 181.473 179.8H182.253V178.13C182.253 178.063 182.273 178.01 182.312 177.97C182.359 177.923 182.416 177.9 182.483 177.9H182.953C183.019 177.9 183.073 177.923 183.113 177.97C183.159 178.01 183.183 178.063 183.183 178.13V179.8H184.423C184.489 179.8 184.543 179.823 184.583 179.87C184.629 179.91 184.653 179.963 184.653 180.03V180.37C184.653 180.437 184.629 180.493 184.583 180.54C184.543 180.58 184.489 180.6 184.423 180.6H183.183V183.17C183.183 183.503 183.239 183.757 183.353 183.93C183.466 184.097 183.653 184.18 183.913 184.18H184.523C184.589 184.18 184.643 184.203 184.683 184.25C184.729 184.29 184.753 184.343 184.753 184.41V184.77C184.753 184.837 184.729 184.893 184.683 184.94C184.643 184.98 184.589 185 184.523 185H183.833ZM185.949 185C185.882 185 185.825 184.98 185.779 184.94C185.739 184.893 185.719 184.837 185.719 184.77V178.13C185.719 178.063 185.739 178.01 185.779 177.97C185.825 177.923 185.882 177.9 185.949 177.9H186.449C186.515 177.9 186.569 177.923 186.609 177.97C186.655 178.01 186.679 178.063 186.679 178.13V180.46C186.872 180.213 187.099 180.027 187.359 179.9C187.619 179.767 187.942 179.7 188.329 179.7C188.969 179.7 189.465 179.907 189.819 180.32C190.179 180.727 190.359 181.27 190.359 181.95V184.77C190.359 184.837 190.335 184.893 190.289 184.94C190.249 184.98 190.195 185 190.129 185H189.629C189.562 185 189.505 184.98 189.459 184.94C189.419 184.893 189.399 184.837 189.399 184.77V182C189.399 181.527 189.282 181.16 189.049 180.9C188.822 180.64 188.492 180.51 188.059 180.51C187.639 180.51 187.302 180.643 187.049 180.91C186.802 181.17 186.679 181.533 186.679 182V184.77C186.679 184.837 186.655 184.893 186.609 184.94C186.569 184.98 186.515 185 186.449 185H185.949Z" fill="#BBBBBB"/>
<line x1="27" y1="201.5" x2="308" y2="201.5" stroke="#F3F3F3"/>
<g filter="url(#filter1_d)">
<path d="M4 31C4 14.9837 16.9837 2 33 2H301C317.016 2 330 14.9837 330 31V73H33C16.9837 73 4 60.0163 4 44V31Z" fill="#6CD4F9" fill-opacity="0.84"/>
</g>
<path d="M33.08 50C32.8933 50 32.7347 49.944 32.604 49.832C32.492 49.7013 32.436 49.5427 32.436 49.356V31.072C32.436 30.8667 32.492 30.708 32.604 30.596C32.7347 30.4653 32.8933 30.4 33.08 30.4H34.508C34.7133 30.4 34.872 30.4653 34.984 30.596C35.1147 30.708 35.18 30.8667 35.18 31.072V38.8H44.812V31.072C44.812 30.8667 44.868 30.708 44.98 30.596C45.1107 30.4653 45.2693 30.4 45.456 30.4H46.884C47.0893 30.4 47.248 30.4653 47.36 30.596C47.4907 30.708 47.556 30.8667 47.556 31.072V49.356C47.556 49.5427 47.4907 49.7013 47.36 49.832C47.2293 49.944 47.0707 50 46.884 50H45.456C45.2693 50 45.1107 49.944 44.98 49.832C44.868 49.7013 44.812 49.5427 44.812 49.356V41.32H35.18V49.356C35.18 49.5427 35.1147 49.7013 34.984 49.832C34.8533 49.944 34.6947 50 34.508 50H33.08ZM58.0243 50.28C55.9709 50.28 54.3749 49.7013 53.2363 48.544C52.1163 47.3867 51.5189 45.8467 51.4443 43.924L51.4163 42.72L51.4443 41.516C51.5189 39.612 52.1256 38.0813 53.2643 36.924C54.4029 35.748 55.9896 35.16 58.0243 35.16C60.0589 35.16 61.6456 35.748 62.7843 36.924C63.9229 38.0813 64.5296 39.612 64.6043 41.516C64.6229 41.7213 64.6323 42.1227 64.6323 42.72C64.6323 43.3173 64.6229 43.7187 64.6043 43.924C64.5296 45.8467 63.9229 47.3867 62.7843 48.544C61.6643 49.7013 60.0776 50.28 58.0243 50.28ZM58.0243 48.124C59.2003 48.124 60.1243 47.7507 60.7963 47.004C61.4869 46.2573 61.8603 45.184 61.9163 43.784C61.9349 43.5973 61.9443 43.2427 61.9443 42.72C61.9443 42.1973 61.9349 41.8427 61.9163 41.656C61.8603 40.256 61.4869 39.1827 60.7963 38.436C60.1243 37.6893 59.2003 37.316 58.0243 37.316C56.8483 37.316 55.9149 37.6893 55.2243 38.436C54.5336 39.1827 54.1696 40.256 54.1323 41.656L54.1043 42.72L54.1323 43.784C54.1696 45.184 54.5336 46.2573 55.2243 47.004C55.9149 47.7507 56.8483 48.124 58.0243 48.124ZM68.7824 50C68.5957 50 68.4371 49.944 68.3064 49.832C68.1944 49.7013 68.1384 49.5427 68.1384 49.356V36.084C68.1384 35.8973 68.1944 35.748 68.3064 35.636C68.4371 35.5053 68.5957 35.44 68.7824 35.44H70.0424C70.2291 35.44 70.3784 35.5053 70.4904 35.636C70.6211 35.748 70.6864 35.8973 70.6864 36.084V37.064C71.6571 35.7947 73.0104 35.16 74.7464 35.16C76.8184 35.16 78.2837 36.0187 79.1424 37.736C79.5904 36.952 80.2251 36.3267 81.0464 35.86C81.8677 35.3933 82.7917 35.16 83.8184 35.16C85.3491 35.16 86.5997 35.6827 87.5704 36.728C88.5411 37.7733 89.0264 39.2853 89.0264 41.264V49.356C89.0264 49.5427 88.9611 49.7013 88.8304 49.832C88.7184 49.944 88.5691 50 88.3824 50H87.0664C86.8797 50 86.7211 49.944 86.5904 49.832C86.4784 49.7013 86.4224 49.5427 86.4224 49.356V41.516C86.4224 40.06 86.1144 39.0147 85.4984 38.38C84.9011 37.7453 84.1077 37.428 83.1184 37.428C82.2411 37.428 81.4851 37.7547 80.8504 38.408C80.2157 39.0427 79.8984 40.0787 79.8984 41.516V49.356C79.8984 49.5427 79.8331 49.7013 79.7024 49.832C79.5904 49.944 79.4411 50 79.2544 50H77.9384C77.7517 50 77.5931 49.944 77.4624 49.832C77.3504 49.7013 77.2944 49.5427 77.2944 49.356V41.516C77.2944 40.06 76.9771 39.0147 76.3424 38.38C75.7264 37.7453 74.9424 37.428 73.9904 37.428C73.1131 37.428 72.3571 37.7547 71.7224 38.408C71.0877 39.0427 70.7704 40.0693 70.7704 41.488V49.356C70.7704 49.5427 70.7051 49.7013 70.5744 49.832C70.4624 49.944 70.3131 50 70.1264 50H68.7824ZM98.8452 50.28C96.9226 50.28 95.3826 49.692 94.2252 48.516C93.0866 47.3213 92.4612 45.6973 92.3492 43.644L92.3212 42.692L92.3492 41.768C92.4799 39.752 93.1146 38.1467 94.2532 36.952C95.4106 35.7573 96.9319 35.16 98.8172 35.16C100.889 35.16 102.495 35.8227 103.633 37.148C104.772 38.4547 105.341 40.228 105.341 42.468V42.944C105.341 43.1307 105.276 43.2893 105.145 43.42C105.033 43.532 104.884 43.588 104.697 43.588H95.0092V43.84C95.0652 45.0533 95.4292 46.0893 96.1012 46.948C96.7919 47.788 97.6972 48.208 98.8172 48.208C99.6759 48.208 100.376 48.04 100.917 47.704C101.477 47.3493 101.888 46.9853 102.149 46.612C102.317 46.388 102.439 46.2573 102.513 46.22C102.607 46.164 102.765 46.136 102.989 46.136H104.361C104.529 46.136 104.669 46.1827 104.781 46.276C104.893 46.3693 104.949 46.5 104.949 46.668C104.949 47.0787 104.688 47.5733 104.165 48.152C103.661 48.7307 102.943 49.2347 102.009 49.664C101.095 50.0747 100.04 50.28 98.8452 50.28ZM102.681 41.656V41.572C102.681 40.284 102.327 39.2387 101.617 38.436C100.927 37.6147 99.9932 37.204 98.8172 37.204C97.6412 37.204 96.7079 37.6147 96.0172 38.436C95.3452 39.2387 95.0092 40.284 95.0092 41.572V41.656H102.681ZM112.17 50C111.928 50 111.741 49.944 111.61 49.832C111.48 49.72 111.368 49.5427 111.274 49.3L107.298 36.308L107.242 36.028C107.242 35.86 107.298 35.72 107.41 35.608C107.541 35.496 107.681 35.44 107.83 35.44H109.062C109.249 35.44 109.398 35.496 109.51 35.608C109.641 35.7013 109.725 35.804 109.762 35.916L112.87 46.472L116.202 36.028C116.24 35.8787 116.324 35.748 116.454 35.636C116.585 35.5053 116.762 35.44 116.986 35.44H117.938C118.162 35.44 118.34 35.5053 118.47 35.636C118.601 35.748 118.685 35.8787 118.722 36.028L122.054 46.472L125.162 35.916C125.181 35.8227 125.246 35.72 125.358 35.608C125.489 35.496 125.648 35.44 125.834 35.44H127.094C127.244 35.44 127.374 35.496 127.486 35.608C127.598 35.72 127.654 35.86 127.654 36.028L127.598 36.308L123.65 49.3C123.557 49.5427 123.445 49.72 123.314 49.832C123.184 49.944 122.988 50 122.726 50H121.634C121.13 50 120.822 49.7667 120.71 49.3L117.462 39.276L114.214 49.3C114.065 49.7667 113.748 50 113.262 50H112.17ZM136.337 50.28C134.283 50.28 132.687 49.7013 131.549 48.544C130.429 47.3867 129.831 45.8467 129.757 43.924L129.729 42.72L129.757 41.516C129.831 39.612 130.438 38.0813 131.577 36.924C132.715 35.748 134.302 35.16 136.337 35.16C138.371 35.16 139.958 35.748 141.097 36.924C142.235 38.0813 142.842 39.612 142.917 41.516C142.935 41.7213 142.945 42.1227 142.945 42.72C142.945 43.3173 142.935 43.7187 142.917 43.924C142.842 45.8467 142.235 47.3867 141.097 48.544C139.977 49.7013 138.39 50.28 136.337 50.28ZM136.337 48.124C137.513 48.124 138.437 47.7507 139.109 47.004C139.799 46.2573 140.173 45.184 140.229 43.784C140.247 43.5973 140.257 43.2427 140.257 42.72C140.257 42.1973 140.247 41.8427 140.229 41.656C140.173 40.256 139.799 39.1827 139.109 38.436C138.437 37.6893 137.513 37.316 136.337 37.316C135.161 37.316 134.227 37.6893 133.537 38.436C132.846 39.1827 132.482 40.256 132.445 41.656L132.417 42.72L132.445 43.784C132.482 45.184 132.846 46.2573 133.537 47.004C134.227 47.7507 135.161 48.124 136.337 48.124ZM147.095 50C146.908 50 146.75 49.944 146.619 49.832C146.507 49.7013 146.451 49.5427 146.451 49.356V36.112C146.451 35.9253 146.507 35.7667 146.619 35.636C146.75 35.5053 146.908 35.44 147.095 35.44H148.383C148.57 35.44 148.728 35.5053 148.859 35.636C148.99 35.7667 149.055 35.9253 149.055 36.112V37.344C149.82 36.0747 151.127 35.44 152.975 35.44H154.067C154.254 35.44 154.403 35.5053 154.515 35.636C154.646 35.748 154.711 35.8973 154.711 36.084V37.232C154.711 37.4187 154.646 37.568 154.515 37.68C154.403 37.792 154.254 37.848 154.067 37.848H152.387C151.379 37.848 150.586 38.1467 150.007 38.744C149.428 39.3227 149.139 40.116 149.139 41.124V49.356C149.139 49.5427 149.074 49.7013 148.943 49.832C148.812 49.944 148.654 50 148.467 50H147.095ZM157.76 50C157.573 50 157.414 49.944 157.284 49.832C157.172 49.7013 157.116 49.5427 157.116 49.356V30.764C157.116 30.5773 157.172 30.428 157.284 30.316C157.414 30.1853 157.573 30.12 157.76 30.12H159.076C159.262 30.12 159.412 30.1853 159.524 30.316C159.654 30.428 159.72 30.5773 159.72 30.764V40.508L165.236 35.916C165.292 35.8787 165.385 35.804 165.516 35.692C165.646 35.5987 165.768 35.5333 165.88 35.496C166.01 35.4587 166.169 35.44 166.356 35.44H167.84C168.008 35.44 168.148 35.496 168.26 35.608C168.372 35.72 168.428 35.86 168.428 36.028C168.428 36.2333 168.316 36.4107 168.092 36.56L161.624 41.936L168.792 48.908C169.016 49.0947 169.128 49.2627 169.128 49.412C169.128 49.58 169.072 49.72 168.96 49.832C168.848 49.944 168.708 50 168.54 50H167.084C166.804 50 166.598 49.972 166.468 49.916C166.356 49.86 166.188 49.7293 165.964 49.524L159.72 43.56V49.356C159.72 49.5427 159.654 49.7013 159.524 49.832C159.412 49.944 159.262 50 159.076 50H157.76Z" fill="white"/>
<defs>
<filter id="filter0_d" x="4" y="1" width="336" height="436" filterUnits="userSpaceOnUse" color-interpolation-filters="sRGB">
<feFlood flood-opacity="0" result="BackgroundImageFix"/>
<feColorMatrix in="SourceAlpha" type="matrix" values="0 0 0 0 0 0 0 0 0 0 0 0 0 0 0 0 0 0 127 0"/>
<feOffset dx="5" dy="4"/>
<feGaussianBlur stdDeviation="2.5"/>
<feColorMatrix type="matrix" values="0 0 0 0 0.424811 0 0 0 0 0.831994 0 0 0 0 0.977868 0 0 0 0.09 0"/>
<feBlend mode="normal" in2="BackgroundImageFix" result="effect1_dropShadow"/>
<feBlend mode="normal" in="SourceGraphic" in2="effect1_dropShadow" result="shape"/>
</filter>
<filter id="filter1_d" x="0" y="0" width="334" height="79" filterUnits="userSpaceOnUse" color-interpolation-filters="sRGB">
<feFlood flood-opacity="0" result="BackgroundImageFix"/>
<feColorMatrix in="SourceAlpha" type="matrix" values="0 0 0 0 0 0 0 0 0 0 0 0 0 0 0 0 0 0 127 0"/>
<feOffset dy="2"/>
<feGaussianBlur stdDeviation="2"/>
<feColorMatrix type="matrix" values="0 0 0 0 0.424811 0 0 0 0 0.831994 0 0 0 0 0.977868 0 0 0 0.22 0"/>
<feBlend mode="normal" in2="BackgroundImageFix" result="effect1_dropShadow"/>
<feBlend mode="normal" in="SourceGraphic" in2="effect1_dropShadow" result="shape"/>
</filter>
</defs>
</svg>
